<svg xmlns="http://www.w3.org/2000/svg" xmlns:xlink="http://www.w3.org/1999/xlink" width="1920" zoomAndPan="magnify" viewBox="0 0 1440 809.999993" height="1080" preserveAspectRatio="xMidYMid meet" version="1.0"><defs><g/><clipPath id="3dea3f71e1"><path d="M 353.609375 517.839844 L 461.015625 517.839844 L 461.015625 770.671875 L 353.609375 770.671875 Z M 353.609375 517.839844 " clip-rule="nonzero"/></clipPath><clipPath id="a31f271f90"><path d="M 462.101562 391.421875 L 569.507812 391.421875 L 569.507812 770.671875 L 462.101562 770.671875 Z M 462.101562 391.421875 " clip-rule="nonzero"/></clipPath><clipPath id="b3fa90c4e3"><path d="M 570.59375 138.589844 L 678 138.589844 L 678 770.671875 L 570.59375 770.671875 Z M 570.59375 138.589844 " clip-rule="nonzero"/></clipPath><clipPath id="08493f10c3"><path d="M 679.085938 12.171875 L 786.492188 12.171875 L 786.492188 770.671875 L 679.085938 770.671875 Z M 679.085938 12.171875 " clip-rule="nonzero"/></clipPath><clipPath id="87b18a6eba"><path d="M 787.578125 265.003906 L 894.984375 265.003906 L 894.984375 770.671875 L 787.578125 770.671875 Z M 787.578125 265.003906 " clip-rule="nonzero"/></clipPath><clipPath id="d4fad59479"><path d="M 896.070312 391.421875 L 1003.476562 391.421875 L 1003.476562 770.671875 L 896.070312 770.671875 Z M 896.070312 391.421875 " clip-rule="nonzero"/></clipPath><clipPath id="2081987870"><path d="M 1004.5625 517.839844 L 1111.96875 517.839844 L 1111.96875 770.671875 L 1004.5625 770.671875 Z M 1004.5625 517.839844 " clip-rule="nonzero"/></clipPath></defs><g fill="#000000" fill-opacity="1"><g transform="translate(344.711705, 809.063595)"><g><path d="M 9.359375 0.296875 C 6.953125 0.296875 5.085938 -0.675781 3.765625 -2.625 C 2.441406 -4.582031 1.78125 -7.335938 1.78125 -10.890625 C 1.78125 -14.429688 2.445312 -17.179688 3.78125 -19.140625 C 5.125 -21.109375 6.984375 -22.09375 9.359375 -22.09375 C 11.742188 -22.09375 13.601562 -21.109375 14.9375 -19.140625 C 16.269531 -17.179688 16.9375 -14.429688 16.9375 -10.890625 C 16.9375 -7.335938 16.273438 -4.582031 14.953125 -2.625 C 13.628906 -0.675781 11.765625 0.296875 9.359375 0.296875 Z M 9.359375 -2.046875 C 10.953125 -2.046875 12.1875 -2.8125 13.0625 -4.34375 C 13.945312 -5.875 14.390625 -8.054688 14.390625 -10.890625 C 14.390625 -13.722656 13.945312 -15.914062 13.0625 -17.46875 C 12.175781 -19.019531 10.941406 -19.796875 9.359375 -19.796875 C 7.785156 -19.796875 6.554688 -19.019531 5.671875 -17.46875 C 4.785156 -15.914062 4.34375 -13.722656 4.34375 -10.890625 C 4.34375 -8.054688 4.78125 -5.875 5.65625 -4.34375 C 6.539062 -2.8125 7.773438 -2.046875 9.359375 -2.046875 Z M 9.359375 -2.046875 "/></g></g></g><g fill="#000000" fill-opacity="1"><g transform="translate(452.424644, 809.063595)"><g><path d="M 2.25 0 L 2.25 -1.921875 L 9.453125 -9.796875 C 10.296875 -10.710938 10.988281 -11.515625 11.53125 -12.203125 C 12.082031 -12.890625 12.488281 -13.535156 12.75 -14.140625 C 13.019531 -14.742188 13.15625 -15.378906 13.15625 -16.046875 C 13.15625 -17.191406 12.753906 -18.101562 11.953125 -18.78125 C 11.160156 -19.457031 10.171875 -19.796875 8.984375 -19.796875 C 7.722656 -19.796875 6.71875 -19.414062 5.96875 -18.65625 C 5.226562 -17.90625 4.859375 -16.910156 4.859375 -15.671875 L 2.34375 -15.671875 C 2.34375 -16.941406 2.632812 -18.054688 3.21875 -19.015625 C 3.8125 -19.984375 4.613281 -20.738281 5.625 -21.28125 C 6.644531 -21.820312 7.789062 -22.09375 9.0625 -22.09375 C 10.34375 -22.09375 11.472656 -21.820312 12.453125 -21.28125 C 13.441406 -20.738281 14.21875 -20.007812 14.78125 -19.09375 C 15.34375 -18.1875 15.625 -17.171875 15.625 -16.046875 C 15.625 -15.242188 15.476562 -14.460938 15.1875 -13.703125 C 14.90625 -12.941406 14.410156 -12.09375 13.703125 -11.15625 C 12.992188 -10.226562 12.015625 -9.09375 10.765625 -7.75 L 5.875 -2.515625 L 5.875 -2.34375 L 16 -2.34375 L 16 0 Z M 2.25 0 "/></g></g></g><g fill="#000000" fill-opacity="1"><g transform="translate(561.176465, 809.063595)"><g><path d="M 1.75 -4.46875 L 1.75 -6.640625 L 11.328125 -21.796875 L 14.515625 -21.796875 L 14.515625 -6.8125 L 17.5 -6.8125 L 17.5 -4.46875 L 14.515625 -4.46875 L 14.515625 0 L 12 0 L 12 -4.46875 Z M 12 -6.8125 L 12 -18.4375 L 11.828125 -18.4375 L 4.59375 -6.984375 L 4.59375 -6.8125 Z M 12 -6.8125 "/></g></g></g><g fill="#000000" fill-opacity="1"><g transform="translate(668.860082, 809.063595)"><g><path d="M 9.5 0.296875 C 8.601562 0.285156 7.707031 0.117188 6.8125 -0.203125 C 5.914062 -0.535156 5.097656 -1.085938 4.359375 -1.859375 C 3.617188 -2.640625 3.023438 -3.695312 2.578125 -5.03125 C 2.140625 -6.363281 1.921875 -8.035156 1.921875 -10.046875 C 1.921875 -13.921875 2.625 -16.90625 4.03125 -19 C 5.445312 -21.09375 7.378906 -22.140625 9.828125 -22.140625 C 11.660156 -22.140625 13.179688 -21.601562 14.390625 -20.53125 C 15.597656 -19.457031 16.335938 -18.0625 16.609375 -16.34375 L 14 -16.34375 C 13.757812 -17.34375 13.289062 -18.164062 12.59375 -18.8125 C 11.90625 -19.46875 10.984375 -19.796875 9.828125 -19.796875 C 8.140625 -19.796875 6.8125 -19.054688 5.84375 -17.578125 C 4.875 -16.109375 4.390625 -14.035156 4.390625 -11.359375 L 4.5625 -11.359375 C 5.15625 -12.265625 5.914062 -12.972656 6.84375 -13.484375 C 7.769531 -14.003906 8.796875 -14.265625 9.921875 -14.265625 C 11.171875 -14.265625 12.3125 -13.953125 13.34375 -13.328125 C 14.382812 -12.703125 15.210938 -11.84375 15.828125 -10.75 C 16.453125 -9.664062 16.765625 -8.425781 16.765625 -7.03125 C 16.765625 -5.675781 16.460938 -4.441406 15.859375 -3.328125 C 15.265625 -2.210938 14.421875 -1.328125 13.328125 -0.671875 C 12.242188 -0.015625 10.96875 0.304688 9.5 0.296875 Z M 9.5 -2.046875 C 10.382812 -2.046875 11.179688 -2.269531 11.890625 -2.71875 C 12.609375 -3.164062 13.175781 -3.765625 13.59375 -4.515625 C 14.007812 -5.265625 14.21875 -6.101562 14.21875 -7.03125 C 14.21875 -7.925781 14.015625 -8.742188 13.609375 -9.484375 C 13.210938 -10.222656 12.664062 -10.8125 11.96875 -11.25 C 11.269531 -11.695312 10.472656 -11.921875 9.578125 -11.921875 C 8.671875 -11.921875 7.859375 -11.6875 7.140625 -11.21875 C 6.421875 -10.757812 5.847656 -10.15625 5.421875 -9.40625 C 4.992188 -8.664062 4.773438 -7.859375 4.765625 -6.984375 C 4.765625 -6.117188 4.96875 -5.304688 5.375 -4.546875 C 5.78125 -3.796875 6.335938 -3.191406 7.046875 -2.734375 C 7.765625 -2.273438 8.582031 -2.046875 9.5 -2.046875 Z M 9.5 -2.046875 "/></g></g></g><g fill="#000000" fill-opacity="1"><g transform="translate(777.802129, 809.063595)"><g><path d="M 9.234375 0.296875 C 7.773438 0.296875 6.484375 0.0351562 5.359375 -0.484375 C 4.242188 -1.003906 3.375 -1.722656 2.75 -2.640625 C 2.125 -3.554688 1.816406 -4.609375 1.828125 -5.796875 C 1.816406 -6.710938 1.992188 -7.5625 2.359375 -8.34375 C 2.734375 -9.132812 3.242188 -9.789062 3.890625 -10.3125 C 4.535156 -10.84375 5.253906 -11.179688 6.046875 -11.328125 L 6.046875 -11.453125 C 5.003906 -11.722656 4.171875 -12.304688 3.546875 -13.203125 C 2.929688 -14.109375 2.628906 -15.140625 2.640625 -16.296875 C 2.628906 -17.410156 2.90625 -18.398438 3.46875 -19.265625 C 4.039062 -20.140625 4.828125 -20.828125 5.828125 -21.328125 C 6.828125 -21.835938 7.960938 -22.09375 9.234375 -22.09375 C 10.492188 -22.09375 11.617188 -21.835938 12.609375 -21.328125 C 13.609375 -20.828125 14.394531 -20.140625 14.96875 -19.265625 C 15.539062 -18.398438 15.828125 -17.410156 15.828125 -16.296875 C 15.828125 -15.140625 15.515625 -14.109375 14.890625 -13.203125 C 14.273438 -12.304688 13.457031 -11.722656 12.4375 -11.453125 L 12.4375 -11.328125 C 13.21875 -11.179688 13.921875 -10.84375 14.546875 -10.3125 C 15.179688 -9.789062 15.6875 -9.132812 16.0625 -8.34375 C 16.445312 -7.5625 16.640625 -6.710938 16.640625 -5.796875 C 16.640625 -4.609375 16.320312 -3.554688 15.6875 -2.640625 C 15.0625 -1.722656 14.191406 -1.003906 13.078125 -0.484375 C 11.972656 0.0351562 10.691406 0.296875 9.234375 0.296875 Z M 9.234375 -2.046875 C 10.710938 -2.046875 11.878906 -2.394531 12.734375 -3.09375 C 13.597656 -3.800781 14.035156 -4.742188 14.046875 -5.921875 C 14.035156 -6.742188 13.820312 -7.46875 13.40625 -8.09375 C 12.988281 -8.726562 12.421875 -9.222656 11.703125 -9.578125 C 10.984375 -9.941406 10.160156 -10.125 9.234375 -10.125 C 8.304688 -10.125 7.476562 -9.941406 6.75 -9.578125 C 6.019531 -9.222656 5.445312 -8.726562 5.03125 -8.09375 C 4.625 -7.46875 4.421875 -6.742188 4.421875 -5.921875 C 4.421875 -4.742188 4.847656 -3.800781 5.703125 -3.09375 C 6.554688 -2.394531 7.734375 -2.046875 9.234375 -2.046875 Z M 9.234375 -12.390625 C 10.410156 -12.390625 11.375 -12.726562 12.125 -13.40625 C 12.882812 -14.09375 13.269531 -15.003906 13.28125 -16.140625 C 13.269531 -17.242188 12.894531 -18.128906 12.15625 -18.796875 C 11.414062 -19.460938 10.441406 -19.796875 9.234375 -19.796875 C 8.015625 -19.796875 7.035156 -19.460938 6.296875 -18.796875 C 5.554688 -18.128906 5.1875 -17.242188 5.1875 -16.140625 C 5.1875 -15.003906 5.5625 -14.09375 6.3125 -13.40625 C 7.070312 -12.726562 8.046875 -12.390625 9.234375 -12.390625 Z M 9.234375 -12.390625 "/></g></g></g><g fill="#000000" fill-opacity="1"><g transform="translate(879.413665, 809.063595)"><g><path d="M 9.234375 -21.796875 L 9.234375 0 L 6.59375 0 L 6.59375 -17.96875 L 6.421875 -17.96875 C 6.328125 -17.769531 6.070312 -17.539062 5.65625 -17.28125 C 5.25 -17.03125 4.71875 -16.8125 4.0625 -16.625 C 3.414062 -16.4375 2.671875 -16.34375 1.828125 -16.34375 L 1.828125 -18.5625 C 2.671875 -18.5625 3.398438 -18.710938 4.015625 -19.015625 C 4.640625 -19.316406 5.15625 -19.671875 5.5625 -20.078125 C 5.976562 -20.492188 6.296875 -20.867188 6.515625 -21.203125 C 6.734375 -21.535156 6.859375 -21.734375 6.890625 -21.796875 Z M 9.234375 -21.796875 "/></g></g></g><g fill="#000000" fill-opacity="1"><g transform="translate(892.651316, 809.063595)"><g><path d="M 9.359375 0.296875 C 6.953125 0.296875 5.085938 -0.675781 3.765625 -2.625 C 2.441406 -4.582031 1.78125 -7.335938 1.78125 -10.890625 C 1.78125 -14.429688 2.445312 -17.179688 3.78125 -19.140625 C 5.125 -21.109375 6.984375 -22.09375 9.359375 -22.09375 C 11.742188 -22.09375 13.601562 -21.109375 14.9375 -19.140625 C 16.269531 -17.179688 16.9375 -14.429688 16.9375 -10.890625 C 16.9375 -7.335938 16.273438 -4.582031 14.953125 -2.625 C 13.628906 -0.675781 11.765625 0.296875 9.359375 0.296875 Z M 9.359375 -2.046875 C 10.953125 -2.046875 12.1875 -2.8125 13.0625 -4.34375 C 13.945312 -5.875 14.390625 -8.054688 14.390625 -10.890625 C 14.390625 -13.722656 13.945312 -15.914062 13.0625 -17.46875 C 12.175781 -19.019531 10.941406 -19.796875 9.359375 -19.796875 C 7.785156 -19.796875 6.554688 -19.019531 5.671875 -17.46875 C 4.785156 -15.914062 4.34375 -13.722656 4.34375 -10.890625 C 4.34375 -8.054688 4.78125 -5.875 5.65625 -4.34375 C 6.539062 -2.8125 7.773438 -2.046875 9.359375 -2.046875 Z M 9.359375 -2.046875 "/></g></g></g><g fill="#000000" fill-opacity="1"><g transform="translate(988.062953, 809.063595)"><g><path d="M 9.234375 -21.796875 L 9.234375 0 L 6.59375 0 L 6.59375 -17.96875 L 6.421875 -17.96875 C 6.328125 -17.769531 6.070312 -17.539062 5.65625 -17.28125 C 5.25 -17.03125 4.71875 -16.8125 4.0625 -16.625 C 3.414062 -16.4375 2.671875 -16.34375 1.828125 -16.34375 L 1.828125 -18.5625 C 2.671875 -18.5625 3.398438 -18.710938 4.015625 -19.015625 C 4.640625 -19.316406 5.15625 -19.671875 5.5625 -20.078125 C 5.976562 -20.492188 6.296875 -20.867188 6.515625 -21.203125 C 6.734375 -21.535156 6.859375 -21.734375 6.890625 -21.796875 Z M 9.234375 -21.796875 "/></g></g></g><g fill="#000000" fill-opacity="1"><g transform="translate(1001.300605, 809.063595)"><g><path d="M 2.25 0 L 2.25 -1.921875 L 9.453125 -9.796875 C 10.296875 -10.710938 10.988281 -11.515625 11.53125 -12.203125 C 12.082031 -12.890625 12.488281 -13.535156 12.75 -14.140625 C 13.019531 -14.742188 13.15625 -15.378906 13.15625 -16.046875 C 13.15625 -17.191406 12.753906 -18.101562 11.953125 -18.78125 C 11.160156 -19.457031 10.171875 -19.796875 8.984375 -19.796875 C 7.722656 -19.796875 6.71875 -19.414062 5.96875 -18.65625 C 5.226562 -17.90625 4.859375 -16.910156 4.859375 -15.671875 L 2.34375 -15.671875 C 2.34375 -16.941406 2.632812 -18.054688 3.21875 -19.015625 C 3.8125 -19.984375 4.613281 -20.738281 5.625 -21.28125 C 6.644531 -21.820312 7.789062 -22.09375 9.0625 -22.09375 C 10.34375 -22.09375 11.472656 -21.820312 12.453125 -21.28125 C 13.441406 -20.738281 14.21875 -20.007812 14.78125 -19.09375 C 15.34375 -18.1875 15.625 -17.171875 15.625 -16.046875 C 15.625 -15.242188 15.476562 -14.460938 15.1875 -13.703125 C 14.90625 -12.941406 14.410156 -12.09375 13.703125 -11.15625 C 12.992188 -10.226562 12.015625 -9.09375 10.765625 -7.75 L 5.875 -2.515625 L 5.875 -2.34375 L 16 -2.34375 L 16 0 Z M 2.25 0 "/></g></g></g><g fill="#000000" fill-opacity="1"><g transform="translate(1096.331951, 809.063595)"><g><path d="M 9.234375 -21.796875 L 9.234375 0 L 6.59375 0 L 6.59375 -17.96875 L 6.421875 -17.96875 C 6.328125 -17.769531 6.070312 -17.539062 5.65625 -17.28125 C 5.25 -17.03125 4.71875 -16.8125 4.0625 -16.625 C 3.414062 -16.4375 2.671875 -16.34375 1.828125 -16.34375 L 1.828125 -18.5625 C 2.671875 -18.5625 3.398438 -18.710938 4.015625 -19.015625 C 4.640625 -19.316406 5.15625 -19.671875 5.5625 -20.078125 C 5.976562 -20.492188 6.296875 -20.867188 6.515625 -21.203125 C 6.734375 -21.535156 6.859375 -21.734375 6.890625 -21.796875 Z M 9.234375 -21.796875 "/></g></g></g><g fill="#000000" fill-opacity="1"><g transform="translate(1109.569602, 809.063595)"><g><path d="M 1.75 -4.46875 L 1.75 -6.640625 L 11.328125 -21.796875 L 14.515625 -21.796875 L 14.515625 -6.8125 L 17.5 -6.8125 L 17.5 -4.46875 L 14.515625 -4.46875 L 14.515625 0 L 12 0 L 12 -4.46875 Z M 12 -6.8125 L 12 -18.4375 L 11.828125 -18.4375 L 4.59375 -6.984375 L 4.59375 -6.8125 Z M 12 -6.8125 "/></g></g></g><g fill="#000000" fill-opacity="1"><g transform="translate(312.405252, 781.907501)"><g><path d="M 9.359375 0.296875 C 6.953125 0.296875 5.085938 -0.675781 3.765625 -2.625 C 2.441406 -4.582031 1.78125 -7.335938 1.78125 -10.890625 C 1.78125 -14.429688 2.445312 -17.179688 3.78125 -19.140625 C 5.125 -21.109375 6.984375 -22.09375 9.359375 -22.09375 C 11.742188 -22.09375 13.601562 -21.109375 14.9375 -19.140625 C 16.269531 -17.179688 16.9375 -14.429688 16.9375 -10.890625 C 16.9375 -7.335938 16.273438 -4.582031 14.953125 -2.625 C 13.628906 -0.675781 11.765625 0.296875 9.359375 0.296875 Z M 9.359375 -2.046875 C 10.953125 -2.046875 12.1875 -2.8125 13.0625 -4.34375 C 13.945312 -5.875 14.390625 -8.054688 14.390625 -10.890625 C 14.390625 -13.722656 13.945312 -15.914062 13.0625 -17.46875 C 12.175781 -19.019531 10.941406 -19.796875 9.359375 -19.796875 C 7.785156 -19.796875 6.554688 -19.019531 5.671875 -17.46875 C 4.785156 -15.914062 4.34375 -13.722656 4.34375 -10.890625 C 4.34375 -8.054688 4.78125 -5.875 5.65625 -4.34375 C 6.539062 -2.8125 7.773438 -2.046875 9.359375 -2.046875 Z M 9.359375 -2.046875 "/></g></g></g><g fill="#000000" fill-opacity="1"><g transform="translate(320.77447, 655.491323)"><g><path d="M 9.234375 -21.796875 L 9.234375 0 L 6.59375 0 L 6.59375 -17.96875 L 6.421875 -17.96875 C 6.328125 -17.769531 6.070312 -17.539062 5.65625 -17.28125 C 5.25 -17.03125 4.71875 -16.8125 4.0625 -16.625 C 3.414062 -16.4375 2.671875 -16.34375 1.828125 -16.34375 L 1.828125 -18.5625 C 2.671875 -18.5625 3.398438 -18.710938 4.015625 -19.015625 C 4.640625 -19.316406 5.15625 -19.671875 5.5625 -20.078125 C 5.976562 -20.492188 6.296875 -20.867188 6.515625 -21.203125 C 6.734375 -21.535156 6.859375 -21.734375 6.890625 -21.796875 Z M 9.234375 -21.796875 "/></g></g></g><g fill="#000000" fill-opacity="1"><g transform="translate(312.697882, 529.075121)"><g><path d="M 2.25 0 L 2.25 -1.921875 L 9.453125 -9.796875 C 10.296875 -10.710938 10.988281 -11.515625 11.53125 -12.203125 C 12.082031 -12.890625 12.488281 -13.535156 12.75 -14.140625 C 13.019531 -14.742188 13.15625 -15.378906 13.15625 -16.046875 C 13.15625 -17.191406 12.753906 -18.101562 11.953125 -18.78125 C 11.160156 -19.457031 10.171875 -19.796875 8.984375 -19.796875 C 7.722656 -19.796875 6.71875 -19.414062 5.96875 -18.65625 C 5.226562 -17.90625 4.859375 -16.910156 4.859375 -15.671875 L 2.34375 -15.671875 C 2.34375 -16.941406 2.632812 -18.054688 3.21875 -19.015625 C 3.8125 -19.984375 4.613281 -20.738281 5.625 -21.28125 C 6.644531 -21.820312 7.789062 -22.09375 9.0625 -22.09375 C 10.34375 -22.09375 11.472656 -21.820312 12.453125 -21.28125 C 13.441406 -20.738281 14.21875 -20.007812 14.78125 -19.09375 C 15.34375 -18.1875 15.625 -17.171875 15.625 -16.046875 C 15.625 -15.242188 15.476562 -14.460938 15.1875 -13.703125 C 14.90625 -12.941406 14.410156 -12.09375 13.703125 -11.15625 C 12.992188 -10.226562 12.015625 -9.09375 10.765625 -7.75 L 5.875 -2.515625 L 5.875 -2.34375 L 16 -2.34375 L 16 0 Z M 2.25 0 "/></g></g></g><g fill="#000000" fill-opacity="1"><g transform="translate(312.229674, 402.658944)"><g><path d="M 9.625 0.296875 C 8.21875 0.296875 6.960938 0.0546875 5.859375 -0.421875 C 4.765625 -0.910156 3.894531 -1.582031 3.25 -2.4375 C 2.613281 -3.300781 2.269531 -4.304688 2.21875 -5.453125 L 4.890625 -5.453125 C 4.972656 -4.398438 5.457031 -3.566406 6.34375 -2.953125 C 7.238281 -2.347656 8.316406 -2.046875 9.578125 -2.046875 C 10.972656 -2.046875 12.125 -2.398438 13.03125 -3.109375 C 13.9375 -3.828125 14.390625 -4.765625 14.390625 -5.921875 C 14.390625 -7.117188 13.941406 -8.097656 13.046875 -8.859375 C 12.160156 -9.617188 10.890625 -10 9.234375 -10 L 7.484375 -10 L 7.484375 -12.34375 L 9.234375 -12.34375 C 10.523438 -12.34375 11.578125 -12.6875 12.390625 -13.375 C 13.210938 -14.0625 13.625 -14.984375 13.625 -16.140625 C 13.625 -17.234375 13.265625 -18.113281 12.546875 -18.78125 C 11.828125 -19.457031 10.863281 -19.796875 9.65625 -19.796875 C 8.90625 -19.796875 8.195312 -19.65625 7.53125 -19.375 C 6.875 -19.101562 6.335938 -18.710938 5.921875 -18.203125 C 5.503906 -17.691406 5.273438 -17.070312 5.234375 -16.34375 L 2.6875 -16.34375 C 2.726562 -17.488281 3.070312 -18.488281 3.71875 -19.34375 C 4.363281 -20.207031 5.207031 -20.878906 6.25 -21.359375 C 7.300781 -21.847656 8.453125 -22.09375 9.703125 -22.09375 C 11.054688 -22.09375 12.210938 -21.820312 13.171875 -21.28125 C 14.140625 -20.738281 14.878906 -20.019531 15.390625 -19.125 C 15.910156 -18.238281 16.171875 -17.285156 16.171875 -16.265625 C 16.171875 -15.035156 15.847656 -13.988281 15.203125 -13.125 C 14.566406 -12.257812 13.695312 -11.660156 12.59375 -11.328125 L 12.59375 -11.15625 C 13.976562 -10.925781 15.054688 -10.34375 15.828125 -9.40625 C 16.597656 -8.46875 16.984375 -7.304688 16.984375 -5.921875 C 16.984375 -4.734375 16.660156 -3.664062 16.015625 -2.71875 C 15.378906 -1.78125 14.503906 -1.039062 13.390625 -0.5 C 12.285156 0.03125 11.03125 0.296875 9.625 0.296875 Z M 9.625 0.296875 "/></g></g></g><g fill="#000000" fill-opacity="1"><g transform="translate(312.156516, 276.24279)"><g><path d="M 1.75 -4.46875 L 1.75 -6.640625 L 11.328125 -21.796875 L 14.515625 -21.796875 L 14.515625 -6.8125 L 17.5 -6.8125 L 17.5 -4.46875 L 14.515625 -4.46875 L 14.515625 0 L 12 0 L 12 -4.46875 Z M 12 -6.8125 L 12 -18.4375 L 11.828125 -18.4375 L 4.59375 -6.984375 L 4.59375 -6.8125 Z M 12 -6.8125 "/></g></g></g><g fill="#000000" fill-opacity="1"><g transform="translate(312.653987, 149.826605)"><g><path d="M 9.0625 0.296875 C 7.8125 0.296875 6.6875 0.0507812 5.6875 -0.4375 C 4.6875 -0.9375 3.882812 -1.617188 3.28125 -2.484375 C 2.6875 -3.347656 2.359375 -4.335938 2.296875 -5.453125 L 4.859375 -5.453125 C 4.953125 -4.460938 5.394531 -3.644531 6.1875 -3 C 6.988281 -2.363281 7.945312 -2.046875 9.0625 -2.046875 C 9.957031 -2.046875 10.753906 -2.253906 11.453125 -2.671875 C 12.148438 -3.085938 12.695312 -3.660156 13.09375 -4.390625 C 13.5 -5.128906 13.703125 -5.960938 13.703125 -6.890625 C 13.703125 -7.847656 13.492188 -8.695312 13.078125 -9.4375 C 12.671875 -10.1875 12.101562 -10.773438 11.375 -11.203125 C 10.65625 -11.640625 9.828125 -11.863281 8.890625 -11.875 C 8.222656 -11.882812 7.539062 -11.785156 6.84375 -11.578125 C 6.144531 -11.367188 5.566406 -11.097656 5.109375 -10.765625 L 2.640625 -11.0625 L 3.953125 -21.796875 L 15.28125 -21.796875 L 15.28125 -19.453125 L 6.171875 -19.453125 L 5.40625 -13.03125 L 5.53125 -13.03125 C 5.976562 -13.382812 6.535156 -13.675781 7.203125 -13.90625 C 7.878906 -14.144531 8.585938 -14.265625 9.328125 -14.265625 C 10.660156 -14.265625 11.847656 -13.945312 12.890625 -13.3125 C 13.941406 -12.675781 14.765625 -11.804688 15.359375 -10.703125 C 15.960938 -9.609375 16.265625 -8.351562 16.265625 -6.9375 C 16.265625 -5.550781 15.953125 -4.3125 15.328125 -3.21875 C 14.710938 -2.125 13.859375 -1.265625 12.765625 -0.640625 C 11.679688 -0.015625 10.445312 0.296875 9.0625 0.296875 Z M 9.0625 0.296875 "/></g></g></g><g fill="#000000" fill-opacity="1"><g transform="translate(312.419883, 23.410425)"><g><path d="M 9.5 0.296875 C 8.601562 0.285156 7.707031 0.117188 6.8125 -0.203125 C 5.914062 -0.535156 5.097656 -1.085938 4.359375 -1.859375 C 3.617188 -2.640625 3.023438 -3.695312 2.578125 -5.03125 C 2.140625 -6.363281 1.921875 -8.035156 1.921875 -10.046875 C 1.921875 -13.921875 2.625 -16.90625 4.03125 -19 C 5.445312 -21.09375 7.378906 -22.140625 9.828125 -22.140625 C 11.660156 -22.140625 13.179688 -21.601562 14.390625 -20.53125 C 15.597656 -19.457031 16.335938 -18.0625 16.609375 -16.34375 L 14 -16.34375 C 13.757812 -17.34375 13.289062 -18.164062 12.59375 -18.8125 C 11.90625 -19.46875 10.984375 -19.796875 9.828125 -19.796875 C 8.140625 -19.796875 6.8125 -19.054688 5.84375 -17.578125 C 4.875 -16.109375 4.390625 -14.035156 4.390625 -11.359375 L 4.5625 -11.359375 C 5.15625 -12.265625 5.914062 -12.972656 6.84375 -13.484375 C 7.769531 -14.003906 8.796875 -14.265625 9.921875 -14.265625 C 11.171875 -14.265625 12.3125 -13.953125 13.34375 -13.328125 C 14.382812 -12.703125 15.210938 -11.84375 15.828125 -10.75 C 16.453125 -9.664062 16.765625 -8.425781 16.765625 -7.03125 C 16.765625 -5.675781 16.460938 -4.441406 15.859375 -3.328125 C 15.265625 -2.210938 14.421875 -1.328125 13.328125 -0.671875 C 12.242188 -0.015625 10.96875 0.304688 9.5 0.296875 Z M 9.5 -2.046875 C 10.382812 -2.046875 11.179688 -2.269531 11.890625 -2.71875 C 12.609375 -3.164062 13.175781 -3.765625 13.59375 -4.515625 C 14.007812 -5.265625 14.21875 -6.101562 14.21875 -7.03125 C 14.21875 -7.925781 14.015625 -8.742188 13.609375 -9.484375 C 13.210938 -10.222656 12.664062 -10.8125 11.96875 -11.25 C 11.269531 -11.695312 10.472656 -11.921875 9.578125 -11.921875 C 8.671875 -11.921875 7.859375 -11.6875 7.140625 -11.21875 C 6.421875 -10.757812 5.847656 -10.15625 5.421875 -9.40625 C 4.992188 -8.664062 4.773438 -7.859375 4.765625 -6.984375 C 4.765625 -6.117188 4.96875 -5.304688 5.375 -4.546875 C 5.78125 -3.796875 6.335938 -3.191406 7.046875 -2.734375 C 7.765625 -2.273438 8.582031 -2.046875 9.5 -2.046875 Z M 9.5 -2.046875 "/></g></g></g><path stroke-linecap="butt" transform="matrix(0.936416, 0, 0, 0.936416, 353.607675, 12.17343)" fill="none" stroke-linejoin="miter" d="M 0.00181561 810.001467 L 810.000772 810.001467 " stroke="#000000" stroke-width="1" stroke-opacity="0.6" stroke-miterlimit="4"/><path stroke-linecap="butt" transform="matrix(0.936416, 0, 0, 0.936416, 353.607675, 12.17343)" fill="none" stroke-linejoin="miter" d="M 0.00181561 674.999555 L 810.000772 674.999555 " stroke="#000000" stroke-width="1" stroke-opacity="0.251" stroke-miterlimit="4"/><path stroke-linecap="butt" transform="matrix(0.936416, 0, 0, 0.936416, 353.607675, 12.17343)" fill="none" stroke-linejoin="miter" d="M 0.00181561 540.001815 L 810.000772 540.001815 " stroke="#000000" stroke-width="1" stroke-opacity="0.251" stroke-miterlimit="4"/><path stroke-linecap="butt" transform="matrix(0.936416, 0, 0, 0.936416, 353.607675, 12.17343)" fill="none" stroke-linejoin="miter" d="M 0.00181561 404.999903 L 810.000772 404.999903 " stroke="#000000" stroke-width="1" stroke-opacity="0.251" stroke-miterlimit="4"/><path stroke-linecap="butt" transform="matrix(0.936416, 0, 0, 0.936416, 353.607675, 12.17343)" fill="none" stroke-linejoin="miter" d="M 0.00181561 269.997991 L 810.000772 269.997991 " stroke="#000000" stroke-width="1" stroke-opacity="0.251" stroke-miterlimit="4"/><path stroke-linecap="butt" transform="matrix(0.936416, 0, 0, 0.936416, 353.607675, 12.17343)" fill="none" stroke-linejoin="miter" d="M 0.00181561 135.000251 L 810.000772 135.000251 " stroke="#000000" stroke-width="1" stroke-opacity="0.251" stroke-miterlimit="4"/><path stroke-linecap="butt" transform="matrix(0.936416, 0, 0, 0.936416, 353.607675, 12.17343)" fill="none" stroke-linejoin="miter" d="M 0.00181561 -0.00166104 L 810.000772 -0.00166104 " stroke="#000000" stroke-width="1" stroke-opacity="0.251" stroke-miterlimit="4"/><g clip-path="url(#3dea3f71e1)"><path fill="#6ce5e8" d="M 362.199219 517.839844 L 452.421875 517.839844 C 452.988281 517.839844 453.546875 517.894531 454.097656 518.003906 C 454.652344 518.113281 455.191406 518.277344 455.710938 518.492188 C 456.230469 518.707031 456.726562 518.972656 457.195312 519.285156 C 457.664062 519.601562 458.097656 519.957031 458.5 520.355469 C 458.898438 520.753906 459.253906 521.1875 459.566406 521.65625 C 459.878906 522.125 460.144531 522.621094 460.359375 523.140625 C 460.578125 523.664062 460.738281 524.199219 460.851562 524.753906 C 460.960938 525.308594 461.015625 525.867188 461.015625 526.429688 L 461.015625 770.671875 C 461.015625 771.234375 460.960938 771.792969 460.851562 772.347656 C 460.738281 772.898438 460.578125 773.4375 460.359375 773.957031 C 460.144531 774.480469 459.878906 774.976562 459.566406 775.445312 C 459.253906 775.914062 458.898438 776.347656 458.5 776.746094 C 458.097656 777.144531 457.664062 777.5 457.195312 777.816406 C 456.726562 778.128906 456.230469 778.394531 455.710938 778.609375 C 455.191406 778.824219 454.652344 778.988281 454.097656 779.097656 C 453.546875 779.207031 452.988281 779.261719 452.421875 779.261719 L 362.199219 779.261719 C 361.636719 779.261719 361.078125 779.207031 360.523438 779.097656 C 359.96875 778.988281 359.433594 778.824219 358.910156 778.609375 C 358.390625 778.394531 357.894531 778.128906 357.425781 777.816406 C 356.957031 777.5 356.523438 777.144531 356.125 776.746094 C 355.726562 776.347656 355.371094 775.914062 355.054688 775.445312 C 354.742188 774.976562 354.476562 774.480469 354.261719 773.957031 C 354.046875 773.4375 353.882812 772.898438 353.773438 772.347656 C 353.664062 771.792969 353.609375 771.234375 353.609375 770.671875 L 353.609375 526.429688 C 353.609375 525.867188 353.664062 525.308594 353.773438 524.753906 C 353.882812 524.199219 354.046875 523.664062 354.261719 523.140625 C 354.476562 522.621094 354.742188 522.125 355.054688 521.65625 C 355.371094 521.1875 355.726562 520.753906 356.125 520.355469 C 356.523438 519.957031 356.957031 519.601562 357.425781 519.285156 C 357.894531 518.972656 358.390625 518.707031 358.910156 518.492188 C 359.433594 518.277344 359.96875 518.113281 360.523438 518.003906 C 361.078125 517.894531 361.636719 517.839844 362.199219 517.839844 Z M 362.199219 517.839844 " fill-opacity="1" fill-rule="nonzero"/></g><g clip-path="url(#a31f271f90)"><path fill="#6ce5e8" d="M 470.691406 391.421875 L 560.914062 391.421875 C 561.480469 391.421875 562.039062 391.476562 562.589844 391.585938 C 563.144531 391.695312 563.683594 391.859375 564.203125 392.074219 C 564.722656 392.292969 565.21875 392.554688 565.6875 392.871094 C 566.15625 393.183594 566.589844 393.539062 566.992188 393.9375 C 567.390625 394.335938 567.746094 394.773438 568.058594 395.242188 C 568.371094 395.710938 568.636719 396.203125 568.851562 396.726562 C 569.070312 397.246094 569.230469 397.785156 569.34375 398.339844 C 569.453125 398.890625 569.507812 399.449219 569.507812 400.015625 L 569.507812 770.671875 C 569.507812 771.234375 569.453125 771.792969 569.34375 772.347656 C 569.230469 772.898438 569.070312 773.4375 568.851562 773.957031 C 568.636719 774.480469 568.371094 774.976562 568.058594 775.445312 C 567.746094 775.914062 567.390625 776.347656 566.992188 776.746094 C 566.589844 777.144531 566.15625 777.5 565.6875 777.816406 C 565.21875 778.128906 564.722656 778.394531 564.203125 778.609375 C 563.683594 778.824219 563.144531 778.988281 562.589844 779.097656 C 562.039062 779.207031 561.480469 779.261719 560.914062 779.261719 L 470.691406 779.261719 C 470.128906 779.261719 469.570312 779.207031 469.015625 779.097656 C 468.464844 778.988281 467.925781 778.824219 467.40625 778.609375 C 466.882812 778.394531 466.386719 778.128906 465.917969 777.816406 C 465.449219 777.5 465.015625 777.144531 464.617188 776.746094 C 464.21875 776.347656 463.863281 775.914062 463.546875 775.445312 C 463.234375 774.976562 462.96875 774.480469 462.753906 773.957031 C 462.539062 773.4375 462.375 772.898438 462.265625 772.347656 C 462.15625 771.792969 462.101562 771.234375 462.101562 770.671875 L 462.101562 400.015625 C 462.101562 399.449219 462.15625 398.890625 462.265625 398.339844 C 462.375 397.785156 462.539062 397.246094 462.753906 396.726562 C 462.96875 396.203125 463.234375 395.710938 463.546875 395.242188 C 463.863281 394.773438 464.21875 394.335938 464.617188 393.9375 C 465.015625 393.539062 465.449219 393.183594 465.917969 392.871094 C 466.386719 392.554688 466.882812 392.292969 467.40625 392.074219 C 467.925781 391.859375 468.464844 391.695312 469.015625 391.585938 C 469.570312 391.476562 470.128906 391.421875 470.691406 391.421875 Z M 470.691406 391.421875 " fill-opacity="1" fill-rule="nonzero"/></g><g clip-path="url(#b3fa90c4e3)"><path fill="#6ce5e8" d="M 579.183594 138.589844 L 669.40625 138.589844 C 669.972656 138.589844 670.53125 138.644531 671.082031 138.753906 C 671.636719 138.863281 672.175781 139.027344 672.695312 139.242188 C 673.214844 139.460938 673.710938 139.722656 674.179688 140.039062 C 674.648438 140.351562 675.085938 140.707031 675.484375 141.105469 C 675.882812 141.503906 676.238281 141.9375 676.550781 142.410156 C 676.863281 142.878906 677.128906 143.371094 677.34375 143.894531 C 677.5625 144.414062 677.722656 144.953125 677.835938 145.503906 C 677.945312 146.058594 678 146.617188 678 147.183594 L 678 770.671875 C 678 771.234375 677.945312 771.792969 677.835938 772.347656 C 677.722656 772.898438 677.5625 773.4375 677.34375 773.957031 C 677.128906 774.480469 676.863281 774.976562 676.550781 775.445312 C 676.238281 775.914062 675.882812 776.347656 675.484375 776.746094 C 675.085938 777.144531 674.648438 777.5 674.179688 777.816406 C 673.710938 778.128906 673.214844 778.394531 672.695312 778.609375 C 672.175781 778.824219 671.636719 778.988281 671.082031 779.097656 C 670.53125 779.207031 669.972656 779.261719 669.40625 779.261719 L 579.183594 779.261719 C 578.621094 779.261719 578.0625 779.207031 577.507812 779.097656 C 576.957031 778.988281 576.417969 778.824219 575.898438 778.609375 C 575.375 778.394531 574.878906 778.128906 574.410156 777.816406 C 573.941406 777.5 573.507812 777.144531 573.109375 776.746094 C 572.710938 776.347656 572.355469 775.914062 572.039062 775.445312 C 571.726562 774.976562 571.460938 774.480469 571.246094 773.957031 C 571.03125 773.4375 570.867188 772.898438 570.757812 772.347656 C 570.648438 771.792969 570.59375 771.234375 570.59375 770.671875 L 570.59375 147.183594 C 570.59375 146.617188 570.648438 146.058594 570.757812 145.503906 C 570.867188 144.953125 571.03125 144.414062 571.246094 143.894531 C 571.460938 143.371094 571.726562 142.878906 572.039062 142.410156 C 572.355469 141.9375 572.710938 141.503906 573.109375 141.105469 C 573.507812 140.707031 573.941406 140.351562 574.410156 140.039062 C 574.878906 139.722656 575.375 139.460938 575.898438 139.242188 C 576.417969 139.027344 576.957031 138.863281 577.507812 138.753906 C 578.0625 138.644531 578.621094 138.589844 579.183594 138.589844 Z M 579.183594 138.589844 " fill-opacity="1" fill-rule="nonzero"/></g><g clip-path="url(#08493f10c3)"><path fill="#6ce5e8" d="M 687.675781 12.171875 L 777.898438 12.171875 C 778.464844 12.171875 779.023438 12.226562 779.574219 12.339844 C 780.128906 12.449219 780.667969 12.613281 781.1875 12.828125 C 781.707031 13.042969 782.203125 13.308594 782.671875 13.621094 C 783.140625 13.933594 783.578125 14.292969 783.976562 14.691406 C 784.375 15.089844 784.730469 15.523438 785.042969 15.992188 C 785.355469 16.460938 785.621094 16.957031 785.839844 17.476562 C 786.054688 18 786.21875 18.535156 786.328125 19.089844 C 786.4375 19.644531 786.492188 20.203125 786.492188 20.765625 L 786.492188 770.671875 C 786.492188 771.234375 786.4375 771.792969 786.328125 772.347656 C 786.21875 772.898438 786.054688 773.4375 785.839844 773.957031 C 785.621094 774.480469 785.355469 774.976562 785.042969 775.445312 C 784.730469 775.914062 784.375 776.347656 783.976562 776.746094 C 783.578125 777.144531 783.140625 777.5 782.671875 777.816406 C 782.203125 778.128906 781.707031 778.394531 781.1875 778.609375 C 780.667969 778.824219 780.128906 778.988281 779.574219 779.097656 C 779.023438 779.207031 778.464844 779.261719 777.898438 779.261719 L 687.675781 779.261719 C 687.113281 779.261719 686.554688 779.207031 686 779.097656 C 685.449219 778.988281 684.910156 778.824219 684.390625 778.609375 C 683.867188 778.394531 683.371094 778.128906 682.902344 777.816406 C 682.433594 777.5 682 777.144531 681.601562 776.746094 C 681.203125 776.347656 680.847656 775.914062 680.53125 775.445312 C 680.21875 774.976562 679.953125 774.480469 679.738281 773.957031 C 679.523438 773.4375 679.359375 772.898438 679.25 772.347656 C 679.140625 771.792969 679.085938 771.234375 679.085938 770.671875 L 679.085938 20.765625 C 679.085938 20.203125 679.140625 19.644531 679.25 19.089844 C 679.359375 18.535156 679.523438 18 679.738281 17.476562 C 679.953125 16.957031 680.21875 16.460938 680.53125 15.992188 C 680.847656 15.523438 681.203125 15.089844 681.601562 14.691406 C 682 14.292969 682.433594 13.933594 682.902344 13.621094 C 683.371094 13.308594 683.867188 13.042969 684.390625 12.828125 C 684.910156 12.613281 685.449219 12.449219 686 12.339844 C 686.554688 12.226562 687.113281 12.171875 687.675781 12.171875 Z M 687.675781 12.171875 " fill-opacity="1" fill-rule="nonzero"/></g><g clip-path="url(#87b18a6eba)"><path fill="#6ce5e8" d="M 796.167969 265.003906 L 886.390625 265.003906 C 886.957031 265.003906 887.515625 265.0625 888.066406 265.171875 C 888.621094 265.28125 889.160156 265.445312 889.679688 265.660156 C 890.203125 265.875 890.695312 266.140625 891.164062 266.453125 C 891.632812 266.765625 892.070312 267.125 892.46875 267.523438 C 892.867188 267.921875 893.222656 268.355469 893.535156 268.824219 C 893.851562 269.292969 894.113281 269.789062 894.332031 270.308594 C 894.546875 270.832031 894.710938 271.367188 894.820312 271.921875 C 894.929688 272.476562 894.984375 273.035156 894.984375 273.597656 L 894.984375 770.671875 C 894.984375 771.234375 894.929688 771.792969 894.820312 772.347656 C 894.710938 772.898438 894.546875 773.4375 894.332031 773.957031 C 894.113281 774.480469 893.851562 774.976562 893.535156 775.445312 C 893.222656 775.914062 892.867188 776.347656 892.46875 776.746094 C 892.070312 777.144531 891.632812 777.5 891.164062 777.816406 C 890.695312 778.128906 890.203125 778.394531 889.679688 778.609375 C 889.160156 778.824219 888.621094 778.988281 888.066406 779.097656 C 887.515625 779.207031 886.957031 779.261719 886.390625 779.261719 L 796.167969 779.261719 C 795.605469 779.261719 795.046875 779.207031 794.492188 779.097656 C 793.941406 778.988281 793.402344 778.824219 792.882812 778.609375 C 792.359375 778.394531 791.863281 778.128906 791.394531 777.816406 C 790.925781 777.5 790.492188 777.144531 790.09375 776.746094 C 789.695312 776.347656 789.339844 775.914062 789.023438 775.445312 C 788.710938 774.976562 788.445312 774.480469 788.230469 773.957031 C 788.015625 773.4375 787.851562 772.898438 787.742188 772.347656 C 787.632812 771.792969 787.578125 771.234375 787.578125 770.671875 L 787.578125 273.597656 C 787.578125 273.035156 787.632812 272.476562 787.742188 271.921875 C 787.851562 271.367188 788.015625 270.832031 788.230469 270.308594 C 788.445312 269.789062 788.710938 269.292969 789.023438 268.824219 C 789.339844 268.355469 789.695312 267.921875 790.09375 267.523438 C 790.492188 267.125 790.925781 266.765625 791.394531 266.453125 C 791.863281 266.140625 792.359375 265.875 792.882812 265.660156 C 793.402344 265.445312 793.941406 265.28125 794.492188 265.171875 C 795.046875 265.0625 795.605469 265.003906 796.167969 265.003906 Z M 796.167969 265.003906 " fill-opacity="1" fill-rule="nonzero"/></g><g clip-path="url(#d4fad59479)"><path fill="#6ce5e8" d="M 904.660156 391.421875 L 994.882812 391.421875 C 995.449219 391.421875 996.007812 391.476562 996.558594 391.585938 C 997.113281 391.695312 997.652344 391.859375 998.171875 392.074219 C 998.695312 392.292969 999.1875 392.554688 999.65625 392.871094 C 1000.128906 393.183594 1000.5625 393.539062 1000.960938 393.9375 C 1001.359375 394.335938 1001.714844 394.773438 1002.027344 395.242188 C 1002.34375 395.710938 1002.605469 396.203125 1002.824219 396.726562 C 1003.039062 397.246094 1003.203125 397.785156 1003.3125 398.339844 C 1003.421875 398.890625 1003.476562 399.449219 1003.476562 400.015625 L 1003.476562 770.671875 C 1003.476562 771.234375 1003.421875 771.792969 1003.3125 772.347656 C 1003.203125 772.898438 1003.039062 773.4375 1002.824219 773.957031 C 1002.605469 774.480469 1002.34375 774.976562 1002.027344 775.445312 C 1001.714844 775.914062 1001.359375 776.347656 1000.960938 776.746094 C 1000.5625 777.144531 1000.128906 777.5 999.65625 777.816406 C 999.1875 778.128906 998.695312 778.394531 998.171875 778.609375 C 997.652344 778.824219 997.113281 778.988281 996.558594 779.097656 C 996.007812 779.207031 995.449219 779.261719 994.882812 779.261719 L 904.660156 779.261719 C 904.097656 779.261719 903.539062 779.207031 902.984375 779.097656 C 902.433594 778.988281 901.894531 778.824219 901.375 778.609375 C 900.851562 778.394531 900.355469 778.128906 899.886719 777.816406 C 899.417969 777.5 898.984375 777.144531 898.585938 776.746094 C 898.1875 776.347656 897.832031 775.914062 897.515625 775.445312 C 897.203125 774.976562 896.9375 774.480469 896.722656 773.957031 C 896.507812 773.4375 896.34375 772.898438 896.234375 772.347656 C 896.125 771.792969 896.070312 771.234375 896.070312 770.671875 L 896.070312 400.015625 C 896.070312 399.449219 896.125 398.890625 896.234375 398.339844 C 896.34375 397.785156 896.507812 397.246094 896.722656 396.726562 C 896.9375 396.203125 897.203125 395.710938 897.515625 395.242188 C 897.832031 394.773438 898.1875 394.335938 898.585938 393.9375 C 898.984375 393.539062 899.417969 393.183594 899.886719 392.871094 C 900.355469 392.554688 900.851562 392.292969 901.375 392.074219 C 901.894531 391.859375 902.433594 391.695312 902.984375 391.585938 C 903.539062 391.476562 904.097656 391.421875 904.660156 391.421875 Z M 904.660156 391.421875 " fill-opacity="1" fill-rule="nonzero"/></g><g clip-path="url(#2081987870)"><path fill="#6ce5e8" d="M 1013.15625 517.839844 L 1103.375 517.839844 C 1103.941406 517.839844 1104.5 517.894531 1105.054688 518.003906 C 1105.605469 518.113281 1106.144531 518.277344 1106.664062 518.492188 C 1107.1875 518.707031 1107.679688 518.972656 1108.148438 519.285156 C 1108.621094 519.601562 1109.054688 519.957031 1109.453125 520.355469 C 1109.851562 520.753906 1110.207031 521.1875 1110.519531 521.65625 C 1110.835938 522.125 1111.097656 522.621094 1111.316406 523.140625 C 1111.53125 523.664062 1111.695312 524.199219 1111.804688 524.753906 C 1111.914062 525.308594 1111.96875 525.867188 1111.96875 526.429688 L 1111.96875 770.671875 C 1111.96875 771.234375 1111.914062 771.792969 1111.804688 772.347656 C 1111.695312 772.898438 1111.53125 773.4375 1111.316406 773.957031 C 1111.097656 774.480469 1110.835938 774.976562 1110.519531 775.445312 C 1110.207031 775.914062 1109.851562 776.347656 1109.453125 776.746094 C 1109.054688 777.144531 1108.621094 777.5 1108.148438 777.816406 C 1107.679688 778.128906 1107.1875 778.394531 1106.664062 778.609375 C 1106.144531 778.824219 1105.605469 778.988281 1105.054688 779.097656 C 1104.5 779.207031 1103.941406 779.261719 1103.375 779.261719 L 1013.15625 779.261719 C 1012.589844 779.261719 1012.03125 779.207031 1011.476562 779.097656 C 1010.925781 778.988281 1010.386719 778.824219 1009.867188 778.609375 C 1009.34375 778.394531 1008.847656 778.128906 1008.378906 777.816406 C 1007.910156 777.5 1007.476562 777.144531 1007.078125 776.746094 C 1006.679688 776.347656 1006.324219 775.914062 1006.007812 775.445312 C 1005.695312 774.976562 1005.429688 774.480469 1005.214844 773.957031 C 1005 773.4375 1004.835938 772.898438 1004.726562 772.347656 C 1004.617188 771.792969 1004.5625 771.234375 1004.5625 770.671875 L 1004.5625 526.429688 C 1004.5625 525.867188 1004.617188 525.308594 1004.726562 524.753906 C 1004.835938 524.199219 1005 523.664062 1005.214844 523.140625 C 1005.429688 522.621094 1005.695312 522.125 1006.007812 521.65625 C 1006.324219 521.1875 1006.679688 520.753906 1007.078125 520.355469 C 1007.476562 519.957031 1007.910156 519.601562 1008.378906 519.285156 C 1008.847656 518.972656 1009.34375 518.707031 1009.867188 518.492188 C 1010.386719 518.277344 1010.925781 518.113281 1011.476562 518.003906 C 1012.03125 517.894531 1012.589844 517.839844 1013.15625 517.839844 Z M 1013.15625 517.839844 " fill-opacity="1" fill-rule="nonzero"/></g></svg>