<svg xmlns="http://www.w3.org/2000/svg" xmlns:xlink="http://www.w3.org/1999/xlink" width="1920" zoomAndPan="magnify" viewBox="0 0 1440 809.999993" height="1080" preserveAspectRatio="xMidYMid meet" version="1.0"><defs><g/></defs><path fill="#6ce5e8" d="M 720.859375 12.96875 C 725.609375 12.96875 730.363281 13.0625 735.109375 13.25 C 739.859375 13.4375 744.605469 13.714844 749.34375 14.089844 C 754.082031 14.460938 758.808594 14.925781 763.53125 15.484375 C 768.25 16.042969 772.957031 16.695312 777.652344 17.4375 C 782.34375 18.183594 787.023438 19.019531 791.683594 19.945312 C 796.347656 20.871094 800.988281 21.890625 805.609375 23 C 810.230469 24.109375 814.828125 25.308594 819.402344 26.601562 C 823.976562 27.890625 828.523438 29.269531 833.046875 30.738281 C 837.566406 32.207031 842.054688 33.761719 846.515625 35.410156 C 850.972656 37.054688 855.398438 38.785156 859.789062 40.605469 C 864.179688 42.421875 868.535156 44.328125 872.851562 46.316406 C 877.167969 48.308594 881.441406 50.382812 885.675781 52.539062 C 889.914062 54.695312 894.101562 56.9375 898.25 59.257812 C 902.398438 61.582031 906.496094 63.984375 910.550781 66.46875 C 914.601562 68.949219 918.605469 71.511719 922.554688 74.152344 C 926.507812 76.792969 930.40625 79.511719 934.25 82.304688 C 938.097656 85.097656 941.886719 87.96875 945.617188 90.910156 C 949.351562 93.851562 953.023438 96.867188 956.636719 99.953125 C 960.253906 103.039062 963.804688 106.195312 967.292969 109.421875 C 970.785156 112.648438 974.210938 115.941406 977.570312 119.304688 C 980.933594 122.664062 984.226562 126.089844 987.453125 129.578125 C 990.679688 133.070312 993.835938 136.621094 996.921875 140.234375 C 1000.007812 143.851562 1003.023438 147.523438 1005.964844 151.257812 C 1008.90625 154.988281 1011.777344 158.777344 1014.570312 162.621094 C 1017.363281 166.46875 1020.078125 170.367188 1022.71875 174.316406 C 1025.359375 178.269531 1027.921875 182.273438 1030.40625 186.324219 C 1032.890625 190.378906 1035.292969 194.476562 1037.613281 198.625 C 1039.9375 202.769531 1042.175781 206.960938 1044.335938 211.195312 C 1046.492188 215.429688 1048.566406 219.707031 1050.554688 224.023438 C 1052.546875 228.339844 1054.449219 232.691406 1056.269531 237.085938 C 1058.089844 241.476562 1059.820312 245.902344 1061.464844 250.359375 C 1063.109375 254.820312 1064.667969 259.308594 1066.136719 263.828125 L 720.859375 376.015625 Z M 720.859375 12.96875 " fill-opacity="1" fill-rule="nonzero"/><path fill="#41b8d5" d="M 1066.136719 263.828125 C 1067.605469 268.347656 1068.984375 272.894531 1070.273438 277.472656 C 1071.566406 282.046875 1072.765625 286.644531 1073.875 291.265625 C 1074.984375 295.886719 1076 300.527344 1076.929688 305.191406 C 1077.855469 309.851562 1078.691406 314.527344 1079.433594 319.222656 C 1080.179688 323.917969 1080.828125 328.625 1081.386719 333.34375 C 1081.945312 338.066406 1082.414062 342.792969 1082.785156 347.53125 C 1083.160156 352.269531 1083.4375 357.015625 1083.625 361.761719 C 1083.8125 366.511719 1083.90625 371.261719 1083.90625 376.015625 C 1083.90625 380.769531 1083.8125 385.519531 1083.625 390.269531 C 1083.4375 395.019531 1083.160156 399.761719 1082.785156 404.5 C 1082.414062 409.238281 1081.945312 413.96875 1081.386719 418.6875 C 1080.828125 423.40625 1080.179688 428.113281 1079.433594 432.808594 C 1078.691406 437.503906 1077.855469 442.183594 1076.929688 446.84375 C 1076.003906 451.503906 1074.984375 456.148438 1073.875 460.769531 C 1072.765625 465.390625 1071.566406 469.988281 1070.273438 474.5625 C 1068.984375 479.136719 1067.605469 483.683594 1066.136719 488.203125 C 1064.667969 492.722656 1063.109375 497.214844 1061.464844 501.671875 C 1059.820312 506.132812 1058.089844 510.558594 1056.269531 514.949219 C 1054.449219 519.339844 1052.546875 523.695312 1050.558594 528.011719 C 1048.566406 532.324219 1046.492188 536.601562 1044.335938 540.835938 C 1042.175781 545.070312 1039.9375 549.261719 1037.613281 553.410156 C 1035.292969 557.554688 1032.890625 561.65625 1030.40625 565.707031 C 1027.921875 569.761719 1025.359375 573.761719 1022.71875 577.714844 C 1020.078125 581.667969 1017.363281 585.566406 1014.570312 589.410156 C 1011.777344 593.253906 1008.90625 597.042969 1005.964844 600.777344 C 1003.023438 604.507812 1000.007812 608.183594 996.921875 611.796875 C 993.835938 615.410156 990.679688 618.964844 987.453125 622.453125 C 984.226562 625.945312 980.933594 629.367188 977.570312 632.730469 C 974.210938 636.089844 970.785156 639.382812 967.292969 642.609375 C 963.804688 645.835938 960.253906 648.992188 956.636719 652.078125 C 953.023438 655.167969 949.351562 658.179688 945.617188 661.125 C 941.886719 664.066406 938.097656 666.933594 934.25 669.726562 L 720.859375 376.015625 Z M 1066.136719 263.828125 " fill-opacity="1" fill-rule="nonzero"/><path fill="#2d8bba" d="M 934.25 669.726562 C 930.40625 672.523438 926.507812 675.238281 922.554688 677.878906 C 918.605469 680.519531 914.601562 683.082031 910.550781 685.566406 C 906.496094 688.046875 902.398438 690.453125 898.25 692.773438 C 894.101562 695.097656 889.914062 697.335938 885.675781 699.492188 C 881.441406 701.652344 877.167969 703.726562 872.851562 705.714844 C 868.535156 707.707031 864.179688 709.609375 859.789062 711.429688 C 855.398438 713.246094 850.972656 714.980469 846.515625 716.625 C 842.054688 718.269531 837.566406 719.828125 833.046875 721.296875 C 828.523438 722.765625 823.976562 724.144531 819.402344 725.433594 C 814.828125 726.722656 810.230469 727.921875 805.609375 729.03125 C 800.988281 730.140625 796.347656 731.160156 791.683594 732.089844 C 787.023438 733.015625 782.34375 733.851562 777.652344 734.59375 C 772.957031 735.335938 768.25 735.988281 763.53125 736.546875 C 758.808594 737.105469 754.082031 737.570312 749.34375 737.945312 C 744.605469 738.316406 739.859375 738.597656 735.109375 738.785156 C 730.363281 738.96875 725.609375 739.0625 720.859375 739.0625 C 716.105469 739.0625 711.355469 738.96875 706.605469 738.785156 C 701.855469 738.597656 697.113281 738.316406 692.375 737.945312 C 687.636719 737.570312 682.90625 737.105469 678.1875 736.546875 C 673.464844 735.988281 668.757812 735.335938 664.066406 734.59375 C 659.371094 733.851562 654.691406 733.015625 650.03125 732.089844 C 645.367188 731.160156 640.726562 730.140625 636.105469 729.03125 C 631.484375 727.921875 626.886719 726.722656 622.3125 725.433594 C 617.738281 724.144531 613.191406 722.765625 608.667969 721.296875 C 604.148438 719.828125 599.660156 718.269531 595.199219 716.625 C 590.742188 714.980469 586.316406 713.246094 581.925781 711.429688 C 577.535156 709.609375 573.179688 707.707031 568.863281 705.714844 C 564.546875 703.726562 560.273438 701.652344 556.039062 699.492188 C 551.804688 697.335938 547.613281 695.097656 543.464844 692.773438 C 539.316406 690.453125 535.21875 688.046875 531.164062 685.566406 C 527.113281 683.082031 523.109375 680.519531 519.160156 677.878906 C 515.207031 675.238281 511.308594 672.523438 507.464844 669.726562 L 720.859375 376.015625 Z M 934.25 669.726562 " fill-opacity="1" fill-rule="nonzero"/><path fill="#2f5f98" d="M 507.464844 669.726562 C 503.617188 666.933594 499.828125 664.066406 496.097656 661.125 C 492.363281 658.179688 488.691406 655.167969 485.078125 652.078125 C 481.464844 648.992188 477.910156 645.835938 474.421875 642.609375 C 470.929688 639.382812 467.503906 636.089844 464.144531 632.730469 C 460.785156 629.367188 457.488281 625.945312 454.265625 622.453125 C 451.039062 618.964844 447.882812 615.410156 444.792969 611.796875 C 441.707031 608.183594 438.691406 604.507812 435.75 600.777344 C 432.808594 597.042969 429.941406 593.253906 427.144531 589.410156 C 424.351562 585.566406 421.636719 581.667969 418.996094 577.714844 C 416.355469 573.761719 413.792969 569.761719 411.308594 565.707031 C 408.824219 561.65625 406.421875 557.554688 404.101562 553.410156 C 401.777344 549.261719 399.539062 545.070312 397.378906 540.835938 C 395.222656 536.601562 393.148438 532.324219 391.160156 528.011719 C 389.167969 523.695312 387.265625 519.339844 385.445312 514.949219 C 383.625 510.558594 381.894531 506.132812 380.25 501.671875 C 378.605469 497.214844 377.046875 492.722656 375.578125 488.203125 C 374.109375 483.683594 372.730469 479.136719 371.441406 474.5625 C 370.152344 469.988281 368.949219 465.390625 367.839844 460.769531 C 366.730469 456.148438 365.714844 451.503906 364.785156 446.84375 C 363.859375 442.183594 363.023438 437.503906 362.28125 432.808594 C 361.535156 428.117188 360.886719 423.40625 360.328125 418.6875 C 359.769531 413.96875 359.300781 409.238281 358.929688 404.5 C 358.554688 399.761719 358.277344 395.019531 358.089844 390.269531 C 357.902344 385.519531 357.808594 380.769531 357.808594 376.015625 C 357.808594 371.261719 357.902344 366.511719 358.089844 361.761719 C 358.277344 357.015625 358.554688 352.269531 358.929688 347.53125 C 359.300781 342.792969 359.769531 338.066406 360.328125 333.34375 C 360.886719 328.625 361.535156 323.917969 362.28125 319.222656 C 363.023438 314.527344 363.859375 309.851562 364.785156 305.191406 C 365.714844 300.527344 366.730469 295.886719 367.839844 291.265625 C 368.949219 286.644531 370.152344 282.046875 371.441406 277.472656 C 372.730469 272.894531 374.109375 268.347656 375.578125 263.828125 L 720.859375 376.015625 Z M 507.464844 669.726562 " fill-opacity="1" fill-rule="nonzero"/><path fill="#31356e" d="M 375.578125 263.828125 C 377.046875 259.308594 378.605469 254.820312 380.25 250.359375 C 381.894531 245.902344 383.625 241.476562 385.445312 237.085938 C 387.261719 232.695312 389.167969 228.34375 391.15625 224.027344 C 393.148438 219.710938 395.21875 215.433594 397.378906 211.199219 C 399.535156 206.964844 401.777344 202.773438 404.097656 198.628906 C 406.417969 194.480469 408.820312 190.382812 411.304688 186.332031 C 413.789062 182.277344 416.351562 178.277344 418.992188 174.324219 C 421.628906 170.375 424.347656 166.476562 427.140625 162.628906 C 429.933594 158.785156 432.800781 154.996094 435.742188 151.265625 C 438.6875 147.53125 441.699219 143.859375 444.785156 140.246094 C 447.875 136.628906 451.03125 133.078125 454.253906 129.589844 C 457.480469 126.097656 460.773438 122.671875 464.132812 119.3125 C 467.496094 115.953125 470.921875 112.660156 474.410156 109.433594 C 477.898438 106.207031 481.453125 103.050781 485.066406 99.964844 C 488.679688 96.875 492.351562 93.863281 496.082031 90.917969 C 499.816406 87.976562 503.605469 85.109375 507.449219 82.316406 C 511.292969 79.523438 515.191406 76.804688 519.144531 74.164062 C 523.09375 71.523438 527.097656 68.960938 531.148438 66.476562 C 535.199219 63.996094 539.300781 61.59375 543.445312 59.269531 C 547.59375 56.945312 551.78125 54.707031 556.015625 52.550781 C 560.25 50.390625 564.527344 48.316406 568.84375 46.328125 C 573.160156 44.335938 577.511719 42.433594 581.902344 40.613281 C 586.292969 38.796875 590.71875 37.0625 595.175781 35.417969 C 599.636719 33.773438 604.125 32.214844 608.644531 30.746094 C 613.164062 29.277344 617.710938 27.898438 622.285156 26.605469 C 626.859375 25.316406 631.457031 24.117188 636.078125 23.007812 C 640.699219 21.898438 645.339844 20.878906 650 19.949219 C 654.660156 19.023438 659.339844 18.1875 664.03125 17.445312 C 668.726562 16.699219 673.433594 16.046875 678.152344 15.488281 C 682.871094 14.929688 687.601562 14.464844 692.339844 14.089844 C 697.078125 13.71875 701.820312 13.4375 706.570312 13.25 C 711.316406 13.0625 716.070312 12.96875 720.820312 12.96875 L 720.859375 376.015625 Z M 375.578125 263.828125 " fill-opacity="1" fill-rule="nonzero"/><g fill="#000000" fill-opacity="1"><g transform="translate(921.346063, 22.563575)"><g><path d="M 2.546875 0 C 2.191406 0 1.929688 -0.078125 1.765625 -0.234375 C 1.597656 -0.398438 1.515625 -0.664062 1.515625 -1.03125 L 1.515625 -4.453125 C 1.515625 -4.804688 1.597656 -5.066406 1.765625 -5.234375 C 1.929688 -5.398438 2.191406 -5.484375 2.546875 -5.484375 L 5.390625 -5.484375 L 5.390625 -15.125 L 2.546875 -15.125 C 2.191406 -15.125 1.929688 -15.203125 1.765625 -15.359375 C 1.597656 -15.523438 1.515625 -15.789062 1.515625 -16.15625 L 1.515625 -19.625 C 1.515625 -19.988281 1.597656 -20.25 1.765625 -20.40625 C 1.929688 -20.570312 2.191406 -20.65625 2.546875 -20.65625 L 14.78125 -20.65625 C 15.132812 -20.65625 15.394531 -20.570312 15.5625 -20.40625 C 15.726562 -20.25 15.8125 -19.988281 15.8125 -19.625 L 15.8125 -16.15625 C 15.8125 -15.789062 15.726562 -15.523438 15.5625 -15.359375 C 15.394531 -15.203125 15.132812 -15.125 14.78125 -15.125 L 11.984375 -15.125 L 11.984375 -5.484375 L 14.78125 -5.484375 C 15.132812 -5.484375 15.394531 -5.398438 15.5625 -5.234375 C 15.726562 -5.066406 15.8125 -4.804688 15.8125 -4.453125 L 15.8125 -1.03125 C 15.8125 -0.664062 15.726562 -0.398438 15.5625 -0.234375 C 15.394531 -0.078125 15.132812 0 14.78125 0 Z M 2.546875 0 "/></g></g></g><g fill="#000000" fill-opacity="1"><g transform="translate(938.700663, 22.563575)"><g><path d="M 11.734375 0 L 7.078125 0 C 6.722656 0 6.460938 -0.078125 6.296875 -0.234375 C 6.128906 -0.398438 6.046875 -0.664062 6.046875 -1.03125 L 6.046875 -15.125 L 1.84375 -15.125 C 1.476562 -15.125 1.210938 -15.203125 1.046875 -15.359375 C 0.878906 -15.523438 0.796875 -15.789062 0.796875 -16.15625 L 0.796875 -19.625 C 0.796875 -19.988281 0.878906 -20.25 1.046875 -20.40625 C 1.210938 -20.570312 1.476562 -20.65625 1.84375 -20.65625 L 16.984375 -20.65625 C 17.347656 -20.65625 17.609375 -20.570312 17.765625 -20.40625 C 17.929688 -20.25 18.015625 -19.988281 18.015625 -19.625 L 18.015625 -16.15625 C 18.015625 -15.789062 17.929688 -15.523438 17.765625 -15.359375 C 17.609375 -15.203125 17.347656 -15.125 16.984375 -15.125 L 12.765625 -15.125 L 12.765625 -1.03125 C 12.765625 -0.664062 12.679688 -0.398438 12.515625 -0.234375 C 12.359375 -0.078125 12.097656 0 11.734375 0 Z M 11.734375 0 "/></g></g></g><g fill="#000000" fill-opacity="1"><g transform="translate(957.518212, 22.563575)"><g><path d="M 16.328125 0 L 3.015625 0 C 2.648438 0 2.382812 -0.078125 2.21875 -0.234375 C 2.0625 -0.398438 1.984375 -0.664062 1.984375 -1.03125 L 1.984375 -19.625 C 1.984375 -19.988281 2.0625 -20.25 2.21875 -20.40625 C 2.382812 -20.570312 2.648438 -20.65625 3.015625 -20.65625 L 16.328125 -20.65625 C 16.691406 -20.65625 16.953125 -20.570312 17.109375 -20.40625 C 17.273438 -20.25 17.359375 -19.988281 17.359375 -19.625 L 17.359375 -16.265625 C 17.359375 -15.898438 17.273438 -15.632812 17.109375 -15.46875 C 16.953125 -15.3125 16.691406 -15.234375 16.328125 -15.234375 L 8.40625 -15.234375 L 8.40625 -13.03125 L 14 -13.03125 C 14.363281 -13.03125 14.625 -12.945312 14.78125 -12.78125 C 14.945312 -12.613281 15.03125 -12.347656 15.03125 -11.984375 L 15.03125 -8.921875 C 15.03125 -8.554688 14.945312 -8.289062 14.78125 -8.125 C 14.625 -7.96875 14.363281 -7.890625 14 -7.890625 L 8.40625 -7.890625 L 8.40625 -5.421875 L 16.328125 -5.421875 C 16.691406 -5.421875 16.953125 -5.335938 17.109375 -5.171875 C 17.273438 -5.015625 17.359375 -4.753906 17.359375 -4.390625 L 17.359375 -1.03125 C 17.359375 -0.664062 17.273438 -0.398438 17.109375 -0.234375 C 16.953125 -0.078125 16.691406 0 16.328125 0 Z M 16.328125 0 "/></g></g></g><g fill="#000000" fill-opacity="1"><g transform="translate(976.278383, 22.563575)"><g><path d="M 7.28125 0 L 3.015625 0 C 2.648438 0 2.382812 -0.078125 2.21875 -0.234375 C 2.0625 -0.398438 1.984375 -0.664062 1.984375 -1.03125 L 1.984375 -19.625 C 1.984375 -19.988281 2.0625 -20.25 2.21875 -20.40625 C 2.382812 -20.570312 2.648438 -20.65625 3.015625 -20.65625 L 7.625 -20.65625 C 7.9375 -20.65625 8.191406 -20.585938 8.390625 -20.453125 C 8.585938 -20.316406 8.773438 -20.097656 8.953125 -19.796875 L 11.53125 -15.125 C 11.625 -14.945312 11.703125 -14.816406 11.765625 -14.734375 C 11.835938 -14.660156 11.929688 -14.625 12.046875 -14.625 L 12.3125 -14.625 C 12.425781 -14.625 12.515625 -14.660156 12.578125 -14.734375 C 12.648438 -14.816406 12.734375 -14.945312 12.828125 -15.125 L 15.375 -19.796875 C 15.550781 -20.097656 15.738281 -20.316406 15.9375 -20.453125 C 16.132812 -20.585938 16.390625 -20.65625 16.703125 -20.65625 L 21.34375 -20.65625 C 21.707031 -20.65625 21.96875 -20.570312 22.125 -20.40625 C 22.289062 -20.25 22.375 -19.988281 22.375 -19.625 L 22.375 -1.03125 C 22.375 -0.664062 22.289062 -0.398438 22.125 -0.234375 C 21.96875 -0.078125 21.707031 0 21.34375 0 L 16.921875 0 C 16.554688 0 16.289062 -0.078125 16.125 -0.234375 C 15.96875 -0.398438 15.890625 -0.664062 15.890625 -1.03125 L 15.890625 -11.125 L 14.203125 -8 C 14.023438 -7.675781 13.816406 -7.441406 13.578125 -7.296875 C 13.335938 -7.148438 13.039062 -7.078125 12.6875 -7.078125 L 11.53125 -7.078125 C 11.164062 -7.078125 10.863281 -7.148438 10.625 -7.296875 C 10.382812 -7.441406 10.179688 -7.675781 10.015625 -8 L 8.3125 -11.125 L 8.3125 -1.03125 C 8.3125 -0.664062 8.226562 -0.398438 8.0625 -0.234375 C 7.90625 -0.078125 7.644531 0 7.28125 0 Z M 7.28125 0 "/></g></g></g><g fill="#000000" fill-opacity="1"><g transform="translate(1000.632189, 22.563575)"><g/></g></g><g fill="#000000" fill-opacity="1"><g transform="translate(1007.086375, 22.563575)"><g><path d="M 15.09375 0 L 2.40625 0 C 2.039062 0 1.773438 -0.078125 1.609375 -0.234375 C 1.453125 -0.398438 1.375 -0.664062 1.375 -1.03125 L 1.375 -4.5 C 1.375 -4.863281 1.453125 -5.125 1.609375 -5.28125 C 1.773438 -5.445312 2.039062 -5.53125 2.40625 -5.53125 L 5.625 -5.53125 L 5.625 -15.125 L 2.984375 -15.125 C 2.617188 -15.125 2.351562 -15.203125 2.1875 -15.359375 C 2.03125 -15.523438 1.953125 -15.789062 1.953125 -16.15625 L 1.953125 -19.625 C 1.953125 -19.988281 2.03125 -20.25 2.1875 -20.40625 C 2.351562 -20.570312 2.617188 -20.65625 2.984375 -20.65625 L 11.296875 -20.65625 C 11.660156 -20.65625 11.921875 -20.570312 12.078125 -20.40625 C 12.242188 -20.25 12.328125 -19.988281 12.328125 -19.625 L 12.328125 -5.53125 L 15.09375 -5.53125 C 15.457031 -5.53125 15.71875 -5.445312 15.875 -5.28125 C 16.039062 -5.125 16.125 -4.863281 16.125 -4.5 L 16.125 -1.03125 C 16.125 -0.664062 16.039062 -0.398438 15.875 -0.234375 C 15.71875 -0.078125 15.457031 0 15.09375 0 Z M 15.09375 0 "/></g></g></g><g fill="#000000" fill-opacity="1"><g transform="translate(938.447949, 57.341609)"><g><path d="M 15.828125 0 L 2.1875 0 C 1.820312 0 1.554688 -0.078125 1.390625 -0.234375 C 1.222656 -0.398438 1.140625 -0.664062 1.140625 -1.03125 L 1.140625 -5.96875 C 1.140625 -7.070312 1.25 -7.984375 1.46875 -8.703125 C 1.695312 -9.421875 2.007812 -10.007812 2.40625 -10.46875 C 2.8125 -10.925781 3.289062 -11.289062 3.84375 -11.5625 C 4.394531 -11.832031 5 -12.0625 5.65625 -12.25 L 9.5 -13.453125 C 9.800781 -13.523438 10.003906 -13.640625 10.109375 -13.796875 C 10.210938 -13.953125 10.265625 -14.179688 10.265625 -14.484375 C 10.265625 -14.773438 10.207031 -14.972656 10.09375 -15.078125 C 9.976562 -15.179688 9.78125 -15.234375 9.5 -15.234375 L 3.265625 -15.234375 C 2.898438 -15.234375 2.632812 -15.3125 2.46875 -15.46875 C 2.3125 -15.632812 2.234375 -15.898438 2.234375 -16.265625 L 2.234375 -19.625 C 2.234375 -19.988281 2.3125 -20.25 2.46875 -20.40625 C 2.632812 -20.570312 2.898438 -20.65625 3.265625 -20.65625 L 11.734375 -20.65625 C 13.359375 -20.65625 14.601562 -20.25 15.46875 -19.4375 C 16.34375 -18.625 16.78125 -17.441406 16.78125 -15.890625 L 16.78125 -13.203125 C 16.78125 -11.765625 16.378906 -10.660156 15.578125 -9.890625 C 14.773438 -9.128906 13.6875 -8.539062 12.3125 -8.125 L 8.40625 -6.890625 C 8.113281 -6.804688 7.914062 -6.71875 7.8125 -6.625 C 7.707031 -6.53125 7.65625 -6.332031 7.65625 -6.03125 L 7.65625 -5.421875 L 15.828125 -5.421875 C 16.191406 -5.421875 16.457031 -5.335938 16.625 -5.171875 C 16.789062 -5.015625 16.875 -4.753906 16.875 -4.390625 L 16.875 -1.03125 C 16.875 -0.664062 16.789062 -0.398438 16.625 -0.234375 C 16.457031 -0.078125 16.191406 0 15.828125 0 Z M 15.828125 0 "/></g></g></g><g fill="#000000" fill-opacity="1"><g transform="translate(956.777845, 57.341609)"><g><path d="M 19.1875 -5.421875 C 19.1875 -4.546875 19.0625 -3.75 18.8125 -3.03125 C 18.570312 -2.3125 18.125 -1.695312 17.46875 -1.1875 C 16.820312 -0.6875 15.925781 -0.289062 14.78125 0 C 13.644531 0.289062 12.195312 0.4375 10.4375 0.4375 C 8.675781 0.4375 7.226562 0.289062 6.09375 0 C 4.957031 -0.289062 4.0625 -0.6875 3.40625 -1.1875 C 2.757812 -1.695312 2.304688 -2.3125 2.046875 -3.03125 C 1.785156 -3.75 1.65625 -4.546875 1.65625 -5.421875 L 1.65625 -15.203125 C 1.65625 -16.085938 1.785156 -16.882812 2.046875 -17.59375 C 2.304688 -18.3125 2.757812 -18.925781 3.40625 -19.4375 C 4.0625 -19.957031 4.957031 -20.359375 6.09375 -20.640625 C 7.226562 -20.929688 8.675781 -21.078125 10.4375 -21.078125 C 12.195312 -21.078125 13.644531 -20.929688 14.78125 -20.640625 C 15.925781 -20.359375 16.820312 -19.957031 17.46875 -19.4375 C 18.125 -18.925781 18.570312 -18.3125 18.8125 -17.59375 C 19.0625 -16.882812 19.1875 -16.085938 19.1875 -15.203125 Z M 8.140625 -6.453125 C 8.140625 -6.066406 8.28125 -5.742188 8.5625 -5.484375 C 8.84375 -5.234375 9.46875 -5.109375 10.4375 -5.109375 C 11.414062 -5.109375 12.039062 -5.234375 12.3125 -5.484375 C 12.59375 -5.742188 12.734375 -6.066406 12.734375 -6.453125 L 12.734375 -14.171875 C 12.734375 -14.535156 12.59375 -14.84375 12.3125 -15.09375 C 12.039062 -15.351562 11.414062 -15.484375 10.4375 -15.484375 C 9.46875 -15.484375 8.84375 -15.351562 8.5625 -15.09375 C 8.28125 -14.84375 8.140625 -14.535156 8.140625 -14.171875 Z M 8.140625 -6.453125 "/></g></g></g><g fill="#000000" fill-opacity="1"><g transform="translate(977.632048, 57.341609)"><g><path d="M 11.421875 -11.9375 C 11.421875 -11.4375 11.347656 -10.96875 11.203125 -10.53125 C 11.054688 -10.101562 10.789062 -9.742188 10.40625 -9.453125 C 10.03125 -9.160156 9.507812 -8.929688 8.84375 -8.765625 C 8.1875 -8.597656 7.351562 -8.515625 6.34375 -8.515625 C 4.289062 -8.515625 2.921875 -8.828125 2.234375 -9.453125 C 1.546875 -10.085938 1.203125 -10.914062 1.203125 -11.9375 L 1.203125 -17.390625 C 1.203125 -18.398438 1.546875 -19.21875 2.234375 -19.84375 C 2.921875 -20.476562 4.289062 -20.796875 6.34375 -20.796875 C 7.351562 -20.796875 8.1875 -20.710938 8.84375 -20.546875 C 9.507812 -20.390625 10.03125 -20.160156 10.40625 -19.859375 C 10.789062 -19.566406 11.054688 -19.203125 11.203125 -18.765625 C 11.347656 -18.335938 11.421875 -17.878906 11.421875 -17.390625 Z M 10.09375 -1.03125 L 14.6875 -19.625 C 14.757812 -19.96875 14.878906 -20.222656 15.046875 -20.390625 C 15.222656 -20.566406 15.492188 -20.65625 15.859375 -20.65625 L 18.875 -20.65625 C 19.238281 -20.65625 19.492188 -20.566406 19.640625 -20.390625 C 19.796875 -20.222656 19.835938 -19.96875 19.765625 -19.625 L 15.171875 -1.03125 C 15.097656 -0.6875 14.972656 -0.425781 14.796875 -0.25 C 14.628906 -0.0820312 14.363281 0 14 0 L 10.984375 0 C 10.617188 0 10.359375 -0.0820312 10.203125 -0.25 C 10.054688 -0.425781 10.019531 -0.6875 10.09375 -1.03125 Z M 5.359375 -12.828125 C 5.359375 -12.691406 5.414062 -12.570312 5.53125 -12.46875 C 5.644531 -12.363281 5.914062 -12.3125 6.34375 -12.3125 C 6.738281 -12.3125 6.992188 -12.363281 7.109375 -12.46875 C 7.222656 -12.570312 7.28125 -12.691406 7.28125 -12.828125 L 7.28125 -16.5 C 7.28125 -16.613281 7.222656 -16.722656 7.109375 -16.828125 C 6.992188 -16.929688 6.738281 -16.984375 6.34375 -16.984375 C 5.914062 -16.984375 5.644531 -16.929688 5.53125 -16.828125 C 5.414062 -16.722656 5.359375 -16.613281 5.359375 -16.5 Z M 28.578125 -3.234375 C 28.578125 -2.742188 28.503906 -2.28125 28.359375 -1.84375 C 28.210938 -1.414062 27.945312 -1.050781 27.5625 -0.75 C 27.1875 -0.457031 26.664062 -0.226562 26 -0.0625 C 25.34375 0.09375 24.507812 0.171875 23.5 0.171875 C 21.445312 0.171875 20.078125 -0.140625 19.390625 -0.765625 C 18.703125 -1.398438 18.359375 -2.222656 18.359375 -3.234375 L 18.359375 -8.6875 C 18.359375 -9.707031 18.703125 -10.53125 19.390625 -11.15625 C 20.078125 -11.789062 21.445312 -12.109375 23.5 -12.109375 C 24.507812 -12.109375 25.34375 -12.023438 26 -11.859375 C 26.664062 -11.703125 27.1875 -11.472656 27.5625 -11.171875 C 27.945312 -10.878906 28.210938 -10.515625 28.359375 -10.078125 C 28.503906 -9.648438 28.578125 -9.1875 28.578125 -8.6875 Z M 22.515625 -4.125 C 22.515625 -4 22.570312 -3.878906 22.6875 -3.765625 C 22.800781 -3.660156 23.070312 -3.609375 23.5 -3.609375 C 23.894531 -3.609375 24.148438 -3.660156 24.265625 -3.765625 C 24.378906 -3.878906 24.4375 -4 24.4375 -4.125 L 24.4375 -7.796875 C 24.4375 -7.910156 24.378906 -8.019531 24.265625 -8.125 C 24.148438 -8.238281 23.894531 -8.296875 23.5 -8.296875 C 23.070312 -8.296875 22.800781 -8.238281 22.6875 -8.125 C 22.570312 -8.019531 22.515625 -7.910156 22.515625 -7.796875 Z M 22.515625 -4.125 "/></g></g></g><g fill="#000000" fill-opacity="1"><g transform="translate(1081.804017, 503.419205)"><g><path d="M 2.546875 0 C 2.191406 0 1.929688 -0.078125 1.765625 -0.234375 C 1.597656 -0.398438 1.515625 -0.664062 1.515625 -1.03125 L 1.515625 -4.453125 C 1.515625 -4.804688 1.597656 -5.066406 1.765625 -5.234375 C 1.929688 -5.398438 2.191406 -5.484375 2.546875 -5.484375 L 5.390625 -5.484375 L 5.390625 -15.125 L 2.546875 -15.125 C 2.191406 -15.125 1.929688 -15.203125 1.765625 -15.359375 C 1.597656 -15.523438 1.515625 -15.789062 1.515625 -16.15625 L 1.515625 -19.625 C 1.515625 -19.988281 1.597656 -20.25 1.765625 -20.40625 C 1.929688 -20.570312 2.191406 -20.65625 2.546875 -20.65625 L 14.78125 -20.65625 C 15.132812 -20.65625 15.394531 -20.570312 15.5625 -20.40625 C 15.726562 -20.25 15.8125 -19.988281 15.8125 -19.625 L 15.8125 -16.15625 C 15.8125 -15.789062 15.726562 -15.523438 15.5625 -15.359375 C 15.394531 -15.203125 15.132812 -15.125 14.78125 -15.125 L 11.984375 -15.125 L 11.984375 -5.484375 L 14.78125 -5.484375 C 15.132812 -5.484375 15.394531 -5.398438 15.5625 -5.234375 C 15.726562 -5.066406 15.8125 -4.804688 15.8125 -4.453125 L 15.8125 -1.03125 C 15.8125 -0.664062 15.726562 -0.398438 15.5625 -0.234375 C 15.394531 -0.078125 15.132812 0 14.78125 0 Z M 2.546875 0 "/></g></g></g><g fill="#000000" fill-opacity="1"><g transform="translate(1099.158617, 503.419205)"><g><path d="M 11.734375 0 L 7.078125 0 C 6.722656 0 6.460938 -0.078125 6.296875 -0.234375 C 6.128906 -0.398438 6.046875 -0.664062 6.046875 -1.03125 L 6.046875 -15.125 L 1.84375 -15.125 C 1.476562 -15.125 1.210938 -15.203125 1.046875 -15.359375 C 0.878906 -15.523438 0.796875 -15.789062 0.796875 -16.15625 L 0.796875 -19.625 C 0.796875 -19.988281 0.878906 -20.25 1.046875 -20.40625 C 1.210938 -20.570312 1.476562 -20.65625 1.84375 -20.65625 L 16.984375 -20.65625 C 17.347656 -20.65625 17.609375 -20.570312 17.765625 -20.40625 C 17.929688 -20.25 18.015625 -19.988281 18.015625 -19.625 L 18.015625 -16.15625 C 18.015625 -15.789062 17.929688 -15.523438 17.765625 -15.359375 C 17.609375 -15.203125 17.347656 -15.125 16.984375 -15.125 L 12.765625 -15.125 L 12.765625 -1.03125 C 12.765625 -0.664062 12.679688 -0.398438 12.515625 -0.234375 C 12.359375 -0.078125 12.097656 0 11.734375 0 Z M 11.734375 0 "/></g></g></g><g fill="#000000" fill-opacity="1"><g transform="translate(1117.976167, 503.419205)"><g><path d="M 16.328125 0 L 3.015625 0 C 2.648438 0 2.382812 -0.078125 2.21875 -0.234375 C 2.0625 -0.398438 1.984375 -0.664062 1.984375 -1.03125 L 1.984375 -19.625 C 1.984375 -19.988281 2.0625 -20.25 2.21875 -20.40625 C 2.382812 -20.570312 2.648438 -20.65625 3.015625 -20.65625 L 16.328125 -20.65625 C 16.691406 -20.65625 16.953125 -20.570312 17.109375 -20.40625 C 17.273438 -20.25 17.359375 -19.988281 17.359375 -19.625 L 17.359375 -16.265625 C 17.359375 -15.898438 17.273438 -15.632812 17.109375 -15.46875 C 16.953125 -15.3125 16.691406 -15.234375 16.328125 -15.234375 L 8.40625 -15.234375 L 8.40625 -13.03125 L 14 -13.03125 C 14.363281 -13.03125 14.625 -12.945312 14.78125 -12.78125 C 14.945312 -12.613281 15.03125 -12.347656 15.03125 -11.984375 L 15.03125 -8.921875 C 15.03125 -8.554688 14.945312 -8.289062 14.78125 -8.125 C 14.625 -7.96875 14.363281 -7.890625 14 -7.890625 L 8.40625 -7.890625 L 8.40625 -5.421875 L 16.328125 -5.421875 C 16.691406 -5.421875 16.953125 -5.335938 17.109375 -5.171875 C 17.273438 -5.015625 17.359375 -4.753906 17.359375 -4.390625 L 17.359375 -1.03125 C 17.359375 -0.664062 17.273438 -0.398438 17.109375 -0.234375 C 16.953125 -0.078125 16.691406 0 16.328125 0 Z M 16.328125 0 "/></g></g></g><g fill="#000000" fill-opacity="1"><g transform="translate(1136.736337, 503.419205)"><g><path d="M 7.28125 0 L 3.015625 0 C 2.648438 0 2.382812 -0.078125 2.21875 -0.234375 C 2.0625 -0.398438 1.984375 -0.664062 1.984375 -1.03125 L 1.984375 -19.625 C 1.984375 -19.988281 2.0625 -20.25 2.21875 -20.40625 C 2.382812 -20.570312 2.648438 -20.65625 3.015625 -20.65625 L 7.625 -20.65625 C 7.9375 -20.65625 8.191406 -20.585938 8.390625 -20.453125 C 8.585938 -20.316406 8.773438 -20.097656 8.953125 -19.796875 L 11.53125 -15.125 C 11.625 -14.945312 11.703125 -14.816406 11.765625 -14.734375 C 11.835938 -14.660156 11.929688 -14.625 12.046875 -14.625 L 12.3125 -14.625 C 12.425781 -14.625 12.515625 -14.660156 12.578125 -14.734375 C 12.648438 -14.816406 12.734375 -14.945312 12.828125 -15.125 L 15.375 -19.796875 C 15.550781 -20.097656 15.738281 -20.316406 15.9375 -20.453125 C 16.132812 -20.585938 16.390625 -20.65625 16.703125 -20.65625 L 21.34375 -20.65625 C 21.707031 -20.65625 21.96875 -20.570312 22.125 -20.40625 C 22.289062 -20.25 22.375 -19.988281 22.375 -19.625 L 22.375 -1.03125 C 22.375 -0.664062 22.289062 -0.398438 22.125 -0.234375 C 21.96875 -0.078125 21.707031 0 21.34375 0 L 16.921875 0 C 16.554688 0 16.289062 -0.078125 16.125 -0.234375 C 15.96875 -0.398438 15.890625 -0.664062 15.890625 -1.03125 L 15.890625 -11.125 L 14.203125 -8 C 14.023438 -7.675781 13.816406 -7.441406 13.578125 -7.296875 C 13.335938 -7.148438 13.039062 -7.078125 12.6875 -7.078125 L 11.53125 -7.078125 C 11.164062 -7.078125 10.863281 -7.148438 10.625 -7.296875 C 10.382812 -7.441406 10.179688 -7.675781 10.015625 -8 L 8.3125 -11.125 L 8.3125 -1.03125 C 8.3125 -0.664062 8.226562 -0.398438 8.0625 -0.234375 C 7.90625 -0.078125 7.644531 0 7.28125 0 Z M 7.28125 0 "/></g></g></g><g fill="#000000" fill-opacity="1"><g transform="translate(1161.090144, 503.419205)"><g/></g></g><g fill="#000000" fill-opacity="1"><g transform="translate(1167.544329, 503.419205)"><g><path d="M 15.828125 0 L 2.1875 0 C 1.820312 0 1.554688 -0.078125 1.390625 -0.234375 C 1.222656 -0.398438 1.140625 -0.664062 1.140625 -1.03125 L 1.140625 -5.96875 C 1.140625 -7.070312 1.25 -7.984375 1.46875 -8.703125 C 1.695312 -9.421875 2.007812 -10.007812 2.40625 -10.46875 C 2.8125 -10.925781 3.289062 -11.289062 3.84375 -11.5625 C 4.394531 -11.832031 5 -12.0625 5.65625 -12.25 L 9.5 -13.453125 C 9.800781 -13.523438 10.003906 -13.640625 10.109375 -13.796875 C 10.210938 -13.953125 10.265625 -14.179688 10.265625 -14.484375 C 10.265625 -14.773438 10.207031 -14.972656 10.09375 -15.078125 C 9.976562 -15.179688 9.78125 -15.234375 9.5 -15.234375 L 3.265625 -15.234375 C 2.898438 -15.234375 2.632812 -15.3125 2.46875 -15.46875 C 2.3125 -15.632812 2.234375 -15.898438 2.234375 -16.265625 L 2.234375 -19.625 C 2.234375 -19.988281 2.3125 -20.25 2.46875 -20.40625 C 2.632812 -20.570312 2.898438 -20.65625 3.265625 -20.65625 L 11.734375 -20.65625 C 13.359375 -20.65625 14.601562 -20.25 15.46875 -19.4375 C 16.34375 -18.625 16.78125 -17.441406 16.78125 -15.890625 L 16.78125 -13.203125 C 16.78125 -11.765625 16.378906 -10.660156 15.578125 -9.890625 C 14.773438 -9.128906 13.6875 -8.539062 12.3125 -8.125 L 8.40625 -6.890625 C 8.113281 -6.804688 7.914062 -6.71875 7.8125 -6.625 C 7.707031 -6.53125 7.65625 -6.332031 7.65625 -6.03125 L 7.65625 -5.421875 L 15.828125 -5.421875 C 16.191406 -5.421875 16.457031 -5.335938 16.625 -5.171875 C 16.789062 -5.015625 16.875 -4.753906 16.875 -4.390625 L 16.875 -1.03125 C 16.875 -0.664062 16.789062 -0.398438 16.625 -0.234375 C 16.457031 -0.078125 16.191406 0 15.828125 0 Z M 15.828125 0 "/></g></g></g><g fill="#000000" fill-opacity="1"><g transform="translate(1099.003945, 538.197238)"><g><path d="M 15.828125 0 L 2.1875 0 C 1.820312 0 1.554688 -0.078125 1.390625 -0.234375 C 1.222656 -0.398438 1.140625 -0.664062 1.140625 -1.03125 L 1.140625 -5.96875 C 1.140625 -7.070312 1.25 -7.984375 1.46875 -8.703125 C 1.695312 -9.421875 2.007812 -10.007812 2.40625 -10.46875 C 2.8125 -10.925781 3.289062 -11.289062 3.84375 -11.5625 C 4.394531 -11.832031 5 -12.0625 5.65625 -12.25 L 9.5 -13.453125 C 9.800781 -13.523438 10.003906 -13.640625 10.109375 -13.796875 C 10.210938 -13.953125 10.265625 -14.179688 10.265625 -14.484375 C 10.265625 -14.773438 10.207031 -14.972656 10.09375 -15.078125 C 9.976562 -15.179688 9.78125 -15.234375 9.5 -15.234375 L 3.265625 -15.234375 C 2.898438 -15.234375 2.632812 -15.3125 2.46875 -15.46875 C 2.3125 -15.632812 2.234375 -15.898438 2.234375 -16.265625 L 2.234375 -19.625 C 2.234375 -19.988281 2.3125 -20.25 2.46875 -20.40625 C 2.632812 -20.570312 2.898438 -20.65625 3.265625 -20.65625 L 11.734375 -20.65625 C 13.359375 -20.65625 14.601562 -20.25 15.46875 -19.4375 C 16.34375 -18.625 16.78125 -17.441406 16.78125 -15.890625 L 16.78125 -13.203125 C 16.78125 -11.765625 16.378906 -10.660156 15.578125 -9.890625 C 14.773438 -9.128906 13.6875 -8.539062 12.3125 -8.125 L 8.40625 -6.890625 C 8.113281 -6.804688 7.914062 -6.71875 7.8125 -6.625 C 7.707031 -6.53125 7.65625 -6.332031 7.65625 -6.03125 L 7.65625 -5.421875 L 15.828125 -5.421875 C 16.191406 -5.421875 16.457031 -5.335938 16.625 -5.171875 C 16.789062 -5.015625 16.875 -4.753906 16.875 -4.390625 L 16.875 -1.03125 C 16.875 -0.664062 16.789062 -0.398438 16.625 -0.234375 C 16.457031 -0.078125 16.191406 0 15.828125 0 Z M 15.828125 0 "/></g></g></g><g fill="#000000" fill-opacity="1"><g transform="translate(1117.33384, 538.197238)"><g><path d="M 19.1875 -5.421875 C 19.1875 -4.546875 19.0625 -3.75 18.8125 -3.03125 C 18.570312 -2.3125 18.125 -1.695312 17.46875 -1.1875 C 16.820312 -0.6875 15.925781 -0.289062 14.78125 0 C 13.644531 0.289062 12.195312 0.4375 10.4375 0.4375 C 8.675781 0.4375 7.226562 0.289062 6.09375 0 C 4.957031 -0.289062 4.0625 -0.6875 3.40625 -1.1875 C 2.757812 -1.695312 2.304688 -2.3125 2.046875 -3.03125 C 1.785156 -3.75 1.65625 -4.546875 1.65625 -5.421875 L 1.65625 -15.203125 C 1.65625 -16.085938 1.785156 -16.882812 2.046875 -17.59375 C 2.304688 -18.3125 2.757812 -18.925781 3.40625 -19.4375 C 4.0625 -19.957031 4.957031 -20.359375 6.09375 -20.640625 C 7.226562 -20.929688 8.675781 -21.078125 10.4375 -21.078125 C 12.195312 -21.078125 13.644531 -20.929688 14.78125 -20.640625 C 15.925781 -20.359375 16.820312 -19.957031 17.46875 -19.4375 C 18.125 -18.925781 18.570312 -18.3125 18.8125 -17.59375 C 19.0625 -16.882812 19.1875 -16.085938 19.1875 -15.203125 Z M 8.140625 -6.453125 C 8.140625 -6.066406 8.28125 -5.742188 8.5625 -5.484375 C 8.84375 -5.234375 9.46875 -5.109375 10.4375 -5.109375 C 11.414062 -5.109375 12.039062 -5.234375 12.3125 -5.484375 C 12.59375 -5.742188 12.734375 -6.066406 12.734375 -6.453125 L 12.734375 -14.171875 C 12.734375 -14.535156 12.59375 -14.84375 12.3125 -15.09375 C 12.039062 -15.351562 11.414062 -15.484375 10.4375 -15.484375 C 9.46875 -15.484375 8.84375 -15.351562 8.5625 -15.09375 C 8.28125 -14.84375 8.140625 -14.535156 8.140625 -14.171875 Z M 8.140625 -6.453125 "/></g></g></g><g fill="#000000" fill-opacity="1"><g transform="translate(1138.188044, 538.197238)"><g><path d="M 11.421875 -11.9375 C 11.421875 -11.4375 11.347656 -10.96875 11.203125 -10.53125 C 11.054688 -10.101562 10.789062 -9.742188 10.40625 -9.453125 C 10.03125 -9.160156 9.507812 -8.929688 8.84375 -8.765625 C 8.1875 -8.597656 7.351562 -8.515625 6.34375 -8.515625 C 4.289062 -8.515625 2.921875 -8.828125 2.234375 -9.453125 C 1.546875 -10.085938 1.203125 -10.914062 1.203125 -11.9375 L 1.203125 -17.390625 C 1.203125 -18.398438 1.546875 -19.21875 2.234375 -19.84375 C 2.921875 -20.476562 4.289062 -20.796875 6.34375 -20.796875 C 7.351562 -20.796875 8.1875 -20.710938 8.84375 -20.546875 C 9.507812 -20.390625 10.03125 -20.160156 10.40625 -19.859375 C 10.789062 -19.566406 11.054688 -19.203125 11.203125 -18.765625 C 11.347656 -18.335938 11.421875 -17.878906 11.421875 -17.390625 Z M 10.09375 -1.03125 L 14.6875 -19.625 C 14.757812 -19.96875 14.878906 -20.222656 15.046875 -20.390625 C 15.222656 -20.566406 15.492188 -20.65625 15.859375 -20.65625 L 18.875 -20.65625 C 19.238281 -20.65625 19.492188 -20.566406 19.640625 -20.390625 C 19.796875 -20.222656 19.835938 -19.96875 19.765625 -19.625 L 15.171875 -1.03125 C 15.097656 -0.6875 14.972656 -0.425781 14.796875 -0.25 C 14.628906 -0.0820312 14.363281 0 14 0 L 10.984375 0 C 10.617188 0 10.359375 -0.0820312 10.203125 -0.25 C 10.054688 -0.425781 10.019531 -0.6875 10.09375 -1.03125 Z M 5.359375 -12.828125 C 5.359375 -12.691406 5.414062 -12.570312 5.53125 -12.46875 C 5.644531 -12.363281 5.914062 -12.3125 6.34375 -12.3125 C 6.738281 -12.3125 6.992188 -12.363281 7.109375 -12.46875 C 7.222656 -12.570312 7.28125 -12.691406 7.28125 -12.828125 L 7.28125 -16.5 C 7.28125 -16.613281 7.222656 -16.722656 7.109375 -16.828125 C 6.992188 -16.929688 6.738281 -16.984375 6.34375 -16.984375 C 5.914062 -16.984375 5.644531 -16.929688 5.53125 -16.828125 C 5.414062 -16.722656 5.359375 -16.613281 5.359375 -16.5 Z M 28.578125 -3.234375 C 28.578125 -2.742188 28.503906 -2.28125 28.359375 -1.84375 C 28.210938 -1.414062 27.945312 -1.050781 27.5625 -0.75 C 27.1875 -0.457031 26.664062 -0.226562 26 -0.0625 C 25.34375 0.09375 24.507812 0.171875 23.5 0.171875 C 21.445312 0.171875 20.078125 -0.140625 19.390625 -0.765625 C 18.703125 -1.398438 18.359375 -2.222656 18.359375 -3.234375 L 18.359375 -8.6875 C 18.359375 -9.707031 18.703125 -10.53125 19.390625 -11.15625 C 20.078125 -11.789062 21.445312 -12.109375 23.5 -12.109375 C 24.507812 -12.109375 25.34375 -12.023438 26 -11.859375 C 26.664062 -11.703125 27.1875 -11.472656 27.5625 -11.171875 C 27.945312 -10.878906 28.210938 -10.515625 28.359375 -10.078125 C 28.503906 -9.648438 28.578125 -9.1875 28.578125 -8.6875 Z M 22.515625 -4.125 C 22.515625 -4 22.570312 -3.878906 22.6875 -3.765625 C 22.800781 -3.660156 23.070312 -3.609375 23.5 -3.609375 C 23.894531 -3.609375 24.148438 -3.660156 24.265625 -3.765625 C 24.378906 -3.878906 24.4375 -4 24.4375 -4.125 L 24.4375 -7.796875 C 24.4375 -7.910156 24.378906 -8.019531 24.265625 -8.125 C 24.148438 -8.238281 23.894531 -8.296875 23.5 -8.296875 C 23.070312 -8.296875 22.800781 -8.238281 22.6875 -8.125 C 22.570312 -8.019531 22.515625 -7.910156 22.515625 -7.796875 Z M 22.515625 -4.125 "/></g></g></g><g fill="#000000" fill-opacity="1"><g transform="translate(668.851689, 774.374092)"><g><path d="M 2.546875 0 C 2.191406 0 1.929688 -0.078125 1.765625 -0.234375 C 1.597656 -0.398438 1.515625 -0.664062 1.515625 -1.03125 L 1.515625 -4.453125 C 1.515625 -4.804688 1.597656 -5.066406 1.765625 -5.234375 C 1.929688 -5.398438 2.191406 -5.484375 2.546875 -5.484375 L 5.390625 -5.484375 L 5.390625 -15.125 L 2.546875 -15.125 C 2.191406 -15.125 1.929688 -15.203125 1.765625 -15.359375 C 1.597656 -15.523438 1.515625 -15.789062 1.515625 -16.15625 L 1.515625 -19.625 C 1.515625 -19.988281 1.597656 -20.25 1.765625 -20.40625 C 1.929688 -20.570312 2.191406 -20.65625 2.546875 -20.65625 L 14.78125 -20.65625 C 15.132812 -20.65625 15.394531 -20.570312 15.5625 -20.40625 C 15.726562 -20.25 15.8125 -19.988281 15.8125 -19.625 L 15.8125 -16.15625 C 15.8125 -15.789062 15.726562 -15.523438 15.5625 -15.359375 C 15.394531 -15.203125 15.132812 -15.125 14.78125 -15.125 L 11.984375 -15.125 L 11.984375 -5.484375 L 14.78125 -5.484375 C 15.132812 -5.484375 15.394531 -5.398438 15.5625 -5.234375 C 15.726562 -5.066406 15.8125 -4.804688 15.8125 -4.453125 L 15.8125 -1.03125 C 15.8125 -0.664062 15.726562 -0.398438 15.5625 -0.234375 C 15.394531 -0.078125 15.132812 0 14.78125 0 Z M 2.546875 0 "/></g></g></g><g fill="#000000" fill-opacity="1"><g transform="translate(686.206288, 774.374092)"><g><path d="M 11.734375 0 L 7.078125 0 C 6.722656 0 6.460938 -0.078125 6.296875 -0.234375 C 6.128906 -0.398438 6.046875 -0.664062 6.046875 -1.03125 L 6.046875 -15.125 L 1.84375 -15.125 C 1.476562 -15.125 1.210938 -15.203125 1.046875 -15.359375 C 0.878906 -15.523438 0.796875 -15.789062 0.796875 -16.15625 L 0.796875 -19.625 C 0.796875 -19.988281 0.878906 -20.25 1.046875 -20.40625 C 1.210938 -20.570312 1.476562 -20.65625 1.84375 -20.65625 L 16.984375 -20.65625 C 17.347656 -20.65625 17.609375 -20.570312 17.765625 -20.40625 C 17.929688 -20.25 18.015625 -19.988281 18.015625 -19.625 L 18.015625 -16.15625 C 18.015625 -15.789062 17.929688 -15.523438 17.765625 -15.359375 C 17.609375 -15.203125 17.347656 -15.125 16.984375 -15.125 L 12.765625 -15.125 L 12.765625 -1.03125 C 12.765625 -0.664062 12.679688 -0.398438 12.515625 -0.234375 C 12.359375 -0.078125 12.097656 0 11.734375 0 Z M 11.734375 0 "/></g></g></g><g fill="#000000" fill-opacity="1"><g transform="translate(705.023838, 774.374092)"><g><path d="M 16.328125 0 L 3.015625 0 C 2.648438 0 2.382812 -0.078125 2.21875 -0.234375 C 2.0625 -0.398438 1.984375 -0.664062 1.984375 -1.03125 L 1.984375 -19.625 C 1.984375 -19.988281 2.0625 -20.25 2.21875 -20.40625 C 2.382812 -20.570312 2.648438 -20.65625 3.015625 -20.65625 L 16.328125 -20.65625 C 16.691406 -20.65625 16.953125 -20.570312 17.109375 -20.40625 C 17.273438 -20.25 17.359375 -19.988281 17.359375 -19.625 L 17.359375 -16.265625 C 17.359375 -15.898438 17.273438 -15.632812 17.109375 -15.46875 C 16.953125 -15.3125 16.691406 -15.234375 16.328125 -15.234375 L 8.40625 -15.234375 L 8.40625 -13.03125 L 14 -13.03125 C 14.363281 -13.03125 14.625 -12.945312 14.78125 -12.78125 C 14.945312 -12.613281 15.03125 -12.347656 15.03125 -11.984375 L 15.03125 -8.921875 C 15.03125 -8.554688 14.945312 -8.289062 14.78125 -8.125 C 14.625 -7.96875 14.363281 -7.890625 14 -7.890625 L 8.40625 -7.890625 L 8.40625 -5.421875 L 16.328125 -5.421875 C 16.691406 -5.421875 16.953125 -5.335938 17.109375 -5.171875 C 17.273438 -5.015625 17.359375 -4.753906 17.359375 -4.390625 L 17.359375 -1.03125 C 17.359375 -0.664062 17.273438 -0.398438 17.109375 -0.234375 C 16.953125 -0.078125 16.691406 0 16.328125 0 Z M 16.328125 0 "/></g></g></g><g fill="#000000" fill-opacity="1"><g transform="translate(723.784009, 774.374092)"><g><path d="M 7.28125 0 L 3.015625 0 C 2.648438 0 2.382812 -0.078125 2.21875 -0.234375 C 2.0625 -0.398438 1.984375 -0.664062 1.984375 -1.03125 L 1.984375 -19.625 C 1.984375 -19.988281 2.0625 -20.25 2.21875 -20.40625 C 2.382812 -20.570312 2.648438 -20.65625 3.015625 -20.65625 L 7.625 -20.65625 C 7.9375 -20.65625 8.191406 -20.585938 8.390625 -20.453125 C 8.585938 -20.316406 8.773438 -20.097656 8.953125 -19.796875 L 11.53125 -15.125 C 11.625 -14.945312 11.703125 -14.816406 11.765625 -14.734375 C 11.835938 -14.660156 11.929688 -14.625 12.046875 -14.625 L 12.3125 -14.625 C 12.425781 -14.625 12.515625 -14.660156 12.578125 -14.734375 C 12.648438 -14.816406 12.734375 -14.945312 12.828125 -15.125 L 15.375 -19.796875 C 15.550781 -20.097656 15.738281 -20.316406 15.9375 -20.453125 C 16.132812 -20.585938 16.390625 -20.65625 16.703125 -20.65625 L 21.34375 -20.65625 C 21.707031 -20.65625 21.96875 -20.570312 22.125 -20.40625 C 22.289062 -20.25 22.375 -19.988281 22.375 -19.625 L 22.375 -1.03125 C 22.375 -0.664062 22.289062 -0.398438 22.125 -0.234375 C 21.96875 -0.078125 21.707031 0 21.34375 0 L 16.921875 0 C 16.554688 0 16.289062 -0.078125 16.125 -0.234375 C 15.96875 -0.398438 15.890625 -0.664062 15.890625 -1.03125 L 15.890625 -11.125 L 14.203125 -8 C 14.023438 -7.675781 13.816406 -7.441406 13.578125 -7.296875 C 13.335938 -7.148438 13.039062 -7.078125 12.6875 -7.078125 L 11.53125 -7.078125 C 11.164062 -7.078125 10.863281 -7.148438 10.625 -7.296875 C 10.382812 -7.441406 10.179688 -7.675781 10.015625 -8 L 8.3125 -11.125 L 8.3125 -1.03125 C 8.3125 -0.664062 8.226562 -0.398438 8.0625 -0.234375 C 7.90625 -0.078125 7.644531 0 7.28125 0 Z M 7.28125 0 "/></g></g></g><g fill="#000000" fill-opacity="1"><g transform="translate(748.137815, 774.374092)"><g/></g></g><g fill="#000000" fill-opacity="1"><g transform="translate(754.592001, 774.374092)"><g><path d="M 2.4375 -5.421875 L 9.640625 -5.421875 C 10.097656 -5.421875 10.394531 -5.503906 10.53125 -5.671875 C 10.664062 -5.847656 10.734375 -6.050781 10.734375 -6.28125 L 10.734375 -7.0625 C 10.734375 -7.289062 10.664062 -7.484375 10.53125 -7.640625 C 10.394531 -7.804688 10.097656 -7.890625 9.640625 -7.890625 L 4.765625 -7.890625 C 4.398438 -7.890625 4.132812 -7.96875 3.96875 -8.125 C 3.8125 -8.289062 3.734375 -8.554688 3.734375 -8.921875 L 3.734375 -11.984375 C 3.734375 -12.347656 3.8125 -12.613281 3.96875 -12.78125 C 4.132812 -12.945312 4.398438 -13.03125 4.765625 -13.03125 L 7.78125 -13.03125 C 8.238281 -13.03125 8.53125 -13.113281 8.65625 -13.28125 C 8.789062 -13.457031 8.859375 -13.660156 8.859375 -13.890625 L 8.859375 -14.3125 C 8.859375 -14.539062 8.789062 -14.738281 8.65625 -14.90625 C 8.53125 -15.082031 8.238281 -15.171875 7.78125 -15.171875 L 2.4375 -15.171875 C 2.070312 -15.171875 1.804688 -15.25 1.640625 -15.40625 C 1.484375 -15.570312 1.40625 -15.835938 1.40625 -16.203125 L 1.40625 -19.625 C 1.40625 -19.988281 1.484375 -20.25 1.640625 -20.40625 C 1.804688 -20.570312 2.070312 -20.65625 2.4375 -20.65625 L 10.4375 -20.65625 C 12.03125 -20.65625 13.210938 -20.285156 13.984375 -19.546875 C 14.753906 -18.816406 15.140625 -17.816406 15.140625 -16.546875 L 15.140625 -14.890625 C 15.140625 -14.160156 15.015625 -13.523438 14.765625 -12.984375 C 14.523438 -12.453125 14.085938 -12.054688 13.453125 -11.796875 C 14.804688 -11.640625 15.742188 -11.222656 16.265625 -10.546875 C 16.796875 -9.867188 17.0625 -8.894531 17.0625 -7.625 L 17.0625 -4.765625 C 17.0625 -3.285156 16.59375 -2.117188 15.65625 -1.265625 C 14.71875 -0.421875 13.332031 0 11.5 0 L 2.4375 0 C 2.070312 0 1.804688 -0.078125 1.640625 -0.234375 C 1.484375 -0.398438 1.40625 -0.664062 1.40625 -1.03125 L 1.40625 -4.390625 C 1.40625 -4.753906 1.484375 -5.015625 1.640625 -5.171875 C 1.804688 -5.335938 2.070312 -5.421875 2.4375 -5.421875 Z M 2.4375 -5.421875 "/></g></g></g><g fill="#000000" fill-opacity="1"><g transform="translate(686.47181, 809.152116)"><g><path d="M 15.828125 0 L 2.1875 0 C 1.820312 0 1.554688 -0.078125 1.390625 -0.234375 C 1.222656 -0.398438 1.140625 -0.664062 1.140625 -1.03125 L 1.140625 -5.96875 C 1.140625 -7.070312 1.25 -7.984375 1.46875 -8.703125 C 1.695312 -9.421875 2.007812 -10.007812 2.40625 -10.46875 C 2.8125 -10.925781 3.289062 -11.289062 3.84375 -11.5625 C 4.394531 -11.832031 5 -12.0625 5.65625 -12.25 L 9.5 -13.453125 C 9.800781 -13.523438 10.003906 -13.640625 10.109375 -13.796875 C 10.210938 -13.953125 10.265625 -14.179688 10.265625 -14.484375 C 10.265625 -14.773438 10.207031 -14.972656 10.09375 -15.078125 C 9.976562 -15.179688 9.78125 -15.234375 9.5 -15.234375 L 3.265625 -15.234375 C 2.898438 -15.234375 2.632812 -15.3125 2.46875 -15.46875 C 2.3125 -15.632812 2.234375 -15.898438 2.234375 -16.265625 L 2.234375 -19.625 C 2.234375 -19.988281 2.3125 -20.25 2.46875 -20.40625 C 2.632812 -20.570312 2.898438 -20.65625 3.265625 -20.65625 L 11.734375 -20.65625 C 13.359375 -20.65625 14.601562 -20.25 15.46875 -19.4375 C 16.34375 -18.625 16.78125 -17.441406 16.78125 -15.890625 L 16.78125 -13.203125 C 16.78125 -11.765625 16.378906 -10.660156 15.578125 -9.890625 C 14.773438 -9.128906 13.6875 -8.539062 12.3125 -8.125 L 8.40625 -6.890625 C 8.113281 -6.804688 7.914062 -6.71875 7.8125 -6.625 C 7.707031 -6.53125 7.65625 -6.332031 7.65625 -6.03125 L 7.65625 -5.421875 L 15.828125 -5.421875 C 16.191406 -5.421875 16.457031 -5.335938 16.625 -5.171875 C 16.789062 -5.015625 16.875 -4.753906 16.875 -4.390625 L 16.875 -1.03125 C 16.875 -0.664062 16.789062 -0.398438 16.625 -0.234375 C 16.457031 -0.078125 16.191406 0 15.828125 0 Z M 15.828125 0 "/></g></g></g><g fill="#000000" fill-opacity="1"><g transform="translate(704.801705, 809.152116)"><g><path d="M 19.1875 -5.421875 C 19.1875 -4.546875 19.0625 -3.75 18.8125 -3.03125 C 18.570312 -2.3125 18.125 -1.695312 17.46875 -1.1875 C 16.820312 -0.6875 15.925781 -0.289062 14.78125 0 C 13.644531 0.289062 12.195312 0.4375 10.4375 0.4375 C 8.675781 0.4375 7.226562 0.289062 6.09375 0 C 4.957031 -0.289062 4.0625 -0.6875 3.40625 -1.1875 C 2.757812 -1.695312 2.304688 -2.3125 2.046875 -3.03125 C 1.785156 -3.75 1.65625 -4.546875 1.65625 -5.421875 L 1.65625 -15.203125 C 1.65625 -16.085938 1.785156 -16.882812 2.046875 -17.59375 C 2.304688 -18.3125 2.757812 -18.925781 3.40625 -19.4375 C 4.0625 -19.957031 4.957031 -20.359375 6.09375 -20.640625 C 7.226562 -20.929688 8.675781 -21.078125 10.4375 -21.078125 C 12.195312 -21.078125 13.644531 -20.929688 14.78125 -20.640625 C 15.925781 -20.359375 16.820312 -19.957031 17.46875 -19.4375 C 18.125 -18.925781 18.570312 -18.3125 18.8125 -17.59375 C 19.0625 -16.882812 19.1875 -16.085938 19.1875 -15.203125 Z M 8.140625 -6.453125 C 8.140625 -6.066406 8.28125 -5.742188 8.5625 -5.484375 C 8.84375 -5.234375 9.46875 -5.109375 10.4375 -5.109375 C 11.414062 -5.109375 12.039062 -5.234375 12.3125 -5.484375 C 12.59375 -5.742188 12.734375 -6.066406 12.734375 -6.453125 L 12.734375 -14.171875 C 12.734375 -14.535156 12.59375 -14.84375 12.3125 -15.09375 C 12.039062 -15.351562 11.414062 -15.484375 10.4375 -15.484375 C 9.46875 -15.484375 8.84375 -15.351562 8.5625 -15.09375 C 8.28125 -14.84375 8.140625 -14.535156 8.140625 -14.171875 Z M 8.140625 -6.453125 "/></g></g></g><g fill="#000000" fill-opacity="1"><g transform="translate(725.655908, 809.152116)"><g><path d="M 11.421875 -11.9375 C 11.421875 -11.4375 11.347656 -10.96875 11.203125 -10.53125 C 11.054688 -10.101562 10.789062 -9.742188 10.40625 -9.453125 C 10.03125 -9.160156 9.507812 -8.929688 8.84375 -8.765625 C 8.1875 -8.597656 7.351562 -8.515625 6.34375 -8.515625 C 4.289062 -8.515625 2.921875 -8.828125 2.234375 -9.453125 C 1.546875 -10.085938 1.203125 -10.914062 1.203125 -11.9375 L 1.203125 -17.390625 C 1.203125 -18.398438 1.546875 -19.21875 2.234375 -19.84375 C 2.921875 -20.476562 4.289062 -20.796875 6.34375 -20.796875 C 7.351562 -20.796875 8.1875 -20.710938 8.84375 -20.546875 C 9.507812 -20.390625 10.03125 -20.160156 10.40625 -19.859375 C 10.789062 -19.566406 11.054688 -19.203125 11.203125 -18.765625 C 11.347656 -18.335938 11.421875 -17.878906 11.421875 -17.390625 Z M 10.09375 -1.03125 L 14.6875 -19.625 C 14.757812 -19.96875 14.878906 -20.222656 15.046875 -20.390625 C 15.222656 -20.566406 15.492188 -20.65625 15.859375 -20.65625 L 18.875 -20.65625 C 19.238281 -20.65625 19.492188 -20.566406 19.640625 -20.390625 C 19.796875 -20.222656 19.835938 -19.96875 19.765625 -19.625 L 15.171875 -1.03125 C 15.097656 -0.6875 14.972656 -0.425781 14.796875 -0.25 C 14.628906 -0.0820312 14.363281 0 14 0 L 10.984375 0 C 10.617188 0 10.359375 -0.0820312 10.203125 -0.25 C 10.054688 -0.425781 10.019531 -0.6875 10.09375 -1.03125 Z M 5.359375 -12.828125 C 5.359375 -12.691406 5.414062 -12.570312 5.53125 -12.46875 C 5.644531 -12.363281 5.914062 -12.3125 6.34375 -12.3125 C 6.738281 -12.3125 6.992188 -12.363281 7.109375 -12.46875 C 7.222656 -12.570312 7.28125 -12.691406 7.28125 -12.828125 L 7.28125 -16.5 C 7.28125 -16.613281 7.222656 -16.722656 7.109375 -16.828125 C 6.992188 -16.929688 6.738281 -16.984375 6.34375 -16.984375 C 5.914062 -16.984375 5.644531 -16.929688 5.53125 -16.828125 C 5.414062 -16.722656 5.359375 -16.613281 5.359375 -16.5 Z M 28.578125 -3.234375 C 28.578125 -2.742188 28.503906 -2.28125 28.359375 -1.84375 C 28.210938 -1.414062 27.945312 -1.050781 27.5625 -0.75 C 27.1875 -0.457031 26.664062 -0.226562 26 -0.0625 C 25.34375 0.09375 24.507812 0.171875 23.5 0.171875 C 21.445312 0.171875 20.078125 -0.140625 19.390625 -0.765625 C 18.703125 -1.398438 18.359375 -2.222656 18.359375 -3.234375 L 18.359375 -8.6875 C 18.359375 -9.707031 18.703125 -10.53125 19.390625 -11.15625 C 20.078125 -11.789062 21.445312 -12.109375 23.5 -12.109375 C 24.507812 -12.109375 25.34375 -12.023438 26 -11.859375 C 26.664062 -11.703125 27.1875 -11.472656 27.5625 -11.171875 C 27.945312 -10.878906 28.210938 -10.515625 28.359375 -10.078125 C 28.503906 -9.648438 28.578125 -9.1875 28.578125 -8.6875 Z M 22.515625 -4.125 C 22.515625 -4 22.570312 -3.878906 22.6875 -3.765625 C 22.800781 -3.660156 23.070312 -3.609375 23.5 -3.609375 C 23.894531 -3.609375 24.148438 -3.660156 24.265625 -3.765625 C 24.378906 -3.878906 24.4375 -4 24.4375 -4.125 L 24.4375 -7.796875 C 24.4375 -7.910156 24.378906 -8.019531 24.265625 -8.125 C 24.148438 -8.238281 23.894531 -8.296875 23.5 -8.296875 C 23.070312 -8.296875 22.800781 -8.238281 22.6875 -8.125 C 22.570312 -8.019531 22.515625 -7.910156 22.515625 -7.796875 Z M 22.515625 -4.125 "/></g></g></g><g fill="#000000" fill-opacity="1"><g transform="translate(254.904897, 503.685327)"><g><path d="M 2.546875 0 C 2.191406 0 1.929688 -0.078125 1.765625 -0.234375 C 1.597656 -0.398438 1.515625 -0.664062 1.515625 -1.03125 L 1.515625 -4.453125 C 1.515625 -4.804688 1.597656 -5.066406 1.765625 -5.234375 C 1.929688 -5.398438 2.191406 -5.484375 2.546875 -5.484375 L 5.390625 -5.484375 L 5.390625 -15.125 L 2.546875 -15.125 C 2.191406 -15.125 1.929688 -15.203125 1.765625 -15.359375 C 1.597656 -15.523438 1.515625 -15.789062 1.515625 -16.15625 L 1.515625 -19.625 C 1.515625 -19.988281 1.597656 -20.25 1.765625 -20.40625 C 1.929688 -20.570312 2.191406 -20.65625 2.546875 -20.65625 L 14.78125 -20.65625 C 15.132812 -20.65625 15.394531 -20.570312 15.5625 -20.40625 C 15.726562 -20.25 15.8125 -19.988281 15.8125 -19.625 L 15.8125 -16.15625 C 15.8125 -15.789062 15.726562 -15.523438 15.5625 -15.359375 C 15.394531 -15.203125 15.132812 -15.125 14.78125 -15.125 L 11.984375 -15.125 L 11.984375 -5.484375 L 14.78125 -5.484375 C 15.132812 -5.484375 15.394531 -5.398438 15.5625 -5.234375 C 15.726562 -5.066406 15.8125 -4.804688 15.8125 -4.453125 L 15.8125 -1.03125 C 15.8125 -0.664062 15.726562 -0.398438 15.5625 -0.234375 C 15.394531 -0.078125 15.132812 0 14.78125 0 Z M 2.546875 0 "/></g></g></g><g fill="#000000" fill-opacity="1"><g transform="translate(272.259497, 503.685327)"><g><path d="M 11.734375 0 L 7.078125 0 C 6.722656 0 6.460938 -0.078125 6.296875 -0.234375 C 6.128906 -0.398438 6.046875 -0.664062 6.046875 -1.03125 L 6.046875 -15.125 L 1.84375 -15.125 C 1.476562 -15.125 1.210938 -15.203125 1.046875 -15.359375 C 0.878906 -15.523438 0.796875 -15.789062 0.796875 -16.15625 L 0.796875 -19.625 C 0.796875 -19.988281 0.878906 -20.25 1.046875 -20.40625 C 1.210938 -20.570312 1.476562 -20.65625 1.84375 -20.65625 L 16.984375 -20.65625 C 17.347656 -20.65625 17.609375 -20.570312 17.765625 -20.40625 C 17.929688 -20.25 18.015625 -19.988281 18.015625 -19.625 L 18.015625 -16.15625 C 18.015625 -15.789062 17.929688 -15.523438 17.765625 -15.359375 C 17.609375 -15.203125 17.347656 -15.125 16.984375 -15.125 L 12.765625 -15.125 L 12.765625 -1.03125 C 12.765625 -0.664062 12.679688 -0.398438 12.515625 -0.234375 C 12.359375 -0.078125 12.097656 0 11.734375 0 Z M 11.734375 0 "/></g></g></g><g fill="#000000" fill-opacity="1"><g transform="translate(291.077047, 503.685327)"><g><path d="M 16.328125 0 L 3.015625 0 C 2.648438 0 2.382812 -0.078125 2.21875 -0.234375 C 2.0625 -0.398438 1.984375 -0.664062 1.984375 -1.03125 L 1.984375 -19.625 C 1.984375 -19.988281 2.0625 -20.25 2.21875 -20.40625 C 2.382812 -20.570312 2.648438 -20.65625 3.015625 -20.65625 L 16.328125 -20.65625 C 16.691406 -20.65625 16.953125 -20.570312 17.109375 -20.40625 C 17.273438 -20.25 17.359375 -19.988281 17.359375 -19.625 L 17.359375 -16.265625 C 17.359375 -15.898438 17.273438 -15.632812 17.109375 -15.46875 C 16.953125 -15.3125 16.691406 -15.234375 16.328125 -15.234375 L 8.40625 -15.234375 L 8.40625 -13.03125 L 14 -13.03125 C 14.363281 -13.03125 14.625 -12.945312 14.78125 -12.78125 C 14.945312 -12.613281 15.03125 -12.347656 15.03125 -11.984375 L 15.03125 -8.921875 C 15.03125 -8.554688 14.945312 -8.289062 14.78125 -8.125 C 14.625 -7.96875 14.363281 -7.890625 14 -7.890625 L 8.40625 -7.890625 L 8.40625 -5.421875 L 16.328125 -5.421875 C 16.691406 -5.421875 16.953125 -5.335938 17.109375 -5.171875 C 17.273438 -5.015625 17.359375 -4.753906 17.359375 -4.390625 L 17.359375 -1.03125 C 17.359375 -0.664062 17.273438 -0.398438 17.109375 -0.234375 C 16.953125 -0.078125 16.691406 0 16.328125 0 Z M 16.328125 0 "/></g></g></g><g fill="#000000" fill-opacity="1"><g transform="translate(309.837217, 503.685327)"><g><path d="M 7.28125 0 L 3.015625 0 C 2.648438 0 2.382812 -0.078125 2.21875 -0.234375 C 2.0625 -0.398438 1.984375 -0.664062 1.984375 -1.03125 L 1.984375 -19.625 C 1.984375 -19.988281 2.0625 -20.25 2.21875 -20.40625 C 2.382812 -20.570312 2.648438 -20.65625 3.015625 -20.65625 L 7.625 -20.65625 C 7.9375 -20.65625 8.191406 -20.585938 8.390625 -20.453125 C 8.585938 -20.316406 8.773438 -20.097656 8.953125 -19.796875 L 11.53125 -15.125 C 11.625 -14.945312 11.703125 -14.816406 11.765625 -14.734375 C 11.835938 -14.660156 11.929688 -14.625 12.046875 -14.625 L 12.3125 -14.625 C 12.425781 -14.625 12.515625 -14.660156 12.578125 -14.734375 C 12.648438 -14.816406 12.734375 -14.945312 12.828125 -15.125 L 15.375 -19.796875 C 15.550781 -20.097656 15.738281 -20.316406 15.9375 -20.453125 C 16.132812 -20.585938 16.390625 -20.65625 16.703125 -20.65625 L 21.34375 -20.65625 C 21.707031 -20.65625 21.96875 -20.570312 22.125 -20.40625 C 22.289062 -20.25 22.375 -19.988281 22.375 -19.625 L 22.375 -1.03125 C 22.375 -0.664062 22.289062 -0.398438 22.125 -0.234375 C 21.96875 -0.078125 21.707031 0 21.34375 0 L 16.921875 0 C 16.554688 0 16.289062 -0.078125 16.125 -0.234375 C 15.96875 -0.398438 15.890625 -0.664062 15.890625 -1.03125 L 15.890625 -11.125 L 14.203125 -8 C 14.023438 -7.675781 13.816406 -7.441406 13.578125 -7.296875 C 13.335938 -7.148438 13.039062 -7.078125 12.6875 -7.078125 L 11.53125 -7.078125 C 11.164062 -7.078125 10.863281 -7.148438 10.625 -7.296875 C 10.382812 -7.441406 10.179688 -7.675781 10.015625 -8 L 8.3125 -11.125 L 8.3125 -1.03125 C 8.3125 -0.664062 8.226562 -0.398438 8.0625 -0.234375 C 7.90625 -0.078125 7.644531 0 7.28125 0 Z M 7.28125 0 "/></g></g></g><g fill="#000000" fill-opacity="1"><g transform="translate(334.191023, 503.685327)"><g/></g></g><g fill="#000000" fill-opacity="1"><g transform="translate(340.645209, 503.685327)"><g><path d="M 11.875 -4.796875 L 7.03125 -4.796875 C 5.175781 -4.796875 3.84375 -5.179688 3.03125 -5.953125 C 2.21875 -6.722656 1.8125 -7.921875 1.8125 -9.546875 L 1.8125 -19.625 C 1.8125 -19.988281 1.890625 -20.25 2.046875 -20.40625 C 2.210938 -20.570312 2.476562 -20.65625 2.84375 -20.65625 L 7.28125 -20.65625 C 7.644531 -20.65625 7.90625 -20.570312 8.0625 -20.40625 C 8.226562 -20.25 8.3125 -19.988281 8.3125 -19.625 L 8.3125 -11.765625 C 8.3125 -11.453125 8.394531 -11.207031 8.5625 -11.03125 C 8.726562 -10.863281 8.941406 -10.78125 9.203125 -10.78125 L 11.875 -10.78125 L 11.875 -19.625 C 11.875 -19.988281 11.953125 -20.25 12.109375 -20.40625 C 12.273438 -20.570312 12.539062 -20.65625 12.90625 -20.65625 L 17.328125 -20.65625 C 17.691406 -20.65625 17.953125 -20.570312 18.109375 -20.40625 C 18.273438 -20.25 18.359375 -19.988281 18.359375 -19.625 L 18.359375 -1.03125 C 18.359375 -0.664062 18.273438 -0.398438 18.109375 -0.234375 C 17.953125 -0.078125 17.691406 0 17.328125 0 L 12.90625 0 C 12.539062 0 12.273438 -0.078125 12.109375 -0.234375 C 11.953125 -0.398438 11.875 -0.664062 11.875 -1.03125 Z M 11.875 -4.796875 "/></g></g></g><g fill="#000000" fill-opacity="1"><g transform="translate(273.113289, 538.463356)"><g><path d="M 15.828125 0 L 2.1875 0 C 1.820312 0 1.554688 -0.078125 1.390625 -0.234375 C 1.222656 -0.398438 1.140625 -0.664062 1.140625 -1.03125 L 1.140625 -5.96875 C 1.140625 -7.070312 1.25 -7.984375 1.46875 -8.703125 C 1.695312 -9.421875 2.007812 -10.007812 2.40625 -10.46875 C 2.8125 -10.925781 3.289062 -11.289062 3.84375 -11.5625 C 4.394531 -11.832031 5 -12.0625 5.65625 -12.25 L 9.5 -13.453125 C 9.800781 -13.523438 10.003906 -13.640625 10.109375 -13.796875 C 10.210938 -13.953125 10.265625 -14.179688 10.265625 -14.484375 C 10.265625 -14.773438 10.207031 -14.972656 10.09375 -15.078125 C 9.976562 -15.179688 9.78125 -15.234375 9.5 -15.234375 L 3.265625 -15.234375 C 2.898438 -15.234375 2.632812 -15.3125 2.46875 -15.46875 C 2.3125 -15.632812 2.234375 -15.898438 2.234375 -16.265625 L 2.234375 -19.625 C 2.234375 -19.988281 2.3125 -20.25 2.46875 -20.40625 C 2.632812 -20.570312 2.898438 -20.65625 3.265625 -20.65625 L 11.734375 -20.65625 C 13.359375 -20.65625 14.601562 -20.25 15.46875 -19.4375 C 16.34375 -18.625 16.78125 -17.441406 16.78125 -15.890625 L 16.78125 -13.203125 C 16.78125 -11.765625 16.378906 -10.660156 15.578125 -9.890625 C 14.773438 -9.128906 13.6875 -8.539062 12.3125 -8.125 L 8.40625 -6.890625 C 8.113281 -6.804688 7.914062 -6.71875 7.8125 -6.625 C 7.707031 -6.53125 7.65625 -6.332031 7.65625 -6.03125 L 7.65625 -5.421875 L 15.828125 -5.421875 C 16.191406 -5.421875 16.457031 -5.335938 16.625 -5.171875 C 16.789062 -5.015625 16.875 -4.753906 16.875 -4.390625 L 16.875 -1.03125 C 16.875 -0.664062 16.789062 -0.398438 16.625 -0.234375 C 16.457031 -0.078125 16.191406 0 15.828125 0 Z M 15.828125 0 "/></g></g></g><g fill="#000000" fill-opacity="1"><g transform="translate(291.443185, 538.463356)"><g><path d="M 19.1875 -5.421875 C 19.1875 -4.546875 19.0625 -3.75 18.8125 -3.03125 C 18.570312 -2.3125 18.125 -1.695312 17.46875 -1.1875 C 16.820312 -0.6875 15.925781 -0.289062 14.78125 0 C 13.644531 0.289062 12.195312 0.4375 10.4375 0.4375 C 8.675781 0.4375 7.226562 0.289062 6.09375 0 C 4.957031 -0.289062 4.0625 -0.6875 3.40625 -1.1875 C 2.757812 -1.695312 2.304688 -2.3125 2.046875 -3.03125 C 1.785156 -3.75 1.65625 -4.546875 1.65625 -5.421875 L 1.65625 -15.203125 C 1.65625 -16.085938 1.785156 -16.882812 2.046875 -17.59375 C 2.304688 -18.3125 2.757812 -18.925781 3.40625 -19.4375 C 4.0625 -19.957031 4.957031 -20.359375 6.09375 -20.640625 C 7.226562 -20.929688 8.675781 -21.078125 10.4375 -21.078125 C 12.195312 -21.078125 13.644531 -20.929688 14.78125 -20.640625 C 15.925781 -20.359375 16.820312 -19.957031 17.46875 -19.4375 C 18.125 -18.925781 18.570312 -18.3125 18.8125 -17.59375 C 19.0625 -16.882812 19.1875 -16.085938 19.1875 -15.203125 Z M 8.140625 -6.453125 C 8.140625 -6.066406 8.28125 -5.742188 8.5625 -5.484375 C 8.84375 -5.234375 9.46875 -5.109375 10.4375 -5.109375 C 11.414062 -5.109375 12.039062 -5.234375 12.3125 -5.484375 C 12.59375 -5.742188 12.734375 -6.066406 12.734375 -6.453125 L 12.734375 -14.171875 C 12.734375 -14.535156 12.59375 -14.84375 12.3125 -15.09375 C 12.039062 -15.351562 11.414062 -15.484375 10.4375 -15.484375 C 9.46875 -15.484375 8.84375 -15.351562 8.5625 -15.09375 C 8.28125 -14.84375 8.140625 -14.535156 8.140625 -14.171875 Z M 8.140625 -6.453125 "/></g></g></g><g fill="#000000" fill-opacity="1"><g transform="translate(312.297388, 538.463356)"><g><path d="M 11.421875 -11.9375 C 11.421875 -11.4375 11.347656 -10.96875 11.203125 -10.53125 C 11.054688 -10.101562 10.789062 -9.742188 10.40625 -9.453125 C 10.03125 -9.160156 9.507812 -8.929688 8.84375 -8.765625 C 8.1875 -8.597656 7.351562 -8.515625 6.34375 -8.515625 C 4.289062 -8.515625 2.921875 -8.828125 2.234375 -9.453125 C 1.546875 -10.085938 1.203125 -10.914062 1.203125 -11.9375 L 1.203125 -17.390625 C 1.203125 -18.398438 1.546875 -19.21875 2.234375 -19.84375 C 2.921875 -20.476562 4.289062 -20.796875 6.34375 -20.796875 C 7.351562 -20.796875 8.1875 -20.710938 8.84375 -20.546875 C 9.507812 -20.390625 10.03125 -20.160156 10.40625 -19.859375 C 10.789062 -19.566406 11.054688 -19.203125 11.203125 -18.765625 C 11.347656 -18.335938 11.421875 -17.878906 11.421875 -17.390625 Z M 10.09375 -1.03125 L 14.6875 -19.625 C 14.757812 -19.96875 14.878906 -20.222656 15.046875 -20.390625 C 15.222656 -20.566406 15.492188 -20.65625 15.859375 -20.65625 L 18.875 -20.65625 C 19.238281 -20.65625 19.492188 -20.566406 19.640625 -20.390625 C 19.796875 -20.222656 19.835938 -19.96875 19.765625 -19.625 L 15.171875 -1.03125 C 15.097656 -0.6875 14.972656 -0.425781 14.796875 -0.25 C 14.628906 -0.0820312 14.363281 0 14 0 L 10.984375 0 C 10.617188 0 10.359375 -0.0820312 10.203125 -0.25 C 10.054688 -0.425781 10.019531 -0.6875 10.09375 -1.03125 Z M 5.359375 -12.828125 C 5.359375 -12.691406 5.414062 -12.570312 5.53125 -12.46875 C 5.644531 -12.363281 5.914062 -12.3125 6.34375 -12.3125 C 6.738281 -12.3125 6.992188 -12.363281 7.109375 -12.46875 C 7.222656 -12.570312 7.28125 -12.691406 7.28125 -12.828125 L 7.28125 -16.5 C 7.28125 -16.613281 7.222656 -16.722656 7.109375 -16.828125 C 6.992188 -16.929688 6.738281 -16.984375 6.34375 -16.984375 C 5.914062 -16.984375 5.644531 -16.929688 5.53125 -16.828125 C 5.414062 -16.722656 5.359375 -16.613281 5.359375 -16.5 Z M 28.578125 -3.234375 C 28.578125 -2.742188 28.503906 -2.28125 28.359375 -1.84375 C 28.210938 -1.414062 27.945312 -1.050781 27.5625 -0.75 C 27.1875 -0.457031 26.664062 -0.226562 26 -0.0625 C 25.34375 0.09375 24.507812 0.171875 23.5 0.171875 C 21.445312 0.171875 20.078125 -0.140625 19.390625 -0.765625 C 18.703125 -1.398438 18.359375 -2.222656 18.359375 -3.234375 L 18.359375 -8.6875 C 18.359375 -9.707031 18.703125 -10.53125 19.390625 -11.15625 C 20.078125 -11.789062 21.445312 -12.109375 23.5 -12.109375 C 24.507812 -12.109375 25.34375 -12.023438 26 -11.859375 C 26.664062 -11.703125 27.1875 -11.472656 27.5625 -11.171875 C 27.945312 -10.878906 28.210938 -10.515625 28.359375 -10.078125 C 28.503906 -9.648438 28.578125 -9.1875 28.578125 -8.6875 Z M 22.515625 -4.125 C 22.515625 -4 22.570312 -3.878906 22.6875 -3.765625 C 22.800781 -3.660156 23.070312 -3.609375 23.5 -3.609375 C 23.894531 -3.609375 24.148438 -3.660156 24.265625 -3.765625 C 24.378906 -3.878906 24.4375 -4 24.4375 -4.125 L 24.4375 -7.796875 C 24.4375 -7.910156 24.378906 -8.019531 24.265625 -8.125 C 24.148438 -8.238281 23.894531 -8.296875 23.5 -8.296875 C 23.070312 -8.296875 22.800781 -8.238281 22.6875 -8.125 C 22.570312 -8.019531 22.515625 -7.910156 22.515625 -7.796875 Z M 22.515625 -4.125 "/></g></g></g><g fill="#000000" fill-opacity="1"><g transform="translate(416.441353, 22.171394)"><g><path d="M 2.546875 0 C 2.191406 0 1.929688 -0.078125 1.765625 -0.234375 C 1.597656 -0.398438 1.515625 -0.664062 1.515625 -1.03125 L 1.515625 -4.453125 C 1.515625 -4.804688 1.597656 -5.066406 1.765625 -5.234375 C 1.929688 -5.398438 2.191406 -5.484375 2.546875 -5.484375 L 5.390625 -5.484375 L 5.390625 -15.125 L 2.546875 -15.125 C 2.191406 -15.125 1.929688 -15.203125 1.765625 -15.359375 C 1.597656 -15.523438 1.515625 -15.789062 1.515625 -16.15625 L 1.515625 -19.625 C 1.515625 -19.988281 1.597656 -20.25 1.765625 -20.40625 C 1.929688 -20.570312 2.191406 -20.65625 2.546875 -20.65625 L 14.78125 -20.65625 C 15.132812 -20.65625 15.394531 -20.570312 15.5625 -20.40625 C 15.726562 -20.25 15.8125 -19.988281 15.8125 -19.625 L 15.8125 -16.15625 C 15.8125 -15.789062 15.726562 -15.523438 15.5625 -15.359375 C 15.394531 -15.203125 15.132812 -15.125 14.78125 -15.125 L 11.984375 -15.125 L 11.984375 -5.484375 L 14.78125 -5.484375 C 15.132812 -5.484375 15.394531 -5.398438 15.5625 -5.234375 C 15.726562 -5.066406 15.8125 -4.804688 15.8125 -4.453125 L 15.8125 -1.03125 C 15.8125 -0.664062 15.726562 -0.398438 15.5625 -0.234375 C 15.394531 -0.078125 15.132812 0 14.78125 0 Z M 2.546875 0 "/></g></g></g><g fill="#000000" fill-opacity="1"><g transform="translate(433.795953, 22.171394)"><g><path d="M 11.734375 0 L 7.078125 0 C 6.722656 0 6.460938 -0.078125 6.296875 -0.234375 C 6.128906 -0.398438 6.046875 -0.664062 6.046875 -1.03125 L 6.046875 -15.125 L 1.84375 -15.125 C 1.476562 -15.125 1.210938 -15.203125 1.046875 -15.359375 C 0.878906 -15.523438 0.796875 -15.789062 0.796875 -16.15625 L 0.796875 -19.625 C 0.796875 -19.988281 0.878906 -20.25 1.046875 -20.40625 C 1.210938 -20.570312 1.476562 -20.65625 1.84375 -20.65625 L 16.984375 -20.65625 C 17.347656 -20.65625 17.609375 -20.570312 17.765625 -20.40625 C 17.929688 -20.25 18.015625 -19.988281 18.015625 -19.625 L 18.015625 -16.15625 C 18.015625 -15.789062 17.929688 -15.523438 17.765625 -15.359375 C 17.609375 -15.203125 17.347656 -15.125 16.984375 -15.125 L 12.765625 -15.125 L 12.765625 -1.03125 C 12.765625 -0.664062 12.679688 -0.398438 12.515625 -0.234375 C 12.359375 -0.078125 12.097656 0 11.734375 0 Z M 11.734375 0 "/></g></g></g><g fill="#000000" fill-opacity="1"><g transform="translate(452.613503, 22.171394)"><g><path d="M 16.328125 0 L 3.015625 0 C 2.648438 0 2.382812 -0.078125 2.21875 -0.234375 C 2.0625 -0.398438 1.984375 -0.664062 1.984375 -1.03125 L 1.984375 -19.625 C 1.984375 -19.988281 2.0625 -20.25 2.21875 -20.40625 C 2.382812 -20.570312 2.648438 -20.65625 3.015625 -20.65625 L 16.328125 -20.65625 C 16.691406 -20.65625 16.953125 -20.570312 17.109375 -20.40625 C 17.273438 -20.25 17.359375 -19.988281 17.359375 -19.625 L 17.359375 -16.265625 C 17.359375 -15.898438 17.273438 -15.632812 17.109375 -15.46875 C 16.953125 -15.3125 16.691406 -15.234375 16.328125 -15.234375 L 8.40625 -15.234375 L 8.40625 -13.03125 L 14 -13.03125 C 14.363281 -13.03125 14.625 -12.945312 14.78125 -12.78125 C 14.945312 -12.613281 15.03125 -12.347656 15.03125 -11.984375 L 15.03125 -8.921875 C 15.03125 -8.554688 14.945312 -8.289062 14.78125 -8.125 C 14.625 -7.96875 14.363281 -7.890625 14 -7.890625 L 8.40625 -7.890625 L 8.40625 -5.421875 L 16.328125 -5.421875 C 16.691406 -5.421875 16.953125 -5.335938 17.109375 -5.171875 C 17.273438 -5.015625 17.359375 -4.753906 17.359375 -4.390625 L 17.359375 -1.03125 C 17.359375 -0.664062 17.273438 -0.398438 17.109375 -0.234375 C 16.953125 -0.078125 16.691406 0 16.328125 0 Z M 16.328125 0 "/></g></g></g><g fill="#000000" fill-opacity="1"><g transform="translate(471.373673, 22.171394)"><g><path d="M 7.28125 0 L 3.015625 0 C 2.648438 0 2.382812 -0.078125 2.21875 -0.234375 C 2.0625 -0.398438 1.984375 -0.664062 1.984375 -1.03125 L 1.984375 -19.625 C 1.984375 -19.988281 2.0625 -20.25 2.21875 -20.40625 C 2.382812 -20.570312 2.648438 -20.65625 3.015625 -20.65625 L 7.625 -20.65625 C 7.9375 -20.65625 8.191406 -20.585938 8.390625 -20.453125 C 8.585938 -20.316406 8.773438 -20.097656 8.953125 -19.796875 L 11.53125 -15.125 C 11.625 -14.945312 11.703125 -14.816406 11.765625 -14.734375 C 11.835938 -14.660156 11.929688 -14.625 12.046875 -14.625 L 12.3125 -14.625 C 12.425781 -14.625 12.515625 -14.660156 12.578125 -14.734375 C 12.648438 -14.816406 12.734375 -14.945312 12.828125 -15.125 L 15.375 -19.796875 C 15.550781 -20.097656 15.738281 -20.316406 15.9375 -20.453125 C 16.132812 -20.585938 16.390625 -20.65625 16.703125 -20.65625 L 21.34375 -20.65625 C 21.707031 -20.65625 21.96875 -20.570312 22.125 -20.40625 C 22.289062 -20.25 22.375 -19.988281 22.375 -19.625 L 22.375 -1.03125 C 22.375 -0.664062 22.289062 -0.398438 22.125 -0.234375 C 21.96875 -0.078125 21.707031 0 21.34375 0 L 16.921875 0 C 16.554688 0 16.289062 -0.078125 16.125 -0.234375 C 15.96875 -0.398438 15.890625 -0.664062 15.890625 -1.03125 L 15.890625 -11.125 L 14.203125 -8 C 14.023438 -7.675781 13.816406 -7.441406 13.578125 -7.296875 C 13.335938 -7.148438 13.039062 -7.078125 12.6875 -7.078125 L 11.53125 -7.078125 C 11.164062 -7.078125 10.863281 -7.148438 10.625 -7.296875 C 10.382812 -7.441406 10.179688 -7.675781 10.015625 -8 L 8.3125 -11.125 L 8.3125 -1.03125 C 8.3125 -0.664062 8.226562 -0.398438 8.0625 -0.234375 C 7.90625 -0.078125 7.644531 0 7.28125 0 Z M 7.28125 0 "/></g></g></g><g fill="#000000" fill-opacity="1"><g transform="translate(495.72748, 22.171394)"><g/></g></g><g fill="#000000" fill-opacity="1"><g transform="translate(502.181665, 22.171394)"><g><path d="M 11.734375 0 L 2.609375 0 C 2.242188 0 1.976562 -0.078125 1.8125 -0.234375 C 1.65625 -0.398438 1.578125 -0.664062 1.578125 -1.03125 L 1.578125 -4.390625 C 1.578125 -4.753906 1.65625 -5.015625 1.8125 -5.171875 C 1.976562 -5.335938 2.242188 -5.421875 2.609375 -5.421875 L 10.015625 -5.421875 C 10.242188 -5.421875 10.425781 -5.472656 10.5625 -5.578125 C 10.707031 -5.679688 10.78125 -5.847656 10.78125 -6.078125 L 10.78125 -7.203125 C 10.78125 -7.429688 10.707031 -7.597656 10.5625 -7.703125 C 10.425781 -7.804688 10.242188 -7.859375 10.015625 -7.859375 L 2.890625 -7.859375 C 2.535156 -7.859375 2.273438 -7.9375 2.109375 -8.09375 C 1.941406 -8.257812 1.859375 -8.523438 1.859375 -8.890625 L 1.859375 -19.625 C 1.859375 -19.988281 1.941406 -20.25 2.109375 -20.40625 C 2.273438 -20.570312 2.535156 -20.65625 2.890625 -20.65625 L 15.265625 -20.65625 C 15.628906 -20.65625 15.890625 -20.570312 16.046875 -20.40625 C 16.210938 -20.25 16.296875 -19.988281 16.296875 -19.625 L 16.296875 -16.203125 C 16.296875 -15.835938 16.210938 -15.570312 16.046875 -15.40625 C 15.890625 -15.25 15.628906 -15.171875 15.265625 -15.171875 L 8.375 -15.171875 L 8.375 -13.3125 L 12.3125 -13.3125 C 13.851562 -13.3125 15.070312 -12.925781 15.96875 -12.15625 C 16.875 -11.394531 17.328125 -10.257812 17.328125 -8.75 L 17.328125 -4.765625 C 17.328125 -3.304688 16.820312 -2.144531 15.8125 -1.28125 C 14.8125 -0.425781 13.453125 0 11.734375 0 Z M 11.734375 0 "/></g></g></g><g fill="#000000" fill-opacity="1"><g transform="translate(434.215541, 56.949428)"><g><path d="M 15.828125 0 L 2.1875 0 C 1.820312 0 1.554688 -0.078125 1.390625 -0.234375 C 1.222656 -0.398438 1.140625 -0.664062 1.140625 -1.03125 L 1.140625 -5.96875 C 1.140625 -7.070312 1.25 -7.984375 1.46875 -8.703125 C 1.695312 -9.421875 2.007812 -10.007812 2.40625 -10.46875 C 2.8125 -10.925781 3.289062 -11.289062 3.84375 -11.5625 C 4.394531 -11.832031 5 -12.0625 5.65625 -12.25 L 9.5 -13.453125 C 9.800781 -13.523438 10.003906 -13.640625 10.109375 -13.796875 C 10.210938 -13.953125 10.265625 -14.179688 10.265625 -14.484375 C 10.265625 -14.773438 10.207031 -14.972656 10.09375 -15.078125 C 9.976562 -15.179688 9.78125 -15.234375 9.5 -15.234375 L 3.265625 -15.234375 C 2.898438 -15.234375 2.632812 -15.3125 2.46875 -15.46875 C 2.3125 -15.632812 2.234375 -15.898438 2.234375 -16.265625 L 2.234375 -19.625 C 2.234375 -19.988281 2.3125 -20.25 2.46875 -20.40625 C 2.632812 -20.570312 2.898438 -20.65625 3.265625 -20.65625 L 11.734375 -20.65625 C 13.359375 -20.65625 14.601562 -20.25 15.46875 -19.4375 C 16.34375 -18.625 16.78125 -17.441406 16.78125 -15.890625 L 16.78125 -13.203125 C 16.78125 -11.765625 16.378906 -10.660156 15.578125 -9.890625 C 14.773438 -9.128906 13.6875 -8.539062 12.3125 -8.125 L 8.40625 -6.890625 C 8.113281 -6.804688 7.914062 -6.71875 7.8125 -6.625 C 7.707031 -6.53125 7.65625 -6.332031 7.65625 -6.03125 L 7.65625 -5.421875 L 15.828125 -5.421875 C 16.191406 -5.421875 16.457031 -5.335938 16.625 -5.171875 C 16.789062 -5.015625 16.875 -4.753906 16.875 -4.390625 L 16.875 -1.03125 C 16.875 -0.664062 16.789062 -0.398438 16.625 -0.234375 C 16.457031 -0.078125 16.191406 0 15.828125 0 Z M 15.828125 0 "/></g></g></g><g fill="#000000" fill-opacity="1"><g transform="translate(452.545436, 56.949428)"><g><path d="M 19.1875 -5.421875 C 19.1875 -4.546875 19.0625 -3.75 18.8125 -3.03125 C 18.570312 -2.3125 18.125 -1.695312 17.46875 -1.1875 C 16.820312 -0.6875 15.925781 -0.289062 14.78125 0 C 13.644531 0.289062 12.195312 0.4375 10.4375 0.4375 C 8.675781 0.4375 7.226562 0.289062 6.09375 0 C 4.957031 -0.289062 4.0625 -0.6875 3.40625 -1.1875 C 2.757812 -1.695312 2.304688 -2.3125 2.046875 -3.03125 C 1.785156 -3.75 1.65625 -4.546875 1.65625 -5.421875 L 1.65625 -15.203125 C 1.65625 -16.085938 1.785156 -16.882812 2.046875 -17.59375 C 2.304688 -18.3125 2.757812 -18.925781 3.40625 -19.4375 C 4.0625 -19.957031 4.957031 -20.359375 6.09375 -20.640625 C 7.226562 -20.929688 8.675781 -21.078125 10.4375 -21.078125 C 12.195312 -21.078125 13.644531 -20.929688 14.78125 -20.640625 C 15.925781 -20.359375 16.820312 -19.957031 17.46875 -19.4375 C 18.125 -18.925781 18.570312 -18.3125 18.8125 -17.59375 C 19.0625 -16.882812 19.1875 -16.085938 19.1875 -15.203125 Z M 8.140625 -6.453125 C 8.140625 -6.066406 8.28125 -5.742188 8.5625 -5.484375 C 8.84375 -5.234375 9.46875 -5.109375 10.4375 -5.109375 C 11.414062 -5.109375 12.039062 -5.234375 12.3125 -5.484375 C 12.59375 -5.742188 12.734375 -6.066406 12.734375 -6.453125 L 12.734375 -14.171875 C 12.734375 -14.535156 12.59375 -14.84375 12.3125 -15.09375 C 12.039062 -15.351562 11.414062 -15.484375 10.4375 -15.484375 C 9.46875 -15.484375 8.84375 -15.351562 8.5625 -15.09375 C 8.28125 -14.84375 8.140625 -14.535156 8.140625 -14.171875 Z M 8.140625 -6.453125 "/></g></g></g><g fill="#000000" fill-opacity="1"><g transform="translate(473.39964, 56.949428)"><g><path d="M 11.421875 -11.9375 C 11.421875 -11.4375 11.347656 -10.96875 11.203125 -10.53125 C 11.054688 -10.101562 10.789062 -9.742188 10.40625 -9.453125 C 10.03125 -9.160156 9.507812 -8.929688 8.84375 -8.765625 C 8.1875 -8.597656 7.351562 -8.515625 6.34375 -8.515625 C 4.289062 -8.515625 2.921875 -8.828125 2.234375 -9.453125 C 1.546875 -10.085938 1.203125 -10.914062 1.203125 -11.9375 L 1.203125 -17.390625 C 1.203125 -18.398438 1.546875 -19.21875 2.234375 -19.84375 C 2.921875 -20.476562 4.289062 -20.796875 6.34375 -20.796875 C 7.351562 -20.796875 8.1875 -20.710938 8.84375 -20.546875 C 9.507812 -20.390625 10.03125 -20.160156 10.40625 -19.859375 C 10.789062 -19.566406 11.054688 -19.203125 11.203125 -18.765625 C 11.347656 -18.335938 11.421875 -17.878906 11.421875 -17.390625 Z M 10.09375 -1.03125 L 14.6875 -19.625 C 14.757812 -19.96875 14.878906 -20.222656 15.046875 -20.390625 C 15.222656 -20.566406 15.492188 -20.65625 15.859375 -20.65625 L 18.875 -20.65625 C 19.238281 -20.65625 19.492188 -20.566406 19.640625 -20.390625 C 19.796875 -20.222656 19.835938 -19.96875 19.765625 -19.625 L 15.171875 -1.03125 C 15.097656 -0.6875 14.972656 -0.425781 14.796875 -0.25 C 14.628906 -0.0820312 14.363281 0 14 0 L 10.984375 0 C 10.617188 0 10.359375 -0.0820312 10.203125 -0.25 C 10.054688 -0.425781 10.019531 -0.6875 10.09375 -1.03125 Z M 5.359375 -12.828125 C 5.359375 -12.691406 5.414062 -12.570312 5.53125 -12.46875 C 5.644531 -12.363281 5.914062 -12.3125 6.34375 -12.3125 C 6.738281 -12.3125 6.992188 -12.363281 7.109375 -12.46875 C 7.222656 -12.570312 7.28125 -12.691406 7.28125 -12.828125 L 7.28125 -16.5 C 7.28125 -16.613281 7.222656 -16.722656 7.109375 -16.828125 C 6.992188 -16.929688 6.738281 -16.984375 6.34375 -16.984375 C 5.914062 -16.984375 5.644531 -16.929688 5.53125 -16.828125 C 5.414062 -16.722656 5.359375 -16.613281 5.359375 -16.5 Z M 28.578125 -3.234375 C 28.578125 -2.742188 28.503906 -2.28125 28.359375 -1.84375 C 28.210938 -1.414062 27.945312 -1.050781 27.5625 -0.75 C 27.1875 -0.457031 26.664062 -0.226562 26 -0.0625 C 25.34375 0.09375 24.507812 0.171875 23.5 0.171875 C 21.445312 0.171875 20.078125 -0.140625 19.390625 -0.765625 C 18.703125 -1.398438 18.359375 -2.222656 18.359375 -3.234375 L 18.359375 -8.6875 C 18.359375 -9.707031 18.703125 -10.53125 19.390625 -11.15625 C 20.078125 -11.789062 21.445312 -12.109375 23.5 -12.109375 C 24.507812 -12.109375 25.34375 -12.023438 26 -11.859375 C 26.664062 -11.703125 27.1875 -11.472656 27.5625 -11.171875 C 27.945312 -10.878906 28.210938 -10.515625 28.359375 -10.078125 C 28.503906 -9.648438 28.578125 -9.1875 28.578125 -8.6875 Z M 22.515625 -4.125 C 22.515625 -4 22.570312 -3.878906 22.6875 -3.765625 C 22.800781 -3.660156 23.070312 -3.609375 23.5 -3.609375 C 23.894531 -3.609375 24.148438 -3.660156 24.265625 -3.765625 C 24.378906 -3.878906 24.4375 -4 24.4375 -4.125 L 24.4375 -7.796875 C 24.4375 -7.910156 24.378906 -8.019531 24.265625 -8.125 C 24.148438 -8.238281 23.894531 -8.296875 23.5 -8.296875 C 23.070312 -8.296875 22.800781 -8.238281 22.6875 -8.125 C 22.570312 -8.019531 22.515625 -7.910156 22.515625 -7.796875 Z M 22.515625 -4.125 "/></g></g></g></svg>