<svg xmlns="http://www.w3.org/2000/svg" xmlns:xlink="http://www.w3.org/1999/xlink" width="1920" zoomAndPan="magnify" viewBox="0 0 1440 809.999993" height="1080" preserveAspectRatio="xMidYMid meet" version="1.0"><defs><g/><clipPath id="f5182d0b08"><path d="M 320.835938 660.605469 L 518.117188 660.605469 L 518.117188 773.433594 L 320.835938 773.433594 Z M 320.835938 660.605469 " clip-rule="nonzero"/></clipPath><clipPath id="c90ebe86de"><path d="M 320.835938 547.777344 L 518.117188 547.777344 L 518.117188 660.605469 L 320.835938 660.605469 Z M 320.835938 547.777344 " clip-rule="nonzero"/></clipPath><clipPath id="e5586ef221"><path d="M 320.835938 491.363281 L 518.117188 491.363281 L 518.117188 547.777344 L 320.835938 547.777344 Z M 320.835938 491.363281 " clip-rule="nonzero"/></clipPath><clipPath id="83f70e0957"><path d="M 540.035156 604.191406 L 737.316406 604.191406 L 737.316406 773.433594 L 540.035156 773.433594 Z M 540.035156 604.191406 " clip-rule="nonzero"/></clipPath><clipPath id="b41bc61ad4"><path d="M 540.035156 463.15625 L 737.316406 463.15625 L 737.316406 604.191406 L 540.035156 604.191406 Z M 540.035156 463.15625 " clip-rule="nonzero"/></clipPath><clipPath id="fc1b7a5283"><path d="M 540.035156 350.328125 L 737.316406 350.328125 L 737.316406 463.15625 L 540.035156 463.15625 Z M 540.035156 350.328125 " clip-rule="nonzero"/></clipPath><clipPath id="6bcfcc3946"><path d="M 759.234375 547.777344 L 956.515625 547.777344 L 956.515625 773.433594 L 759.234375 773.433594 Z M 759.234375 547.777344 " clip-rule="nonzero"/></clipPath><clipPath id="44395f93b7"><path d="M 759.234375 406.742188 L 956.515625 406.742188 L 956.515625 547.777344 L 759.234375 547.777344 Z M 759.234375 406.742188 " clip-rule="nonzero"/></clipPath><clipPath id="9aa43c2360"><path d="M 759.234375 265.707031 L 956.515625 265.707031 L 956.515625 406.742188 L 759.234375 406.742188 Z M 759.234375 265.707031 " clip-rule="nonzero"/></clipPath><clipPath id="b08ef5381e"><path d="M 978.4375 491.363281 L 1175.71875 491.363281 L 1175.71875 773.433594 L 978.4375 773.433594 Z M 978.4375 491.363281 " clip-rule="nonzero"/></clipPath><clipPath id="5a1abd727a"><path d="M 978.4375 152.875 L 1175.71875 152.875 L 1175.71875 491.363281 L 978.4375 491.363281 Z M 978.4375 152.875 " clip-rule="nonzero"/></clipPath><clipPath id="83570a7f80"><path d="M 978.4375 68.253906 L 1175.71875 68.253906 L 1175.71875 152.875 L 978.4375 152.875 Z M 978.4375 68.253906 " clip-rule="nonzero"/></clipPath></defs><path fill="#6ce5e8" d="M 507.46875 17.410156 L 539.160156 17.410156 C 539.398438 17.410156 539.605469 17.496094 539.773438 17.667969 C 539.945312 17.835938 540.03125 18.042969 540.03125 18.28125 L 540.03125 49.972656 C 540.03125 50.210938 539.945312 50.417969 539.773438 50.585938 C 539.605469 50.757812 539.398438 50.84375 539.160156 50.84375 L 507.46875 50.84375 C 507.230469 50.84375 507.023438 50.757812 506.855469 50.585938 C 506.683594 50.417969 506.597656 50.210938 506.597656 49.972656 L 506.597656 18.28125 C 506.597656 18.042969 506.683594 17.835938 506.855469 17.667969 C 507.023438 17.496094 507.230469 17.410156 507.46875 17.410156 Z M 507.46875 17.410156 " fill-opacity="1" fill-rule="nonzero"/><g fill="#000000" fill-opacity="1"><g transform="translate(549.596935, 45.434103)"><g><path d="M 13.53125 -15.203125 C 13.414062 -16.203125 12.9375 -16.976562 12.09375 -17.53125 C 11.25 -18.082031 10.210938 -18.359375 8.984375 -18.359375 C 7.640625 -18.359375 6.554688 -18.039062 5.734375 -17.40625 C 4.921875 -16.769531 4.515625 -15.96875 4.515625 -15 C 4.515625 -14.269531 4.734375 -13.679688 5.171875 -13.234375 C 5.617188 -12.796875 6.144531 -12.453125 6.75 -12.203125 C 7.363281 -11.953125 7.921875 -11.765625 8.421875 -11.640625 L 10.484375 -11.078125 C 11.015625 -10.941406 11.601562 -10.75 12.25 -10.5 C 12.90625 -10.257812 13.53125 -9.929688 14.125 -9.515625 C 14.71875 -9.097656 15.207031 -8.5625 15.59375 -7.90625 C 15.988281 -7.25 16.1875 -6.445312 16.1875 -5.5 C 16.1875 -4.40625 15.898438 -3.414062 15.328125 -2.53125 C 14.753906 -1.644531 13.921875 -0.941406 12.828125 -0.421875 C 11.742188 0.0976562 10.421875 0.359375 8.859375 0.359375 C 6.679688 0.359375 4.953125 -0.15625 3.671875 -1.1875 C 2.398438 -2.21875 1.703125 -3.5625 1.578125 -5.21875 L 4.109375 -5.21875 C 4.179688 -4.457031 4.441406 -3.828125 4.890625 -3.328125 C 5.335938 -2.828125 5.910156 -2.457031 6.609375 -2.21875 C 7.304688 -1.976562 8.054688 -1.859375 8.859375 -1.859375 C 9.796875 -1.859375 10.632812 -2.007812 11.375 -2.3125 C 12.125 -2.625 12.71875 -3.054688 13.15625 -3.609375 C 13.59375 -4.160156 13.8125 -4.804688 13.8125 -5.546875 C 13.8125 -6.210938 13.625 -6.753906 13.25 -7.171875 C 12.875 -7.597656 12.378906 -7.941406 11.765625 -8.203125 C 11.148438 -8.472656 10.488281 -8.707031 9.78125 -8.90625 L 7.28125 -9.609375 C 5.695312 -10.066406 4.441406 -10.71875 3.515625 -11.5625 C 2.597656 -12.40625 2.140625 -13.507812 2.140625 -14.875 C 2.140625 -16.007812 2.445312 -17 3.0625 -17.84375 C 3.675781 -18.695312 4.503906 -19.359375 5.546875 -19.828125 C 6.597656 -20.296875 7.769531 -20.53125 9.0625 -20.53125 C 10.363281 -20.53125 11.519531 -20.296875 12.53125 -19.828125 C 13.550781 -19.367188 14.359375 -18.738281 14.953125 -17.9375 C 15.554688 -17.132812 15.875 -16.222656 15.90625 -15.203125 Z M 13.53125 -15.203125 "/></g></g></g><g fill="#000000" fill-opacity="1"><g transform="translate(567.365121, 45.434103)"><g><path d="M 8.515625 0.3125 C 7.046875 0.3125 5.78125 -0.0078125 4.71875 -0.65625 C 3.664062 -1.300781 2.851562 -2.207031 2.28125 -3.375 C 1.707031 -4.550781 1.421875 -5.921875 1.421875 -7.484375 C 1.421875 -9.035156 1.707031 -10.40625 2.28125 -11.59375 C 2.851562 -12.789062 3.648438 -13.722656 4.671875 -14.390625 C 5.703125 -15.054688 6.898438 -15.390625 8.265625 -15.390625 C 9.054688 -15.390625 9.835938 -15.257812 10.609375 -15 C 11.378906 -14.738281 12.082031 -14.3125 12.71875 -13.71875 C 13.351562 -13.125 13.859375 -12.34375 14.234375 -11.375 C 14.609375 -10.40625 14.796875 -9.210938 14.796875 -7.796875 L 14.796875 -6.8125 L 3.765625 -6.8125 C 3.816406 -5.1875 4.273438 -3.941406 5.140625 -3.078125 C 6.015625 -2.210938 7.140625 -1.78125 8.515625 -1.78125 C 9.429688 -1.78125 10.21875 -1.976562 10.875 -2.375 C 11.53125 -2.769531 12.007812 -3.363281 12.3125 -4.15625 L 14.5625 -3.515625 C 14.207031 -2.367188 13.492188 -1.441406 12.421875 -0.734375 C 11.359375 -0.0351562 10.054688 0.3125 8.515625 0.3125 Z M 3.765625 -8.828125 L 12.421875 -8.828125 C 12.421875 -10.109375 12.046875 -11.171875 11.296875 -12.015625 C 10.546875 -12.867188 9.535156 -13.296875 8.265625 -13.296875 C 7.378906 -13.296875 6.609375 -13.085938 5.953125 -12.671875 C 5.296875 -12.253906 4.78125 -11.703125 4.40625 -11.015625 C 4.03125 -10.335938 3.816406 -9.609375 3.765625 -8.828125 Z M 7.09375 -17.25 L 9.5 -21.84375 L 12.234375 -21.84375 L 9.140625 -17.25 Z M 7.09375 -17.25 "/></g></g></g><g fill="#000000" fill-opacity="1"><g transform="translate(583.589963, 45.434103)"><g><path d="M 2.140625 0 L 2.140625 -15.203125 L 4.390625 -15.203125 L 4.390625 -12.90625 L 4.546875 -12.90625 C 4.828125 -13.65625 5.328125 -14.265625 6.046875 -14.734375 C 6.773438 -15.203125 7.597656 -15.4375 8.515625 -15.4375 C 8.679688 -15.4375 8.890625 -15.429688 9.140625 -15.421875 C 9.398438 -15.410156 9.597656 -15.398438 9.734375 -15.390625 L 9.734375 -13.015625 C 9.648438 -13.035156 9.46875 -13.066406 9.1875 -13.109375 C 8.914062 -13.148438 8.625 -13.171875 8.3125 -13.171875 C 7.195312 -13.171875 6.273438 -12.832031 5.546875 -12.15625 C 4.828125 -11.488281 4.46875 -10.640625 4.46875 -9.609375 L 4.46875 0 Z M 2.140625 0 "/></g></g></g><g fill="#000000" fill-opacity="1"><g transform="translate(593.95804, 45.434103)"><g><path d="M 2.140625 0 L 2.140625 -15.203125 L 4.46875 -15.203125 L 4.46875 0 Z M 3.328125 -17.734375 C 2.867188 -17.734375 2.472656 -17.882812 2.140625 -18.1875 C 1.816406 -18.5 1.65625 -18.875 1.65625 -19.3125 C 1.65625 -19.75 1.816406 -20.117188 2.140625 -20.421875 C 2.472656 -20.734375 2.867188 -20.890625 3.328125 -20.890625 C 3.773438 -20.890625 4.160156 -20.734375 4.484375 -20.421875 C 4.816406 -20.117188 4.984375 -19.75 4.984375 -19.3125 C 4.984375 -18.875 4.816406 -18.5 4.484375 -18.1875 C 4.160156 -17.882812 3.773438 -17.734375 3.328125 -17.734375 Z M 3.328125 -17.734375 "/></g></g></g><g fill="#000000" fill-opacity="1"><g transform="translate(600.566703, 45.434103)"><g><path d="M 8.515625 0.3125 C 7.046875 0.3125 5.78125 -0.0078125 4.71875 -0.65625 C 3.664062 -1.300781 2.851562 -2.207031 2.28125 -3.375 C 1.707031 -4.550781 1.421875 -5.921875 1.421875 -7.484375 C 1.421875 -9.035156 1.707031 -10.40625 2.28125 -11.59375 C 2.851562 -12.789062 3.648438 -13.722656 4.671875 -14.390625 C 5.703125 -15.054688 6.898438 -15.390625 8.265625 -15.390625 C 9.054688 -15.390625 9.835938 -15.257812 10.609375 -15 C 11.378906 -14.738281 12.082031 -14.3125 12.71875 -13.71875 C 13.351562 -13.125 13.859375 -12.34375 14.234375 -11.375 C 14.609375 -10.40625 14.796875 -9.210938 14.796875 -7.796875 L 14.796875 -6.8125 L 3.765625 -6.8125 C 3.816406 -5.1875 4.273438 -3.941406 5.140625 -3.078125 C 6.015625 -2.210938 7.140625 -1.78125 8.515625 -1.78125 C 9.429688 -1.78125 10.21875 -1.976562 10.875 -2.375 C 11.53125 -2.769531 12.007812 -3.363281 12.3125 -4.15625 L 14.5625 -3.515625 C 14.207031 -2.367188 13.492188 -1.441406 12.421875 -0.734375 C 11.359375 -0.0351562 10.054688 0.3125 8.515625 0.3125 Z M 3.765625 -8.828125 L 12.421875 -8.828125 C 12.421875 -10.109375 12.046875 -11.171875 11.296875 -12.015625 C 10.546875 -12.867188 9.535156 -13.296875 8.265625 -13.296875 C 7.378906 -13.296875 6.609375 -13.085938 5.953125 -12.671875 C 5.296875 -12.253906 4.78125 -11.703125 4.40625 -11.015625 C 4.03125 -10.335938 3.816406 -9.609375 3.765625 -8.828125 Z M 3.765625 -8.828125 "/></g></g></g><g fill="#000000" fill-opacity="1"><g transform="translate(616.791545, 45.434103)"><g><path d="M 3.84375 0.15625 C 3.351562 0.15625 2.929688 -0.015625 2.578125 -0.359375 C 2.234375 -0.710938 2.0625 -1.132812 2.0625 -1.625 C 2.0625 -2.113281 2.234375 -2.53125 2.578125 -2.875 C 2.929688 -3.226562 3.351562 -3.40625 3.84375 -3.40625 C 4.332031 -3.40625 4.75 -3.226562 5.09375 -2.875 C 5.445312 -2.53125 5.625 -2.113281 5.625 -1.625 C 5.625 -1.132812 5.445312 -0.710938 5.09375 -0.359375 C 4.75 -0.015625 4.332031 0.15625 3.84375 0.15625 Z M 3.84375 -11.125 C 3.351562 -11.125 2.929688 -11.296875 2.578125 -11.640625 C 2.234375 -11.992188 2.0625 -12.414062 2.0625 -12.90625 C 2.0625 -13.394531 2.234375 -13.8125 2.578125 -14.15625 C 2.929688 -14.507812 3.351562 -14.6875 3.84375 -14.6875 C 4.332031 -14.6875 4.75 -14.507812 5.09375 -14.15625 C 5.445312 -13.8125 5.625 -13.394531 5.625 -12.90625 C 5.625 -12.414062 5.445312 -11.992188 5.09375 -11.640625 C 4.75 -11.296875 4.332031 -11.125 3.84375 -11.125 Z M 3.84375 -11.125 "/></g></g></g><g fill="#000000" fill-opacity="1"><g transform="translate(624.468669, 45.434103)"><g/></g></g><g fill="#000000" fill-opacity="1"><g transform="translate(632.304088, 45.434103)"><g><path d="M 8.59375 -20.265625 L 8.59375 0 L 6.140625 0 L 6.140625 -16.703125 L 5.96875 -16.703125 C 5.882812 -16.515625 5.648438 -16.300781 5.265625 -16.0625 C 4.878906 -15.832031 4.382812 -15.628906 3.78125 -15.453125 C 3.175781 -15.285156 2.484375 -15.203125 1.703125 -15.203125 L 1.703125 -17.25 C 2.484375 -17.25 3.160156 -17.390625 3.734375 -17.671875 C 4.304688 -17.960938 4.785156 -18.296875 5.171875 -18.671875 C 5.566406 -19.054688 5.863281 -19.40625 6.0625 -19.71875 C 6.257812 -20.03125 6.375 -20.210938 6.40625 -20.265625 Z M 8.59375 -20.265625 "/></g></g></g><path fill="#41b8d5" d="M 670.621094 17.410156 L 702.308594 17.410156 C 702.550781 17.410156 702.753906 17.496094 702.925781 17.667969 C 703.09375 17.835938 703.179688 18.042969 703.179688 18.28125 L 703.179688 49.972656 C 703.179688 50.210938 703.09375 50.417969 702.925781 50.585938 C 702.753906 50.757812 702.550781 50.84375 702.308594 50.84375 L 670.621094 50.84375 C 670.378906 50.84375 670.171875 50.757812 670.003906 50.585938 C 669.832031 50.417969 669.75 50.210938 669.75 49.972656 L 669.75 18.28125 C 669.75 18.042969 669.832031 17.835938 670.003906 17.667969 C 670.171875 17.496094 670.378906 17.410156 670.621094 17.410156 Z M 670.621094 17.410156 " fill-opacity="1" fill-rule="nonzero"/><g fill="#000000" fill-opacity="1"><g transform="translate(712.751544, 45.434103)"><g><path d="M 13.53125 -15.203125 C 13.414062 -16.203125 12.9375 -16.976562 12.09375 -17.53125 C 11.25 -18.082031 10.210938 -18.359375 8.984375 -18.359375 C 7.640625 -18.359375 6.554688 -18.039062 5.734375 -17.40625 C 4.921875 -16.769531 4.515625 -15.96875 4.515625 -15 C 4.515625 -14.269531 4.734375 -13.679688 5.171875 -13.234375 C 5.617188 -12.796875 6.144531 -12.453125 6.75 -12.203125 C 7.363281 -11.953125 7.921875 -11.765625 8.421875 -11.640625 L 10.484375 -11.078125 C 11.015625 -10.941406 11.601562 -10.75 12.25 -10.5 C 12.90625 -10.257812 13.53125 -9.929688 14.125 -9.515625 C 14.71875 -9.097656 15.207031 -8.5625 15.59375 -7.90625 C 15.988281 -7.25 16.1875 -6.445312 16.1875 -5.5 C 16.1875 -4.40625 15.898438 -3.414062 15.328125 -2.53125 C 14.753906 -1.644531 13.921875 -0.941406 12.828125 -0.421875 C 11.742188 0.0976562 10.421875 0.359375 8.859375 0.359375 C 6.679688 0.359375 4.953125 -0.15625 3.671875 -1.1875 C 2.398438 -2.21875 1.703125 -3.5625 1.578125 -5.21875 L 4.109375 -5.21875 C 4.179688 -4.457031 4.441406 -3.828125 4.890625 -3.328125 C 5.335938 -2.828125 5.910156 -2.457031 6.609375 -2.21875 C 7.304688 -1.976562 8.054688 -1.859375 8.859375 -1.859375 C 9.796875 -1.859375 10.632812 -2.007812 11.375 -2.3125 C 12.125 -2.625 12.71875 -3.054688 13.15625 -3.609375 C 13.59375 -4.160156 13.8125 -4.804688 13.8125 -5.546875 C 13.8125 -6.210938 13.625 -6.753906 13.25 -7.171875 C 12.875 -7.597656 12.378906 -7.941406 11.765625 -8.203125 C 11.148438 -8.472656 10.488281 -8.707031 9.78125 -8.90625 L 7.28125 -9.609375 C 5.695312 -10.066406 4.441406 -10.71875 3.515625 -11.5625 C 2.597656 -12.40625 2.140625 -13.507812 2.140625 -14.875 C 2.140625 -16.007812 2.445312 -17 3.0625 -17.84375 C 3.675781 -18.695312 4.503906 -19.359375 5.546875 -19.828125 C 6.597656 -20.296875 7.769531 -20.53125 9.0625 -20.53125 C 10.363281 -20.53125 11.519531 -20.296875 12.53125 -19.828125 C 13.550781 -19.367188 14.359375 -18.738281 14.953125 -17.9375 C 15.554688 -17.132812 15.875 -16.222656 15.90625 -15.203125 Z M 13.53125 -15.203125 "/></g></g></g><g fill="#000000" fill-opacity="1"><g transform="translate(730.51973, 45.434103)"><g><path d="M 8.515625 0.3125 C 7.046875 0.3125 5.78125 -0.0078125 4.71875 -0.65625 C 3.664062 -1.300781 2.851562 -2.207031 2.28125 -3.375 C 1.707031 -4.550781 1.421875 -5.921875 1.421875 -7.484375 C 1.421875 -9.035156 1.707031 -10.40625 2.28125 -11.59375 C 2.851562 -12.789062 3.648438 -13.722656 4.671875 -14.390625 C 5.703125 -15.054688 6.898438 -15.390625 8.265625 -15.390625 C 9.054688 -15.390625 9.835938 -15.257812 10.609375 -15 C 11.378906 -14.738281 12.082031 -14.3125 12.71875 -13.71875 C 13.351562 -13.125 13.859375 -12.34375 14.234375 -11.375 C 14.609375 -10.40625 14.796875 -9.210938 14.796875 -7.796875 L 14.796875 -6.8125 L 3.765625 -6.8125 C 3.816406 -5.1875 4.273438 -3.941406 5.140625 -3.078125 C 6.015625 -2.210938 7.140625 -1.78125 8.515625 -1.78125 C 9.429688 -1.78125 10.21875 -1.976562 10.875 -2.375 C 11.53125 -2.769531 12.007812 -3.363281 12.3125 -4.15625 L 14.5625 -3.515625 C 14.207031 -2.367188 13.492188 -1.441406 12.421875 -0.734375 C 11.359375 -0.0351562 10.054688 0.3125 8.515625 0.3125 Z M 3.765625 -8.828125 L 12.421875 -8.828125 C 12.421875 -10.109375 12.046875 -11.171875 11.296875 -12.015625 C 10.546875 -12.867188 9.535156 -13.296875 8.265625 -13.296875 C 7.378906 -13.296875 6.609375 -13.085938 5.953125 -12.671875 C 5.296875 -12.253906 4.78125 -11.703125 4.40625 -11.015625 C 4.03125 -10.335938 3.816406 -9.609375 3.765625 -8.828125 Z M 7.09375 -17.25 L 9.5 -21.84375 L 12.234375 -21.84375 L 9.140625 -17.25 Z M 7.09375 -17.25 "/></g></g></g><g fill="#000000" fill-opacity="1"><g transform="translate(746.744572, 45.434103)"><g><path d="M 2.140625 0 L 2.140625 -15.203125 L 4.390625 -15.203125 L 4.390625 -12.90625 L 4.546875 -12.90625 C 4.828125 -13.65625 5.328125 -14.265625 6.046875 -14.734375 C 6.773438 -15.203125 7.597656 -15.4375 8.515625 -15.4375 C 8.679688 -15.4375 8.890625 -15.429688 9.140625 -15.421875 C 9.398438 -15.410156 9.597656 -15.398438 9.734375 -15.390625 L 9.734375 -13.015625 C 9.648438 -13.035156 9.46875 -13.066406 9.1875 -13.109375 C 8.914062 -13.148438 8.625 -13.171875 8.3125 -13.171875 C 7.195312 -13.171875 6.273438 -12.832031 5.546875 -12.15625 C 4.828125 -11.488281 4.46875 -10.640625 4.46875 -9.609375 L 4.46875 0 Z M 2.140625 0 "/></g></g></g><g fill="#000000" fill-opacity="1"><g transform="translate(757.112649, 45.434103)"><g><path d="M 2.140625 0 L 2.140625 -15.203125 L 4.46875 -15.203125 L 4.46875 0 Z M 3.328125 -17.734375 C 2.867188 -17.734375 2.472656 -17.882812 2.140625 -18.1875 C 1.816406 -18.5 1.65625 -18.875 1.65625 -19.3125 C 1.65625 -19.75 1.816406 -20.117188 2.140625 -20.421875 C 2.472656 -20.734375 2.867188 -20.890625 3.328125 -20.890625 C 3.773438 -20.890625 4.160156 -20.734375 4.484375 -20.421875 C 4.816406 -20.117188 4.984375 -19.75 4.984375 -19.3125 C 4.984375 -18.875 4.816406 -18.5 4.484375 -18.1875 C 4.160156 -17.882812 3.773438 -17.734375 3.328125 -17.734375 Z M 3.328125 -17.734375 "/></g></g></g><g fill="#000000" fill-opacity="1"><g transform="translate(763.721312, 45.434103)"><g><path d="M 8.515625 0.3125 C 7.046875 0.3125 5.78125 -0.0078125 4.71875 -0.65625 C 3.664062 -1.300781 2.851562 -2.207031 2.28125 -3.375 C 1.707031 -4.550781 1.421875 -5.921875 1.421875 -7.484375 C 1.421875 -9.035156 1.707031 -10.40625 2.28125 -11.59375 C 2.851562 -12.789062 3.648438 -13.722656 4.671875 -14.390625 C 5.703125 -15.054688 6.898438 -15.390625 8.265625 -15.390625 C 9.054688 -15.390625 9.835938 -15.257812 10.609375 -15 C 11.378906 -14.738281 12.082031 -14.3125 12.71875 -13.71875 C 13.351562 -13.125 13.859375 -12.34375 14.234375 -11.375 C 14.609375 -10.40625 14.796875 -9.210938 14.796875 -7.796875 L 14.796875 -6.8125 L 3.765625 -6.8125 C 3.816406 -5.1875 4.273438 -3.941406 5.140625 -3.078125 C 6.015625 -2.210938 7.140625 -1.78125 8.515625 -1.78125 C 9.429688 -1.78125 10.21875 -1.976562 10.875 -2.375 C 11.53125 -2.769531 12.007812 -3.363281 12.3125 -4.15625 L 14.5625 -3.515625 C 14.207031 -2.367188 13.492188 -1.441406 12.421875 -0.734375 C 11.359375 -0.0351562 10.054688 0.3125 8.515625 0.3125 Z M 3.765625 -8.828125 L 12.421875 -8.828125 C 12.421875 -10.109375 12.046875 -11.171875 11.296875 -12.015625 C 10.546875 -12.867188 9.535156 -13.296875 8.265625 -13.296875 C 7.378906 -13.296875 6.609375 -13.085938 5.953125 -12.671875 C 5.296875 -12.253906 4.78125 -11.703125 4.40625 -11.015625 C 4.03125 -10.335938 3.816406 -9.609375 3.765625 -8.828125 Z M 3.765625 -8.828125 "/></g></g></g><g fill="#000000" fill-opacity="1"><g transform="translate(779.946154, 45.434103)"><g><path d="M 3.84375 0.15625 C 3.351562 0.15625 2.929688 -0.015625 2.578125 -0.359375 C 2.234375 -0.710938 2.0625 -1.132812 2.0625 -1.625 C 2.0625 -2.113281 2.234375 -2.53125 2.578125 -2.875 C 2.929688 -3.226562 3.351562 -3.40625 3.84375 -3.40625 C 4.332031 -3.40625 4.75 -3.226562 5.09375 -2.875 C 5.445312 -2.53125 5.625 -2.113281 5.625 -1.625 C 5.625 -1.132812 5.445312 -0.710938 5.09375 -0.359375 C 4.75 -0.015625 4.332031 0.15625 3.84375 0.15625 Z M 3.84375 -11.125 C 3.351562 -11.125 2.929688 -11.296875 2.578125 -11.640625 C 2.234375 -11.992188 2.0625 -12.414062 2.0625 -12.90625 C 2.0625 -13.394531 2.234375 -13.8125 2.578125 -14.15625 C 2.929688 -14.507812 3.351562 -14.6875 3.84375 -14.6875 C 4.332031 -14.6875 4.75 -14.507812 5.09375 -14.15625 C 5.445312 -13.8125 5.625 -13.394531 5.625 -12.90625 C 5.625 -12.414062 5.445312 -11.992188 5.09375 -11.640625 C 4.75 -11.296875 4.332031 -11.125 3.84375 -11.125 Z M 3.84375 -11.125 "/></g></g></g><g fill="#000000" fill-opacity="1"><g transform="translate(787.623278, 45.434103)"><g/></g></g><g fill="#000000" fill-opacity="1"><g transform="translate(795.458697, 45.434103)"><g><path d="M 2.09375 0 L 2.09375 -1.78125 L 8.78125 -9.109375 C 9.570312 -9.960938 10.21875 -10.707031 10.71875 -11.34375 C 11.226562 -11.976562 11.609375 -12.578125 11.859375 -13.140625 C 12.109375 -13.703125 12.234375 -14.296875 12.234375 -14.921875 C 12.234375 -15.984375 11.859375 -16.828125 11.109375 -17.453125 C 10.367188 -18.085938 9.445312 -18.40625 8.34375 -18.40625 C 7.175781 -18.40625 6.242188 -18.050781 5.546875 -17.34375 C 4.859375 -16.644531 4.515625 -15.71875 4.515625 -14.5625 L 2.171875 -14.5625 C 2.171875 -15.75 2.441406 -16.789062 2.984375 -17.6875 C 3.535156 -18.582031 4.285156 -19.28125 5.234375 -19.78125 C 6.179688 -20.28125 7.242188 -20.53125 8.421875 -20.53125 C 9.609375 -20.53125 10.660156 -20.28125 11.578125 -19.78125 C 12.492188 -19.28125 13.210938 -18.601562 13.734375 -17.75 C 14.253906 -16.90625 14.515625 -15.960938 14.515625 -14.921875 C 14.515625 -14.171875 14.378906 -13.441406 14.109375 -12.734375 C 13.847656 -12.023438 13.390625 -11.238281 12.734375 -10.375 C 12.078125 -9.507812 11.171875 -8.453125 10.015625 -7.203125 L 5.46875 -2.328125 L 5.46875 -2.171875 L 14.875 -2.171875 L 14.875 0 Z M 2.09375 0 "/></g></g></g><path fill="#2d8bba" d="M 840.734375 17.410156 L 872.421875 17.410156 C 872.664062 17.410156 872.867188 17.496094 873.039062 17.667969 C 873.207031 17.835938 873.292969 18.042969 873.292969 18.28125 L 873.292969 49.972656 C 873.292969 50.210938 873.207031 50.417969 873.039062 50.585938 C 872.867188 50.757812 872.664062 50.84375 872.421875 50.84375 L 840.734375 50.84375 C 840.492188 50.84375 840.289062 50.757812 840.117188 50.585938 C 839.949219 50.417969 839.863281 50.210938 839.863281 49.972656 L 839.863281 18.28125 C 839.863281 18.042969 839.949219 17.835938 840.117188 17.667969 C 840.289062 17.496094 840.492188 17.410156 840.734375 17.410156 Z M 840.734375 17.410156 " fill-opacity="1" fill-rule="nonzero"/><g fill="#000000" fill-opacity="1"><g transform="translate(882.857292, 45.434103)"><g><path d="M 13.53125 -15.203125 C 13.414062 -16.203125 12.9375 -16.976562 12.09375 -17.53125 C 11.25 -18.082031 10.210938 -18.359375 8.984375 -18.359375 C 7.640625 -18.359375 6.554688 -18.039062 5.734375 -17.40625 C 4.921875 -16.769531 4.515625 -15.96875 4.515625 -15 C 4.515625 -14.269531 4.734375 -13.679688 5.171875 -13.234375 C 5.617188 -12.796875 6.144531 -12.453125 6.75 -12.203125 C 7.363281 -11.953125 7.921875 -11.765625 8.421875 -11.640625 L 10.484375 -11.078125 C 11.015625 -10.941406 11.601562 -10.75 12.25 -10.5 C 12.90625 -10.257812 13.53125 -9.929688 14.125 -9.515625 C 14.71875 -9.097656 15.207031 -8.5625 15.59375 -7.90625 C 15.988281 -7.25 16.1875 -6.445312 16.1875 -5.5 C 16.1875 -4.40625 15.898438 -3.414062 15.328125 -2.53125 C 14.753906 -1.644531 13.921875 -0.941406 12.828125 -0.421875 C 11.742188 0.0976562 10.421875 0.359375 8.859375 0.359375 C 6.679688 0.359375 4.953125 -0.15625 3.671875 -1.1875 C 2.398438 -2.21875 1.703125 -3.5625 1.578125 -5.21875 L 4.109375 -5.21875 C 4.179688 -4.457031 4.441406 -3.828125 4.890625 -3.328125 C 5.335938 -2.828125 5.910156 -2.457031 6.609375 -2.21875 C 7.304688 -1.976562 8.054688 -1.859375 8.859375 -1.859375 C 9.796875 -1.859375 10.632812 -2.007812 11.375 -2.3125 C 12.125 -2.625 12.71875 -3.054688 13.15625 -3.609375 C 13.59375 -4.160156 13.8125 -4.804688 13.8125 -5.546875 C 13.8125 -6.210938 13.625 -6.753906 13.25 -7.171875 C 12.875 -7.597656 12.378906 -7.941406 11.765625 -8.203125 C 11.148438 -8.472656 10.488281 -8.707031 9.78125 -8.90625 L 7.28125 -9.609375 C 5.695312 -10.066406 4.441406 -10.71875 3.515625 -11.5625 C 2.597656 -12.40625 2.140625 -13.507812 2.140625 -14.875 C 2.140625 -16.007812 2.445312 -17 3.0625 -17.84375 C 3.675781 -18.695312 4.503906 -19.359375 5.546875 -19.828125 C 6.597656 -20.296875 7.769531 -20.53125 9.0625 -20.53125 C 10.363281 -20.53125 11.519531 -20.296875 12.53125 -19.828125 C 13.550781 -19.367188 14.359375 -18.738281 14.953125 -17.9375 C 15.554688 -17.132812 15.875 -16.222656 15.90625 -15.203125 Z M 13.53125 -15.203125 "/></g></g></g><g fill="#000000" fill-opacity="1"><g transform="translate(900.625478, 45.434103)"><g><path d="M 8.515625 0.3125 C 7.046875 0.3125 5.78125 -0.0078125 4.71875 -0.65625 C 3.664062 -1.300781 2.851562 -2.207031 2.28125 -3.375 C 1.707031 -4.550781 1.421875 -5.921875 1.421875 -7.484375 C 1.421875 -9.035156 1.707031 -10.40625 2.28125 -11.59375 C 2.851562 -12.789062 3.648438 -13.722656 4.671875 -14.390625 C 5.703125 -15.054688 6.898438 -15.390625 8.265625 -15.390625 C 9.054688 -15.390625 9.835938 -15.257812 10.609375 -15 C 11.378906 -14.738281 12.082031 -14.3125 12.71875 -13.71875 C 13.351562 -13.125 13.859375 -12.34375 14.234375 -11.375 C 14.609375 -10.40625 14.796875 -9.210938 14.796875 -7.796875 L 14.796875 -6.8125 L 3.765625 -6.8125 C 3.816406 -5.1875 4.273438 -3.941406 5.140625 -3.078125 C 6.015625 -2.210938 7.140625 -1.78125 8.515625 -1.78125 C 9.429688 -1.78125 10.21875 -1.976562 10.875 -2.375 C 11.53125 -2.769531 12.007812 -3.363281 12.3125 -4.15625 L 14.5625 -3.515625 C 14.207031 -2.367188 13.492188 -1.441406 12.421875 -0.734375 C 11.359375 -0.0351562 10.054688 0.3125 8.515625 0.3125 Z M 3.765625 -8.828125 L 12.421875 -8.828125 C 12.421875 -10.109375 12.046875 -11.171875 11.296875 -12.015625 C 10.546875 -12.867188 9.535156 -13.296875 8.265625 -13.296875 C 7.378906 -13.296875 6.609375 -13.085938 5.953125 -12.671875 C 5.296875 -12.253906 4.78125 -11.703125 4.40625 -11.015625 C 4.03125 -10.335938 3.816406 -9.609375 3.765625 -8.828125 Z M 7.09375 -17.25 L 9.5 -21.84375 L 12.234375 -21.84375 L 9.140625 -17.25 Z M 7.09375 -17.25 "/></g></g></g><g fill="#000000" fill-opacity="1"><g transform="translate(916.850319, 45.434103)"><g><path d="M 2.140625 0 L 2.140625 -15.203125 L 4.390625 -15.203125 L 4.390625 -12.90625 L 4.546875 -12.90625 C 4.828125 -13.65625 5.328125 -14.265625 6.046875 -14.734375 C 6.773438 -15.203125 7.597656 -15.4375 8.515625 -15.4375 C 8.679688 -15.4375 8.890625 -15.429688 9.140625 -15.421875 C 9.398438 -15.410156 9.597656 -15.398438 9.734375 -15.390625 L 9.734375 -13.015625 C 9.648438 -13.035156 9.46875 -13.066406 9.1875 -13.109375 C 8.914062 -13.148438 8.625 -13.171875 8.3125 -13.171875 C 7.195312 -13.171875 6.273438 -12.832031 5.546875 -12.15625 C 4.828125 -11.488281 4.46875 -10.640625 4.46875 -9.609375 L 4.46875 0 Z M 2.140625 0 "/></g></g></g><g fill="#000000" fill-opacity="1"><g transform="translate(927.218397, 45.434103)"><g><path d="M 2.140625 0 L 2.140625 -15.203125 L 4.46875 -15.203125 L 4.46875 0 Z M 3.328125 -17.734375 C 2.867188 -17.734375 2.472656 -17.882812 2.140625 -18.1875 C 1.816406 -18.5 1.65625 -18.875 1.65625 -19.3125 C 1.65625 -19.75 1.816406 -20.117188 2.140625 -20.421875 C 2.472656 -20.734375 2.867188 -20.890625 3.328125 -20.890625 C 3.773438 -20.890625 4.160156 -20.734375 4.484375 -20.421875 C 4.816406 -20.117188 4.984375 -19.75 4.984375 -19.3125 C 4.984375 -18.875 4.816406 -18.5 4.484375 -18.1875 C 4.160156 -17.882812 3.773438 -17.734375 3.328125 -17.734375 Z M 3.328125 -17.734375 "/></g></g></g><g fill="#000000" fill-opacity="1"><g transform="translate(933.82706, 45.434103)"><g><path d="M 8.515625 0.3125 C 7.046875 0.3125 5.78125 -0.0078125 4.71875 -0.65625 C 3.664062 -1.300781 2.851562 -2.207031 2.28125 -3.375 C 1.707031 -4.550781 1.421875 -5.921875 1.421875 -7.484375 C 1.421875 -9.035156 1.707031 -10.40625 2.28125 -11.59375 C 2.851562 -12.789062 3.648438 -13.722656 4.671875 -14.390625 C 5.703125 -15.054688 6.898438 -15.390625 8.265625 -15.390625 C 9.054688 -15.390625 9.835938 -15.257812 10.609375 -15 C 11.378906 -14.738281 12.082031 -14.3125 12.71875 -13.71875 C 13.351562 -13.125 13.859375 -12.34375 14.234375 -11.375 C 14.609375 -10.40625 14.796875 -9.210938 14.796875 -7.796875 L 14.796875 -6.8125 L 3.765625 -6.8125 C 3.816406 -5.1875 4.273438 -3.941406 5.140625 -3.078125 C 6.015625 -2.210938 7.140625 -1.78125 8.515625 -1.78125 C 9.429688 -1.78125 10.21875 -1.976562 10.875 -2.375 C 11.53125 -2.769531 12.007812 -3.363281 12.3125 -4.15625 L 14.5625 -3.515625 C 14.207031 -2.367188 13.492188 -1.441406 12.421875 -0.734375 C 11.359375 -0.0351562 10.054688 0.3125 8.515625 0.3125 Z M 3.765625 -8.828125 L 12.421875 -8.828125 C 12.421875 -10.109375 12.046875 -11.171875 11.296875 -12.015625 C 10.546875 -12.867188 9.535156 -13.296875 8.265625 -13.296875 C 7.378906 -13.296875 6.609375 -13.085938 5.953125 -12.671875 C 5.296875 -12.253906 4.78125 -11.703125 4.40625 -11.015625 C 4.03125 -10.335938 3.816406 -9.609375 3.765625 -8.828125 Z M 3.765625 -8.828125 "/></g></g></g><g fill="#000000" fill-opacity="1"><g transform="translate(950.051902, 45.434103)"><g><path d="M 3.84375 0.15625 C 3.351562 0.15625 2.929688 -0.015625 2.578125 -0.359375 C 2.234375 -0.710938 2.0625 -1.132812 2.0625 -1.625 C 2.0625 -2.113281 2.234375 -2.53125 2.578125 -2.875 C 2.929688 -3.226562 3.351562 -3.40625 3.84375 -3.40625 C 4.332031 -3.40625 4.75 -3.226562 5.09375 -2.875 C 5.445312 -2.53125 5.625 -2.113281 5.625 -1.625 C 5.625 -1.132812 5.445312 -0.710938 5.09375 -0.359375 C 4.75 -0.015625 4.332031 0.15625 3.84375 0.15625 Z M 3.84375 -11.125 C 3.351562 -11.125 2.929688 -11.296875 2.578125 -11.640625 C 2.234375 -11.992188 2.0625 -12.414062 2.0625 -12.90625 C 2.0625 -13.394531 2.234375 -13.8125 2.578125 -14.15625 C 2.929688 -14.507812 3.351562 -14.6875 3.84375 -14.6875 C 4.332031 -14.6875 4.75 -14.507812 5.09375 -14.15625 C 5.445312 -13.8125 5.625 -13.394531 5.625 -12.90625 C 5.625 -12.414062 5.445312 -11.992188 5.09375 -11.640625 C 4.75 -11.296875 4.332031 -11.125 3.84375 -11.125 Z M 3.84375 -11.125 "/></g></g></g><g fill="#000000" fill-opacity="1"><g transform="translate(957.729026, 45.434103)"><g/></g></g><g fill="#000000" fill-opacity="1"><g transform="translate(965.564444, 45.434103)"><g><path d="M 8.9375 0.28125 C 7.632812 0.28125 6.472656 0.0546875 5.453125 -0.390625 C 4.429688 -0.835938 3.625 -1.460938 3.03125 -2.265625 C 2.4375 -3.066406 2.113281 -4 2.0625 -5.0625 L 4.546875 -5.0625 C 4.617188 -4.082031 5.066406 -3.3125 5.890625 -2.75 C 6.722656 -2.1875 7.726562 -1.90625 8.90625 -1.90625 C 10.207031 -1.90625 11.273438 -2.234375 12.109375 -2.890625 C 12.953125 -3.554688 13.375 -4.425781 13.375 -5.5 C 13.375 -6.625 12.957031 -7.535156 12.125 -8.234375 C 11.300781 -8.941406 10.125 -9.296875 8.59375 -9.296875 L 6.96875 -9.296875 L 6.96875 -11.46875 L 8.59375 -11.46875 C 9.789062 -11.46875 10.765625 -11.785156 11.515625 -12.421875 C 12.273438 -13.066406 12.65625 -13.925781 12.65625 -15 C 12.65625 -16.019531 12.320312 -16.84375 11.65625 -17.46875 C 11 -18.09375 10.109375 -18.40625 8.984375 -18.40625 C 8.285156 -18.40625 7.625 -18.273438 7 -18.015625 C 6.382812 -17.765625 5.882812 -17.398438 5.5 -16.921875 C 5.113281 -16.441406 4.90625 -15.867188 4.875 -15.203125 L 2.5 -15.203125 C 2.53125 -16.253906 2.847656 -17.179688 3.453125 -17.984375 C 4.054688 -18.785156 4.84375 -19.410156 5.8125 -19.859375 C 6.78125 -20.304688 7.847656 -20.53125 9.015625 -20.53125 C 10.273438 -20.53125 11.351562 -20.28125 12.25 -19.78125 C 13.144531 -19.28125 13.832031 -18.613281 14.3125 -17.78125 C 14.789062 -16.957031 15.03125 -16.066406 15.03125 -15.109375 C 15.03125 -13.972656 14.734375 -13 14.140625 -12.1875 C 13.546875 -11.382812 12.738281 -10.832031 11.71875 -10.53125 L 11.71875 -10.375 C 12.988281 -10.15625 13.984375 -9.609375 14.703125 -8.734375 C 15.429688 -7.867188 15.796875 -6.789062 15.796875 -5.5 C 15.796875 -4.394531 15.492188 -3.40625 14.890625 -2.53125 C 14.296875 -1.664062 13.484375 -0.976562 12.453125 -0.46875 C 11.421875 0.03125 10.25 0.28125 8.9375 0.28125 Z M 8.9375 0.28125 "/></g></g></g><g fill="#000000" fill-opacity="1"><g transform="translate(381.386779, 809.129403)"><g><path d="M 4.90625 -20.265625 L 4.90625 0 L 2.453125 0 L 2.453125 -20.265625 Z M 4.90625 -20.265625 "/></g></g></g><g fill="#000000" fill-opacity="1"><g transform="translate(388.747314, 809.129403)"><g><path d="M 8.75 -15.203125 L 8.75 -13.21875 L 5.5 -13.21875 L 5.5 -4.359375 C 5.5 -3.691406 5.59375 -3.195312 5.78125 -2.875 C 5.976562 -2.550781 6.226562 -2.332031 6.53125 -2.21875 C 6.84375 -2.113281 7.171875 -2.0625 7.515625 -2.0625 C 7.773438 -2.0625 7.988281 -2.070312 8.15625 -2.09375 C 8.320312 -2.125 8.453125 -2.148438 8.546875 -2.171875 L 9.015625 -0.078125 C 8.859375 -0.015625 8.640625 0.046875 8.359375 0.109375 C 8.078125 0.171875 7.71875 0.203125 7.28125 0.203125 C 6.625 0.203125 5.976562 0.0625 5.34375 -0.21875 C 4.71875 -0.507812 4.195312 -0.941406 3.78125 -1.515625 C 3.375 -2.097656 3.171875 -2.832031 3.171875 -3.71875 L 3.171875 -13.21875 L 0.875 -13.21875 L 0.875 -15.203125 L 3.171875 -15.203125 L 3.171875 -18.84375 L 5.5 -18.84375 L 5.5 -15.203125 Z M 8.75 -15.203125 "/></g></g></g><g fill="#000000" fill-opacity="1"><g transform="translate(398.719655, 809.129403)"><g><path d="M 8.515625 0.3125 C 7.046875 0.3125 5.78125 -0.0078125 4.71875 -0.65625 C 3.664062 -1.300781 2.851562 -2.207031 2.28125 -3.375 C 1.707031 -4.550781 1.421875 -5.921875 1.421875 -7.484375 C 1.421875 -9.035156 1.707031 -10.40625 2.28125 -11.59375 C 2.851562 -12.789062 3.648438 -13.722656 4.671875 -14.390625 C 5.703125 -15.054688 6.898438 -15.390625 8.265625 -15.390625 C 9.054688 -15.390625 9.835938 -15.257812 10.609375 -15 C 11.378906 -14.738281 12.082031 -14.3125 12.71875 -13.71875 C 13.351562 -13.125 13.859375 -12.34375 14.234375 -11.375 C 14.609375 -10.40625 14.796875 -9.210938 14.796875 -7.796875 L 14.796875 -6.8125 L 3.765625 -6.8125 C 3.816406 -5.1875 4.273438 -3.941406 5.140625 -3.078125 C 6.015625 -2.210938 7.140625 -1.78125 8.515625 -1.78125 C 9.429688 -1.78125 10.21875 -1.976562 10.875 -2.375 C 11.53125 -2.769531 12.007812 -3.363281 12.3125 -4.15625 L 14.5625 -3.515625 C 14.207031 -2.367188 13.492188 -1.441406 12.421875 -0.734375 C 11.359375 -0.0351562 10.054688 0.3125 8.515625 0.3125 Z M 3.765625 -8.828125 L 12.421875 -8.828125 C 12.421875 -10.109375 12.046875 -11.171875 11.296875 -12.015625 C 10.546875 -12.867188 9.535156 -13.296875 8.265625 -13.296875 C 7.378906 -13.296875 6.609375 -13.085938 5.953125 -12.671875 C 5.296875 -12.253906 4.78125 -11.703125 4.40625 -11.015625 C 4.03125 -10.335938 3.816406 -9.609375 3.765625 -8.828125 Z M 3.765625 -8.828125 "/></g></g></g><g fill="#000000" fill-opacity="1"><g transform="translate(414.944497, 809.129403)"><g><path d="M 2.140625 0 L 2.140625 -15.203125 L 4.390625 -15.203125 L 4.390625 -12.828125 L 4.59375 -12.828125 C 4.90625 -13.628906 5.414062 -14.253906 6.125 -14.703125 C 6.832031 -15.160156 7.679688 -15.390625 8.671875 -15.390625 C 9.671875 -15.390625 10.503906 -15.160156 11.171875 -14.703125 C 11.835938 -14.253906 12.363281 -13.628906 12.75 -12.828125 L 12.90625 -12.828125 C 13.289062 -13.609375 13.867188 -14.226562 14.640625 -14.6875 C 15.421875 -15.15625 16.359375 -15.390625 17.453125 -15.390625 C 18.804688 -15.390625 19.914062 -14.960938 20.78125 -14.109375 C 21.644531 -13.265625 22.078125 -11.953125 22.078125 -10.171875 L 22.078125 0 L 19.75 0 L 19.75 -10.171875 C 19.75 -11.296875 19.441406 -12.097656 18.828125 -12.578125 C 18.210938 -13.054688 17.488281 -13.296875 16.65625 -13.296875 C 15.59375 -13.296875 14.765625 -12.972656 14.171875 -12.328125 C 13.585938 -11.691406 13.296875 -10.878906 13.296875 -9.890625 L 13.296875 0 L 10.921875 0 L 10.921875 -10.40625 C 10.921875 -11.269531 10.640625 -11.96875 10.078125 -12.5 C 9.515625 -13.03125 8.796875 -13.296875 7.921875 -13.296875 C 7.304688 -13.296875 6.738281 -13.132812 6.21875 -12.8125 C 5.695312 -12.488281 5.273438 -12.039062 4.953125 -11.46875 C 4.628906 -10.894531 4.46875 -10.238281 4.46875 -9.5 L 4.46875 0 Z M 2.140625 0 "/></g></g></g><g fill="#000000" fill-opacity="1"><g transform="translate(439.163052, 809.129403)"><g/></g></g><g fill="#000000" fill-opacity="1"><g transform="translate(446.99847, 809.129403)"><g><path d="M 8.59375 -20.265625 L 8.59375 0 L 6.140625 0 L 6.140625 -16.703125 L 5.96875 -16.703125 C 5.882812 -16.515625 5.648438 -16.300781 5.265625 -16.0625 C 4.878906 -15.832031 4.382812 -15.628906 3.78125 -15.453125 C 3.175781 -15.285156 2.484375 -15.203125 1.703125 -15.203125 L 1.703125 -17.25 C 2.484375 -17.25 3.160156 -17.390625 3.734375 -17.671875 C 4.304688 -17.960938 4.785156 -18.296875 5.171875 -18.671875 C 5.566406 -19.054688 5.863281 -19.40625 6.0625 -19.71875 C 6.257812 -20.03125 6.375 -20.210938 6.40625 -20.265625 Z M 8.59375 -20.265625 "/></g></g></g><g fill="#000000" fill-opacity="1"><g transform="translate(597.009792, 809.129403)"><g><path d="M 4.90625 -20.265625 L 4.90625 0 L 2.453125 0 L 2.453125 -20.265625 Z M 4.90625 -20.265625 "/></g></g></g><g fill="#000000" fill-opacity="1"><g transform="translate(604.370327, 809.129403)"><g><path d="M 8.75 -15.203125 L 8.75 -13.21875 L 5.5 -13.21875 L 5.5 -4.359375 C 5.5 -3.691406 5.59375 -3.195312 5.78125 -2.875 C 5.976562 -2.550781 6.226562 -2.332031 6.53125 -2.21875 C 6.84375 -2.113281 7.171875 -2.0625 7.515625 -2.0625 C 7.773438 -2.0625 7.988281 -2.070312 8.15625 -2.09375 C 8.320312 -2.125 8.453125 -2.148438 8.546875 -2.171875 L 9.015625 -0.078125 C 8.859375 -0.015625 8.640625 0.046875 8.359375 0.109375 C 8.078125 0.171875 7.71875 0.203125 7.28125 0.203125 C 6.625 0.203125 5.976562 0.0625 5.34375 -0.21875 C 4.71875 -0.507812 4.195312 -0.941406 3.78125 -1.515625 C 3.375 -2.097656 3.171875 -2.832031 3.171875 -3.71875 L 3.171875 -13.21875 L 0.875 -13.21875 L 0.875 -15.203125 L 3.171875 -15.203125 L 3.171875 -18.84375 L 5.5 -18.84375 L 5.5 -15.203125 Z M 8.75 -15.203125 "/></g></g></g><g fill="#000000" fill-opacity="1"><g transform="translate(614.342668, 809.129403)"><g><path d="M 8.515625 0.3125 C 7.046875 0.3125 5.78125 -0.0078125 4.71875 -0.65625 C 3.664062 -1.300781 2.851562 -2.207031 2.28125 -3.375 C 1.707031 -4.550781 1.421875 -5.921875 1.421875 -7.484375 C 1.421875 -9.035156 1.707031 -10.40625 2.28125 -11.59375 C 2.851562 -12.789062 3.648438 -13.722656 4.671875 -14.390625 C 5.703125 -15.054688 6.898438 -15.390625 8.265625 -15.390625 C 9.054688 -15.390625 9.835938 -15.257812 10.609375 -15 C 11.378906 -14.738281 12.082031 -14.3125 12.71875 -13.71875 C 13.351562 -13.125 13.859375 -12.34375 14.234375 -11.375 C 14.609375 -10.40625 14.796875 -9.210938 14.796875 -7.796875 L 14.796875 -6.8125 L 3.765625 -6.8125 C 3.816406 -5.1875 4.273438 -3.941406 5.140625 -3.078125 C 6.015625 -2.210938 7.140625 -1.78125 8.515625 -1.78125 C 9.429688 -1.78125 10.21875 -1.976562 10.875 -2.375 C 11.53125 -2.769531 12.007812 -3.363281 12.3125 -4.15625 L 14.5625 -3.515625 C 14.207031 -2.367188 13.492188 -1.441406 12.421875 -0.734375 C 11.359375 -0.0351562 10.054688 0.3125 8.515625 0.3125 Z M 3.765625 -8.828125 L 12.421875 -8.828125 C 12.421875 -10.109375 12.046875 -11.171875 11.296875 -12.015625 C 10.546875 -12.867188 9.535156 -13.296875 8.265625 -13.296875 C 7.378906 -13.296875 6.609375 -13.085938 5.953125 -12.671875 C 5.296875 -12.253906 4.78125 -11.703125 4.40625 -11.015625 C 4.03125 -10.335938 3.816406 -9.609375 3.765625 -8.828125 Z M 3.765625 -8.828125 "/></g></g></g><g fill="#000000" fill-opacity="1"><g transform="translate(630.56751, 809.129403)"><g><path d="M 2.140625 0 L 2.140625 -15.203125 L 4.390625 -15.203125 L 4.390625 -12.828125 L 4.59375 -12.828125 C 4.90625 -13.628906 5.414062 -14.253906 6.125 -14.703125 C 6.832031 -15.160156 7.679688 -15.390625 8.671875 -15.390625 C 9.671875 -15.390625 10.503906 -15.160156 11.171875 -14.703125 C 11.835938 -14.253906 12.363281 -13.628906 12.75 -12.828125 L 12.90625 -12.828125 C 13.289062 -13.609375 13.867188 -14.226562 14.640625 -14.6875 C 15.421875 -15.15625 16.359375 -15.390625 17.453125 -15.390625 C 18.804688 -15.390625 19.914062 -14.960938 20.78125 -14.109375 C 21.644531 -13.265625 22.078125 -11.953125 22.078125 -10.171875 L 22.078125 0 L 19.75 0 L 19.75 -10.171875 C 19.75 -11.296875 19.441406 -12.097656 18.828125 -12.578125 C 18.210938 -13.054688 17.488281 -13.296875 16.65625 -13.296875 C 15.59375 -13.296875 14.765625 -12.972656 14.171875 -12.328125 C 13.585938 -11.691406 13.296875 -10.878906 13.296875 -9.890625 L 13.296875 0 L 10.921875 0 L 10.921875 -10.40625 C 10.921875 -11.269531 10.640625 -11.96875 10.078125 -12.5 C 9.515625 -13.03125 8.796875 -13.296875 7.921875 -13.296875 C 7.304688 -13.296875 6.738281 -13.132812 6.21875 -12.8125 C 5.695312 -12.488281 5.273438 -12.039062 4.953125 -11.46875 C 4.628906 -10.894531 4.46875 -10.238281 4.46875 -9.5 L 4.46875 0 Z M 2.140625 0 "/></g></g></g><g fill="#000000" fill-opacity="1"><g transform="translate(654.786065, 809.129403)"><g/></g></g><g fill="#000000" fill-opacity="1"><g transform="translate(662.621483, 809.129403)"><g><path d="M 2.09375 0 L 2.09375 -1.78125 L 8.78125 -9.109375 C 9.570312 -9.960938 10.21875 -10.707031 10.71875 -11.34375 C 11.226562 -11.976562 11.609375 -12.578125 11.859375 -13.140625 C 12.109375 -13.703125 12.234375 -14.296875 12.234375 -14.921875 C 12.234375 -15.984375 11.859375 -16.828125 11.109375 -17.453125 C 10.367188 -18.085938 9.445312 -18.40625 8.34375 -18.40625 C 7.175781 -18.40625 6.242188 -18.050781 5.546875 -17.34375 C 4.859375 -16.644531 4.515625 -15.71875 4.515625 -14.5625 L 2.171875 -14.5625 C 2.171875 -15.75 2.441406 -16.789062 2.984375 -17.6875 C 3.535156 -18.582031 4.285156 -19.28125 5.234375 -19.78125 C 6.179688 -20.28125 7.242188 -20.53125 8.421875 -20.53125 C 9.609375 -20.53125 10.660156 -20.28125 11.578125 -19.78125 C 12.492188 -19.28125 13.210938 -18.601562 13.734375 -17.75 C 14.253906 -16.90625 14.515625 -15.960938 14.515625 -14.921875 C 14.515625 -14.171875 14.378906 -13.441406 14.109375 -12.734375 C 13.847656 -12.023438 13.390625 -11.238281 12.734375 -10.375 C 12.078125 -9.507812 11.171875 -8.453125 10.015625 -7.203125 L 5.46875 -2.328125 L 5.46875 -2.171875 L 14.875 -2.171875 L 14.875 0 Z M 2.09375 0 "/></g></g></g><g fill="#000000" fill-opacity="1"><g transform="translate(815.775052, 809.129403)"><g><path d="M 4.90625 -20.265625 L 4.90625 0 L 2.453125 0 L 2.453125 -20.265625 Z M 4.90625 -20.265625 "/></g></g></g><g fill="#000000" fill-opacity="1"><g transform="translate(823.135587, 809.129403)"><g><path d="M 8.75 -15.203125 L 8.75 -13.21875 L 5.5 -13.21875 L 5.5 -4.359375 C 5.5 -3.691406 5.59375 -3.195312 5.78125 -2.875 C 5.976562 -2.550781 6.226562 -2.332031 6.53125 -2.21875 C 6.84375 -2.113281 7.171875 -2.0625 7.515625 -2.0625 C 7.773438 -2.0625 7.988281 -2.070312 8.15625 -2.09375 C 8.320312 -2.125 8.453125 -2.148438 8.546875 -2.171875 L 9.015625 -0.078125 C 8.859375 -0.015625 8.640625 0.046875 8.359375 0.109375 C 8.078125 0.171875 7.71875 0.203125 7.28125 0.203125 C 6.625 0.203125 5.976562 0.0625 5.34375 -0.21875 C 4.71875 -0.507812 4.195312 -0.941406 3.78125 -1.515625 C 3.375 -2.097656 3.171875 -2.832031 3.171875 -3.71875 L 3.171875 -13.21875 L 0.875 -13.21875 L 0.875 -15.203125 L 3.171875 -15.203125 L 3.171875 -18.84375 L 5.5 -18.84375 L 5.5 -15.203125 Z M 8.75 -15.203125 "/></g></g></g><g fill="#000000" fill-opacity="1"><g transform="translate(833.107929, 809.129403)"><g><path d="M 8.515625 0.3125 C 7.046875 0.3125 5.78125 -0.0078125 4.71875 -0.65625 C 3.664062 -1.300781 2.851562 -2.207031 2.28125 -3.375 C 1.707031 -4.550781 1.421875 -5.921875 1.421875 -7.484375 C 1.421875 -9.035156 1.707031 -10.40625 2.28125 -11.59375 C 2.851562 -12.789062 3.648438 -13.722656 4.671875 -14.390625 C 5.703125 -15.054688 6.898438 -15.390625 8.265625 -15.390625 C 9.054688 -15.390625 9.835938 -15.257812 10.609375 -15 C 11.378906 -14.738281 12.082031 -14.3125 12.71875 -13.71875 C 13.351562 -13.125 13.859375 -12.34375 14.234375 -11.375 C 14.609375 -10.40625 14.796875 -9.210938 14.796875 -7.796875 L 14.796875 -6.8125 L 3.765625 -6.8125 C 3.816406 -5.1875 4.273438 -3.941406 5.140625 -3.078125 C 6.015625 -2.210938 7.140625 -1.78125 8.515625 -1.78125 C 9.429688 -1.78125 10.21875 -1.976562 10.875 -2.375 C 11.53125 -2.769531 12.007812 -3.363281 12.3125 -4.15625 L 14.5625 -3.515625 C 14.207031 -2.367188 13.492188 -1.441406 12.421875 -0.734375 C 11.359375 -0.0351562 10.054688 0.3125 8.515625 0.3125 Z M 3.765625 -8.828125 L 12.421875 -8.828125 C 12.421875 -10.109375 12.046875 -11.171875 11.296875 -12.015625 C 10.546875 -12.867188 9.535156 -13.296875 8.265625 -13.296875 C 7.378906 -13.296875 6.609375 -13.085938 5.953125 -12.671875 C 5.296875 -12.253906 4.78125 -11.703125 4.40625 -11.015625 C 4.03125 -10.335938 3.816406 -9.609375 3.765625 -8.828125 Z M 3.765625 -8.828125 "/></g></g></g><g fill="#000000" fill-opacity="1"><g transform="translate(849.33277, 809.129403)"><g><path d="M 2.140625 0 L 2.140625 -15.203125 L 4.390625 -15.203125 L 4.390625 -12.828125 L 4.59375 -12.828125 C 4.90625 -13.628906 5.414062 -14.253906 6.125 -14.703125 C 6.832031 -15.160156 7.679688 -15.390625 8.671875 -15.390625 C 9.671875 -15.390625 10.503906 -15.160156 11.171875 -14.703125 C 11.835938 -14.253906 12.363281 -13.628906 12.75 -12.828125 L 12.90625 -12.828125 C 13.289062 -13.609375 13.867188 -14.226562 14.640625 -14.6875 C 15.421875 -15.15625 16.359375 -15.390625 17.453125 -15.390625 C 18.804688 -15.390625 19.914062 -14.960938 20.78125 -14.109375 C 21.644531 -13.265625 22.078125 -11.953125 22.078125 -10.171875 L 22.078125 0 L 19.75 0 L 19.75 -10.171875 C 19.75 -11.296875 19.441406 -12.097656 18.828125 -12.578125 C 18.210938 -13.054688 17.488281 -13.296875 16.65625 -13.296875 C 15.59375 -13.296875 14.765625 -12.972656 14.171875 -12.328125 C 13.585938 -11.691406 13.296875 -10.878906 13.296875 -9.890625 L 13.296875 0 L 10.921875 0 L 10.921875 -10.40625 C 10.921875 -11.269531 10.640625 -11.96875 10.078125 -12.5 C 9.515625 -13.03125 8.796875 -13.296875 7.921875 -13.296875 C 7.304688 -13.296875 6.738281 -13.132812 6.21875 -12.8125 C 5.695312 -12.488281 5.273438 -12.039062 4.953125 -11.46875 C 4.628906 -10.894531 4.46875 -10.238281 4.46875 -9.5 L 4.46875 0 Z M 2.140625 0 "/></g></g></g><g fill="#000000" fill-opacity="1"><g transform="translate(873.551325, 809.129403)"><g/></g></g><g fill="#000000" fill-opacity="1"><g transform="translate(881.386744, 809.129403)"><g><path d="M 8.9375 0.28125 C 7.632812 0.28125 6.472656 0.0546875 5.453125 -0.390625 C 4.429688 -0.835938 3.625 -1.460938 3.03125 -2.265625 C 2.4375 -3.066406 2.113281 -4 2.0625 -5.0625 L 4.546875 -5.0625 C 4.617188 -4.082031 5.066406 -3.3125 5.890625 -2.75 C 6.722656 -2.1875 7.726562 -1.90625 8.90625 -1.90625 C 10.207031 -1.90625 11.273438 -2.234375 12.109375 -2.890625 C 12.953125 -3.554688 13.375 -4.425781 13.375 -5.5 C 13.375 -6.625 12.957031 -7.535156 12.125 -8.234375 C 11.300781 -8.941406 10.125 -9.296875 8.59375 -9.296875 L 6.96875 -9.296875 L 6.96875 -11.46875 L 8.59375 -11.46875 C 9.789062 -11.46875 10.765625 -11.785156 11.515625 -12.421875 C 12.273438 -13.066406 12.65625 -13.925781 12.65625 -15 C 12.65625 -16.019531 12.320312 -16.84375 11.65625 -17.46875 C 11 -18.09375 10.109375 -18.40625 8.984375 -18.40625 C 8.285156 -18.40625 7.625 -18.273438 7 -18.015625 C 6.382812 -17.765625 5.882812 -17.398438 5.5 -16.921875 C 5.113281 -16.441406 4.90625 -15.867188 4.875 -15.203125 L 2.5 -15.203125 C 2.53125 -16.253906 2.847656 -17.179688 3.453125 -17.984375 C 4.054688 -18.785156 4.84375 -19.410156 5.8125 -19.859375 C 6.78125 -20.304688 7.847656 -20.53125 9.015625 -20.53125 C 10.273438 -20.53125 11.351562 -20.28125 12.25 -19.78125 C 13.144531 -19.28125 13.832031 -18.613281 14.3125 -17.78125 C 14.789062 -16.957031 15.03125 -16.066406 15.03125 -15.109375 C 15.03125 -13.972656 14.734375 -13 14.140625 -12.1875 C 13.546875 -11.382812 12.738281 -10.832031 11.71875 -10.53125 L 11.71875 -10.375 C 12.988281 -10.15625 13.984375 -9.609375 14.703125 -8.734375 C 15.429688 -7.867188 15.796875 -6.789062 15.796875 -5.5 C 15.796875 -4.394531 15.492188 -3.40625 14.890625 -2.53125 C 14.296875 -1.664062 13.484375 -0.976562 12.453125 -0.46875 C 11.421875 0.03125 10.25 0.28125 8.9375 0.28125 Z M 8.9375 0.28125 "/></g></g></g><g fill="#000000" fill-opacity="1"><g transform="translate(1034.894039, 809.129403)"><g><path d="M 4.90625 -20.265625 L 4.90625 0 L 2.453125 0 L 2.453125 -20.265625 Z M 4.90625 -20.265625 "/></g></g></g><g fill="#000000" fill-opacity="1"><g transform="translate(1042.254574, 809.129403)"><g><path d="M 8.75 -15.203125 L 8.75 -13.21875 L 5.5 -13.21875 L 5.5 -4.359375 C 5.5 -3.691406 5.59375 -3.195312 5.78125 -2.875 C 5.976562 -2.550781 6.226562 -2.332031 6.53125 -2.21875 C 6.84375 -2.113281 7.171875 -2.0625 7.515625 -2.0625 C 7.773438 -2.0625 7.988281 -2.070312 8.15625 -2.09375 C 8.320312 -2.125 8.453125 -2.148438 8.546875 -2.171875 L 9.015625 -0.078125 C 8.859375 -0.015625 8.640625 0.046875 8.359375 0.109375 C 8.078125 0.171875 7.71875 0.203125 7.28125 0.203125 C 6.625 0.203125 5.976562 0.0625 5.34375 -0.21875 C 4.71875 -0.507812 4.195312 -0.941406 3.78125 -1.515625 C 3.375 -2.097656 3.171875 -2.832031 3.171875 -3.71875 L 3.171875 -13.21875 L 0.875 -13.21875 L 0.875 -15.203125 L 3.171875 -15.203125 L 3.171875 -18.84375 L 5.5 -18.84375 L 5.5 -15.203125 Z M 8.75 -15.203125 "/></g></g></g><g fill="#000000" fill-opacity="1"><g transform="translate(1052.226915, 809.129403)"><g><path d="M 8.515625 0.3125 C 7.046875 0.3125 5.78125 -0.0078125 4.71875 -0.65625 C 3.664062 -1.300781 2.851562 -2.207031 2.28125 -3.375 C 1.707031 -4.550781 1.421875 -5.921875 1.421875 -7.484375 C 1.421875 -9.035156 1.707031 -10.40625 2.28125 -11.59375 C 2.851562 -12.789062 3.648438 -13.722656 4.671875 -14.390625 C 5.703125 -15.054688 6.898438 -15.390625 8.265625 -15.390625 C 9.054688 -15.390625 9.835938 -15.257812 10.609375 -15 C 11.378906 -14.738281 12.082031 -14.3125 12.71875 -13.71875 C 13.351562 -13.125 13.859375 -12.34375 14.234375 -11.375 C 14.609375 -10.40625 14.796875 -9.210938 14.796875 -7.796875 L 14.796875 -6.8125 L 3.765625 -6.8125 C 3.816406 -5.1875 4.273438 -3.941406 5.140625 -3.078125 C 6.015625 -2.210938 7.140625 -1.78125 8.515625 -1.78125 C 9.429688 -1.78125 10.21875 -1.976562 10.875 -2.375 C 11.53125 -2.769531 12.007812 -3.363281 12.3125 -4.15625 L 14.5625 -3.515625 C 14.207031 -2.367188 13.492188 -1.441406 12.421875 -0.734375 C 11.359375 -0.0351562 10.054688 0.3125 8.515625 0.3125 Z M 3.765625 -8.828125 L 12.421875 -8.828125 C 12.421875 -10.109375 12.046875 -11.171875 11.296875 -12.015625 C 10.546875 -12.867188 9.535156 -13.296875 8.265625 -13.296875 C 7.378906 -13.296875 6.609375 -13.085938 5.953125 -12.671875 C 5.296875 -12.253906 4.78125 -11.703125 4.40625 -11.015625 C 4.03125 -10.335938 3.816406 -9.609375 3.765625 -8.828125 Z M 3.765625 -8.828125 "/></g></g></g><g fill="#000000" fill-opacity="1"><g transform="translate(1068.451757, 809.129403)"><g><path d="M 2.140625 0 L 2.140625 -15.203125 L 4.390625 -15.203125 L 4.390625 -12.828125 L 4.59375 -12.828125 C 4.90625 -13.628906 5.414062 -14.253906 6.125 -14.703125 C 6.832031 -15.160156 7.679688 -15.390625 8.671875 -15.390625 C 9.671875 -15.390625 10.503906 -15.160156 11.171875 -14.703125 C 11.835938 -14.253906 12.363281 -13.628906 12.75 -12.828125 L 12.90625 -12.828125 C 13.289062 -13.609375 13.867188 -14.226562 14.640625 -14.6875 C 15.421875 -15.15625 16.359375 -15.390625 17.453125 -15.390625 C 18.804688 -15.390625 19.914062 -14.960938 20.78125 -14.109375 C 21.644531 -13.265625 22.078125 -11.953125 22.078125 -10.171875 L 22.078125 0 L 19.75 0 L 19.75 -10.171875 C 19.75 -11.296875 19.441406 -12.097656 18.828125 -12.578125 C 18.210938 -13.054688 17.488281 -13.296875 16.65625 -13.296875 C 15.59375 -13.296875 14.765625 -12.972656 14.171875 -12.328125 C 13.585938 -11.691406 13.296875 -10.878906 13.296875 -9.890625 L 13.296875 0 L 10.921875 0 L 10.921875 -10.40625 C 10.921875 -11.269531 10.640625 -11.96875 10.078125 -12.5 C 9.515625 -13.03125 8.796875 -13.296875 7.921875 -13.296875 C 7.304688 -13.296875 6.738281 -13.132812 6.21875 -12.8125 C 5.695312 -12.488281 5.273438 -12.039062 4.953125 -11.46875 C 4.628906 -10.894531 4.46875 -10.238281 4.46875 -9.5 L 4.46875 0 Z M 2.140625 0 "/></g></g></g><g fill="#000000" fill-opacity="1"><g transform="translate(1092.670312, 809.129403)"><g/></g></g><g fill="#000000" fill-opacity="1"><g transform="translate(1100.50573, 809.129403)"><g><path d="M 1.625 -4.15625 L 1.625 -6.171875 L 10.53125 -20.265625 L 13.5 -20.265625 L 13.5 -6.328125 L 16.265625 -6.328125 L 16.265625 -4.15625 L 13.5 -4.15625 L 13.5 0 L 11.15625 0 L 11.15625 -4.15625 Z M 11.15625 -6.328125 L 11.15625 -17.140625 L 11 -17.140625 L 4.28125 -6.484375 L 4.28125 -6.328125 Z M 11.15625 -6.328125 "/></g></g></g><g fill="#000000" fill-opacity="1"><g transform="translate(282.528787, 783.882173)"><g><path d="M 8.703125 0.28125 C 6.472656 0.28125 4.738281 -0.625 3.5 -2.4375 C 2.269531 -4.257812 1.65625 -6.820312 1.65625 -10.125 C 1.65625 -13.414062 2.273438 -15.972656 3.515625 -17.796875 C 4.753906 -19.617188 6.484375 -20.53125 8.703125 -20.53125 C 10.921875 -20.53125 12.648438 -19.617188 13.890625 -17.796875 C 15.128906 -15.972656 15.75 -13.414062 15.75 -10.125 C 15.75 -6.820312 15.132812 -4.257812 13.90625 -2.4375 C 12.675781 -0.625 10.941406 0.28125 8.703125 0.28125 Z M 8.703125 -1.90625 C 10.179688 -1.90625 11.328125 -2.613281 12.140625 -4.03125 C 12.960938 -5.457031 13.375 -7.488281 13.375 -10.125 C 13.375 -12.757812 12.960938 -14.796875 12.140625 -16.234375 C 11.316406 -17.679688 10.171875 -18.40625 8.703125 -18.40625 C 7.242188 -18.40625 6.097656 -17.679688 5.265625 -16.234375 C 4.441406 -14.796875 4.03125 -12.757812 4.03125 -10.125 C 4.03125 -7.488281 4.441406 -5.457031 5.265625 -4.03125 C 6.085938 -2.613281 7.234375 -1.90625 8.703125 -1.90625 Z M 8.703125 -1.90625 "/></g></g></g><g fill="#000000" fill-opacity="1"><g transform="translate(269.415475, 642.846084)"><g><path d="M 8.59375 -20.265625 L 8.59375 0 L 6.140625 0 L 6.140625 -16.703125 L 5.96875 -16.703125 C 5.882812 -16.515625 5.648438 -16.300781 5.265625 -16.0625 C 4.878906 -15.832031 4.382812 -15.628906 3.78125 -15.453125 C 3.175781 -15.285156 2.484375 -15.203125 1.703125 -15.203125 L 1.703125 -17.25 C 2.484375 -17.25 3.160156 -17.390625 3.734375 -17.671875 C 4.304688 -17.960938 4.785156 -18.296875 5.171875 -18.671875 C 5.566406 -19.054688 5.863281 -19.40625 6.0625 -19.71875 C 6.257812 -20.03125 6.375 -20.210938 6.40625 -20.265625 Z M 8.59375 -20.265625 "/></g></g></g><g fill="#000000" fill-opacity="1"><g transform="translate(281.722621, 642.846084)"><g><path d="M 8.703125 0.28125 C 6.472656 0.28125 4.738281 -0.625 3.5 -2.4375 C 2.269531 -4.257812 1.65625 -6.820312 1.65625 -10.125 C 1.65625 -13.414062 2.273438 -15.972656 3.515625 -17.796875 C 4.753906 -19.617188 6.484375 -20.53125 8.703125 -20.53125 C 10.921875 -20.53125 12.648438 -19.617188 13.890625 -17.796875 C 15.128906 -15.972656 15.75 -13.414062 15.75 -10.125 C 15.75 -6.820312 15.132812 -4.257812 13.90625 -2.4375 C 12.675781 -0.625 10.941406 0.28125 8.703125 0.28125 Z M 8.703125 -1.90625 C 10.179688 -1.90625 11.328125 -2.613281 12.140625 -4.03125 C 12.960938 -5.457031 13.375 -7.488281 13.375 -10.125 C 13.375 -12.757812 12.960938 -14.796875 12.140625 -16.234375 C 11.316406 -17.679688 10.171875 -18.40625 8.703125 -18.40625 C 7.242188 -18.40625 6.097656 -17.679688 5.265625 -16.234375 C 4.441406 -14.796875 4.03125 -12.757812 4.03125 -10.125 C 4.03125 -7.488281 4.441406 -5.457031 5.265625 -4.03125 C 6.085938 -2.613281 7.234375 -1.90625 8.703125 -1.90625 Z M 8.703125 -1.90625 "/></g></g></g><g fill="#000000" fill-opacity="1"><g transform="translate(265.388968, 501.809947)"><g><path d="M 2.09375 0 L 2.09375 -1.78125 L 8.78125 -9.109375 C 9.570312 -9.960938 10.21875 -10.707031 10.71875 -11.34375 C 11.226562 -11.976562 11.609375 -12.578125 11.859375 -13.140625 C 12.109375 -13.703125 12.234375 -14.296875 12.234375 -14.921875 C 12.234375 -15.984375 11.859375 -16.828125 11.109375 -17.453125 C 10.367188 -18.085938 9.445312 -18.40625 8.34375 -18.40625 C 7.175781 -18.40625 6.242188 -18.050781 5.546875 -17.34375 C 4.859375 -16.644531 4.515625 -15.71875 4.515625 -14.5625 L 2.171875 -14.5625 C 2.171875 -15.75 2.441406 -16.789062 2.984375 -17.6875 C 3.535156 -18.582031 4.285156 -19.28125 5.234375 -19.78125 C 6.179688 -20.28125 7.242188 -20.53125 8.421875 -20.53125 C 9.609375 -20.53125 10.660156 -20.28125 11.578125 -19.78125 C 12.492188 -19.28125 13.210938 -18.601562 13.734375 -17.75 C 14.253906 -16.90625 14.515625 -15.960938 14.515625 -14.921875 C 14.515625 -14.171875 14.378906 -13.441406 14.109375 -12.734375 C 13.847656 -12.023438 13.390625 -11.238281 12.734375 -10.375 C 12.078125 -9.507812 11.171875 -8.453125 10.015625 -7.203125 L 5.46875 -2.328125 L 5.46875 -2.171875 L 14.875 -2.171875 L 14.875 0 Z M 2.09375 0 "/></g></g></g><g fill="#000000" fill-opacity="1"><g transform="translate(282.246974, 501.809947)"><g><path d="M 8.703125 0.28125 C 6.472656 0.28125 4.738281 -0.625 3.5 -2.4375 C 2.269531 -4.257812 1.65625 -6.820312 1.65625 -10.125 C 1.65625 -13.414062 2.273438 -15.972656 3.515625 -17.796875 C 4.753906 -19.617188 6.484375 -20.53125 8.703125 -20.53125 C 10.921875 -20.53125 12.648438 -19.617188 13.890625 -17.796875 C 15.128906 -15.972656 15.75 -13.414062 15.75 -10.125 C 15.75 -6.820312 15.132812 -4.257812 13.90625 -2.4375 C 12.675781 -0.625 10.941406 0.28125 8.703125 0.28125 Z M 8.703125 -1.90625 C 10.179688 -1.90625 11.328125 -2.613281 12.140625 -4.03125 C 12.960938 -5.457031 13.375 -7.488281 13.375 -10.125 C 13.375 -12.757812 12.960938 -14.796875 12.140625 -16.234375 C 11.316406 -17.679688 10.171875 -18.40625 8.703125 -18.40625 C 7.242188 -18.40625 6.097656 -17.679688 5.265625 -16.234375 C 4.441406 -14.796875 4.03125 -12.757812 4.03125 -10.125 C 4.03125 -7.488281 4.441406 -5.457031 5.265625 -4.03125 C 6.085938 -2.613281 7.234375 -1.90625 8.703125 -1.90625 Z M 8.703125 -1.90625 "/></g></g></g><g fill="#000000" fill-opacity="1"><g transform="translate(264.083086, 360.773851)"><g><path d="M 8.9375 0.28125 C 7.632812 0.28125 6.472656 0.0546875 5.453125 -0.390625 C 4.429688 -0.835938 3.625 -1.460938 3.03125 -2.265625 C 2.4375 -3.066406 2.113281 -4 2.0625 -5.0625 L 4.546875 -5.0625 C 4.617188 -4.082031 5.066406 -3.3125 5.890625 -2.75 C 6.722656 -2.1875 7.726562 -1.90625 8.90625 -1.90625 C 10.207031 -1.90625 11.273438 -2.234375 12.109375 -2.890625 C 12.953125 -3.554688 13.375 -4.425781 13.375 -5.5 C 13.375 -6.625 12.957031 -7.535156 12.125 -8.234375 C 11.300781 -8.941406 10.125 -9.296875 8.59375 -9.296875 L 6.96875 -9.296875 L 6.96875 -11.46875 L 8.59375 -11.46875 C 9.789062 -11.46875 10.765625 -11.785156 11.515625 -12.421875 C 12.273438 -13.066406 12.65625 -13.925781 12.65625 -15 C 12.65625 -16.019531 12.320312 -16.84375 11.65625 -17.46875 C 11 -18.09375 10.109375 -18.40625 8.984375 -18.40625 C 8.285156 -18.40625 7.625 -18.273438 7 -18.015625 C 6.382812 -17.765625 5.882812 -17.398438 5.5 -16.921875 C 5.113281 -16.441406 4.90625 -15.867188 4.875 -15.203125 L 2.5 -15.203125 C 2.53125 -16.253906 2.847656 -17.179688 3.453125 -17.984375 C 4.054688 -18.785156 4.84375 -19.410156 5.8125 -19.859375 C 6.78125 -20.304688 7.847656 -20.53125 9.015625 -20.53125 C 10.273438 -20.53125 11.351562 -20.28125 12.25 -19.78125 C 13.144531 -19.28125 13.832031 -18.613281 14.3125 -17.78125 C 14.789062 -16.957031 15.03125 -16.066406 15.03125 -15.109375 C 15.03125 -13.972656 14.734375 -13 14.140625 -12.1875 C 13.546875 -11.382812 12.738281 -10.832031 11.71875 -10.53125 L 11.71875 -10.375 C 12.988281 -10.15625 13.984375 -9.609375 14.703125 -8.734375 C 15.429688 -7.867188 15.796875 -6.789062 15.796875 -5.5 C 15.796875 -4.394531 15.492188 -3.40625 14.890625 -2.53125 C 14.296875 -1.664062 13.484375 -0.976562 12.453125 -0.46875 C 11.421875 0.03125 10.25 0.28125 8.9375 0.28125 Z M 8.9375 0.28125 "/></g></g></g><g fill="#000000" fill-opacity="1"><g transform="translate(281.811699, 360.773851)"><g><path d="M 8.703125 0.28125 C 6.472656 0.28125 4.738281 -0.625 3.5 -2.4375 C 2.269531 -4.257812 1.65625 -6.820312 1.65625 -10.125 C 1.65625 -13.414062 2.273438 -15.972656 3.515625 -17.796875 C 4.753906 -19.617188 6.484375 -20.53125 8.703125 -20.53125 C 10.921875 -20.53125 12.648438 -19.617188 13.890625 -17.796875 C 15.128906 -15.972656 15.75 -13.414062 15.75 -10.125 C 15.75 -6.820312 15.132812 -4.257812 13.90625 -2.4375 C 12.675781 -0.625 10.941406 0.28125 8.703125 0.28125 Z M 8.703125 -1.90625 C 10.179688 -1.90625 11.328125 -2.613281 12.140625 -4.03125 C 12.960938 -5.457031 13.375 -7.488281 13.375 -10.125 C 13.375 -12.757812 12.960938 -14.796875 12.140625 -16.234375 C 11.316406 -17.679688 10.171875 -18.40625 8.703125 -18.40625 C 7.242188 -18.40625 6.097656 -17.679688 5.265625 -16.234375 C 4.441406 -14.796875 4.03125 -12.757812 4.03125 -10.125 C 4.03125 -7.488281 4.441406 -5.457031 5.265625 -4.03125 C 6.085938 -2.613281 7.234375 -1.90625 8.703125 -1.90625 Z M 8.703125 -1.90625 "/></g></g></g><g fill="#000000" fill-opacity="1"><g transform="translate(264.015071, 219.737762)"><g><path d="M 1.625 -4.15625 L 1.625 -6.171875 L 10.53125 -20.265625 L 13.5 -20.265625 L 13.5 -6.328125 L 16.265625 -6.328125 L 16.265625 -4.15625 L 13.5 -4.15625 L 13.5 0 L 11.15625 0 L 11.15625 -4.15625 Z M 11.15625 -6.328125 L 11.15625 -17.140625 L 11 -17.140625 L 4.28125 -6.484375 L 4.28125 -6.328125 Z M 11.15625 -6.328125 "/></g></g></g><g fill="#000000" fill-opacity="1"><g transform="translate(281.901978, 219.737762)"><g><path d="M 8.703125 0.28125 C 6.472656 0.28125 4.738281 -0.625 3.5 -2.4375 C 2.269531 -4.257812 1.65625 -6.820312 1.65625 -10.125 C 1.65625 -13.414062 2.273438 -15.972656 3.515625 -17.796875 C 4.753906 -19.617188 6.484375 -20.53125 8.703125 -20.53125 C 10.921875 -20.53125 12.648438 -19.617188 13.890625 -17.796875 C 15.128906 -15.972656 15.75 -13.414062 15.75 -10.125 C 15.75 -6.820312 15.132812 -4.257812 13.90625 -2.4375 C 12.675781 -0.625 10.941406 0.28125 8.703125 0.28125 Z M 8.703125 -1.90625 C 10.179688 -1.90625 11.328125 -2.613281 12.140625 -4.03125 C 12.960938 -5.457031 13.375 -7.488281 13.375 -10.125 C 13.375 -12.757812 12.960938 -14.796875 12.140625 -16.234375 C 11.316406 -17.679688 10.171875 -18.40625 8.703125 -18.40625 C 7.242188 -18.40625 6.097656 -17.679688 5.265625 -16.234375 C 4.441406 -14.796875 4.03125 -12.757812 4.03125 -10.125 C 4.03125 -7.488281 4.441406 -5.457031 5.265625 -4.03125 C 6.085938 -2.613281 7.234375 -1.90625 8.703125 -1.90625 Z M 8.703125 -1.90625 "/></g></g></g><g fill="#000000" fill-opacity="1"><g transform="translate(265.348159, 78.701654)"><g><path d="M 8.421875 0.28125 C 7.265625 0.28125 6.21875 0.0507812 5.28125 -0.40625 C 4.351562 -0.875 3.609375 -1.507812 3.046875 -2.3125 C 2.492188 -3.113281 2.191406 -4.03125 2.140625 -5.0625 L 4.515625 -5.0625 C 4.609375 -4.144531 5.023438 -3.390625 5.765625 -2.796875 C 6.503906 -2.203125 7.390625 -1.90625 8.421875 -1.90625 C 9.253906 -1.90625 9.992188 -2.097656 10.640625 -2.484375 C 11.296875 -2.867188 11.8125 -3.398438 12.1875 -4.078125 C 12.5625 -4.765625 12.75 -5.539062 12.75 -6.40625 C 12.75 -7.289062 12.550781 -8.082031 12.15625 -8.78125 C 11.769531 -9.476562 11.238281 -10.023438 10.5625 -10.421875 C 9.894531 -10.828125 9.128906 -11.035156 8.265625 -11.046875 C 7.648438 -11.046875 7.015625 -10.945312 6.359375 -10.75 C 5.703125 -10.5625 5.164062 -10.316406 4.75 -10.015625 L 2.453125 -10.28125 L 3.6875 -20.265625 L 14.203125 -20.265625 L 14.203125 -18.078125 L 5.734375 -18.078125 L 5.03125 -12.109375 L 5.140625 -12.109375 C 5.554688 -12.441406 6.078125 -12.710938 6.703125 -12.921875 C 7.328125 -13.140625 7.984375 -13.25 8.671875 -13.25 C 9.910156 -13.25 11.015625 -12.953125 11.984375 -12.359375 C 12.953125 -11.773438 13.710938 -10.972656 14.265625 -9.953125 C 14.828125 -8.929688 15.109375 -7.765625 15.109375 -6.453125 C 15.109375 -5.160156 14.820312 -4.003906 14.25 -2.984375 C 13.675781 -1.972656 12.882812 -1.175781 11.875 -0.59375 C 10.863281 -0.0078125 9.710938 0.28125 8.421875 0.28125 Z M 8.421875 0.28125 "/></g></g></g><g fill="#000000" fill-opacity="1"><g transform="translate(282.285312, 78.701654)"><g><path d="M 8.703125 0.28125 C 6.472656 0.28125 4.738281 -0.625 3.5 -2.4375 C 2.269531 -4.257812 1.65625 -6.820312 1.65625 -10.125 C 1.65625 -13.414062 2.273438 -15.972656 3.515625 -17.796875 C 4.753906 -19.617188 6.484375 -20.53125 8.703125 -20.53125 C 10.921875 -20.53125 12.648438 -19.617188 13.890625 -17.796875 C 15.128906 -15.972656 15.75 -13.414062 15.75 -10.125 C 15.75 -6.820312 15.132812 -4.257812 13.90625 -2.4375 C 12.675781 -0.625 10.941406 0.28125 8.703125 0.28125 Z M 8.703125 -1.90625 C 10.179688 -1.90625 11.328125 -2.613281 12.140625 -4.03125 C 12.960938 -5.457031 13.375 -7.488281 13.375 -10.125 C 13.375 -12.757812 12.960938 -14.796875 12.140625 -16.234375 C 11.316406 -17.679688 10.171875 -18.40625 8.703125 -18.40625 C 7.242188 -18.40625 6.097656 -17.679688 5.265625 -16.234375 C 4.441406 -14.796875 4.03125 -12.757812 4.03125 -10.125 C 4.03125 -7.488281 4.441406 -5.457031 5.265625 -4.03125 C 6.085938 -2.613281 7.234375 -1.90625 8.703125 -1.90625 Z M 8.703125 -1.90625 "/></g></g></g><path stroke-linecap="butt" transform="matrix(0.870593, 0, 0, 0.870593, 320.834961, 68.254529)" fill="none" stroke-linejoin="miter" d="M 0.00112133 809.99835 L 981.955495 809.99835 " stroke="#000000" stroke-width="1" stroke-opacity="0.6" stroke-miterlimit="4"/><path stroke-linecap="butt" transform="matrix(0.870593, 0, 0, 0.870593, 320.834961, 68.254529)" fill="none" stroke-linejoin="miter" d="M 0.00112133 647.999434 L 981.955495 647.999434 " stroke="#000000" stroke-width="1" stroke-opacity="0.251" stroke-miterlimit="4"/><path stroke-linecap="butt" transform="matrix(0.870593, 0, 0, 0.870593, 320.834961, 68.254529)" fill="none" stroke-linejoin="miter" d="M 0.00112133 486.000519 L 981.955495 486.000519 " stroke="#000000" stroke-width="1" stroke-opacity="0.251" stroke-miterlimit="4"/><path stroke-linecap="butt" transform="matrix(0.870593, 0, 0, 0.870593, 320.834961, 68.254529)" fill="none" stroke-linejoin="miter" d="M 0.00112133 324.001603 L 981.955495 324.001603 " stroke="#000000" stroke-width="1" stroke-opacity="0.251" stroke-miterlimit="4"/><path stroke-linecap="butt" transform="matrix(0.870593, 0, 0, 0.870593, 320.834961, 68.254529)" fill="none" stroke-linejoin="miter" d="M 0.00112133 161.998201 L 981.955495 161.998201 " stroke="#000000" stroke-width="1" stroke-opacity="0.251" stroke-miterlimit="4"/><path stroke-linecap="butt" transform="matrix(0.870593, 0, 0, 0.870593, 320.834961, 68.254529)" fill="none" stroke-linejoin="miter" d="M 0.00112133 -0.000714819 L 981.955495 -0.000714819 " stroke="#000000" stroke-width="1" stroke-opacity="0.251" stroke-miterlimit="4"/><g clip-path="url(#f5182d0b08)"><path fill="#6ce5e8" d="M 336.617188 491.363281 L 502.332031 491.363281 C 503.371094 491.363281 504.394531 491.464844 505.410156 491.667969 C 506.429688 491.867188 507.414062 492.167969 508.371094 492.5625 C 509.332031 492.960938 510.238281 493.445312 511.101562 494.023438 C 511.964844 494.597656 512.761719 495.253906 513.492188 495.984375 C 514.226562 496.71875 514.878906 497.515625 515.457031 498.378906 C 516.03125 499.238281 516.515625 500.148438 516.914062 501.105469 C 517.3125 502.0625 517.609375 503.050781 517.8125 504.066406 C 518.015625 505.082031 518.117188 506.109375 518.117188 507.144531 L 518.117188 773.433594 C 518.117188 774.472656 518.015625 775.496094 517.8125 776.515625 C 517.609375 777.53125 517.3125 778.515625 516.914062 779.476562 C 516.515625 780.433594 516.03125 781.339844 515.457031 782.203125 C 514.878906 783.066406 514.226562 783.863281 513.492188 784.59375 C 512.761719 785.328125 511.964844 785.980469 511.101562 786.558594 C 510.238281 787.132812 509.332031 787.621094 508.371094 788.015625 C 507.414062 788.414062 506.429688 788.710938 505.410156 788.914062 C 504.394531 789.117188 503.371094 789.21875 502.332031 789.21875 L 336.617188 789.21875 C 335.582031 789.21875 334.554688 789.117188 333.539062 788.914062 C 332.523438 788.710938 331.535156 788.414062 330.578125 788.015625 C 329.621094 787.621094 328.710938 787.132812 327.847656 786.558594 C 326.988281 785.980469 326.191406 785.328125 325.457031 784.59375 C 324.726562 783.863281 324.070312 783.066406 323.496094 782.203125 C 322.917969 781.339844 322.433594 780.433594 322.035156 779.476562 C 321.640625 778.515625 321.339844 777.53125 321.136719 776.515625 C 320.9375 775.496094 320.835938 774.472656 320.835938 773.433594 L 320.835938 507.144531 C 320.835938 506.109375 320.9375 505.082031 321.136719 504.066406 C 321.339844 503.050781 321.640625 502.0625 322.035156 501.105469 C 322.433594 500.148438 322.917969 499.238281 323.496094 498.375 C 324.070312 497.515625 324.726562 496.71875 325.457031 495.984375 C 326.191406 495.253906 326.988281 494.597656 327.847656 494.023438 C 328.710938 493.445312 329.621094 492.960938 330.578125 492.5625 C 331.535156 492.167969 332.523438 491.867188 333.539062 491.667969 C 334.554688 491.464844 335.582031 491.363281 336.617188 491.363281 Z M 336.617188 491.363281 " fill-opacity="1" fill-rule="nonzero"/></g><g clip-path="url(#c90ebe86de)"><path fill="#41b8d5" d="M 336.617188 491.363281 L 502.332031 491.363281 C 503.371094 491.363281 504.394531 491.464844 505.410156 491.667969 C 506.429688 491.867188 507.414062 492.167969 508.371094 492.5625 C 509.332031 492.960938 510.238281 493.445312 511.101562 494.023438 C 511.964844 494.597656 512.761719 495.253906 513.492188 495.984375 C 514.226562 496.71875 514.878906 497.515625 515.457031 498.378906 C 516.03125 499.238281 516.515625 500.148438 516.914062 501.105469 C 517.3125 502.0625 517.609375 503.050781 517.8125 504.066406 C 518.015625 505.082031 518.117188 506.109375 518.117188 507.144531 L 518.117188 773.433594 C 518.117188 774.472656 518.015625 775.496094 517.8125 776.515625 C 517.609375 777.53125 517.3125 778.515625 516.914062 779.476562 C 516.515625 780.433594 516.03125 781.339844 515.457031 782.203125 C 514.878906 783.066406 514.226562 783.863281 513.492188 784.59375 C 512.761719 785.328125 511.964844 785.980469 511.101562 786.558594 C 510.238281 787.132812 509.332031 787.621094 508.371094 788.015625 C 507.414062 788.414062 506.429688 788.710938 505.410156 788.914062 C 504.394531 789.117188 503.371094 789.21875 502.332031 789.21875 L 336.617188 789.21875 C 335.582031 789.21875 334.554688 789.117188 333.539062 788.914062 C 332.523438 788.710938 331.535156 788.414062 330.578125 788.015625 C 329.621094 787.621094 328.710938 787.132812 327.847656 786.558594 C 326.988281 785.980469 326.191406 785.328125 325.457031 784.59375 C 324.726562 783.863281 324.070312 783.066406 323.496094 782.203125 C 322.917969 781.339844 322.433594 780.433594 322.035156 779.476562 C 321.640625 778.515625 321.339844 777.53125 321.136719 776.515625 C 320.9375 775.496094 320.835938 774.472656 320.835938 773.433594 L 320.835938 507.144531 C 320.835938 506.109375 320.9375 505.082031 321.136719 504.066406 C 321.339844 503.050781 321.640625 502.0625 322.035156 501.105469 C 322.433594 500.148438 322.917969 499.238281 323.496094 498.375 C 324.070312 497.515625 324.726562 496.71875 325.457031 495.984375 C 326.191406 495.253906 326.988281 494.597656 327.847656 494.023438 C 328.710938 493.445312 329.621094 492.960938 330.578125 492.5625 C 331.535156 492.167969 332.523438 491.867188 333.539062 491.667969 C 334.554688 491.464844 335.582031 491.363281 336.617188 491.363281 Z M 336.617188 491.363281 " fill-opacity="1" fill-rule="nonzero"/></g><g clip-path="url(#e5586ef221)"><path fill="#2d8bba" d="M 336.617188 491.363281 L 502.332031 491.363281 C 503.371094 491.363281 504.394531 491.464844 505.410156 491.667969 C 506.429688 491.867188 507.414062 492.167969 508.371094 492.5625 C 509.332031 492.960938 510.238281 493.445312 511.101562 494.023438 C 511.964844 494.597656 512.761719 495.253906 513.492188 495.984375 C 514.226562 496.71875 514.878906 497.515625 515.457031 498.378906 C 516.03125 499.238281 516.515625 500.148438 516.914062 501.105469 C 517.3125 502.0625 517.609375 503.050781 517.8125 504.066406 C 518.015625 505.082031 518.117188 506.109375 518.117188 507.144531 L 518.117188 773.433594 C 518.117188 774.472656 518.015625 775.496094 517.8125 776.515625 C 517.609375 777.53125 517.3125 778.515625 516.914062 779.476562 C 516.515625 780.433594 516.03125 781.339844 515.457031 782.203125 C 514.878906 783.066406 514.226562 783.863281 513.492188 784.59375 C 512.761719 785.328125 511.964844 785.980469 511.101562 786.558594 C 510.238281 787.132812 509.332031 787.621094 508.371094 788.015625 C 507.414062 788.414062 506.429688 788.710938 505.410156 788.914062 C 504.394531 789.117188 503.371094 789.21875 502.332031 789.21875 L 336.617188 789.21875 C 335.582031 789.21875 334.554688 789.117188 333.539062 788.914062 C 332.523438 788.710938 331.535156 788.414062 330.578125 788.015625 C 329.621094 787.621094 328.710938 787.132812 327.847656 786.558594 C 326.988281 785.980469 326.191406 785.328125 325.457031 784.59375 C 324.726562 783.863281 324.070312 783.066406 323.496094 782.203125 C 322.917969 781.339844 322.433594 780.433594 322.035156 779.476562 C 321.640625 778.515625 321.339844 777.53125 321.136719 776.515625 C 320.9375 775.496094 320.835938 774.472656 320.835938 773.433594 L 320.835938 507.144531 C 320.835938 506.109375 320.9375 505.082031 321.136719 504.066406 C 321.339844 503.050781 321.640625 502.0625 322.035156 501.105469 C 322.433594 500.148438 322.917969 499.238281 323.496094 498.375 C 324.070312 497.515625 324.726562 496.71875 325.457031 495.984375 C 326.191406 495.253906 326.988281 494.597656 327.847656 494.023438 C 328.710938 493.445312 329.621094 492.960938 330.578125 492.5625 C 331.535156 492.167969 332.523438 491.867188 333.539062 491.667969 C 334.554688 491.464844 335.582031 491.363281 336.617188 491.363281 Z M 336.617188 491.363281 " fill-opacity="1" fill-rule="nonzero"/></g><g clip-path="url(#83f70e0957)"><path fill="#6ce5e8" d="M 555.816406 350.328125 L 721.535156 350.328125 C 722.570312 350.328125 723.597656 350.429688 724.613281 350.628906 C 725.628906 350.832031 726.617188 351.132812 727.574219 351.527344 C 728.53125 351.925781 729.441406 352.410156 730.300781 352.988281 C 731.164062 353.5625 731.960938 354.214844 732.695312 354.949219 C 733.425781 355.683594 734.082031 356.480469 734.65625 357.339844 C 735.230469 358.203125 735.71875 359.113281 736.113281 360.070312 C 736.511719 361.027344 736.8125 362.015625 737.011719 363.03125 C 737.214844 364.046875 737.316406 365.074219 737.316406 366.109375 L 737.316406 773.433594 C 737.316406 774.472656 737.214844 775.496094 737.011719 776.515625 C 736.8125 777.53125 736.511719 778.515625 736.113281 779.476562 C 735.71875 780.433594 735.230469 781.339844 734.65625 782.203125 C 734.082031 783.066406 733.425781 783.863281 732.695312 784.59375 C 731.960938 785.328125 731.164062 785.980469 730.300781 786.558594 C 729.441406 787.132812 728.53125 787.621094 727.574219 788.015625 C 726.617188 788.414062 725.628906 788.710938 724.613281 788.914062 C 723.597656 789.117188 722.570312 789.21875 721.535156 789.21875 L 555.816406 789.21875 C 554.78125 789.21875 553.753906 789.117188 552.738281 788.914062 C 551.722656 788.710938 550.734375 788.414062 549.777344 788.015625 C 548.820312 787.621094 547.910156 787.132812 547.050781 786.558594 C 546.1875 785.980469 545.390625 785.328125 544.65625 784.59375 C 543.925781 783.863281 543.269531 783.066406 542.695312 782.203125 C 542.121094 781.339844 541.632812 780.433594 541.238281 779.476562 C 540.839844 778.515625 540.539062 777.53125 540.339844 776.515625 C 540.136719 775.496094 540.035156 774.472656 540.035156 773.433594 L 540.035156 366.109375 C 540.035156 365.074219 540.136719 364.046875 540.339844 363.03125 C 540.539062 362.015625 540.839844 361.027344 541.238281 360.070312 C 541.632812 359.113281 542.121094 358.203125 542.695312 357.339844 C 543.269531 356.480469 543.925781 355.683594 544.65625 354.949219 C 545.390625 354.214844 546.1875 353.5625 547.050781 352.988281 C 547.910156 352.410156 548.820312 351.925781 549.777344 351.527344 C 550.734375 351.132812 551.722656 350.832031 552.738281 350.628906 C 553.753906 350.429688 554.78125 350.328125 555.816406 350.328125 Z M 555.816406 350.328125 " fill-opacity="1" fill-rule="nonzero"/></g><g clip-path="url(#b41bc61ad4)"><path fill="#41b8d5" d="M 555.816406 350.328125 L 721.535156 350.328125 C 722.570312 350.328125 723.597656 350.429688 724.613281 350.628906 C 725.628906 350.832031 726.617188 351.132812 727.574219 351.527344 C 728.53125 351.925781 729.441406 352.410156 730.300781 352.988281 C 731.164062 353.5625 731.960938 354.214844 732.695312 354.949219 C 733.425781 355.683594 734.082031 356.480469 734.65625 357.339844 C 735.230469 358.203125 735.71875 359.113281 736.113281 360.070312 C 736.511719 361.027344 736.8125 362.015625 737.011719 363.03125 C 737.214844 364.046875 737.316406 365.074219 737.316406 366.109375 L 737.316406 773.433594 C 737.316406 774.472656 737.214844 775.496094 737.011719 776.515625 C 736.8125 777.53125 736.511719 778.515625 736.113281 779.476562 C 735.71875 780.433594 735.230469 781.339844 734.65625 782.203125 C 734.082031 783.066406 733.425781 783.863281 732.695312 784.59375 C 731.960938 785.328125 731.164062 785.980469 730.300781 786.558594 C 729.441406 787.132812 728.53125 787.621094 727.574219 788.015625 C 726.617188 788.414062 725.628906 788.710938 724.613281 788.914062 C 723.597656 789.117188 722.570312 789.21875 721.535156 789.21875 L 555.816406 789.21875 C 554.78125 789.21875 553.753906 789.117188 552.738281 788.914062 C 551.722656 788.710938 550.734375 788.414062 549.777344 788.015625 C 548.820312 787.621094 547.910156 787.132812 547.050781 786.558594 C 546.1875 785.980469 545.390625 785.328125 544.65625 784.59375 C 543.925781 783.863281 543.269531 783.066406 542.695312 782.203125 C 542.121094 781.339844 541.632812 780.433594 541.238281 779.476562 C 540.839844 778.515625 540.539062 777.53125 540.339844 776.515625 C 540.136719 775.496094 540.035156 774.472656 540.035156 773.433594 L 540.035156 366.109375 C 540.035156 365.074219 540.136719 364.046875 540.339844 363.03125 C 540.539062 362.015625 540.839844 361.027344 541.238281 360.070312 C 541.632812 359.113281 542.121094 358.203125 542.695312 357.339844 C 543.269531 356.480469 543.925781 355.683594 544.65625 354.949219 C 545.390625 354.214844 546.1875 353.5625 547.050781 352.988281 C 547.910156 352.410156 548.820312 351.925781 549.777344 351.527344 C 550.734375 351.132812 551.722656 350.832031 552.738281 350.628906 C 553.753906 350.429688 554.78125 350.328125 555.816406 350.328125 Z M 555.816406 350.328125 " fill-opacity="1" fill-rule="nonzero"/></g><g clip-path="url(#fc1b7a5283)"><path fill="#2d8bba" d="M 555.816406 350.328125 L 721.535156 350.328125 C 722.570312 350.328125 723.597656 350.429688 724.613281 350.628906 C 725.628906 350.832031 726.617188 351.132812 727.574219 351.527344 C 728.53125 351.925781 729.441406 352.410156 730.300781 352.988281 C 731.164062 353.5625 731.960938 354.214844 732.695312 354.949219 C 733.425781 355.683594 734.082031 356.480469 734.65625 357.339844 C 735.230469 358.203125 735.71875 359.113281 736.113281 360.070312 C 736.511719 361.027344 736.8125 362.015625 737.011719 363.03125 C 737.214844 364.046875 737.316406 365.074219 737.316406 366.109375 L 737.316406 773.433594 C 737.316406 774.472656 737.214844 775.496094 737.011719 776.515625 C 736.8125 777.53125 736.511719 778.515625 736.113281 779.476562 C 735.71875 780.433594 735.230469 781.339844 734.65625 782.203125 C 734.082031 783.066406 733.425781 783.863281 732.695312 784.59375 C 731.960938 785.328125 731.164062 785.980469 730.300781 786.558594 C 729.441406 787.132812 728.53125 787.621094 727.574219 788.015625 C 726.617188 788.414062 725.628906 788.710938 724.613281 788.914062 C 723.597656 789.117188 722.570312 789.21875 721.535156 789.21875 L 555.816406 789.21875 C 554.78125 789.21875 553.753906 789.117188 552.738281 788.914062 C 551.722656 788.710938 550.734375 788.414062 549.777344 788.015625 C 548.820312 787.621094 547.910156 787.132812 547.050781 786.558594 C 546.1875 785.980469 545.390625 785.328125 544.65625 784.59375 C 543.925781 783.863281 543.269531 783.066406 542.695312 782.203125 C 542.121094 781.339844 541.632812 780.433594 541.238281 779.476562 C 540.839844 778.515625 540.539062 777.53125 540.339844 776.515625 C 540.136719 775.496094 540.035156 774.472656 540.035156 773.433594 L 540.035156 366.109375 C 540.035156 365.074219 540.136719 364.046875 540.339844 363.03125 C 540.539062 362.015625 540.839844 361.027344 541.238281 360.070312 C 541.632812 359.113281 542.121094 358.203125 542.695312 357.339844 C 543.269531 356.480469 543.925781 355.683594 544.65625 354.949219 C 545.390625 354.214844 546.1875 353.5625 547.050781 352.988281 C 547.910156 352.410156 548.820312 351.925781 549.777344 351.527344 C 550.734375 351.132812 551.722656 350.832031 552.738281 350.628906 C 553.753906 350.429688 554.78125 350.328125 555.816406 350.328125 Z M 555.816406 350.328125 " fill-opacity="1" fill-rule="nonzero"/></g><g clip-path="url(#6bcfcc3946)"><path fill="#6ce5e8" d="M 775.019531 265.703125 L 940.734375 265.703125 C 941.769531 265.703125 942.796875 265.804688 943.8125 266.007812 C 944.828125 266.210938 945.816406 266.511719 946.773438 266.90625 C 947.730469 267.304688 948.640625 267.789062 949.503906 268.363281 C 950.363281 268.941406 951.160156 269.59375 951.894531 270.328125 C 952.625 271.058594 953.28125 271.859375 953.855469 272.71875 C 954.433594 273.582031 954.917969 274.492188 955.316406 275.449219 C 955.710938 276.40625 956.011719 277.390625 956.214844 278.410156 C 956.414062 279.425781 956.515625 280.453125 956.515625 281.488281 L 956.515625 773.433594 C 956.515625 774.472656 956.414062 775.496094 956.214844 776.515625 C 956.011719 777.53125 955.710938 778.515625 955.316406 779.476562 C 954.917969 780.433594 954.433594 781.339844 953.855469 782.203125 C 953.28125 783.066406 952.625 783.863281 951.894531 784.59375 C 951.160156 785.328125 950.363281 785.980469 949.503906 786.558594 C 948.640625 787.132812 947.730469 787.621094 946.773438 788.015625 C 945.816406 788.414062 944.828125 788.710938 943.8125 788.914062 C 942.796875 789.117188 941.769531 789.21875 940.734375 789.21875 L 775.019531 789.21875 C 773.980469 789.21875 772.957031 789.117188 771.941406 788.914062 C 770.921875 788.710938 769.9375 788.414062 768.980469 788.015625 C 768.019531 787.621094 767.113281 787.132812 766.25 786.558594 C 765.386719 785.980469 764.589844 785.328125 763.859375 784.59375 C 763.125 783.863281 762.472656 783.066406 761.894531 782.203125 C 761.320312 781.339844 760.835938 780.433594 760.4375 779.476562 C 760.039062 778.515625 759.742188 777.53125 759.539062 776.515625 C 759.335938 775.496094 759.234375 774.472656 759.234375 773.433594 L 759.234375 281.488281 C 759.234375 280.453125 759.335938 279.425781 759.539062 278.410156 C 759.742188 277.390625 760.039062 276.40625 760.4375 275.449219 C 760.835938 274.492188 761.320312 273.582031 761.894531 272.71875 C 762.472656 271.859375 763.125 271.058594 763.859375 270.328125 C 764.589844 269.59375 765.386719 268.941406 766.25 268.363281 C 767.113281 267.789062 768.019531 267.304688 768.980469 266.90625 C 769.9375 266.511719 770.921875 266.210938 771.941406 266.007812 C 772.957031 265.804688 773.980469 265.703125 775.019531 265.703125 Z M 775.019531 265.703125 " fill-opacity="1" fill-rule="nonzero"/></g><g clip-path="url(#44395f93b7)"><path fill="#41b8d5" d="M 775.019531 265.703125 L 940.734375 265.703125 C 941.769531 265.703125 942.796875 265.804688 943.8125 266.007812 C 944.828125 266.210938 945.816406 266.511719 946.773438 266.90625 C 947.730469 267.304688 948.640625 267.789062 949.503906 268.363281 C 950.363281 268.941406 951.160156 269.59375 951.894531 270.328125 C 952.625 271.058594 953.28125 271.859375 953.855469 272.71875 C 954.433594 273.582031 954.917969 274.492188 955.316406 275.449219 C 955.710938 276.40625 956.011719 277.390625 956.214844 278.410156 C 956.414062 279.425781 956.515625 280.453125 956.515625 281.488281 L 956.515625 773.433594 C 956.515625 774.472656 956.414062 775.496094 956.214844 776.515625 C 956.011719 777.53125 955.710938 778.515625 955.316406 779.476562 C 954.917969 780.433594 954.433594 781.339844 953.855469 782.203125 C 953.28125 783.066406 952.625 783.863281 951.894531 784.59375 C 951.160156 785.328125 950.363281 785.980469 949.503906 786.558594 C 948.640625 787.132812 947.730469 787.621094 946.773438 788.015625 C 945.816406 788.414062 944.828125 788.710938 943.8125 788.914062 C 942.796875 789.117188 941.769531 789.21875 940.734375 789.21875 L 775.019531 789.21875 C 773.980469 789.21875 772.957031 789.117188 771.941406 788.914062 C 770.921875 788.710938 769.9375 788.414062 768.980469 788.015625 C 768.019531 787.621094 767.113281 787.132812 766.25 786.558594 C 765.386719 785.980469 764.589844 785.328125 763.859375 784.59375 C 763.125 783.863281 762.472656 783.066406 761.894531 782.203125 C 761.320312 781.339844 760.835938 780.433594 760.4375 779.476562 C 760.039062 778.515625 759.742188 777.53125 759.539062 776.515625 C 759.335938 775.496094 759.234375 774.472656 759.234375 773.433594 L 759.234375 281.488281 C 759.234375 280.453125 759.335938 279.425781 759.539062 278.410156 C 759.742188 277.390625 760.039062 276.40625 760.4375 275.449219 C 760.835938 274.492188 761.320312 273.582031 761.894531 272.71875 C 762.472656 271.859375 763.125 271.058594 763.859375 270.328125 C 764.589844 269.59375 765.386719 268.941406 766.25 268.363281 C 767.113281 267.789062 768.019531 267.304688 768.980469 266.90625 C 769.9375 266.511719 770.921875 266.210938 771.941406 266.007812 C 772.957031 265.804688 773.980469 265.703125 775.019531 265.703125 Z M 775.019531 265.703125 " fill-opacity="1" fill-rule="nonzero"/></g><g clip-path="url(#9aa43c2360)"><path fill="#2d8bba" d="M 775.019531 265.703125 L 940.734375 265.703125 C 941.769531 265.703125 942.796875 265.804688 943.8125 266.007812 C 944.828125 266.210938 945.816406 266.511719 946.773438 266.90625 C 947.730469 267.304688 948.640625 267.789062 949.503906 268.363281 C 950.363281 268.941406 951.160156 269.59375 951.894531 270.328125 C 952.625 271.058594 953.28125 271.859375 953.855469 272.71875 C 954.433594 273.582031 954.917969 274.492188 955.316406 275.449219 C 955.710938 276.40625 956.011719 277.390625 956.214844 278.410156 C 956.414062 279.425781 956.515625 280.453125 956.515625 281.488281 L 956.515625 773.433594 C 956.515625 774.472656 956.414062 775.496094 956.214844 776.515625 C 956.011719 777.53125 955.710938 778.515625 955.316406 779.476562 C 954.917969 780.433594 954.433594 781.339844 953.855469 782.203125 C 953.28125 783.066406 952.625 783.863281 951.894531 784.59375 C 951.160156 785.328125 950.363281 785.980469 949.503906 786.558594 C 948.640625 787.132812 947.730469 787.621094 946.773438 788.015625 C 945.816406 788.414062 944.828125 788.710938 943.8125 788.914062 C 942.796875 789.117188 941.769531 789.21875 940.734375 789.21875 L 775.019531 789.21875 C 773.980469 789.21875 772.957031 789.117188 771.941406 788.914062 C 770.921875 788.710938 769.9375 788.414062 768.980469 788.015625 C 768.019531 787.621094 767.113281 787.132812 766.25 786.558594 C 765.386719 785.980469 764.589844 785.328125 763.859375 784.59375 C 763.125 783.863281 762.472656 783.066406 761.894531 782.203125 C 761.320312 781.339844 760.835938 780.433594 760.4375 779.476562 C 760.039062 778.515625 759.742188 777.53125 759.539062 776.515625 C 759.335938 775.496094 759.234375 774.472656 759.234375 773.433594 L 759.234375 281.488281 C 759.234375 280.453125 759.335938 279.425781 759.539062 278.410156 C 759.742188 277.390625 760.039062 276.40625 760.4375 275.449219 C 760.835938 274.492188 761.320312 273.582031 761.894531 272.71875 C 762.472656 271.859375 763.125 271.058594 763.859375 270.328125 C 764.589844 269.59375 765.386719 268.941406 766.25 268.363281 C 767.113281 267.789062 768.019531 267.304688 768.980469 266.90625 C 769.9375 266.511719 770.921875 266.210938 771.941406 266.007812 C 772.957031 265.804688 773.980469 265.703125 775.019531 265.703125 Z M 775.019531 265.703125 " fill-opacity="1" fill-rule="nonzero"/></g><g clip-path="url(#b08ef5381e)"><path fill="#6ce5e8" d="M 994.21875 68.253906 L 1159.933594 68.253906 C 1160.972656 68.253906 1161.996094 68.355469 1163.015625 68.558594 C 1164.03125 68.761719 1165.015625 69.058594 1165.972656 69.457031 C 1166.933594 69.851562 1167.839844 70.339844 1168.703125 70.914062 C 1169.566406 71.488281 1170.363281 72.144531 1171.09375 72.878906 C 1171.828125 73.609375 1172.480469 74.40625 1173.058594 75.269531 C 1173.632812 76.128906 1174.121094 77.039062 1174.515625 77.996094 C 1174.914062 78.953125 1175.210938 79.941406 1175.414062 80.957031 C 1175.617188 81.972656 1175.71875 83 1175.71875 84.035156 L 1175.71875 773.433594 C 1175.71875 774.472656 1175.617188 775.496094 1175.414062 776.515625 C 1175.210938 777.53125 1174.914062 778.515625 1174.515625 779.476562 C 1174.121094 780.433594 1173.632812 781.339844 1173.058594 782.203125 C 1172.480469 783.066406 1171.828125 783.863281 1171.09375 784.59375 C 1170.363281 785.328125 1169.566406 785.980469 1168.703125 786.558594 C 1167.839844 787.132812 1166.933594 787.621094 1165.972656 788.015625 C 1165.015625 788.414062 1164.03125 788.710938 1163.015625 788.914062 C 1161.996094 789.117188 1160.972656 789.21875 1159.933594 789.21875 L 994.21875 789.21875 C 993.183594 789.21875 992.15625 789.117188 991.140625 788.914062 C 990.125 788.710938 989.136719 788.414062 988.179688 788.015625 C 987.222656 787.621094 986.3125 787.132812 985.449219 786.558594 C 984.589844 785.980469 983.792969 785.328125 983.058594 784.59375 C 982.328125 783.863281 981.671875 783.066406 981.097656 782.203125 C 980.519531 781.339844 980.035156 780.433594 979.636719 779.476562 C 979.242188 778.515625 978.941406 777.53125 978.738281 776.515625 C 978.539062 775.496094 978.4375 774.472656 978.4375 773.433594 L 978.4375 84.035156 C 978.4375 83 978.539062 81.972656 978.738281 80.957031 C 978.941406 79.941406 979.242188 78.953125 979.636719 77.996094 C 980.035156 77.039062 980.519531 76.128906 981.097656 75.269531 C 981.671875 74.40625 982.328125 73.609375 983.058594 72.878906 C 983.792969 72.144531 984.589844 71.488281 985.449219 70.914062 C 986.3125 70.339844 987.222656 69.851562 988.179688 69.457031 C 989.136719 69.058594 990.125 68.761719 991.140625 68.558594 C 992.15625 68.355469 993.183594 68.253906 994.21875 68.253906 Z M 994.21875 68.253906 " fill-opacity="1" fill-rule="nonzero"/></g><g clip-path="url(#5a1abd727a)"><path fill="#41b8d5" d="M 994.21875 68.253906 L 1159.933594 68.253906 C 1160.972656 68.253906 1161.996094 68.355469 1163.015625 68.558594 C 1164.03125 68.761719 1165.015625 69.058594 1165.972656 69.457031 C 1166.933594 69.851562 1167.839844 70.339844 1168.703125 70.914062 C 1169.566406 71.488281 1170.363281 72.144531 1171.09375 72.878906 C 1171.828125 73.609375 1172.480469 74.40625 1173.058594 75.269531 C 1173.632812 76.128906 1174.121094 77.039062 1174.515625 77.996094 C 1174.914062 78.953125 1175.210938 79.941406 1175.414062 80.957031 C 1175.617188 81.972656 1175.71875 83 1175.71875 84.035156 L 1175.71875 773.433594 C 1175.71875 774.472656 1175.617188 775.496094 1175.414062 776.515625 C 1175.210938 777.53125 1174.914062 778.515625 1174.515625 779.476562 C 1174.121094 780.433594 1173.632812 781.339844 1173.058594 782.203125 C 1172.480469 783.066406 1171.828125 783.863281 1171.09375 784.59375 C 1170.363281 785.328125 1169.566406 785.980469 1168.703125 786.558594 C 1167.839844 787.132812 1166.933594 787.621094 1165.972656 788.015625 C 1165.015625 788.414062 1164.03125 788.710938 1163.015625 788.914062 C 1161.996094 789.117188 1160.972656 789.21875 1159.933594 789.21875 L 994.21875 789.21875 C 993.183594 789.21875 992.15625 789.117188 991.140625 788.914062 C 990.125 788.710938 989.136719 788.414062 988.179688 788.015625 C 987.222656 787.621094 986.3125 787.132812 985.449219 786.558594 C 984.589844 785.980469 983.792969 785.328125 983.058594 784.59375 C 982.328125 783.863281 981.671875 783.066406 981.097656 782.203125 C 980.519531 781.339844 980.035156 780.433594 979.636719 779.476562 C 979.242188 778.515625 978.941406 777.53125 978.738281 776.515625 C 978.539062 775.496094 978.4375 774.472656 978.4375 773.433594 L 978.4375 84.035156 C 978.4375 83 978.539062 81.972656 978.738281 80.957031 C 978.941406 79.941406 979.242188 78.953125 979.636719 77.996094 C 980.035156 77.039062 980.519531 76.128906 981.097656 75.269531 C 981.671875 74.40625 982.328125 73.609375 983.058594 72.878906 C 983.792969 72.144531 984.589844 71.488281 985.449219 70.914062 C 986.3125 70.339844 987.222656 69.851562 988.179688 69.457031 C 989.136719 69.058594 990.125 68.761719 991.140625 68.558594 C 992.15625 68.355469 993.183594 68.253906 994.21875 68.253906 Z M 994.21875 68.253906 " fill-opacity="1" fill-rule="nonzero"/></g><g clip-path="url(#83570a7f80)"><path fill="#2d8bba" d="M 994.21875 68.253906 L 1159.933594 68.253906 C 1160.972656 68.253906 1161.996094 68.355469 1163.015625 68.558594 C 1164.03125 68.761719 1165.015625 69.058594 1165.972656 69.457031 C 1166.933594 69.851562 1167.839844 70.339844 1168.703125 70.914062 C 1169.566406 71.488281 1170.363281 72.144531 1171.09375 72.878906 C 1171.828125 73.609375 1172.480469 74.40625 1173.058594 75.269531 C 1173.632812 76.128906 1174.121094 77.039062 1174.515625 77.996094 C 1174.914062 78.953125 1175.210938 79.941406 1175.414062 80.957031 C 1175.617188 81.972656 1175.71875 83 1175.71875 84.035156 L 1175.71875 773.433594 C 1175.71875 774.472656 1175.617188 775.496094 1175.414062 776.515625 C 1175.210938 777.53125 1174.914062 778.515625 1174.515625 779.476562 C 1174.121094 780.433594 1173.632812 781.339844 1173.058594 782.203125 C 1172.480469 783.066406 1171.828125 783.863281 1171.09375 784.59375 C 1170.363281 785.328125 1169.566406 785.980469 1168.703125 786.558594 C 1167.839844 787.132812 1166.933594 787.621094 1165.972656 788.015625 C 1165.015625 788.414062 1164.03125 788.710938 1163.015625 788.914062 C 1161.996094 789.117188 1160.972656 789.21875 1159.933594 789.21875 L 994.21875 789.21875 C 993.183594 789.21875 992.15625 789.117188 991.140625 788.914062 C 990.125 788.710938 989.136719 788.414062 988.179688 788.015625 C 987.222656 787.621094 986.3125 787.132812 985.449219 786.558594 C 984.589844 785.980469 983.792969 785.328125 983.058594 784.59375 C 982.328125 783.863281 981.671875 783.066406 981.097656 782.203125 C 980.519531 781.339844 980.035156 780.433594 979.636719 779.476562 C 979.242188 778.515625 978.941406 777.53125 978.738281 776.515625 C 978.539062 775.496094 978.4375 774.472656 978.4375 773.433594 L 978.4375 84.035156 C 978.4375 83 978.539062 81.972656 978.738281 80.957031 C 978.941406 79.941406 979.242188 78.953125 979.636719 77.996094 C 980.035156 77.039062 980.519531 76.128906 981.097656 75.269531 C 981.671875 74.40625 982.328125 73.609375 983.058594 72.878906 C 983.792969 72.144531 984.589844 71.488281 985.449219 70.914062 C 986.3125 70.339844 987.222656 69.851562 988.179688 69.457031 C 989.136719 69.058594 990.125 68.761719 991.140625 68.558594 C 992.15625 68.355469 993.183594 68.253906 994.21875 68.253906 Z M 994.21875 68.253906 " fill-opacity="1" fill-rule="nonzero"/></g></svg>