<svg width="150" height="150" viewBox="0 0 150 150" fill="none" xmlns="http://www.w3.org/2000/svg">
<path d="M16.4171 48.1256C15.5138 49.621 14.6935 51.1794 13.9684 52.8079C8.13255 65.9149 9.33063 78.3629 12.6933 91.5259C16.1663 105.12 22.735 119.708 34.1594 128.462C36.8487 130.523 39.8849 132.218 43.2325 133.073C55.8413 136.291 71.4951 131.377 87.3305 134.015C103.166 136.653 119.411 133.407 128.63 118.596C132.531 112.327 134.968 105.683 136.427 98.5771C138.224 89.8277 142.218 80.9831 142.41 71.8732C142.611 62.2982 138.825 51.7001 132.596 44.5311C125.489 36.3518 114.018 35.4331 104.395 31.4189C96.8085 28.2543 90.229 23.1436 82.5579 20.1686C70.8055 15.6107 55.7145 15.438 44.6859 22.6644C33.9877 29.6741 22.9983 37.2305 16.4171 48.1256Z" fill="#F58F00"/>
<path opacity="0.7" d="M16.4171 48.1256C15.5138 49.621 14.6935 51.1794 13.9684 52.8079C8.13255 65.9149 9.33063 78.3629 12.6933 91.5259C16.1663 105.12 22.735 119.708 34.1594 128.462C36.8487 130.523 39.8849 132.218 43.2325 133.073C55.8413 136.291 71.4951 131.377 87.3305 134.015C103.166 136.653 119.411 133.407 128.63 118.596C132.531 112.327 134.968 105.683 136.427 98.5771C138.224 89.8277 142.218 80.9831 142.41 71.8732C142.611 62.2982 138.825 51.7001 132.596 44.5311C125.489 36.3518 114.018 35.4331 104.395 31.4189C96.8085 28.2543 90.229 23.1436 82.5579 20.1686C70.8055 15.6107 55.7145 15.438 44.6859 22.6644C33.9877 29.6741 22.9983 37.2305 16.4171 48.1256Z" fill="white"/>
<path d="M89.0813 113.253C81.9183 111.676 74.5807 111.486 67.4228 112.913C66.2071 113.155 64.9801 113.446 63.7717 113.794C55.3129 116.231 50.553 119.728 49.069 123.824C47.585 127.92 48.8506 135.011 53.0392 138.433C57.2277 141.854 69.7634 145.459 82.3524 144.78C94.9415 144.101 103.412 136.192 105.456 130.65C107.499 125.107 106.089 119.686 102.137 117.207C99.9729 115.851 94.023 114.341 89.0813 113.253Z" fill="#F58F00" stroke="#263238" stroke-miterlimit="10"/>
<path d="M105.919 122.322C105.275 120.166 103.984 118.365 102.137 117.207C99.973 115.851 94.0231 114.341 89.0814 113.253C81.9184 111.676 74.5808 111.486 67.4229 112.913C66.2072 113.155 64.9802 113.446 63.7718 113.794C55.313 116.231 50.5531 119.728 49.0691 123.824C49.0691 123.824 49.4545 130.229 55.3117 134.464C61.169 138.7 78.9823 140.19 91.0903 135.748C102.305 131.635 105.302 125.996 105.919 122.322Z" fill="white" stroke="#263238" stroke-miterlimit="10"/>
<path d="M84.4415 142.605C84.4562 143.024 83.7128 143.39 82.781 143.423C81.8493 143.456 81.082 143.142 81.0674 142.723C81.0527 142.304 81.7961 141.937 82.7278 141.905C83.6596 141.872 84.4268 142.185 84.4415 142.605Z" fill="white"/>
<path d="M93.6083 139.074C93.623 139.494 92.9929 139.856 92.2009 139.884C91.4089 139.912 90.7549 139.594 90.7402 139.175C90.7256 138.756 91.3557 138.393 92.1477 138.365C92.9396 138.338 93.5936 138.655 93.6083 139.074Z" fill="white"/>
<path d="M71.2263 141.463C71.2361 141.743 70.7153 141.988 70.0631 142.011C69.4109 142.033 68.8742 141.825 68.8644 141.546C68.8546 141.266 69.3754 141.021 70.0276 140.998C70.6798 140.975 71.2165 141.184 71.2263 141.463Z" fill="white"/>
<path d="M79.2889 140.167C79.3019 140.54 78.7083 140.863 77.9629 140.889C77.2175 140.916 76.6026 140.635 76.5896 140.262C76.5765 139.889 77.1702 139.566 77.9156 139.54C78.661 139.514 79.2758 139.795 79.2889 140.167Z" fill="white"/>
<path d="M88.458 141.535C88.4678 141.815 88.0603 142.056 87.5478 142.074C87.0354 142.092 86.612 141.88 86.6022 141.6C86.5924 141.321 86.9999 141.08 87.5124 141.062C88.0248 141.044 88.4482 141.256 88.458 141.535Z" fill="white"/>
<path d="M98.1886 136.022C98.3579 136.354 99.0339 136.349 99.6985 136.01C100.363 135.672 100.765 135.128 100.595 134.796C100.426 134.463 99.7499 134.469 99.0854 134.807C98.4208 135.146 98.0193 135.69 98.1886 136.022Z" fill="white"/>
<path d="M52.8602 136.29C52.6643 136.607 53.0201 137.182 53.6548 137.573C54.2895 137.965 54.9628 138.025 55.1587 137.708C55.3545 137.391 54.9988 136.816 54.3641 136.424C53.7294 136.032 53.0561 135.972 52.8602 136.29Z" fill="white"/>
<path d="M63.1491 140.149C63.1126 140.332 63.3795 140.539 63.7452 140.612C64.111 140.685 64.437 140.596 64.4735 140.413C64.5099 140.23 64.2431 140.023 63.8773 139.95C63.5116 139.877 63.1856 139.966 63.1491 140.149Z" fill="white"/>
<path d="M58.0641 138.72C58.0276 138.902 58.2945 139.11 58.6603 139.183C59.026 139.256 59.352 139.167 59.3885 138.984C59.425 138.801 59.1581 138.594 58.7924 138.521C58.4266 138.448 58.1006 138.537 58.0641 138.72Z" fill="white"/>
<path d="M85.8642 138.782C85.8277 138.964 86.0946 139.172 86.4603 139.245C86.826 139.318 87.1521 139.229 87.1886 139.046C87.2251 138.863 86.9582 138.656 86.5924 138.583C86.2267 138.51 85.9007 138.599 85.8642 138.782Z" fill="white"/>
<path d="M101.625 131.259C101.588 131.442 101.855 131.649 102.221 131.722C102.587 131.795 102.913 131.706 102.949 131.523C102.986 131.34 102.719 131.133 102.353 131.06C101.987 130.987 101.661 131.076 101.625 131.259Z" fill="white"/>
<path d="M93.0778 126.05C93.0967 125.922 93.1088 125.775 93.1156 125.618C93.1739 124.263 92.4946 122.982 91.353 122.249C89.7354 121.21 87.1682 119.692 84.75 118.815C80.8195 117.389 77.9882 117.416 77.9882 117.416C77.9882 117.416 64.8538 115.843 62.6042 117.469C62.6042 117.469 61.7791 120.025 61.9256 120.543C62.0722 121.061 62.1405 123.278 68.0683 126.289C73.996 129.3 76.2773 130.977 81.5138 130.785C86.7502 130.594 88.5829 129.774 90.2735 128.908C91.9642 128.043 92.9447 126.948 93.0778 126.05ZM89.7198 125.28C89.0187 125.994 84.1301 128.023 84.1301 128.023C80.0756 128.439 79.7916 128.348 71.3031 124.04C62.8145 119.732 65.6916 119.563 65.6916 119.563C69.6913 118.345 79.7517 119.24 79.7517 119.24C79.7517 119.24 81.7858 119.74 85.1986 121.312C88.6115 122.884 90.4208 124.565 89.7198 125.28Z" fill="white" stroke="#263238" stroke-miterlimit="10"/>
<path d="M93.0777 126.05C93.0985 125.91 93.111 125.748 93.1173 125.575C93.1658 124.246 92.5075 122.992 91.3893 122.272C89.774 121.233 87.1864 119.698 84.75 118.815C83.9601 118.528 83.2175 118.303 82.5305 118.122C83.8733 118.699 86.4552 119.838 88.569 120.946C91.5697 122.52 91.7604 123.428 91.8062 124.411C91.852 125.393 87.6912 128.164 85.8035 128.765C83.9159 129.365 80.6746 129.287 77.0975 128.374C73.5205 127.462 70.9192 125.775 66.5931 122.685C62.2671 119.595 62.9141 118.715 63.4904 118.054C64.0666 117.393 67.2726 117.581 67.2726 117.581L80.3088 117.675L80.1622 117.622C78.8051 117.411 77.9882 117.416 77.9882 117.416C77.9882 117.416 64.8539 115.843 62.6042 117.469C62.6042 117.469 61.7791 120.025 61.9256 120.543C62.0722 121.061 62.1405 123.278 68.0683 126.289C73.9961 129.3 76.2773 130.977 81.5138 130.785C86.7502 130.594 88.5829 129.774 90.2735 128.908C91.9642 128.043 92.9447 126.948 93.0777 126.05Z" fill="#263238" stroke="#263238" stroke-miterlimit="10"/>
<path d="M67.2725 117.582C67.2725 117.582 66.1404 117.629 65.2123 118.317C64.2841 119.006 65.1192 119.699 65.1192 119.699" stroke="#263238" stroke-miterlimit="10"/>
<path d="M89.7196 125.28C89.7196 125.28 90.916 124.849 91.079 124.125C91.2421 123.401 90.4255 122.431 89.2708 121.635" stroke="#263238" stroke-miterlimit="10"/>
<path d="M63.0825 119.433L62.407 121.526" stroke="#C9C9C9" stroke-miterlimit="10"/>
<path d="M64.1574 120.814L63.5867 122.394" stroke="#C9C9C9" stroke-miterlimit="10"/>
<path d="M67.6223 123.271L66.833 124.962" stroke="#C9C9C9" stroke-miterlimit="10"/>
<path d="M72.5228 126.555L71.9326 128.007" stroke="#C9C9C9" stroke-miterlimit="10"/>
<path d="M83.0922 129.237L82.4807 130.378" stroke="#C9C9C9" stroke-miterlimit="10"/>
<path d="M88.2188 129.371L88.9121 127.223" stroke="#C9C9C9" stroke-miterlimit="10"/>
<path d="M90.565 125.87L89.7151 128.88" stroke="#C9C9C9" stroke-miterlimit="10"/>
<path d="M92.2375 124.646L91.2063 127.841" stroke="#C9C9C9" stroke-miterlimit="10"/>
<path d="M104.357 110.932C104.376 110.803 104.388 110.657 104.395 110.5C104.453 109.144 103.774 107.864 102.632 107.131C101.015 106.092 98.4475 104.574 96.0293 103.697C92.0988 102.271 89.2675 102.298 89.2675 102.298C89.2675 102.298 76.1331 100.725 73.8835 102.351C73.8835 102.351 73.0584 104.907 73.2049 105.425C73.3515 105.942 73.4198 108.16 79.3476 111.171C85.2753 114.182 87.5566 115.859 92.7931 115.667C98.0295 115.475 99.8622 114.656 101.553 113.79C103.243 112.924 104.224 111.83 104.357 110.932ZM100.999 110.162C100.298 110.876 95.4094 112.905 95.4094 112.905C91.3549 113.321 91.0709 113.23 82.5824 108.922C74.0938 104.614 76.9709 104.445 76.9709 104.445C80.9706 103.227 91.031 104.122 91.031 104.122C91.031 104.122 93.0651 104.622 96.4779 106.193C99.8908 107.765 101.7 109.447 100.999 110.162Z" fill="white" stroke="#263238" stroke-miterlimit="10"/>
<path d="M104.357 110.932C104.378 110.792 104.39 110.63 104.397 110.456C104.445 109.128 103.787 107.874 102.669 107.154C101.053 106.115 98.4657 104.58 96.0293 103.697C95.2394 103.41 94.4968 103.185 93.8098 103.003C95.1526 103.581 97.7345 104.72 99.8483 105.828C102.849 107.401 103.04 108.31 103.086 109.293C103.131 110.275 98.9705 113.046 97.0828 113.646C95.1952 114.247 91.9539 114.169 88.3768 113.256C84.7998 112.344 82.1985 110.657 77.8724 107.567C73.5464 104.477 74.1934 103.597 74.7697 102.936C75.3459 102.275 78.5519 102.463 78.5519 102.463L91.5881 102.557L91.4415 102.504C90.0844 102.293 89.2675 102.298 89.2675 102.298C89.2675 102.298 76.1331 100.725 73.8835 102.351C73.8835 102.351 73.0584 104.907 73.2049 105.425C73.3515 105.942 73.4198 108.16 79.3476 111.171C85.2753 114.182 87.5566 115.859 92.7931 115.667C98.0296 115.475 99.8622 114.656 101.553 113.79C103.243 112.924 104.224 111.83 104.357 110.932Z" fill="#263238" stroke="#263238" stroke-miterlimit="10"/>
<path d="M76.3985 104.581C76.3985 104.581 75.5634 103.888 76.4916 103.199C77.4197 102.511 78.5518 102.463 78.5518 102.463" stroke="#263238" stroke-miterlimit="10"/>
<path d="M100.999 110.162C100.999 110.162 102.195 109.73 102.358 109.007C102.521 108.283 101.705 107.313 100.55 106.517" stroke="#263238" stroke-miterlimit="10"/>
<path d="M74.3619 104.315L73.6863 106.408" stroke="#C9C9C9" stroke-miterlimit="10"/>
<path d="M75.4366 105.696L74.866 107.276" stroke="#C9C9C9" stroke-miterlimit="10"/>
<path d="M78.9016 108.152L78.1123 109.844" stroke="#C9C9C9" stroke-miterlimit="10"/>
<path d="M83.8021 111.437L83.2119 112.889" stroke="#C9C9C9" stroke-miterlimit="10"/>
<path d="M94.3715 114.119L93.76 115.259" stroke="#C9C9C9" stroke-miterlimit="10"/>
<path d="M100.191 112.104L99.498 114.252" stroke="#C9C9C9" stroke-miterlimit="10"/>
<path d="M101.844 110.752L100.994 113.762" stroke="#C9C9C9" stroke-miterlimit="10"/>
<path d="M103.517 109.528L102.486 112.723" stroke="#C9C9C9" stroke-miterlimit="10"/>
<path d="M77.966 114.667C77.9447 114.539 77.9112 114.396 77.8694 114.244C77.5086 112.936 76.4688 111.926 75.1571 111.579C73.2987 111.087 70.3892 110.431 67.8186 110.339C63.6402 110.19 60.9541 111.085 60.9541 111.085C60.9541 111.085 47.9714 113.622 46.3298 115.86C46.3298 115.86 46.3298 118.547 46.6283 118.994C46.9267 119.442 47.6729 121.531 54.2389 122.576C60.8049 123.62 63.491 124.516 68.4154 122.725C73.34 120.934 74.8322 119.591 76.1753 118.248C77.5183 116.905 78.1152 115.562 77.966 114.667ZM74.5338 114.965C74.0861 115.86 70.057 119.293 70.057 119.293C66.3263 120.934 66.0278 120.934 56.6265 119.442C47.2252 117.95 49.9113 116.905 49.9113 116.905C53.3435 114.517 63.1925 112.279 63.1925 112.279C63.1925 112.279 65.2817 112.13 69.0124 112.577C72.7431 113.025 74.9815 114.07 74.5338 114.965Z" fill="white" stroke="#263238" stroke-miterlimit="10"/>
<path d="M77.966 114.667C77.9427 114.527 77.9049 114.369 77.8577 114.202C77.4956 112.923 76.484 111.932 75.1989 111.59C73.3425 111.098 70.4085 110.432 67.8186 110.339C66.9788 110.309 66.2029 110.323 65.4934 110.361C66.9485 110.498 69.7556 110.789 72.1075 111.195C75.4465 111.77 75.9071 112.576 76.2525 113.497C76.5979 114.418 73.4892 118.333 71.8773 119.484C70.2654 120.636 67.1566 121.557 63.4722 121.787C59.7878 122.017 56.7943 121.211 51.7282 119.6C46.6622 117.988 47.0076 116.951 47.353 116.145C47.6984 115.339 50.8071 114.534 50.8071 114.534L63.242 110.619L63.0863 110.614C61.7298 110.829 60.9541 111.085 60.9541 111.085C60.9541 111.085 47.9714 113.622 46.3298 115.861C46.3298 115.861 46.3298 118.547 46.6283 118.994C46.9268 119.442 47.6729 121.531 54.2389 122.576C60.8049 123.62 63.491 124.516 68.4154 122.725C73.34 120.934 74.8322 119.591 76.1753 118.248C77.5183 116.905 78.1152 115.562 77.966 114.667Z" fill="#263238" stroke="#263238" stroke-miterlimit="10"/>
<path d="M49.4084 117.21C49.4084 117.21 48.4007 116.807 49.0725 115.866C49.7442 114.926 50.8072 114.533 50.8072 114.533" stroke="#263238" stroke-miterlimit="10"/>
<path d="M74.5337 114.965C74.5337 114.965 75.5397 114.187 75.4725 113.448C75.4054 112.709 74.3306 112.037 72.9871 111.634" stroke="#263238" stroke-miterlimit="10"/>
<path d="M47.3884 117.583V119.783" stroke="#C9C9C9" stroke-miterlimit="10"/>
<path d="M48.8355 118.567L48.7776 120.246" stroke="#C9C9C9" stroke-miterlimit="10"/>
<path d="M52.8873 119.84L52.6558 121.693" stroke="#C9C9C9" stroke-miterlimit="10"/>
<path d="M58.5599 121.461L58.4441 123.024" stroke="#C9C9C9" stroke-miterlimit="10"/>
<path d="M69.4417 120.767L69.2102 122.04" stroke="#C9C9C9" stroke-miterlimit="10"/>
<path d="M74.3621 117.062V119.319" stroke="#C9C9C9" stroke-miterlimit="10"/>
<path d="M75.5195 115.268L75.6353 118.393" stroke="#C9C9C9" stroke-miterlimit="10"/>
<path d="M76.7351 113.589V116.946" stroke="#C9C9C9" stroke-miterlimit="10"/>
<path d="M96.0985 77.6412C82.3929 74.6824 68.4216 79.4414 57.386 84.4224C43.8271 90.5422 45.4945 96.8129 47.489 104.051C48.941 109.318 55.9973 111.727 61.0317 112.664C70.5306 114.434 82.1228 112.858 91.0875 109.318C95.4299 107.604 98.4049 105.814 102.188 103.086C105.522 100.682 108.216 97.2079 108.584 93.3321C108.882 90.1919 108.728 85.2293 106.752 82.7257C104.195 79.4876 99.9821 78.4796 96.0985 77.6412Z" fill="#263238" stroke="#263238" stroke-miterlimit="10"/>
<path opacity="0.3" d="M104.877 81.8823C105.154 81.646 105.202 81.3341 104.7 80.8532C103.959 80.1427 99.1403 80.5653 98.2001 81.233C97.3332 81.8486 98.2799 81.7764 98.546 82.331C98.9913 83.2592 98.6421 84.1309 98.6836 84.2683C98.081 84.3214 97.7713 84.8674 98.1204 85.4346C98.4534 85.9758 98.9396 85.6381 99.5864 85.5824C99.6585 86.0602 99.5686 86.5103 99.6008 86.9774C101.402 86.9018 101.1 85.6184 101.544 84.5547C101.588 85.0595 102.084 85.3064 102 85.6303C101.66 86.9464 100.805 86.7651 99.6516 87.5991C99.7137 88.4488 99.8774 89.3369 99.1499 89.8612C99.1226 90.1036 99.2458 90.1263 99.1048 90.3542C98.1941 90.5568 97.2564 90.6885 96.3366 90.862C96.4369 90.6396 96.49 90.3468 96.4942 89.9526C96.1923 89.8967 96.0508 89.6533 95.8456 89.567C96.2432 89.2617 97.9082 88.4463 97.9834 87.9979C98.1933 86.7446 95.6685 87.2611 95.1538 87.5106C94.1026 88.0203 94.4066 88.9751 93.1967 88.6759C92.9321 88.6105 92.6847 88.1135 92.4488 88.078C91.8085 87.9817 90.8656 88.876 90.3978 89.3071L88.0891 89.8264C87.2686 90.0762 86.7155 91.5261 87.9848 91.4244C88.3147 92.3392 89.4053 91.7631 90.1178 91.9011C89.0593 95.1486 92.8863 92.8388 91.9629 91.3335C92.7602 90.9594 93.5207 91.6323 94.387 91.5885C94.8915 91.563 95.2998 91.5335 95.6196 91.4416C95.7604 92.1532 95.9505 92.7821 95.4462 93.3584C94.0016 95.0089 90.3637 93.48 88.4801 94.0597C88.1953 94.9881 87.3511 94.0915 86.8069 94.6969C86.11 95.472 87.4115 96.6216 85.713 97.0985C87.0252 101.036 81.7586 98.9932 80.3772 97.5296C79.796 96.914 79.8192 95.6187 78.5966 95.9159C77.9433 96.0748 77.7083 96.6408 77.7477 97.3136C76.6065 96.5217 75.5437 96.3157 74.3594 97.231C74.7644 98.9195 72.795 99.8975 71.6011 98.9431C70.9415 101.175 68.977 99.4136 68.5412 98.138C68.3352 97.5348 68.4865 95.9071 68.0574 95.4944C66.2576 93.7633 64.5212 96.798 64.9362 98.2727C63.9137 98.4177 61.8133 98.8657 60.7989 98.2733C60.5795 98.1452 60.7043 97.4984 60.3807 97.3016C60.1452 97.1583 59.8849 96.8636 59.618 96.7654C58.7887 96.4604 58.7709 97.1393 58.2495 97.0598C56.9208 96.8572 56.0046 95.5491 54.5554 95.736C53.0462 95.9305 53.9657 96.4623 52.6957 97.3317C51.7297 97.9928 51.1852 97.4945 50.4847 96.9091C50.2247 96.6918 50.4478 96.1652 50.2053 95.9853C49.9553 95.7999 49.0358 95.6664 49.1092 95.7326C48.9355 95.5759 48.7442 95.4581 48.5786 95.3263C48.7751 95.0832 48.8447 94.6851 49.0121 94.4752C49.5657 93.7805 50.0407 93.7882 50.9443 93.4937C52.0347 93.1382 52.1549 92.9756 52.5484 91.8645C52.7233 91.3708 53.57 90.902 50.9648 90.1322C50.5334 90.6789 49.9799 91.2271 49.5444 91.6971C49.3797 91.8748 49.5512 92.0639 49.1606 92.336C48.9104 92.5104 48.5209 92.3857 48.2592 92.5191C47.4941 92.9091 46.4242 94.7845 47.6388 95.3835L47.1261 97.752C47.6331 100.61 48.1643 105.104 48.7287 105.63C49.3325 106.193 48.8711 106.57 51.1356 108.451C56.3828 112.812 64.6898 112.823 67.2196 112.923C68.6604 112.98 69.9099 113.167 71.3274 112.917C75.622 112.162 82.5198 111.516 86.7191 110.331C91.4123 109.006 94.7698 106.849 99.1966 104.815C106.248 101.574 109.298 94.8055 108.014 87.3636C107.715 85.6276 107.063 82.2829 104.877 81.8823Z" fill="white"/>
<path opacity="0.3" d="M52.3685 94.0869L51.634 94.6937C51.41 94.6947 51.1585 94.7687 50.9473 94.8306C50.9659 94.9817 50.9754 95.1154 51.0305 95.2597C51.5536 95.2798 53.1002 95.3499 53.3918 94.8251C53.7432 94.1928 52.929 93.9715 52.3685 94.0869Z" fill="white"/>
<path opacity="0.3" d="M77.9344 94.8433C78.4098 95.0996 78.9579 95.3264 79.356 95.5348C80.2337 95.9943 80.4099 96.1535 81.5519 95.8564C81.4587 95.6168 81.5417 95.2003 81.4387 94.9528C83.8418 93.9244 82.5296 92.5545 80.5494 92.69L77.8914 93.2697C76.715 93.685 76.9839 94.3309 77.9344 94.8433Z" fill="white"/>
<path opacity="0.3" d="M59.8865 93.7405C59.9219 94.3527 60.285 94.5957 60.742 94.5872L60.5124 94.717C59.1746 94.6098 59.9493 95.5959 60.6019 95.9125C60.9297 96.0715 61.2368 95.8765 61.5984 96.092C61.7213 96.1652 61.6739 96.7152 61.8682 96.8809C63.3516 98.1468 63.0145 96.4444 62.9755 95.7833C62.9132 94.7255 63.0241 94.7925 64.2981 94.5237C63.9621 93.1534 63.1439 93.6595 62.2585 93.8208C62.6187 93.4319 62.8457 92.9331 62.7548 92.4143C62.4564 90.7098 60.2635 91.4336 57.9173 92.8873C57.4619 93.0098 56.9574 93.0244 56.5088 93.0259C57.2361 94.2376 58.7027 93.6331 59.8865 93.7405Z" fill="white"/>
<path opacity="0.21" d="M54.8605 105.238C55.0525 106.401 55.7963 105.572 56.4491 105.794C57.4765 106.145 57.1821 107.153 58.0458 107.602C59.9111 108.571 59.6684 105.751 59.3796 104.759C60.1899 104.484 60.0827 103.134 59.298 102.786C58.7919 102.561 58.4939 103.25 58.1069 103.156C57.6299 103.041 57.6163 102.808 57.3168 102.662C56.795 102.407 56.0682 101.179 55.3626 102.38C54.8421 103.265 56.4352 104.327 54.6091 104.588" fill="black"/>
<path opacity="0.21" d="M67.1442 102.419C65.8848 102.845 65.1002 101.995 63.8164 102.28C63.2928 102.396 60.9412 103.643 61.0661 104.273C61.3031 105.469 62.7518 104.334 63.4124 104.886C64.0036 105.381 63.4735 107.162 64.9603 106.692C66.7188 106.136 64.4019 103.502 67.1036 103.395C68.0553 103.358 68.4626 104.112 69.3358 103.716C69.9959 103.417 70.807 101.92 69.9927 101.399C69.4787 101.07 67.5949 101.991 67.1442 102.419Z" fill="black"/>
<path opacity="0.21" d="M71.4365 105.564C69.238 106.17 69.9877 107.299 70.342 108.807C70.5789 109.814 69.5898 109.352 71.0378 110.004C72.036 110.454 73.5196 110.629 74.1997 109.846C74.8204 109.132 73.8827 108.35 75.7371 108.176C76.502 108.104 77.2104 108.596 78.0028 108.348C79.278 107.949 80.4696 105.443 79.3129 104.32C78.6976 103.723 76.7789 103.901 76.0112 103.81C76.5283 101.664 74.6837 101.122 72.7838 101.717C69.9513 102.603 73.2699 103.547 71.4365 105.564Z" fill="black"/>
<path opacity="0.21" d="M84.6304 100.783C82.8105 101.278 80.6369 100.322 80.7802 103.03C80.8428 104.215 81.087 105.24 81.9414 106.086C83.2276 105.959 84.4669 105.141 85.343 105.688C85.514 105.795 85.3773 106.388 85.6106 106.582C86.0623 106.957 87.3739 106.929 87.787 106.497C88.7535 105.487 87.1599 104.109 87.7347 103.328C88.4756 102.321 90.0252 103.395 90.4919 102.123C90.8199 101.229 90.1953 99.9131 89.4078 99.468C89.0449 99.263 87.4477 98.7456 87.1312 98.8108C85.6718 99.1117 86.6961 99.8902 86.291 100.498C85.9016 101.082 85.0084 100.867 84.6304 100.783Z" fill="black"/>
<path opacity="0.21" d="M82.1335 108.017C81.5732 108.031 80.9754 108.198 80.7041 108.677C81.2836 109.413 82.2685 109.742 83.1915 109.501C83.4028 108.361 84.2442 106.51 82.3513 106.869" fill="black"/>
<path opacity="0.21" d="M92.6221 94.8189C91.2914 94.6938 89.3083 93.8892 90.4693 96.0551C90.6427 96.3785 91.182 96.3674 91.319 96.8213C91.4278 97.1823 90.7452 97.3684 90.8984 97.7547C91.2855 98.7305 92.4472 98.8667 93.5185 98.543C93.6078 98.0772 93.2935 97.4391 93.4422 97.0308C93.5871 96.6327 94.2738 96.5377 94.4187 96.0584C94.6982 95.1331 94.0586 94.6921 93.1613 94.7257" fill="black"/>
<path opacity="0.21" d="M97.6501 100.612C95.7798 100.998 92.9853 100.263 95.1013 102.593C94.6755 102.946 94.1035 103.478 94.3612 104.127C94.9582 105.632 96.464 103.813 97.1261 103.501C98.0485 103.066 99.0489 103.513 100.09 103.08C102.273 102.173 101.485 101.536 101.63 99.9867C101.77 98.4979 102.64 98.4323 101.236 96.9216C100.529 96.1607 99.5926 95.3167 98.5122 96.1708C96.3201 97.9039 101.142 98.4084 98.2074 99.8219" fill="black"/>
<path opacity="0.21" d="M102.957 89.5607C102.142 89.3151 100.448 90.1 100.915 91.2778C102.04 91.1029 102.597 92.6343 101.685 93.3083C100.998 93.816 100.526 92.8621 99.9324 93.0101C99.3552 93.1539 99.0382 93.6474 99.486 94.2731C100.204 95.2769 102.558 94.2063 103.65 94.3276C103.958 95.3445 103.194 97.5817 104.763 97.7277C106.811 97.9183 105.988 93.6412 105.855 92.5477C106.747 92.5792 106.942 91.7067 106.988 90.9765C107.056 89.8945 106.476 89.8399 106.186 89.0034C105.883 88.1324 106.695 87.6357 105.556 87.3052C104.174 86.9039 103.779 88.8823 102.957 89.5607Z" fill="black"/>
<path opacity="0.21" d="M52.2354 98.8903C51.6269 98.7679 49.6564 97.2917 49.5074 99.0461C49.433 99.9208 52.6898 101.118 50.8142 101.791C50.6526 103.167 51.9811 102.778 52.4988 103.543C53.7846 103.341 54.5527 101.675 54.1986 100.511C55.6488 100.973 58.6188 103.038 57.722 99.7124C56.9858 96.9827 55.6427 98.6795 52.2354 98.8903Z" fill="black"/>
<path opacity="0.21" d="M51.9833 105.458C50.6182 104.393 50.303 105.809 50.5919 106.923C52.1856 107.08 52.8392 109.09 54.6927 108.3C54.6727 106.732 53.1795 106.645 52.7039 105.611" fill="black"/>
<path opacity="0.21" d="M61.8949 108.186C61.0841 108.262 59.9428 108.37 60.2814 109.413C59.4556 109.901 58.7318 109.577 57.8806 109.734C58.3222 111.468 62.2488 110.975 63.5717 111.151C64.8481 111.321 66.9071 113.239 68.3066 112.352C69.8822 111.352 67.3762 110.017 67.3345 109.188C67.2964 108.431 68.7602 107.886 67.748 106.893C67.0226 106.182 66.804 106.787 66.3252 107.312C65.6995 107.997 65.6133 109.204 64.0502 108.788C63.1752 108.556 62.9635 107.754 62.7699 106.946C62.5371 106.961 62.1974 106.966 61.8949 108.186Z" fill="black"/>
<path opacity="0.21" d="M79.5447 100.274C79.4634 98.4913 75.0802 101.729 78.0761 102.437C79.4497 102.761 81.385 100.391 80.4416 99.8412" fill="black"/>
<path opacity="0.21" d="M92.2092 104.469C91.5542 105.493 90.0032 105.283 89.1181 106.077C88.8721 106.298 89.2791 106.678 89.0414 106.937C88.6213 107.395 87.481 107.509 86.9939 107.866C89.2667 108.644 90.6126 107.314 92.3443 106.011C93.3391 105.262 93.7525 104.689 92.2092 104.469Z" fill="black"/>
<path opacity="0.21" d="M63.3266 99.6089C61.8813 100.533 59.311 100.234 57.5847 100.624C57.3806 103.32 64.4232 102.201 65.4729 100.203C64.8656 99.9217 64.0765 99.9467 63.3266 99.6089Z" fill="black"/>
<path d="M54.2111 73.3438C54.2111 73.3438 48.9702 77.5417 46.9933 79.1591C45.0164 80.7766 41.6018 87.9652 42.3207 89.0436C43.0396 90.1219 47.75 84.7713 55.832 84.3207C63.914 83.87 77.5452 87.9652 81.8584 91.919C86.1716 95.8728 87.8227 104.253 90.7712 103.118C93.7197 101.983 94.9777 90.661 100.01 86.8869C105.042 83.1129 108.636 81.3157 110.973 80.7766C113.309 80.2374 114.926 81.8549 115.286 80.7766C115.645 79.6983 111.368 75.97 104.862 71.9705C98.3565 67.9709 81.1493 64.2437 75.7529 64.5128C70.3565 64.7818 63.226 69.3256 54.2111 73.3438Z" fill="white" stroke="#263238" stroke-miterlimit="10"/>
<path d="M72.2925 49.2153C72.2925 49.2153 64.9511 47.6999 64.5091 49.5117C64.0671 51.3236 64.3538 52.8964 62.5149 53.8899C60.676 54.8834 59.0043 53.7243 57.1654 55.2146C55.3265 56.7049 53.1532 59.023 52.4846 59.5198C51.8159 60.0166 49.6426 59.6854 49.3083 60.8445C48.9739 62.0036 49.8098 62.6659 49.1411 63.825C48.4724 64.9841 47.4694 64.9841 47.8037 66.1432C48.1381 67.3023 51.6487 66.64 52.1502 67.4679C52.6517 68.2958 50.8128 68.7926 50.8128 71.2764C50.8128 73.7602 54.1563 70.2828 55.9952 72.2699C57.8341 74.2569 55.6608 75.2504 57.6669 77.5686C59.673 79.8868 60.8432 77.7342 62.3477 78.231C63.8523 78.7277 65.0225 82.3706 67.8644 81.7082C70.7064 81.0459 70.7064 78.8933 72.5452 79.0589C74.3841 79.2245 74.8857 82.205 78.5635 82.0394C82.2412 81.8738 81.071 78.8933 83.2443 77.8998C85.4175 76.9063 87.0892 78.231 87.7579 76.4095C88.4266 74.5881 87.5908 73.0978 89.9312 72.7666C92.2716 72.4355 91.6029 74.9192 94.1105 76.4095C96.6181 77.8998 98.1226 75.9128 100.463 73.5946C102.803 71.2764 103.807 72.4355 105.98 72.601C108.153 72.7666 107.986 72.1043 108.32 70.614C108.654 69.1238 110.159 69.7861 111.162 68.9582C112.165 68.1302 112.332 67.1367 111.162 65.1497C109.992 63.1627 115.341 64.653 116.344 61.1757C117.347 57.6984 112.813 52.9747 112.813 52.9747C112.813 52.9747 113.34 51.0642 111.456 48.9582C109.572 46.8521 108.886 49.2383 106.43 48.0868C103.974 46.9353 104.682 47.0383 102.155 45.8277C99.6272 44.6171 97.0787 43.4597 94.2777 45.2795C91.4767 47.0993 89.0227 46.7441 84.2473 45.6106C79.472 44.4772 75.2994 43.0468 74.4239 45.2394C73.5483 47.4321 73.4495 48.6111 72.2925 49.2153Z" fill="#F58F00" stroke="#263238" stroke-miterlimit="10"/>
<path d="M62.2351 72.4907C62.2351 72.4907 64.5597 69.2003 65.9983 68.6162L62.2351 72.4907Z" fill="#F58F00"/>
<path d="M62.2351 72.4907C62.2351 72.4907 64.5597 69.2003 65.9983 68.6162" stroke="#263238" stroke-miterlimit="10"/>
<path d="M114.511 59.3353C114.359 58.9453 114.072 58.5929 113.745 58.3233C113.21 57.8814 112.564 57.596 111.992 57.2023C110.807 56.3856 109.964 55.0862 109.702 53.6705C108.782 53.5119 108.037 54.5139 107.96 55.4439C107.883 56.3738 108.217 57.2906 108.238 58.2236C108.273 59.7807 107.442 61.2276 106.47 62.4448C105.507 63.6513 104.332 64.756 102.875 65.2674C100.022 66.2692 96.9558 64.8018 93.9491 64.476C90.4308 64.0948 86.9318 65.309 83.7447 66.8471C81.6199 67.8725 79.5712 69.0486 77.4365 70.0539C76.9046 70.3043 76.3678 70.5447 75.824 70.7684C75.346 70.965 74.6334 71.0808 74.2153 71.3709C73.4744 71.8849 72.9725 73.4255 72.9312 74.2926C72.8809 75.3483 73.5347 76.5128 74.5804 76.666C75.4433 76.7924 76.2352 76.2326 76.9831 75.784C77.731 75.3355 78.7195 74.9854 79.4335 75.4862C80.0353 75.9084 80.2417 76.8242 80.9418 77.0485C81.5777 77.2522 82.2151 76.7505 82.6379 76.2338C83.0609 75.7171 83.4809 75.1034 84.135 74.9689C84.6836 74.8561 85.2743 75.1197 85.8035 74.9359C86.3936 74.731 86.6748 74.0434 86.7032 73.4194C86.7316 72.7954 86.5812 72.1708 86.6379 71.5487C86.7267 70.5746 87.3607 69.6683 88.2454 69.2511C89.1301 68.8338 90.2327 68.9209 91.0408 69.472C92.0103 70.1331 92.4632 71.3028 93.0073 72.3424C93.5514 73.382 94.3969 74.4463 95.5677 74.5234C96.616 74.5926 97.531 73.8388 98.229 73.0536C98.927 72.2685 99.5814 71.3695 100.554 70.9725C101.949 70.4029 103.874 70.9018 104.768 69.6887C105.153 69.1656 105.197 68.4769 105.32 67.8388C105.442 67.2008 105.727 66.5054 106.335 66.2769C107.248 65.934 108.462 66.8 109.161 66.1201C109.751 65.5465 109.261 64.5462 109.422 63.7396C109.642 62.6375 110.956 62.2056 112.053 61.9612C113.15 61.7167 114.461 61.2299 114.614 60.1165C114.651 59.8486 114.608 59.5843 114.511 59.3353Z" fill="#F58F00" stroke="#263238" stroke-miterlimit="10"/>
<path d="M66.2452 51.1747C64.4843 52.4475 62.8235 53.8776 60.8588 54.7932C58.7632 55.7699 56.57 55.9408 54.3371 56.3648C52.2852 56.7545 53.9088 60.0625 54.661 59.7166C53.7944 60.1151 52.9328 60.6357 52.4433 61.4543C51.9537 62.2729 51.9609 63.4532 52.6829 64.0765C53.7918 65.034 55.4736 64.1222 56.6247 63.216C57.1207 64.0043 55.7532 64.7739 55.7046 65.7039C55.6708 66.3494 56.3146 66.8482 56.9495 66.9691C57.5844 67.09 58.2392 66.9584 58.8847 66.9922C60.2849 67.0655 61.6068 67.9881 62.1584 69.2773C63.1947 67.8378 65.5209 68.2363 66.9059 69.3443C68.2909 70.4524 69.2338 72.0687 70.7218 73.034C71.9261 73.8153 73.4409 74.1023 74.8475 73.8155C75.7472 73.6321 76.5897 73.228 77.4876 73.036C78.3855 72.844 79.4184 72.9054 80.0876 73.5341C80.4699 73.8933 80.7227 74.4235 81.2125 74.6112C81.8831 74.8682 82.5944 74.3421 83.0413 73.78C83.4882 73.2179 83.8971 72.5401 84.584 72.3306C85.3113 72.1087 86.1448 72.4923 86.8399 72.1839C87.5353 71.8753 87.7779 71.0338 88.2144 70.4107C88.9771 69.3221 90.5438 68.8851 91.7598 69.4219C93.3591 70.1278 94.0415 72.1075 95.5635 72.9673C97.5276 74.0768 100.076 72.8562 101.493 71.1008C102.781 69.5043 103.803 67.2989 105.828 66.973C106.444 66.874 107.145 66.9526 107.617 66.5451C108.502 65.7805 107.683 64.272 108.104 63.1808C108.704 61.6273 111.345 61.8038 111.977 60.2633C112.294 59.492 111.921 58.5738 111.3 58.0173C110.679 57.461 109.859 57.1895 109.061 56.9495C109.987 56.5027 110.38 55.2753 110.032 54.308C109.685 53.3407 108.726 52.6712 107.713 52.4974C106.669 52.3182 105.603 52.6012 104.544 52.5869C103.485 52.5727 102.279 52.1064 101.992 51.0868C101.827 50.503 101.957 49.7603 101.477 49.3902C101.278 49.2367 101.018 49.1935 100.769 49.155C95.9478 48.4084 91.1219 47.6613 86.2606 47.248C79.921 46.709 73.1539 46.8407 67.7332 50.1718C67.2239 50.4848 66.7307 50.8238 66.2452 51.1747Z" fill="#F58F00" stroke="#263238" stroke-miterlimit="10"/>
<path d="M56.7959 63.4423L58.9329 62.1182" stroke="#263238" stroke-miterlimit="10"/>
<path d="M54.5461 59.8425L57.8458 58.6426" stroke="#263238" stroke-miterlimit="10"/>
<path d="M58.584 58.4399L59.7528 58.0093" stroke="#263238" stroke-miterlimit="10"/>
<path d="M67.1346 59.4858L63.6897 62.5001" stroke="#263238" stroke-miterlimit="10"/>
<path d="M112.813 52.9747C112.813 52.9747 111.491 53.1337 109.919 51.8984C108.347 50.6631 106.999 49.9892 105.876 50.5508C104.753 51.1123 103.609 51.1255 103.609 51.1255" fill="#F58F00"/>
<path d="M112.813 52.9747C112.813 52.9747 111.491 53.1337 109.919 51.8984C108.347 50.6631 106.999 49.9892 105.876 50.5508C104.753 51.1123 103.609 51.1255 103.609 51.1255" stroke="#263238" stroke-miterlimit="10"/>
<path d="M55.2913 70.4795L59.7101 67.8521" stroke="#263238" stroke-miterlimit="10"/>
<path d="M85.3811 61.9316C85.883 63.4908 86.5073 65.3148 86.9398 66.1798C87.7758 67.8518 88.1341 68.8072 88.1341 68.8072" fill="#F58F00"/>
<path d="M85.3811 61.9316C85.883 63.4908 86.5073 65.3148 86.9398 66.1798C87.7758 67.8518 88.1341 68.8072 88.1341 68.8072" stroke="#263238" stroke-miterlimit="10"/>
<path d="M84.5513 59.2529C84.5513 59.2529 84.7612 59.9634 85.0682 60.945L84.5513 59.2529Z" fill="#F58F00"/>
<path d="M84.5513 59.2529C84.5513 59.2529 84.7612 59.9634 85.0682 60.945" stroke="#263238" stroke-miterlimit="10"/>
<path d="M92.3754 67.825C91.1893 66.0986 89.2865 63.27 88.4924 61.7612L92.3754 67.825Z" fill="#F58F00"/>
<path d="M92.3754 67.825C91.1893 66.0986 89.2865 63.27 88.4924 61.7612" stroke="#263238" stroke-miterlimit="10"/>
<path d="M93.389 69.285C93.389 69.285 93.2178 69.0419 92.937 68.6377L93.389 69.285Z" fill="#F58F00"/>
<path d="M93.389 69.285C93.389 69.285 93.2178 69.0419 92.937 68.6377" stroke="#263238" stroke-miterlimit="10"/>
<path d="M108.795 61.5223C108.795 61.5223 106.646 61.4029 104.138 59.9697C101.63 58.5366 98.5244 57.3423 98.5244 57.3423" fill="#F58F00"/>
<path d="M108.795 61.5223C108.795 61.5223 106.646 61.4029 104.138 59.9697C101.63 58.5366 98.5244 57.3423 98.5244 57.3423" stroke="#263238" stroke-miterlimit="10"/>
<path d="M101.032 51.8483C101.032 51.8483 98.6438 50.7735 94.7027 50.1763C90.7615 49.5792 86.5815 49.3403 86.5815 49.3403" fill="#F58F00"/>
<path d="M101.032 51.8483C101.032 51.8483 98.6438 50.7735 94.7027 50.1763C90.7615 49.5792 86.5815 49.3403 86.5815 49.3403" stroke="#263238" stroke-miterlimit="10"/>
<path d="M75.3554 56.9839C75.3554 56.9839 74.0417 60.4473 72.9668 61.6416C71.8919 62.8359 69.6009 62.3518 68.6674 63.7913C67.7339 65.2308 69.2645 67.0159 68.3091 68.2102" fill="#F58F00"/>
<path d="M75.3554 56.9839C75.3554 56.9839 74.0417 60.4473 72.9668 61.6416C71.8919 62.8359 69.6009 62.3518 68.6674 63.7913C67.7339 65.2308 69.2645 67.0159 68.3091 68.2102" stroke="#263238" stroke-miterlimit="10"/>
<path d="M80.0254 66.2744C80.8234 66.5455 81.2165 68.9039 82.5211 68.8073C84.0119 68.6968 84.6708 67.3741 85.1485 66.5381" fill="#F58F00"/>
<path d="M80.0254 66.2744C80.8234 66.5455 81.2165 68.9039 82.5211 68.8073C84.0119 68.6968 84.6708 67.3741 85.1485 66.5381" stroke="#263238" stroke-miterlimit="10"/>
<path d="M68.5479 66.1798C68.5479 66.1798 69.7422 63.4329 71.5336 64.3884C73.325 65.3438 70.9364 66.8964 72.2502 67.9712C73.5639 69.0461 74.1255 64.7573 75.4747 65.9409C76.824 67.1246 74.7582 69.5238 76.1913 70.3598C77.2404 70.9717 78.0335 68.768 78.8048 67.3555" fill="#F58F00"/>
<path d="M68.5479 66.1798C68.5479 66.1798 69.7422 63.4329 71.5336 64.3884C73.325 65.3438 70.9364 66.8964 72.2502 67.9712C73.5639 69.0461 74.1255 64.7573 75.4747 65.9409C76.824 67.1246 74.7582 69.5238 76.1913 70.3598C77.2404 70.9717 78.0335 68.768 78.8048 67.3555" stroke="#263238" stroke-miterlimit="10"/>
<path d="M55.9951 72.2698C55.9951 72.2698 58.038 70.1211 59.2323 72.0319C60.4266 73.9428 58.1575 76.5702 60.0683 75.9731C61.9792 75.3759 60.9044 70.9571 63.7706 72.6291C66.6369 74.3011 64.3678 75.6148 64.7261 76.8091C65.0843 78.0034 67.4729 76.8091 67.4729 78.0034C67.4729 79.1976 68.6672 79.9142 69.2643 78.8394C69.8615 77.7645 70.3392 75.2565 71.8918 76.4508" fill="#F58F00"/>
<path d="M55.9951 72.2698C55.9951 72.2698 58.038 70.1211 59.2323 72.0319C60.4266 73.9428 58.1575 76.5702 60.0683 75.9731C61.9792 75.3759 60.9044 70.9571 63.7706 72.6291C66.6369 74.3011 64.3678 75.6148 64.7261 76.8091C65.0843 78.0034 67.4729 76.8091 67.4729 78.0034C67.4729 79.1976 68.6672 79.9142 69.2643 78.8394C69.8615 77.7645 70.3392 75.2565 71.8918 76.4508" stroke="#263238" stroke-miterlimit="10"/>
<path d="M52.1862 63.5527L48.6033 65.2247" stroke="#263238" stroke-miterlimit="10"/>
<path d="M79.2307 72.2973C79.2307 76.0393 73.6536 79.0727 66.7739 79.0727C59.8941 79.0727 54.3171 76.0393 54.3171 72.2973C54.3171 71.9924 54.2453 70.0296 54.3171 69.7353C55.1258 66.4185 60.4547 65.522 66.7739 65.522C73.1091 65.522 78.4424 66.4062 79.2307 69.7353C79.2984 70.0214 79.2307 72.0012 79.2307 72.2973Z" fill="#263238" stroke="#263238" stroke-miterlimit="10"/>
<path d="M66.774 76.5107C73.6537 76.5107 79.2308 73.4772 79.2308 69.7353C79.2308 65.9934 73.6537 62.96 66.774 62.96C59.8942 62.96 54.3171 65.9934 54.3171 69.7353C54.3171 73.4772 59.8942 76.5107 66.774 76.5107Z" fill="#F58F00" stroke="#263238" stroke-miterlimit="10"/>
<path opacity="0.25" d="M66.774 76.5107C73.6537 76.5107 79.2308 73.4772 79.2308 69.7353C79.2308 65.9934 73.6537 62.96 66.774 62.96C59.8942 62.96 54.3171 65.9934 54.3171 69.7353C54.3171 73.4772 59.8942 76.5107 66.774 76.5107Z" fill="#969696"/>
<path d="M66.774 76.5107C73.6537 76.5107 79.2308 73.4772 79.2308 69.7353C79.2308 65.9934 73.6537 62.96 66.774 62.96C59.8942 62.96 54.3171 65.9934 54.3171 69.7353C54.3171 73.4772 59.8942 76.5107 66.774 76.5107Z" stroke="#263238" stroke-miterlimit="10"/>
<path d="M64.5584 69.0449C65.0172 68.4044 64.4437 68.2976 64.4437 68.2976C64.4437 68.2976 62.6086 67.6571 61.5764 68.1909C60.5441 68.7246 59.0531 69.5787 58.1355 68.9381C57.218 68.2976 58.9384 67.2301 60.7735 66.2694C60.7735 66.2694 61.1575 66.1808 61.6372 66.1436C61.6167 66.1103 61.604 66.0745 61.604 66.0368C61.604 65.869 61.8265 65.733 62.1011 65.733C62.3756 65.733 62.5981 65.869 62.5981 66.0368C62.5981 66.0829 62.58 66.1261 62.55 66.1653C62.6927 66.1877 62.8298 66.2204 62.9527 66.2694C63.7556 66.5896 65.476 66.9099 65.9348 66.1626C66.3936 65.4153 65.1319 63.6006 62.2645 64.4546C60.8011 64.8904 59.8796 65.3534 59.6136 65.703C58.0966 66.4946 56.5681 67.5245 55.9563 68.4044C54.6947 70.2192 58.2367 72.4541 59.613 72.1339C60.9894 71.8136 64.0996 69.6854 64.5584 69.0449ZM63.7857 65.4568C63.9839 65.4568 64.1447 65.531 64.1447 65.6225C64.1447 65.7141 63.9839 65.7882 63.7857 65.7882C63.5874 65.7882 63.4266 65.7141 63.4266 65.6225C63.4266 65.531 63.5874 65.4568 63.7857 65.4568ZM59.4499 66.0644C59.7549 66.0644 60.0022 66.1757 60.0022 66.313C60.0022 66.4502 59.7549 66.5615 59.4499 66.5615C59.1449 66.5615 58.8976 66.4502 58.8976 66.313C58.8976 66.1757 59.1449 66.0644 59.4499 66.0644ZM58.152 69.9307C57.8011 69.9307 57.5168 69.7452 57.5168 69.5164C57.5168 69.2877 57.8011 69.1022 58.152 69.1022C58.5027 69.1022 58.7871 69.2877 58.7871 69.5164C58.7871 69.7452 58.5027 69.9307 58.152 69.9307ZM59.9746 69.9307C59.8068 69.9307 59.6708 69.8689 59.6708 69.7926C59.6708 69.7163 59.8068 69.6545 59.9746 69.6545C60.1424 69.6545 60.2784 69.7163 60.2784 69.7926C60.2784 69.8689 60.1424 69.9307 59.9746 69.9307ZM61.2173 69.6545C60.9733 69.6545 60.7755 69.5556 60.7755 69.4336C60.7755 69.3116 60.9733 69.2127 61.2173 69.2127C61.4614 69.2127 61.6592 69.3116 61.6592 69.4336C61.6592 69.5556 61.4614 69.6545 61.2173 69.6545Z" fill="#263238"/>
<path d="M70.1785 69.365C70.1785 69.365 70.0894 69.4013 69.9407 69.4472C70.2398 70.1935 70.2993 71.206 69.8344 71.9271C69.1462 72.9946 65.9348 73.1013 65.1319 72.4608C64.3291 71.8203 65.5907 71.2866 66.7173 70.0178C66.9879 69.713 67.208 69.5315 67.3879 69.4283C66.834 69.3155 66.4977 69.2583 66.1642 69.2583C65.7054 69.2583 65.0172 69.8988 63.985 70.6461C62.9527 71.3933 61.0029 73.3149 61.0029 73.3149C61.0029 73.3149 62.2646 74.4891 65.7054 74.9161C69.1462 75.3431 72.0136 74.7026 73.1605 74.1689C74.3075 73.6351 75.3397 72.5676 75.4544 72.2473C75.5691 71.9271 70.1785 69.365 70.1785 69.365ZM65.3322 73.5207C65.0729 73.5207 64.8627 73.3847 64.8627 73.2169C64.8627 73.0491 65.0729 72.9131 65.3322 72.9131C65.5915 72.9131 65.8016 73.0491 65.8016 73.2169C65.8016 73.3847 65.5915 73.5207 65.3322 73.5207ZM67.6243 73.7969C67.4108 73.7969 67.2377 73.6856 67.2377 73.5483C67.2377 73.4111 67.4108 73.2998 67.6243 73.2998C67.8379 73.2998 68.0109 73.4111 68.0109 73.5483C68.0109 73.6856 67.8379 73.7969 67.6243 73.7969ZM69.7232 73.6312C69.5096 73.6312 69.3365 73.5446 69.3365 73.4379C69.3365 73.3311 69.5096 73.2445 69.7232 73.2445C69.9367 73.2445 70.1098 73.3311 70.1098 73.4379C70.1098 73.5446 69.9367 73.6312 69.7232 73.6312ZM70.8002 72.1951C70.3884 72.1951 70.0546 71.9849 70.0546 71.7257C70.0546 71.4664 70.3884 71.2562 70.8002 71.2562C71.212 71.2562 71.5458 71.4664 71.5458 71.7257C71.5458 71.9849 71.212 72.1951 70.8002 72.1951Z" fill="#263238"/>
<path d="M75.5692 65.8423C74.537 65.3086 70.8667 64.1343 69.6051 64.1343C68.3435 64.1343 67.4259 65.2018 68.2288 65.7355C69.0316 66.2693 68.5728 64.8815 69.8345 65.095C70.8689 65.2701 72.4412 65.3747 73.0379 66.171C73.0415 66.0508 73.2126 65.9539 73.4238 65.9539C73.6374 65.9539 73.8105 66.0528 73.8105 66.1748C73.8105 66.2968 73.6374 66.3958 73.4238 66.3958C73.307 66.3958 73.2036 66.3655 73.1327 66.3187C73.2094 66.4604 73.2602 66.62 73.2753 66.8031C73.39 68.1908 70.4079 67.8706 70.4079 67.8706C70.4079 67.8706 76.313 71.6119 76.8865 70.8646C77.46 70.1173 76.6015 66.3761 75.5692 65.8423ZM70.6346 65.0702C70.4363 65.0702 70.2756 64.9589 70.2756 64.8216C70.2756 64.6844 70.4363 64.5731 70.6346 64.5731C70.8328 64.5731 70.9936 64.6844 70.9936 64.8216C70.9936 64.9589 70.8328 65.0702 70.6346 65.0702ZM72.043 68.605C71.8295 68.605 71.6564 68.5061 71.6564 68.3841C71.6564 68.2621 71.8295 68.1632 72.043 68.1632C72.2565 68.1632 72.4296 68.2621 72.4296 68.3841C72.4296 68.5061 72.2565 68.605 72.043 68.605ZM73.5067 68.3289C73.1254 68.3289 72.8163 68.1805 72.8163 67.9975C72.8163 67.8145 73.1254 67.6661 73.5067 67.6661C73.888 67.6661 74.1971 67.8145 74.1971 67.9975C74.1971 68.1805 73.888 68.3289 73.5067 68.3289ZM75.0256 67.3347C74.8425 67.3347 74.6942 67.211 74.6942 67.0585C74.6942 66.906 74.8425 66.7824 75.0256 66.7824C75.2086 66.7824 75.357 66.906 75.357 67.0585C75.357 67.211 75.2086 67.3347 75.0256 67.3347Z" fill="#263238"/>
<path d="M102.995 50.326C105.225 53.3312 102.553 59.0904 97.0277 63.1894C91.5024 67.2884 85.2159 68.1751 82.9864 65.1699C82.8048 64.925 81.5777 63.3913 81.46 63.1122C80.1333 59.9666 83.8789 56.0715 88.954 52.3065C94.0419 48.5319 98.8521 46.0644 101.469 48.2684C101.694 48.4578 102.819 50.0882 102.995 50.326Z" fill="#263238" stroke="#263238" stroke-miterlimit="10"/>
<path d="M91.4644 62.4657C98.3441 62.4657 103.921 59.4323 103.921 55.6904C103.921 51.9485 98.3441 48.915 91.4644 48.915C84.5847 48.915 79.0076 51.9485 79.0076 55.6904C79.0076 59.4323 84.5847 62.4657 91.4644 62.4657Z" fill="#F58F00" stroke="#263238" stroke-miterlimit="10"/>
<path opacity="0.25" d="M91.4644 62.4657C98.3441 62.4657 103.921 59.4323 103.921 55.6904C103.921 51.9485 98.3441 48.915 91.4644 48.915C84.5847 48.915 79.0076 51.9485 79.0076 55.6904C79.0076 59.4323 84.5847 62.4657 91.4644 62.4657Z" fill="#969696"/>
<path d="M91.4644 62.4657C98.3441 62.4657 103.921 59.4323 103.921 55.6904C103.921 51.9485 98.3441 48.915 91.4644 48.915C84.5847 48.915 79.0076 51.9485 79.0076 55.6904C79.0076 59.4323 84.5847 62.4657 91.4644 62.4657Z" stroke="#263238" stroke-miterlimit="10"/>
<path d="M89.2736 56.4556C89.2604 55.6678 88.7363 55.9238 88.7363 55.9238C88.7363 55.9238 86.8808 56.5027 86.3698 57.5464C85.8588 58.5901 85.1702 60.1644 84.0516 60.1967C82.9331 60.229 83.6787 58.3466 84.5801 56.4816C84.5801 56.4816 84.8358 56.1817 85.1989 55.8659C85.1625 55.8514 85.131 55.8303 85.1085 55.8C85.0086 55.6652 85.1063 55.4234 85.3268 55.2598C85.5473 55.0963 85.807 55.0729 85.907 55.2077C85.9345 55.2447 85.9457 55.2902 85.9449 55.3395C86.0729 55.2725 86.2024 55.217 86.3303 55.1832C87.1659 54.962 88.7384 54.1942 88.6617 53.3207C88.5849 52.4472 86.4904 51.7414 84.6964 54.1357C83.7807 55.3577 83.3164 56.2785 83.3112 56.7177C82.5645 58.2574 81.9505 59.9952 81.9834 61.0664C82.0514 63.2756 86.2277 62.9601 87.1423 61.8829C88.0569 60.8057 89.2868 57.2433 89.2736 56.4556ZM86.5152 54.0343C86.6744 53.9162 86.8477 53.88 86.9022 53.9535C86.9567 54.027 86.8718 54.1824 86.7126 54.3005C86.5534 54.4186 86.3801 54.4548 86.3256 54.3813C86.271 54.3078 86.3559 54.1525 86.5152 54.0343ZM83.395 57.1056C83.64 56.9238 83.9049 56.8659 83.9867 56.9761C84.0685 57.0864 83.9362 57.3231 83.6912 57.5048C83.4462 57.6866 83.1813 57.7445 83.0995 57.6343C83.0177 57.5241 83.15 57.2873 83.395 57.1056ZM84.6562 60.984C84.3744 61.193 84.0355 61.2135 83.8992 61.0298C83.7629 60.846 83.8808 60.5276 84.1626 60.3186C84.4443 60.1096 84.7832 60.0892 84.9195 60.2729C85.0558 60.4566 84.9379 60.775 84.6562 60.984ZM86.12 59.8981C85.9852 59.998 85.8392 60.0294 85.7938 59.9681C85.7483 59.9069 85.8207 59.7762 85.9554 59.6763C86.0902 59.5763 86.2363 59.5449 86.2817 59.6062C86.3271 59.6674 86.2547 59.7981 86.12 59.8981ZM86.9535 58.9358C86.7575 59.0812 86.5397 59.1196 86.467 59.0217C86.3943 58.9237 86.4943 58.7264 86.6902 58.581C86.8863 58.4356 87.104 58.3971 87.1767 58.4951C87.2495 58.5931 87.1495 58.7904 86.9535 58.9358Z" fill="#263238"/>
<path d="M93.9779 53.3646C93.9779 53.3646 93.928 53.4467 93.8359 53.5722C94.5208 53.9934 95.1718 54.771 95.2281 55.6272C95.3114 56.8946 92.7958 58.8937 91.7694 58.8577C90.743 58.8216 91.4382 57.6412 91.5871 55.951C91.6228 55.5449 91.6914 55.2681 91.7745 55.078C91.2624 55.3174 90.9582 55.4719 90.6903 55.6706C90.3219 55.9439 90.1508 56.8684 89.767 58.0835C89.3832 59.2987 88.9622 62.0036 88.9622 62.0036C88.9622 62.0036 90.6751 62.195 93.6929 60.4879C96.7107 58.7807 98.6319 56.5579 99.2351 55.4458C99.8382 54.3338 100.031 52.8614 99.9325 52.5359C99.8338 52.2104 93.9779 53.3646 93.9779 53.3646ZM92.5617 59.5895C92.3535 59.744 92.1036 59.76 92.0037 59.6253C91.9037 59.4905 91.9915 59.2561 92.1997 59.1016C92.408 58.9471 92.6578 58.9311 92.7578 59.0658C92.8578 59.2006 92.77 59.435 92.5617 59.5895ZM94.5672 58.4456C94.3957 58.5729 94.1903 58.5866 94.1086 58.4764C94.0268 58.3661 94.0995 58.1736 94.271 58.0464C94.4425 57.9192 94.6478 57.9054 94.7296 58.0157C94.8114 58.1259 94.7387 58.3184 94.5672 58.4456ZM96.1541 57.0621C95.9826 57.1893 95.792 57.2229 95.7284 57.1372C95.6648 57.0514 95.7522 56.8788 95.9237 56.7515C96.0952 56.6243 96.2858 56.5907 96.3494 56.6764C96.413 56.7622 96.3256 56.9348 96.1541 57.0621ZM96.1634 55.267C95.8327 55.5124 95.4393 55.5425 95.2849 55.3342C95.1304 55.126 95.2732 54.7583 95.604 54.5129C95.9347 54.2676 96.3281 54.2375 96.4825 54.4457C96.637 54.6539 96.4942 55.0217 96.1634 55.267Z" fill="#263238"/>
<path d="M96.2083 47.3234C95.0613 47.5097 91.414 48.7534 90.4007 49.5051C89.3875 50.2568 89.2866 51.6609 90.2494 51.6112C91.2123 51.5615 90.0169 50.7203 91.1574 50.1401C92.0925 49.6644 93.4175 48.8115 94.3712 49.0956C94.3025 48.9969 94.3821 48.8171 94.5518 48.6912C94.7233 48.564 94.9212 48.5404 94.994 48.6383C95.0667 48.7363 94.9866 48.9189 94.8151 49.0461C94.7212 49.1157 94.6202 49.1531 94.5353 49.1578C94.6814 49.2258 94.8173 49.3237 94.9385 49.4617C95.8575 50.5079 93.2717 52.0275 93.2717 52.0275C93.2717 52.0275 100.243 51.5139 100.259 50.572C100.274 49.6302 97.3554 47.137 96.2083 47.3234ZM91.7852 49.6434C91.6259 49.7615 91.4305 49.7679 91.3487 49.6577C91.267 49.5474 91.3298 49.3623 91.489 49.2442C91.6482 49.126 91.8436 49.1196 91.9254 49.2299C92.0072 49.3401 91.9444 49.5253 91.7852 49.6434ZM95.0224 51.6432C94.851 51.7704 94.653 51.7941 94.5803 51.6961C94.5076 51.5981 94.5877 51.4155 94.7592 51.2883C94.9307 51.1611 95.1286 51.1374 95.2013 51.2354C95.274 51.3334 95.1939 51.5159 95.0224 51.6432ZM96.0334 50.5493C95.7272 50.7765 95.3905 50.8415 95.2815 50.6945C95.1724 50.5475 95.3323 50.2442 95.6385 50.017C95.9447 49.7898 96.2814 49.7248 96.3904 49.8718C96.4995 50.0188 96.3396 50.3221 96.0334 50.5493ZM96.6609 48.8459C96.5139 48.9549 96.3211 48.944 96.2302 48.8215C96.1394 48.699 96.1848 48.5114 96.3318 48.4023C96.4788 48.2933 96.6716 48.3041 96.7625 48.4266C96.8534 48.5491 96.8079 48.7368 96.6609 48.8459Z" fill="#263238"/>
<path d="M89.1516 48.2885C89.1516 52.0305 83.5745 55.0639 76.6948 55.0639C69.815 55.0639 64.2379 52.0305 64.2379 48.2885C64.2379 47.9837 64.1662 46.0208 64.2379 45.7265C65.0467 42.4097 70.3756 41.5132 76.6948 41.5132C83.03 41.5132 88.3633 42.3974 89.1516 45.7265C89.2193 46.0126 89.1516 47.9924 89.1516 48.2885Z" fill="#263238" stroke="#263238" stroke-miterlimit="10"/>
<path d="M76.6948 52.5019C83.5746 52.5019 89.1517 49.4685 89.1517 45.7265C89.1517 41.9846 83.5746 38.9512 76.6948 38.9512C69.8151 38.9512 64.238 41.9846 64.238 45.7265C64.238 49.4685 69.8151 52.5019 76.6948 52.5019Z" fill="#F58F00" stroke="#263238" stroke-miterlimit="10"/>
<path opacity="0.25" d="M76.6948 52.5019C83.5746 52.5019 89.1517 49.4685 89.1517 45.7265C89.1517 41.9846 83.5746 38.9512 76.6948 38.9512C69.8151 38.9512 64.238 41.9846 64.238 45.7265C64.238 49.4685 69.8151 52.5019 76.6948 52.5019Z" fill="#969696"/>
<path d="M76.6948 52.5019C83.5746 52.5019 89.1517 49.4685 89.1517 45.7265C89.1517 41.9846 83.5746 38.9512 76.6948 38.9512C69.8151 38.9512 64.238 41.9846 64.238 45.7265C64.238 49.4685 69.8151 52.5019 76.6948 52.5019Z" stroke="#263238" stroke-miterlimit="10"/>
<path d="M74.4793 45.0361C74.9381 44.3956 74.3646 44.2889 74.3646 44.2889C74.3646 44.2889 72.5295 43.6483 71.4973 44.1821C70.465 44.7159 68.974 45.5699 68.0564 44.9294C67.1389 44.2889 68.8593 43.2213 70.6944 42.2606C70.6944 42.2606 71.0784 42.172 71.5581 42.1348C71.5376 42.1015 71.5249 42.0657 71.5249 42.028C71.5249 41.8602 71.7474 41.7242 72.022 41.7242C72.2965 41.7242 72.519 41.8602 72.519 42.028C72.519 42.0741 72.5009 42.1174 72.4709 42.1565C72.6136 42.179 72.7507 42.2116 72.8736 42.2606C73.6764 42.5808 75.3969 42.9011 75.8557 42.1538C76.3145 41.4066 75.0528 39.5918 72.1854 40.4458C70.722 40.8817 69.8005 41.3446 69.5345 41.6942C68.0175 42.4859 66.489 43.5157 65.8772 44.3956C64.6156 46.2104 68.1576 48.4454 69.5339 48.1251C70.9103 47.8048 74.0205 45.6766 74.4793 45.0361ZM73.7065 41.4481C73.9048 41.4481 74.0656 41.5223 74.0656 41.6138C74.0656 41.7053 73.9048 41.7795 73.7065 41.7795C73.5083 41.7795 73.3475 41.7053 73.3475 41.6138C73.3475 41.5223 73.5083 41.4481 73.7065 41.4481ZM69.3708 42.0556C69.6758 42.0556 69.9231 42.1669 69.9231 42.3042C69.9231 42.4414 69.6758 42.5527 69.3708 42.5527C69.0658 42.5527 68.8185 42.4414 68.8185 42.3042C68.8185 42.1669 69.0658 42.0556 69.3708 42.0556ZM68.0729 45.9219C67.722 45.9219 67.4377 45.7364 67.4377 45.5077C67.4377 45.2789 67.722 45.0934 68.0729 45.0934C68.4236 45.0934 68.708 45.2789 68.708 45.5077C68.708 45.7364 68.4236 45.9219 68.0729 45.9219ZM69.8955 45.9219C69.7277 45.9219 69.5917 45.8601 69.5917 45.7838C69.5917 45.7076 69.7277 45.6458 69.8955 45.6458C70.0633 45.6458 70.1993 45.7076 70.1993 45.7838C70.1993 45.8601 70.0633 45.9219 69.8955 45.9219ZM71.1382 45.6458C70.8942 45.6458 70.6964 45.5468 70.6964 45.4248C70.6964 45.3028 70.8942 45.2039 71.1382 45.2039C71.3823 45.2039 71.5801 45.3028 71.5801 45.4248C71.5801 45.5468 71.3823 45.6458 71.1382 45.6458Z" fill="#263238"/>
<path d="M80.0994 45.3563C80.0994 45.3563 80.0103 45.3926 79.8616 45.4385C80.1607 46.1847 80.2202 47.1971 79.7553 47.9183C79.0671 48.9858 75.8557 49.0926 75.0528 48.452C74.25 47.8115 75.5116 47.2778 76.6382 46.009C76.9088 45.7042 77.1289 45.5227 77.3088 45.4195C76.7549 45.3067 76.4186 45.2495 76.0851 45.2495C75.6263 45.2495 74.9381 45.89 73.9059 46.6373C72.8736 47.3845 70.9238 49.306 70.9238 49.306C70.9238 49.306 72.1855 50.4803 75.6263 50.9073C79.0671 51.3343 81.9345 50.6938 83.0814 50.1601C84.2284 49.6263 85.2606 48.5588 85.3753 48.2385C85.49 47.9183 80.0994 45.3563 80.0994 45.3563ZM75.2531 49.5119C74.9938 49.5119 74.7836 49.3759 74.7836 49.2081C74.7836 49.0403 74.9938 48.9043 75.2531 48.9043C75.5124 48.9043 75.7225 49.0403 75.7225 49.2081C75.7225 49.3759 75.5124 49.5119 75.2531 49.5119ZM77.5452 49.7881C77.3317 49.7881 77.1586 49.6768 77.1586 49.5395C77.1586 49.4022 77.3317 49.291 77.5452 49.291C77.7587 49.291 77.9318 49.4022 77.9318 49.5395C77.9318 49.6768 77.7587 49.7881 77.5452 49.7881ZM79.6441 49.6224C79.4305 49.6224 79.2574 49.5358 79.2574 49.4291C79.2574 49.3223 79.4305 49.2357 79.6441 49.2357C79.8576 49.2357 80.0307 49.3223 80.0307 49.4291C80.0307 49.5358 79.8576 49.6224 79.6441 49.6224ZM80.7211 48.1863C80.3093 48.1863 79.9754 47.9761 79.9754 47.7168C79.9754 47.4575 80.3093 47.2474 80.7211 47.2474C81.1329 47.2474 81.4667 47.4575 81.4667 47.7168C81.4667 47.9761 81.1329 48.1863 80.7211 48.1863Z" fill="#263238"/>
<path d="M85.4901 41.8335C84.4579 41.2997 80.7876 40.1255 79.526 40.1255C78.2644 40.1255 77.3468 41.193 78.1497 41.7268C78.9525 42.2605 78.4937 40.8728 79.7554 41.0863C80.7898 41.2613 82.3621 41.3659 82.9588 42.1622C82.9624 42.042 83.1335 41.9451 83.3447 41.9451C83.5583 41.9451 83.7314 42.044 83.7314 42.166C83.7314 42.2881 83.5583 42.3869 83.3447 42.3869C83.2279 42.3869 83.1245 42.3567 83.0536 42.3099C83.1302 42.4516 83.1811 42.6112 83.1962 42.7943C83.3109 44.1821 80.3288 43.8618 80.3288 43.8618C80.3288 43.8618 86.2339 47.603 86.8074 46.8558C87.3809 46.1085 86.5224 42.3673 85.4901 41.8335ZM80.5555 41.0614C80.3572 41.0614 80.1965 40.9501 80.1965 40.8128C80.1965 40.6755 80.3572 40.5643 80.5555 40.5643C80.7538 40.5643 80.9145 40.6755 80.9145 40.8128C80.9145 40.9501 80.7537 41.0614 80.5555 41.0614ZM81.9639 44.5963C81.7504 44.5963 81.5773 44.4973 81.5773 44.3753C81.5773 44.2533 81.7504 44.1544 81.9639 44.1544C82.1774 44.1544 82.3505 44.2533 82.3505 44.3753C82.3505 44.4973 82.1774 44.5963 81.9639 44.5963ZM83.4276 44.3201C83.0463 44.3201 82.7372 44.1717 82.7372 43.9887C82.7372 43.8057 83.0463 43.6573 83.4276 43.6573C83.8089 43.6573 84.118 43.8057 84.118 43.9887C84.118 44.1717 83.8089 44.3201 83.4276 44.3201ZM84.9465 43.3259C84.7634 43.3259 84.6151 43.2023 84.6151 43.0497C84.6151 42.8972 84.7634 42.7736 84.9465 42.7736C85.1295 42.7736 85.2779 42.8972 85.2779 43.0497C85.2779 43.2023 85.1295 43.3259 84.9465 43.3259Z" fill="#263238"/>
<path d="M81.1222 57.6617C81.1332 57.3593 81.2407 57.2153 81.1881 56.9268C81.1344 56.6312 81.3041 56.1209 81.1881 55.8428C81.0702 55.5598 80.6504 55.473 80.473 55.2112C80.2936 54.9464 79.7229 54.8355 79.4877 54.5955C79.2509 54.354 79.319 53.9527 79.0309 53.7395C78.7422 53.5258 78.134 53.5277 77.7988 53.3457C77.4642 53.164 77.3598 52.7752 76.984 52.6283C76.6105 52.4823 76.0138 52.5967 75.6045 52.4882C75.1998 52.3808 74.9302 52.0363 74.4954 51.9687C74.0679 51.9023 73.5314 52.1209 73.0796 52.0958C72.6387 52.0714 72.2257 51.7991 71.7659 51.8167C71.3061 51.8344 70.8722 52.1393 70.4282 52.1977C69.9733 52.2577 69.4511 52.0798 69.0177 52.1793C68.5767 52.2806 68.2813 52.6469 67.8676 52.7857C67.4493 52.926 66.8592 52.8573 66.474 53.0325C66.0865 53.2088 65.9536 53.6067 65.6049 53.8146C65.2555 54.0229 64.6458 54.0679 64.3408 54.3044C64.0364 54.5404 64.0755 54.9376 63.8206 55.198C63.5673 55.4568 62.987 55.612 62.7879 55.8913C62.591 56.1676 62.085 56.2899 61.9462 56.5827C61.8097 56.8706 62.0216 57.3661 61.9462 57.6667C61.8726 57.96 61.8912 58.0992 61.8802 58.4015C61.8693 58.7039 61.8277 59.1971 61.8802 59.4856C61.934 59.7812 62.4202 59.9968 62.5361 60.2749C62.6541 60.5579 62.418 60.9393 62.5954 61.2012C62.7748 61.466 63.3454 61.5769 63.5807 61.8169C63.8174 62.0584 63.7494 62.4598 64.0375 62.673C64.3262 62.8866 64.9344 62.8848 65.2696 63.0668C65.6041 63.2484 65.7085 63.6372 66.0844 63.7841C66.4579 63.9301 67.0546 63.8157 67.4639 63.9243C67.8686 64.0316 68.1382 64.3762 68.573 64.4437C69.0004 64.5101 69.537 64.2916 69.9888 64.3166C70.4297 64.3411 70.8426 64.6134 71.3025 64.5957C71.7623 64.578 72.1962 64.2731 72.6401 64.2147C73.0951 64.1548 73.6172 64.3326 74.0507 64.2331C74.4917 64.1318 74.787 63.7655 75.2007 63.6267C75.6191 63.4864 76.2091 63.5551 76.5943 63.3799C76.9818 63.2036 77.1148 62.8057 77.4634 62.5978C77.8128 62.3895 78.4225 62.3445 78.7276 62.108C79.032 61.872 78.9929 61.4748 79.2477 61.2144C79.5011 60.9556 80.0813 60.8004 80.2805 60.5211C80.4774 60.2449 80.2683 59.8805 80.4071 59.5877C80.5436 59.2999 81.0468 59.0462 81.1222 58.7457C81.1958 58.4524 81.1112 57.964 81.1222 57.6617Z" fill="#F58F00" stroke="#263238" stroke-linecap="round" stroke-linejoin="round"/>
<path d="M80.8444 56.7642C80.8554 56.4619 81.2406 56.1313 81.1881 55.8429C81.1343 55.5473 80.6481 55.3317 80.5322 55.0535C80.4142 54.7706 80.6503 54.3891 80.4729 54.1272C80.2935 53.8625 79.7229 53.7515 79.4876 53.5115C79.2509 53.27 79.319 52.8687 79.0308 52.6555C78.7421 52.4418 78.134 52.4437 77.7987 52.2617C77.4642 52.08 77.3597 51.6913 76.984 51.5444C76.6104 51.3983 76.0137 51.5127 75.6044 51.4042C75.1997 51.2968 74.9302 50.9523 74.4953 50.8847C74.0679 50.8183 73.5313 51.0369 73.0795 51.0118C72.6386 50.9874 72.2257 50.7151 71.7658 50.7328C71.306 50.7504 70.8721 51.0553 70.4282 51.1137C69.9733 51.1737 69.4511 50.9959 69.0176 51.0953C68.5766 51.1966 68.2812 51.5629 67.8675 51.7017C67.4492 51.8421 66.8592 51.7733 66.474 51.9485C66.0864 52.1248 65.9535 52.5227 65.6048 52.7306C65.2555 52.939 64.6457 52.984 64.3407 53.2204C64.0363 53.4564 64.0755 53.8536 63.8206 54.114C63.5672 54.3728 62.987 54.528 62.7879 54.8073C62.5909 55.0836 62.7999 55.4479 62.6612 55.7407C62.5247 56.0286 62.0215 56.2822 61.9461 56.5828C61.8725 56.876 62.2347 57.1779 62.2238 57.4802C62.2128 57.7825 61.8276 58.1132 61.8802 58.4016C61.934 58.6972 62.4202 58.9128 62.536 59.1909C62.654 59.4739 62.4179 59.8554 62.5954 60.1172C62.7748 60.382 63.3454 60.4929 63.5806 60.733C63.8174 60.9745 63.7493 61.3758 64.0375 61.589C64.3261 61.8026 64.9343 61.8008 65.2695 61.9828C65.6041 62.1644 65.7084 62.5532 66.0843 62.7001C66.4578 62.8461 67.0545 62.7318 67.4638 62.8403C67.8685 62.9476 68.1381 63.2922 68.5729 63.3598C69.0003 63.4262 69.5369 63.2076 69.9887 63.2326C70.4296 63.2571 70.8426 63.5294 71.3024 63.5117C71.7623 63.494 72.1961 63.1892 72.64 63.1307C73.095 63.0708 73.6172 63.2486 74.0507 63.1491C74.4916 63.0479 74.787 62.6816 75.2007 62.5427C75.619 62.4024 76.2091 62.4711 76.5943 62.2959C76.9818 62.1196 77.1147 61.7218 77.4634 61.5138C77.8128 61.3055 78.4225 61.2605 78.7275 61.024C79.0319 60.788 78.9928 60.3908 79.2477 60.1304C79.501 59.8716 80.0812 59.7165 80.2804 59.4371C80.4773 59.1609 80.2683 58.7966 80.4071 58.5037C80.5435 58.2159 81.0467 57.9623 81.1221 57.6617C81.1957 57.3684 80.8335 57.0666 80.8444 56.7642Z" fill="#F58F00" stroke="#263238" stroke-linecap="round" stroke-linejoin="round"/>
<path opacity="0.69" d="M79.9376 56.7991C79.9475 56.5262 80.2951 56.2278 80.2477 55.9675C80.1991 55.7007 79.7604 55.5061 79.6557 55.255C79.5493 54.9996 79.7624 54.6553 79.6022 54.419C79.4403 54.18 78.9252 54.0799 78.7129 53.8632C78.4993 53.6453 78.5607 53.2831 78.3006 53.0906C78.04 52.8978 77.4911 52.8995 77.1886 52.7352C76.8866 52.5712 76.7924 52.2203 76.4532 52.0877C76.116 51.9559 75.5775 52.0592 75.208 51.9612C74.8428 51.8644 74.5994 51.5533 74.207 51.4923C73.8212 51.4324 73.3369 51.6297 72.9291 51.6071C72.5312 51.585 72.1585 51.3393 71.7434 51.3552C71.3284 51.3712 70.9368 51.6463 70.5361 51.6991C70.1254 51.7532 69.6541 51.5927 69.2629 51.6825C68.8649 51.7739 68.5983 52.1045 68.2249 52.2298C67.8474 52.3564 67.3148 52.2944 66.9671 52.4525C66.6173 52.6116 66.4974 52.9708 66.1827 53.1584C65.8673 53.3465 65.317 53.3871 65.0417 53.6005C64.767 53.8135 64.8023 54.172 64.5722 54.407C64.3435 54.6406 63.8198 54.7807 63.6401 55.0328C63.4623 55.2822 63.651 55.611 63.5258 55.8753C63.4026 56.1351 62.9484 56.364 62.8803 56.6353C62.8139 56.9 63.1409 57.1724 63.131 57.4453C63.1211 57.7182 62.7735 58.0166 62.8208 58.2769C62.8694 58.5437 63.3082 58.7383 63.4128 58.9893C63.5193 59.2448 63.3062 59.5891 63.4663 59.8254C63.6283 60.0644 64.1433 60.1645 64.3556 60.3812C64.5693 60.5991 64.5079 60.9613 64.768 61.1538C65.0285 61.3466 65.5774 61.345 65.88 61.5092C66.1819 61.6732 66.2761 62.0241 66.6154 62.1567C66.9525 62.2885 67.4911 62.1852 67.8605 62.2832C68.2258 62.3801 68.4691 62.6911 68.8615 62.752C69.2473 62.812 69.7316 62.6147 70.1395 62.6373C70.5374 62.6594 70.9101 62.9051 71.3252 62.8892C71.7402 62.8732 72.1318 62.5981 72.5325 62.5453C72.9431 62.4912 73.4144 62.6518 73.8056 62.5619C74.2036 62.4705 74.4702 62.1399 74.8436 62.0147C75.2212 61.8879 75.7538 61.95 76.1014 61.7919C76.4512 61.6328 76.5712 61.2736 76.8859 61.0859C77.2013 60.8979 77.7515 60.8573 78.0268 60.6438C78.3016 60.4309 78.2663 60.0724 78.4964 59.8373C78.725 59.6037 79.2487 59.4637 79.4285 59.2116C79.6062 58.9623 79.4175 58.6334 79.5428 58.3691C79.666 58.1093 80.1201 57.8804 80.1882 57.6091C80.2546 57.3444 79.9277 57.072 79.9376 56.7991Z" fill="white"/>
<path d="M71.4557 55.5633C70.9942 56.1919 70.2769 56.5443 69.8535 56.3503C69.4301 56.1563 69.4611 55.4894 69.9227 54.8608C70.3842 54.2321 71.1016 53.8798 71.5249 54.0738C71.9483 54.2678 71.9173 54.9347 71.4557 55.5633Z" fill="#F58F00"/>
<path d="M73.5433 55.2805C73.6325 55.9808 73.3008 56.6086 72.8023 56.6827C72.3039 56.7568 71.8274 56.2492 71.7381 55.549C71.6489 54.8487 71.9806 54.2209 72.4791 54.1468C72.9775 54.0727 73.454 54.5803 73.5433 55.2805Z" fill="#F58F00"/>
<path d="M75.0402 54.0371C75.7475 54.3986 76.0885 54.9805 75.8017 55.3367C75.515 55.693 74.7091 55.6888 74.0018 55.3273C73.2944 54.9658 72.9535 54.384 73.2403 54.0277C73.5271 53.6714 74.3329 53.6756 75.0402 54.0371Z" fill="#F58F00"/>
<path d="M70.0147 54.7932C69.348 55.2855 68.5499 55.4424 68.2319 55.1437C67.9139 54.845 68.1966 54.2037 68.8633 53.7114C69.5299 53.2191 70.3281 53.0622 70.6461 53.3609C70.964 53.6596 70.6813 54.3009 70.0147 54.7932Z" fill="#F58F00"/>
<path d="M69.5215 57.7821C70.5159 57.7084 71.3416 57.9139 71.3659 58.2412C71.3902 58.5685 70.6039 58.8936 69.6096 58.9673C68.6153 59.041 67.7895 58.8354 67.7652 58.5081C67.7409 58.1808 68.5272 57.8558 69.5215 57.7821Z" fill="#F58F00"/>
<path d="M67.9743 56.8032C68.7287 56.3963 69.646 56.2532 70.0231 56.4835C70.4003 56.7139 70.0944 57.2304 69.34 57.6373C68.5856 58.0442 67.6683 58.1874 67.2912 57.957C66.914 57.7267 67.2198 57.2101 67.9743 56.8032Z" fill="#F58F00"/>
<path d="M65.6658 56.6348C65.6682 56.0688 66.139 55.5872 66.7173 55.5589C67.2955 55.5307 67.7624 55.9666 67.7599 56.5326C67.7575 57.0986 67.2867 57.5803 66.7085 57.6085C66.1301 57.6367 65.6634 57.2008 65.6658 56.6348Z" fill="#F58F00"/>
<path d="M69.478 58.9524C70.4353 59.059 71.0833 59.4082 70.9253 59.7324C70.7673 60.0566 69.8632 60.2331 68.9059 60.1266C67.9485 60.02 67.3006 59.6708 67.4585 59.3466C67.6166 59.0224 68.5207 58.8459 69.478 58.9524Z" fill="#F58F00"/>
<path d="M73.6033 58.1333C72.6115 58.136 71.7686 58.4057 71.7204 58.7358C71.6722 59.0659 72.4372 59.3313 73.4289 59.3286C74.4206 59.326 75.2636 59.0562 75.3118 58.7262C75.3599 58.3961 74.595 58.1307 73.6033 58.1333Z" fill="#F58F00"/>
<path d="M75.226 57.0325C74.4991 56.6826 73.5896 56.6097 73.1947 56.8697C72.7998 57.1297 73.0689 57.6241 73.7959 57.9741C74.5229 58.324 75.4324 58.3969 75.8273 58.1369C76.2222 57.8769 75.953 57.3824 75.226 57.0325Z" fill="#F58F00"/>
<path d="M77.5532 56.6859C77.5919 56.1185 77.1548 55.6717 76.5769 55.6879C75.9991 55.7042 75.4993 56.1773 75.4606 56.7446C75.422 57.312 75.859 57.7588 76.4369 57.7426C77.0147 57.7263 77.5145 57.2532 77.5532 56.6859Z" fill="#F58F00"/>
<path d="M73.562 59.3035C72.5943 59.484 71.9191 59.8841 72.054 60.1971C72.1889 60.5101 73.0828 60.6174 74.0505 60.4368C75.0182 60.2563 75.6934 59.8562 75.5585 59.5432C75.4236 59.2303 74.5298 59.1229 73.562 59.3035Z" fill="#F58F00"/>
<path d="M73.1849 41.5522C73.1959 41.2499 73.3034 41.1059 73.2509 40.8175C73.1971 40.5218 73.3668 40.0116 73.2509 39.7334C73.133 39.4504 72.7132 39.3637 72.5357 39.1018C72.3563 38.837 71.7857 38.7261 71.5504 38.4861C71.3137 38.2446 71.3818 37.8433 71.0936 37.6301C70.8049 37.4164 70.1968 37.4183 69.8615 37.2363C69.527 37.0546 69.4226 36.6659 69.0468 36.5189C68.6732 36.3729 68.0765 36.4873 67.6672 36.3788C67.2625 36.2715 66.993 35.9269 66.5581 35.8593C66.1307 35.7929 65.5941 36.0114 65.1423 35.9864C64.7014 35.962 64.2885 35.6897 63.8286 35.7074C63.3688 35.7251 62.9349 36.0299 62.491 36.0884C62.0361 36.1483 61.5139 35.9704 61.0804 36.07C60.6394 36.1712 60.344 36.5375 59.9303 36.6763C59.512 36.8167 58.922 36.7479 58.5368 36.9231C58.1492 37.0994 58.0163 37.4973 57.6676 37.7052C57.3183 37.9135 56.7086 37.9586 56.4035 38.195C56.0991 38.431 56.1383 38.8282 55.8834 39.0886C55.63 39.3474 55.0498 39.5026 54.8507 39.7819C54.6537 40.0581 54.1477 40.1805 54.0089 40.4733C53.8724 40.7612 54.0843 41.2568 54.0089 41.5573C53.9353 41.8506 53.9539 41.9898 53.943 42.2921C53.932 42.5945 53.8905 43.0878 53.943 43.3762C53.9968 43.6718 54.483 43.8874 54.5988 44.1655C54.7168 44.4485 54.4807 44.83 54.6582 45.0918C54.8376 45.3566 55.4082 45.4675 55.6434 45.7075C55.8802 45.949 55.8121 46.3504 56.1003 46.5636C56.389 46.7772 56.9971 46.7754 57.3323 46.9574C57.6669 47.1391 57.7712 47.5278 58.1471 47.6747C58.5207 47.8207 59.1173 47.7063 59.5266 47.8149C59.9313 47.9222 60.2009 48.2668 60.6357 48.3343C61.0631 48.4007 61.5997 48.1822 62.0515 48.2072C62.4925 48.2317 62.9054 48.504 63.3652 48.4863C63.8251 48.4686 64.2589 48.1638 64.7029 48.1053C65.1578 48.0454 65.68 48.2232 66.1135 48.1237C66.5544 48.0224 66.8498 47.6561 67.2635 47.5173C67.6818 47.377 68.2719 47.4457 68.6571 47.2705C69.0446 47.0942 69.1775 46.6964 69.5262 46.4884C69.8756 46.2801 70.4853 46.2351 70.7903 45.9986C71.0947 45.7626 71.0556 45.3654 71.3105 45.1051C71.5639 44.8462 72.144 44.6911 72.3432 44.4117C72.5401 44.1355 72.3311 43.7712 72.4699 43.4783C72.6063 43.1905 73.1095 42.9369 73.1849 42.6363C73.2586 42.343 73.174 41.8546 73.1849 41.5522Z" fill="#F58F00" stroke="#263238" stroke-linecap="round" stroke-linejoin="round"/>
<path d="M72.9072 40.6549C72.9181 40.3526 73.3033 40.0219 73.2508 39.7335C73.197 39.4379 72.7109 39.2223 72.5949 38.9442C72.477 38.6612 72.7131 38.2797 72.5357 38.0178C72.3562 37.7531 71.7856 37.6421 71.5503 37.4021C71.3136 37.1606 71.3817 36.7593 71.0935 36.5461C70.8048 36.3325 70.1967 36.3343 69.8615 36.1523C69.5269 35.9707 69.4225 35.5819 69.0467 35.435C68.6732 35.2889 68.0765 35.4034 67.6672 35.2948C67.2625 35.1875 66.9929 34.8429 66.558 34.7754C66.1306 34.7089 65.5941 34.9275 65.1422 34.9024C64.7014 34.878 64.2884 34.6057 63.8286 34.6234C63.3687 34.6411 62.9349 34.9459 62.4909 35.0044C62.036 35.0643 61.5138 34.8865 61.0803 34.986C60.6394 35.0872 60.344 35.4535 59.9303 35.5923C59.512 35.7327 58.9219 35.6639 58.5367 35.8392C58.1492 36.0154 58.0163 36.4133 57.6675 36.6213C57.3182 36.8296 56.7085 36.8746 56.4035 37.1111C56.0991 37.3471 56.1382 37.7442 55.8833 38.0046C55.63 38.2634 55.0497 38.4186 54.8506 38.698C54.6536 38.9742 54.8627 39.3385 54.7239 39.6313C54.5874 39.9192 54.0843 40.1728 54.0089 40.4734C53.9353 40.7666 54.2975 41.0685 54.2865 41.3708C54.2756 41.6731 53.8904 42.0038 53.9429 42.2922C53.9967 42.5878 54.4829 42.8034 54.5988 43.0815C54.7167 43.3645 54.4806 43.746 54.6581 44.0079C54.8375 44.2726 55.4081 44.3835 55.6434 44.6236C55.8801 44.8651 55.812 45.2664 56.1002 45.4796C56.3889 45.6932 56.997 45.6914 57.3322 45.8734C57.6668 46.0551 57.7712 46.4438 58.147 46.5907C58.5206 46.7368 59.1173 46.6224 59.5265 46.7309C59.9313 46.8382 60.2008 47.1828 60.6357 47.2504C61.0631 47.3168 61.5996 47.0982 62.0515 47.1233C62.4924 47.1477 62.9053 47.42 63.3652 47.4023C63.825 47.3846 64.2589 47.0798 64.7028 47.0213C65.1577 46.9614 65.6799 47.1393 66.1134 47.0397C66.5544 46.9385 66.8497 46.5722 67.2634 46.4334C67.6818 46.293 68.2718 46.3618 68.657 46.1865C69.0445 46.0103 69.1774 45.6124 69.5261 45.4044C69.8755 45.1961 70.4852 45.1511 70.7902 44.9146C71.0947 44.6786 71.0556 44.2814 71.3104 44.0211C71.5638 43.7623 72.144 43.6071 72.3431 43.3278C72.5401 43.0515 72.331 42.6872 72.4698 42.3944C72.6063 42.1065 73.1094 41.8529 73.1849 41.5523C73.2585 41.2591 72.8962 40.9572 72.9072 40.6549Z" fill="#F58F00" stroke="#263238" stroke-linecap="round" stroke-linejoin="round"/>
<path opacity="0.69" d="M72.0003 40.6897C72.0102 40.4168 72.3579 40.1185 72.3104 39.8581C72.2619 39.5913 71.8231 39.3967 71.7185 39.1457C71.612 38.8902 71.8251 38.546 71.6649 38.3096C71.503 38.0706 70.988 37.9705 70.7756 37.7539C70.562 37.5359 70.6234 37.1737 70.3633 36.9812C70.1027 36.7884 69.5539 36.7901 69.2513 36.6258C68.9494 36.4618 68.8551 36.111 68.5159 35.9784C68.1787 35.8466 67.6402 35.9498 67.2708 35.8518C66.9055 35.755 66.6622 35.444 66.2697 35.383C65.8839 35.323 65.3997 35.5203 64.9918 35.4977C64.5939 35.4757 64.2212 35.2299 63.8062 35.2459C63.3911 35.2618 62.9995 35.537 62.5988 35.5897C62.1882 35.6438 61.7169 35.4833 61.3257 35.5731C60.9276 35.6645 60.6611 35.9951 60.2877 36.1204C59.9101 36.2471 59.3776 36.185 59.0299 36.3432C58.6801 36.5022 58.5601 36.8614 58.2454 37.0491C57.93 37.2371 57.3798 37.2778 57.1045 37.4912C56.8297 37.7042 56.865 38.0626 56.635 38.2977C56.4063 38.5313 55.8826 38.6713 55.7028 38.9234C55.5251 39.1728 55.7138 39.5016 55.5885 39.7659C55.4654 40.0257 55.0112 40.2546 54.9431 40.5259C54.8767 40.7906 55.2036 41.0631 55.1937 41.3359C55.1839 41.6088 54.8362 41.9072 54.8836 42.1675C54.9322 42.4344 55.3709 42.6289 55.4756 42.88C55.582 43.1354 55.369 43.4797 55.5291 43.716C55.6911 43.955 56.2061 44.0551 56.4184 44.2718C56.6321 44.4897 56.5706 44.852 56.8307 45.0444C57.0913 45.2372 57.6402 45.2356 57.9427 45.3998C58.2447 45.5638 58.3389 45.9147 58.6781 46.0473C59.0153 46.1791 59.5538 46.0759 59.9232 46.1738C60.2886 46.2707 60.5318 46.5817 60.9243 46.6427C61.3101 46.7026 61.7943 46.5053 62.2022 46.5279C62.6002 46.55 62.9729 46.7958 63.3879 46.7798C63.803 46.7638 64.1945 46.4887 64.5952 46.4359C65.0058 46.3818 65.4771 46.5424 65.8684 46.4525C66.2664 46.3611 66.533 46.0305 66.9064 45.9053C67.2839 45.7786 67.8165 45.8406 68.1642 45.6825C68.514 45.5234 68.6339 45.1642 68.9486 44.9766C69.264 44.7885 69.8143 44.7479 70.0896 44.5345C70.3643 44.3215 70.329 43.963 70.5591 43.728C70.7878 43.4944 71.3115 43.3543 71.4912 43.1022C71.669 42.8529 71.4802 42.524 71.6055 42.2597C71.7287 41.9999 72.1828 41.771 72.2509 41.4998C72.3174 41.235 71.9904 40.9626 72.0003 40.6897Z" fill="white"/>
<path d="M63.5183 39.4539C63.0567 40.0825 62.3394 40.4349 61.916 40.2409C61.4926 40.0469 61.5236 39.38 61.9852 38.7514C62.4467 38.1228 63.1641 37.7704 63.5874 37.9644C64.0108 38.1584 63.9798 38.8253 63.5183 39.4539Z" fill="#F58F00"/>
<path d="M65.606 39.1712C65.6953 39.8715 65.3635 40.4992 64.8651 40.5733C64.3666 40.6474 63.8902 40.1399 63.8009 39.4396C63.7116 38.7393 64.0433 38.1116 64.5418 38.0375C65.0403 37.9634 65.5167 38.4709 65.606 39.1712Z" fill="#F58F00"/>
<path d="M67.103 37.9277C67.8103 38.2892 68.1512 38.8711 67.8645 39.2273C67.5777 39.5836 66.7718 39.5794 66.0645 39.218C65.3572 38.8565 65.0163 38.2746 65.303 37.9183C65.5898 37.562 66.3957 37.5662 67.103 37.9277Z" fill="#F58F00"/>
<path d="M62.0774 38.6838C61.4108 39.1761 60.6126 39.3331 60.2946 39.0343C59.9767 38.7356 60.2594 38.0944 60.926 37.6021C61.5926 37.1097 62.3908 36.9528 62.7088 37.2515C63.0268 37.5502 62.7441 38.1915 62.0774 38.6838Z" fill="#F58F00"/>
<path d="M61.5843 41.6727C62.5786 41.599 63.4043 41.8046 63.4287 42.1319C63.453 42.4592 62.6666 42.7842 61.6724 42.858C60.678 42.9316 59.8523 42.7261 59.8279 42.3988C59.8037 42.0715 60.59 41.7464 61.5843 41.6727Z" fill="#F58F00"/>
<path d="M60.037 40.6938C60.7914 40.287 61.7088 40.1438 62.0859 40.3742C62.463 40.6045 62.1572 41.121 61.4028 41.528C60.6484 41.9349 59.731 42.078 59.3539 41.8477C58.9767 41.6174 59.2826 41.1008 60.037 40.6938Z" fill="#F58F00"/>
<path d="M57.7285 40.5254C57.731 39.9595 58.2017 39.4778 58.78 39.4495C59.3583 39.4213 59.8251 39.8572 59.8227 40.4232C59.8203 40.9892 59.3495 41.4709 58.7712 41.4991C58.1929 41.5273 57.7261 41.0914 57.7285 40.5254Z" fill="#F58F00"/>
<path d="M61.5407 42.8431C62.4981 42.9496 63.1461 43.2988 62.9881 43.623C62.8301 43.9473 61.9259 44.1237 60.9686 44.0172C60.0113 43.9106 59.3633 43.5614 59.5213 43.2372C59.6793 42.913 60.5834 42.7365 61.5407 42.8431Z" fill="#F58F00"/>
<path d="M65.666 42.0239C64.6743 42.0266 63.8313 42.2963 63.7832 42.6264C63.735 42.9565 64.4999 43.2219 65.4916 43.2193C66.4834 43.2166 67.3264 42.9468 67.3745 42.6168C67.4227 42.2867 66.6577 42.0213 65.666 42.0239Z" fill="#F58F00"/>
<path d="M67.2888 40.9231C66.5618 40.5732 65.6523 40.5003 65.2574 40.7603C64.8625 41.0203 65.1317 41.5148 65.8587 41.8647C66.5856 42.2146 67.4951 42.2876 67.89 42.0275C68.285 41.7675 68.0158 41.2731 67.2888 40.9231Z" fill="#F58F00"/>
<path d="M69.6159 40.5765C69.6546 40.0091 69.2176 39.5623 68.6397 39.5786C68.0619 39.5948 67.562 40.0679 67.5234 40.6353C67.4847 41.2026 67.9218 41.6494 68.4996 41.6332C69.0775 41.617 69.5773 41.1439 69.6159 40.5765Z" fill="#F58F00"/>
<path d="M65.6248 43.1941C64.657 43.3747 63.9819 43.7747 64.1168 44.0877C64.2517 44.4007 65.1455 44.508 66.1132 44.3275C67.081 44.1469 67.7562 43.7468 67.6212 43.4339C67.4864 43.1209 66.5925 43.0135 65.6248 43.1941Z" fill="#F58F00"/>
<path d="M105.947 44.9967C106.139 44.7629 106.312 44.7134 106.445 44.4521C106.581 44.1843 107.025 43.8812 107.101 43.5897C107.179 43.2931 106.898 42.9697 106.915 42.6539C106.933 42.3346 106.546 41.9006 106.504 41.5671C106.462 41.2315 106.76 40.9535 106.659 40.6093C106.559 40.2644 106.074 39.8974 105.918 39.5495C105.762 39.2024 105.914 38.8298 105.704 38.4852C105.496 38.1427 104.952 37.8722 104.692 37.5379C104.435 37.2073 104.429 36.7699 104.124 36.4527C103.824 36.1408 103.265 35.9897 102.921 35.696C102.585 35.4095 102.421 34.9426 102.045 34.6781C101.668 34.4136 101.138 34.3932 100.75 34.1708C100.351 33.9429 100.044 33.485 99.6385 33.3016C99.2263 33.115 98.7694 33.2274 98.3561 33.0872C97.9383 32.9454 97.5105 32.5332 97.0979 32.4393C96.6828 32.3447 96.336 32.5807 95.9326 32.5349C95.5284 32.489 95.0161 32.1554 94.6301 32.1587C94.245 32.162 94.0355 32.5017 93.6749 32.5545C93.3166 32.6069 92.7609 32.3788 92.4333 32.4804C92.1092 32.5808 91.6326 32.3716 91.3447 32.5205C91.0618 32.6668 90.9301 33.1895 90.688 33.3829C90.4517 33.5716 90.3822 33.6936 90.1903 33.9275C89.9984 34.1614 89.6665 34.5287 89.5336 34.7899C89.3973 35.0577 89.6534 35.5238 89.5771 35.8153C89.4995 36.1119 89.0806 36.2724 89.0631 36.5882C89.0454 36.9075 89.4322 37.3415 89.4739 37.675C89.516 38.0105 89.2187 38.2886 89.3187 38.6328C89.419 38.9777 89.9039 39.3447 90.0603 39.6925C90.2164 40.0397 90.064 40.4123 90.274 40.7568C90.4827 41.0993 91.0267 41.3698 91.2865 41.7042C91.5435 42.0347 91.5492 42.4722 91.8542 42.7894C92.154 43.1012 92.7133 43.2524 93.0576 43.546C93.3936 43.8326 93.5571 44.2994 93.9337 44.5639C94.3102 44.8285 94.8401 44.8488 95.2287 45.0712C95.6269 45.2992 95.9346 45.7571 96.3398 45.9405C96.7519 46.1271 97.2088 46.0146 97.6221 46.1548C98.0399 46.2967 98.4677 46.7088 98.8803 46.8028C99.2954 46.8973 99.6422 46.6613 100.046 46.7072C100.45 46.7531 100.962 47.0867 101.348 47.0833C101.733 47.08 101.943 46.7403 102.303 46.6876C102.662 46.6352 103.217 46.8633 103.545 46.7617C103.869 46.6612 103.923 46.2447 104.211 46.0959C104.494 45.9495 105.048 46.0526 105.29 45.8592C105.526 45.6704 105.755 45.2306 105.947 44.9967Z" fill="#F58F00" stroke="#263238" stroke-linecap="round" stroke-linejoin="round"/>
<path d="M106.27 44.1146C106.462 43.8808 106.968 43.8511 107.101 43.5898C107.238 43.322 106.982 42.856 107.058 42.5645C107.135 42.2679 107.554 42.1074 107.572 41.7916C107.59 41.4723 107.203 41.0383 107.161 40.7048C107.119 40.3693 107.416 40.0912 107.316 39.747C107.216 39.4021 106.731 39.0351 106.575 38.6872C106.418 38.3401 106.571 37.9675 106.361 37.6229C106.152 37.2804 105.608 37.0099 105.348 36.6756C105.091 36.345 105.086 35.9076 104.781 35.5904C104.481 35.2785 103.922 35.1274 103.577 34.8337C103.241 34.5472 103.078 34.0803 102.701 33.8158C102.325 33.5513 101.795 33.5309 101.406 33.3085C101.008 33.0806 100.7 32.6227 100.295 32.4392C99.883 32.2526 99.4261 32.3651 99.0128 32.2249C98.595 32.0831 98.1672 31.6709 97.7546 31.577C97.3395 31.4824 96.9927 31.7184 96.5893 31.6726C96.1851 31.6267 95.6728 31.2931 95.2869 31.2964C94.9017 31.2997 94.6922 31.6394 94.3317 31.6922C93.9733 31.7446 93.4176 31.5165 93.09 31.6181C92.766 31.7185 92.7116 32.135 92.4237 32.2839C92.1407 32.4302 91.5868 32.3272 91.3447 32.5206C91.1085 32.7093 91.2137 33.1689 91.0219 33.4028C90.83 33.6367 90.3232 33.6664 90.1903 33.9276C90.054 34.1954 90.3101 34.6615 90.2339 34.953C90.1562 35.2496 89.7373 35.4101 89.7198 35.7259C89.7022 36.0452 90.0889 36.4792 90.1307 36.8127C90.1727 37.1482 89.8754 37.4263 89.9755 37.7705C90.0757 38.1154 90.5606 38.4824 90.717 38.8302C90.8732 39.1774 90.7207 39.5499 90.9307 39.8945C91.1394 40.237 91.6834 40.5075 91.9433 40.8419C92.2002 41.1724 92.2059 41.6099 92.5109 41.9271C92.8108 42.2389 93.3701 42.3901 93.7143 42.6837C94.0503 42.9703 94.2139 43.4371 94.5904 43.7017C94.967 43.9662 95.4968 43.9865 95.8854 44.2089C96.2837 44.4369 96.5913 44.8948 96.9965 45.0782C97.4087 45.2648 97.8656 45.1523 98.2788 45.2925C98.6967 45.4344 99.1244 45.8465 99.5371 45.9405C99.9522 46.0351 100.299 45.799 100.702 45.8449C101.107 45.8908 101.619 46.2244 102.005 46.2211C102.39 46.2177 102.599 45.878 102.96 45.8253C103.318 45.7729 103.874 46.001 104.202 45.8994C104.526 45.7989 104.58 45.3824 104.868 45.2336C105.151 45.0872 105.705 45.1903 105.947 44.9969C106.183 44.8081 106.078 44.3485 106.27 44.1146Z" fill="#F58F00" stroke="#263238" stroke-linecap="round" stroke-linejoin="round"/>
<path opacity="0.69" d="M105.527 43.5929C105.7 43.3818 106.158 43.355 106.278 43.1192C106.401 42.8775 106.169 42.4569 106.238 42.1937C106.308 41.926 106.686 41.7812 106.702 41.4962C106.718 41.2079 106.369 40.8162 106.331 40.5152C106.293 40.2124 106.562 39.9614 106.471 39.6507C106.381 39.3395 105.943 39.0083 105.802 38.6943C105.661 38.3809 105.799 38.0446 105.609 37.7336C105.421 37.4245 104.93 37.1804 104.695 36.8786C104.463 36.5802 104.458 36.1854 104.183 35.8991C103.912 35.6177 103.408 35.4813 103.097 35.2161C102.794 34.9575 102.646 34.5362 102.306 34.2974C101.966 34.0587 101.488 34.0403 101.137 33.8395C100.778 33.6338 100.5 33.2205 100.134 33.055C99.7624 32.8865 99.3501 32.9881 98.9771 32.8615C98.5999 32.7335 98.2139 32.3615 97.8414 32.2767C97.4668 32.1913 97.1538 32.4044 96.7897 32.363C96.4248 32.3215 95.9624 32.0205 95.6141 32.0235C95.2665 32.0265 95.0774 32.3331 94.752 32.3807C94.4285 32.428 93.927 32.2221 93.6312 32.3138C93.3388 32.4045 93.2897 32.7804 93.0299 32.9148C92.7745 33.0468 92.2745 32.9538 92.0559 33.1284C91.8428 33.2987 91.9378 33.7136 91.7646 33.9247C91.5914 34.1357 91.134 34.1625 91.014 34.3984C90.891 34.6401 91.1222 35.0607 91.0534 35.3238C90.9833 35.5915 90.6052 35.7363 90.5894 36.0214C90.5735 36.3096 90.9225 36.7013 90.9602 37.0023C90.9981 37.3052 90.7298 37.5561 90.8202 37.8668C90.9106 38.178 91.3483 38.5093 91.4895 38.8233C91.6304 39.1367 91.4928 39.4729 91.6823 39.7839C91.8707 40.093 92.3617 40.3372 92.5962 40.639C92.8282 40.9373 92.8333 41.3322 93.1086 41.6185C93.3792 41.8999 93.884 42.0363 94.1948 42.3014C94.498 42.56 94.6456 42.9814 94.9855 43.2201C95.3253 43.4589 95.8036 43.4772 96.1544 43.678C96.5138 43.8837 96.7915 44.297 97.1572 44.4626C97.5292 44.631 97.9416 44.5295 98.3145 44.6561C98.6917 44.784 99.0778 45.156 99.4502 45.2409C99.8249 45.3262 100.138 45.1132 100.502 45.1545C100.867 45.196 101.329 45.4971 101.677 45.4941C102.025 45.4911 102.214 45.1845 102.54 45.1369C102.863 45.0896 103.365 45.2955 103.66 45.2038C103.953 45.1131 104.002 44.7372 104.262 44.6028C104.517 44.4707 105.017 44.5637 105.236 44.3892C105.449 44.2188 105.354 43.804 105.527 43.5929Z" fill="white"/>
<path d="M99.5281 37.4711C98.78 37.6916 97.9959 37.5373 97.7766 37.1265C97.5573 36.7156 97.986 36.2038 98.734 35.9833C99.4821 35.7628 100.266 35.9172 100.486 36.328C100.705 36.7388 100.276 37.2506 99.5281 37.4711Z" fill="#F58F00"/>
<path d="M101.36 38.5107C101.007 39.1219 100.363 39.4203 99.9211 39.1773C99.4796 38.9343 99.408 38.2418 99.7613 37.6306C100.115 37.0194 100.759 36.721 101.2 36.964C101.642 37.207 101.713 37.8995 101.36 38.5107Z" fill="#F58F00"/>
<path d="M103.304 38.4287C103.648 39.1449 103.567 39.8143 103.123 39.9241C102.679 40.0338 102.04 39.5422 101.696 38.8261C101.353 38.1099 101.434 37.4405 101.878 37.3307C102.322 37.221 102.961 37.7126 103.304 38.4287Z" fill="#F58F00"/>
<path d="M98.8481 35.9853C98.0195 35.9731 97.2894 35.6144 97.2174 35.1841C97.1454 34.7538 97.7588 34.4149 98.5874 34.4271C99.4161 34.4393 100.146 34.798 100.218 35.2283C100.29 35.6586 99.6768 35.9975 98.8481 35.9853Z" fill="#F58F00"/>
<path d="M96.645 38.064C97.4807 38.6078 98.0131 39.2716 97.8342 39.5467C97.6552 39.8219 96.8327 39.6041 95.997 39.0603C95.1613 38.5166 94.6289 37.8527 94.8078 37.5776C94.9868 37.3025 95.8093 37.5202 96.645 38.064Z" fill="#F58F00"/>
<path d="M96.0069 36.3479C96.8536 36.4813 97.6701 36.9231 97.8306 37.3349C97.9911 37.7466 97.4348 37.9723 96.5881 37.8389C95.7414 37.7056 94.9249 37.2637 94.7644 36.852C94.6039 36.4402 95.1602 36.2146 96.0069 36.3479Z" fill="#F58F00"/>
<path d="M94.2724 34.8151C94.6172 34.3663 95.2836 34.2683 95.7607 34.5962C96.2379 34.9241 96.3452 35.5537 96.0004 36.0025C95.6555 36.4513 94.9892 36.5493 94.512 36.2215C94.0348 35.8935 93.9276 35.2639 94.2724 34.8151Z" fill="#F58F00"/>
<path d="M95.9013 38.9685C96.5984 39.6332 96.9023 40.3037 96.5802 40.4659C96.258 40.6281 95.4318 40.2207 94.7347 39.556C94.0377 38.8912 93.7337 38.2208 94.0558 38.0586C94.378 37.8963 95.2042 38.3037 95.9013 38.9685Z" fill="#F58F00"/>
<path d="M99.6794 40.8169C98.8888 40.2182 98.0548 39.922 97.8165 40.1555C97.5781 40.3889 98.0259 41.0635 98.8165 41.6622C99.6071 42.261 100.441 42.5571 100.679 42.3236C100.918 42.0902 100.47 41.4156 99.6794 40.8169Z" fill="#F58F00"/>
<path d="M101.638 40.9241C101.271 40.2053 100.592 39.5963 100.12 39.5638C99.6484 39.5314 99.5629 40.0879 99.9293 40.8068C100.296 41.5256 100.975 42.1346 101.447 42.167C101.918 42.1994 102.004 41.643 101.638 40.9241Z" fill="#F58F00"/>
<path d="M103.699 42.058C104.074 41.63 103.996 41.0098 103.527 40.6726C103.057 40.3354 102.373 40.409 101.999 40.837C101.624 41.2649 101.701 41.8852 102.171 42.2224C102.64 42.5595 103.324 42.486 103.699 42.058Z" fill="#F58F00"/>
<path d="M98.9376 41.7225C98.0584 41.2799 97.2788 41.1891 97.1965 41.5198C97.1142 41.8506 97.7603 42.4775 98.6396 42.9201C99.5189 43.3628 100.298 43.4536 100.381 43.1229C100.463 42.7921 99.817 42.1652 98.9376 41.7225Z" fill="#F58F00"/>
<path d="M90.3154 8.45411C78.1745 3.39608 60.7217 6.92153 51.3671 13.7231C45.3752 18.0796 39.1057 26.4188 40.8928 34.2989C41.4725 36.8551 42.2874 39.38 45.8624 41.0586C49.4375 42.7372 60.7437 43.1473 70.4194 42.0985C80.0951 41.0498 94.4761 35.7838 100.311 29.2614C104.048 25.0838 102.178 19.0126 99.1271 15.04C96.8362 12.057 93.7938 9.90324 90.3154 8.45411Z" fill="#F58F00" stroke="#263238" stroke-miterlimit="10"/>
<path d="M80.5517 15.3481C79.5494 15.5913 79.3864 14.83 79.3864 14.83C79.3864 14.83 79.2668 14.058 80.2255 13.8253C81.1407 13.6031 81.3909 14.3434 81.3909 14.3434C81.3909 14.3434 81.5105 15.1154 80.5517 15.3481Z" fill="white"/>
<path d="M89.2224 16.9543C88.1894 16.8998 88.1938 16.1229 88.1938 16.1229C88.1938 16.1229 88.2432 15.3483 89.2313 15.4005C90.1745 15.4503 90.2599 16.2319 90.2599 16.2319C90.2599 16.2319 90.2104 17.0065 89.2224 16.9543Z" fill="white"/>
<path d="M81.9316 24.428C80.8986 24.3734 80.9031 23.5965 80.9031 23.5965C80.9031 23.5965 80.9525 22.8219 81.9405 22.8741C82.8837 22.9239 82.9691 23.7055 82.9691 23.7055C82.9691 23.7055 82.9197 24.4801 81.9316 24.428Z" fill="white"/>
<path d="M49.6147 31.5329C48.5817 31.4784 48.5862 30.7015 48.5862 30.7015C48.5862 30.7015 48.6356 29.9269 49.6237 29.9791C50.5668 30.0288 50.6522 30.8105 50.6522 30.8105C50.6522 30.8105 50.6028 31.5851 49.6147 31.5329Z" fill="white"/>
<path d="M70.9716 25.6476C69.9497 25.7764 69.8509 25.0032 69.8509 25.0032C69.8509 25.0032 69.7964 24.2244 70.7738 24.1012C71.7068 23.9836 71.8945 24.7456 71.8945 24.7456C71.8945 24.7456 71.949 25.5244 70.9716 25.6476Z" fill="white"/>
<path d="M91.1276 23.0451C90.1205 23.265 89.9705 22.5006 89.9705 22.5006C89.9705 22.5006 89.8643 21.7266 90.8276 21.5163C91.7472 21.3155 91.9847 22.0608 91.9847 22.0608C91.9847 22.0608 92.0909 22.8348 91.1276 23.0451Z" fill="white"/>
<path d="M85.4379 31.509C84.4308 31.7288 84.2808 30.9644 84.2808 30.9644C84.2808 30.9644 84.1746 30.1904 85.1379 29.9801C86.0575 29.7794 86.295 30.5247 86.295 30.5247C86.295 30.5247 86.4012 31.2987 85.4379 31.509Z" fill="white"/>
<path d="M75.8839 31.9948C74.8768 32.2146 74.7269 31.4503 74.7269 31.4503C74.7269 31.4503 74.6206 30.6763 75.584 30.466C76.5035 30.2652 76.741 31.0105 76.741 31.0105C76.741 31.0105 76.8472 31.7845 75.8839 31.9948Z" fill="white"/>
<path d="M62.1913 33.5788C61.1842 33.7987 61.0342 33.0342 61.0342 33.0342C61.0342 33.0342 60.928 32.2603 61.8913 32.05C62.8109 31.8492 63.0484 32.5945 63.0484 32.5945C63.0484 32.5945 63.1546 33.3685 62.1913 33.5788Z" fill="white"/>
<path d="M85.028 11.7054C83.995 11.6656 83.9912 10.8882 83.9912 10.8882C83.9912 10.8882 84.0323 10.1127 85.0204 10.1508C85.9636 10.1872 86.0572 10.9679 86.0572 10.9679C86.0572 10.9679 86.0161 11.7435 85.028 11.7054Z" fill="white"/>
<path d="M66.921 13.0815C65.6872 13.4479 65.5134 12.7642 65.5134 12.7642C65.5134 12.7642 65.3934 12.0647 66.5736 11.7142C67.7002 11.3796 67.9812 12.0314 67.9812 12.0314C67.9812 12.0314 68.1013 12.7309 66.921 13.0815Z" fill="white"/>
<path d="M58.8056 19.6149C57.8152 19.909 57.6222 19.1494 57.6222 19.1494C57.6222 19.1494 57.4722 18.3771 58.4196 18.0957C59.3238 17.8272 59.603 18.5612 59.603 18.5612C59.603 18.5612 59.753 19.3335 58.8056 19.6149Z" fill="white"/>
<path d="M57.4666 15.0116C56.4762 15.3057 56.3804 14.9289 56.3804 14.9289C56.3804 14.9289 56.3277 14.5392 57.275 14.2579C58.1793 13.9893 58.3612 14.3406 58.3612 14.3406C58.3612 14.3406 58.4139 14.7302 57.4666 15.0116Z" fill="white"/>
<path d="M52.0616 17.0692C51.1449 17.5771 50.9896 17.2252 50.9896 17.2252C50.9896 17.2252 50.8742 16.8513 51.7511 16.3655C52.5882 15.9017 52.8231 16.2094 52.8231 16.2094C52.8231 16.2094 52.9386 16.5834 52.0616 17.0692Z" fill="white"/>
<path d="M43.1432 32.0868C42.8984 33.1058 42.5341 32.9826 42.5341 32.9826C42.5341 32.9826 42.1804 32.8151 42.4146 31.8404C42.6381 30.9099 43.0237 30.9445 43.0237 30.9445C43.0237 30.9445 43.3774 31.112 43.1432 32.0868Z" fill="white"/>
<path d="M61.4618 11.8512C60.4744 12.1569 60.3754 11.781 60.3754 11.781C60.3754 11.781 60.3193 11.3919 61.2638 11.0994C62.1653 10.8202 62.3502 11.1695 62.3502 11.1695C62.3502 11.1695 62.4063 11.5586 61.4618 11.8512Z" fill="white"/>
<path d="M72.793 9.11373C71.7809 9.30671 71.7134 8.92299 71.7134 8.92299C71.7134 8.92299 71.69 8.53084 72.6581 8.34622C73.5822 8.16999 73.7376 8.53696 73.7376 8.53696C73.7376 8.53696 73.7611 8.9291 72.793 9.11373Z" fill="white"/>
<path d="M90.5746 10.5364C89.5673 10.227 89.6419 9.85141 89.6419 9.85141C89.6419 9.85141 89.7603 9.4893 90.7239 9.78531C91.6436 10.0678 91.6566 10.4703 91.6566 10.4703C91.6566 10.4703 91.5382 10.8324 90.5746 10.5364Z" fill="white"/>
<path d="M97.4346 16.778C96.663 16.0602 96.894 15.7548 96.894 15.7548C96.894 15.7548 97.1585 15.4805 97.8965 16.1671C98.6009 16.8225 98.437 17.1904 98.437 17.1904C98.437 17.1904 98.1725 17.4645 97.4346 16.778Z" fill="white"/>
<path d="M46.1409 22.9861C45.3643 23.7369 45.1422 23.4348 45.1422 23.4348C45.1422 23.4348 44.9538 23.1 45.6966 22.3818C46.4056 21.6963 46.6953 21.9331 46.6953 21.9331C46.6953 21.9331 46.8836 22.2679 46.1409 22.9861Z" fill="white"/>
<path d="M79.344 11.3353C78.3417 11.5787 78.1786 10.8173 78.1786 10.8173C78.1786 10.8173 78.0591 10.0453 79.0178 9.81258C79.9329 9.59043 80.1832 10.3307 80.1832 10.3307C80.1832 10.3307 80.3027 11.1026 79.344 11.3353Z" fill="white"/>
<path d="M76.1062 20.2841C75.1039 20.5274 74.9408 19.766 74.9408 19.766C74.9408 19.766 74.8213 18.994 75.78 18.7613C76.6951 18.5392 76.9454 19.2794 76.9454 19.2794C76.9454 19.2794 77.0649 20.0514 76.1062 20.2841Z" fill="white"/>
<path d="M73.4224 14.9691C72.4201 15.2124 72.257 14.451 72.257 14.451C72.257 14.451 72.1374 13.6791 73.0962 13.4464C74.0113 13.2242 74.2615 13.9645 74.2615 13.9645C74.2615 13.9645 74.3811 14.7364 73.4224 14.9691Z" fill="white"/>
<path d="M60.6443 25.393C59.642 25.6363 59.4789 24.8749 59.4789 24.8749C59.4789 24.8749 59.3594 24.1029 60.3181 23.8702C61.2332 23.6481 61.4835 24.3883 61.4835 24.3883C61.4835 24.3883 61.603 25.1603 60.6443 25.393Z" fill="white"/>
<path d="M67.9116 18.8856C66.9093 19.1289 66.7462 18.3676 66.7462 18.3676C66.7462 18.3676 66.6267 17.5956 67.5854 17.3629C68.5005 17.1407 68.7508 17.881 68.7508 17.881C68.7508 17.881 68.8703 18.6529 67.9116 18.8856Z" fill="white"/>
<path d="M98.6078 26.0909C95.4236 30.0585 92.4057 31.4727 83.2863 32.6867C74.1669 33.9008 66.9817 35.7011 60.6035 37.2252C54.2253 38.7493 53.6395 38.1523 46.9857 36.3381C41.9644 34.9692 41.0523 34.5054 40.9067 34.3601C41.4857 36.8954 42.3158 39.3935 45.8624 41.0588C49.4374 42.7375 60.7437 43.1474 70.4194 42.0987C80.095 41.05 94.476 35.7839 100.311 29.2616C102.377 26.9524 102.727 24.065 102.114 21.2729C101.327 22.633 100.185 24.1258 98.6078 26.0909Z" fill="white"/>
<path d="M90.3154 8.45411C78.1745 3.39608 60.7217 6.92153 51.3671 13.7231C45.3752 18.0796 39.1057 26.4188 40.8928 34.2989C41.4725 36.8551 42.2874 39.38 45.8624 41.0586C49.4375 42.7372 60.7437 43.1473 70.4194 42.0985C80.0951 41.0498 94.4761 35.7838 100.311 29.2614C104.048 25.0838 102.178 19.0126 99.1271 15.04C96.8362 12.057 93.7938 9.90324 90.3154 8.45411Z" stroke="#263238" stroke-miterlimit="10"/>
</svg>
