<svg width="170" height="170" viewBox="0 0 170 170" fill="none" xmlns="http://www.w3.org/2000/svg">
<path d="M94.6695 157.1C88.8079 154.326 86.4721 147.73 85.6459 141.586C85.5065 140.566 85.2141 139.505 85.5473 138.526C85.8805 137.547 86.9073 136.748 87.8933 137.023C88.7127 137.251 89.1921 138.074 89.7395 138.723C90.4676 139.599 91.4298 140.25 92.5139 140.6C93.2211 140.828 94.0609 140.899 94.6423 140.437C95.4379 139.801 95.3223 138.57 95.1591 137.557C94.8259 135.678 94.4995 133.799 94.1799 131.92C93.9495 130.917 93.8818 129.884 93.9793 128.86C94.1289 127.84 94.6763 126.82 95.5943 126.398C96.5123 125.977 97.8009 126.32 98.1715 127.279C98.2808 127.691 98.3626 128.11 98.4163 128.533C98.5149 128.952 98.7903 129.383 99.2085 129.434C99.6267 129.485 99.9905 129.128 100.246 128.778C101.116 127.578 101.606 126.14 102.048 124.715C102.49 123.291 102.904 121.839 103.666 120.56C104.428 119.282 105.59 118.18 107.029 117.84C108.467 117.5 110.167 118.146 110.769 119.51C111.37 120.873 110.789 122.468 110.089 123.78C109.025 125.723 107.686 127.503 106.114 129.064C105.8 129.314 105.574 129.656 105.468 130.043C105.363 130.757 106.117 131.321 106.828 131.43C107.624 131.553 108.433 131.335 109.239 131.294C110.044 131.253 110.959 131.457 111.387 132.154C111.976 133.12 111.292 134.354 110.561 135.214C109.093 136.928 107.341 138.377 105.383 139.498C104.683 139.896 103.938 140.27 103.425 140.896C102.911 141.521 102.704 142.494 103.187 143.147C103.669 143.799 104.645 143.871 105.4 143.592C106.155 143.313 106.784 142.773 107.481 142.368C108.786 141.606 110.602 141.396 111.7 142.45C112.043 142.818 112.295 143.261 112.437 143.744C112.579 144.226 112.608 144.735 112.52 145.231C112.339 146.218 111.961 147.158 111.408 147.995C109.647 151.022 107.115 153.528 104.071 155.257C101.028 156.923 98.0831 157.736 94.6729 157.104" fill="#F5F5F5"/>
<path d="M95.5977 153C96.0486 149.501 96.7002 146.03 97.5493 142.606L98.202 139.91C98.4162 139.023 98.6304 138.145 98.882 137.302C99.3904 135.684 99.9875 134.095 100.67 132.542C101.313 131.053 101.976 129.659 102.605 128.364C103.234 127.068 103.849 125.871 104.455 124.807C105.399 123.119 106.477 121.509 107.678 119.993C108.103 119.456 108.446 119.051 108.681 118.779C108.793 118.65 108.885 118.548 108.949 118.47C109.014 118.391 109.045 118.368 109.048 118.371C109.023 118.41 108.996 118.448 108.966 118.483L108.708 118.803C108.484 119.082 108.15 119.483 107.736 120.037C106.561 121.568 105.503 123.186 104.57 124.875C103.975 125.943 103.37 127.14 102.744 128.435C102.119 129.73 101.466 131.124 100.83 132.614C100.153 134.166 99.5629 135.755 99.0622 137.374C98.8004 138.213 98.5896 139.074 98.3822 139.971L97.7295 142.671C96.8823 146.088 96.2273 149.55 95.7677 153.041" fill="#E0E0E0"/>
<path d="M98.94 137.289C98.8663 137.156 98.8081 137.016 98.7666 136.87C98.6646 136.602 98.532 136.19 98.3756 135.711C98.0628 134.725 97.6752 133.348 97.2536 131.832C96.832 130.315 96.4274 128.945 96.0976 127.969C95.9344 127.48 95.7984 127.082 95.7032 126.813C95.646 126.674 95.6016 126.529 95.5706 126.381C95.6526 126.508 95.7199 126.644 95.7712 126.786C95.8902 127.048 96.0432 127.439 96.2234 127.922C96.5872 128.894 97.0122 130.257 97.4372 131.781C97.8622 133.304 98.2192 134.637 98.5048 135.67C98.6374 136.139 98.7462 136.534 98.8448 136.85C98.8893 136.993 98.9211 137.14 98.94 137.289Z" fill="#E0E0E0"/>
<path d="M111.571 132.644C111.407 132.713 111.236 132.764 111.061 132.797C110.721 132.882 110.255 133.004 109.67 133.174C108.497 133.514 106.896 134.018 105.152 134.664C103.407 135.31 101.854 135.966 100.732 136.469C100.174 136.717 99.7287 136.931 99.4193 137.078C99.2639 137.162 99.1011 137.233 98.9331 137.288C99.0737 137.18 99.2253 137.087 99.3853 137.01C99.6845 136.843 100.123 136.612 100.674 136.33C101.772 135.792 103.323 135.116 105.07 134.466C106.562 133.908 108.081 133.428 109.623 133.028C110.214 132.872 110.697 132.77 111.034 132.705C111.21 132.668 111.39 132.648 111.571 132.644Z" fill="#E0E0E0"/>
<path d="M95.7167 152.738C95.6732 152.694 95.6344 152.645 95.6011 152.592L95.2985 152.16C95.0367 151.779 94.6729 151.225 94.2343 150.532C93.3503 149.144 92.1943 147.189 90.9465 145.013C89.6987 142.837 88.5665 140.876 87.7063 139.475L86.6863 137.812L86.4143 137.36C86.3784 137.31 86.3498 137.255 86.3293 137.197C86.3293 137.197 86.3735 137.241 86.4449 137.34C86.5163 137.438 86.6285 137.598 86.7475 137.775C87.0093 138.152 87.3731 138.706 87.8151 139.403C88.6957 140.791 89.8551 142.742 91.1029 144.918C92.3507 147.094 93.4829 149.056 94.3397 150.46L95.3597 152.119C95.4685 152.3 95.5603 152.459 95.6317 152.572C95.6682 152.623 95.6969 152.679 95.7167 152.738Z" fill="#E0E0E0"/>
<path d="M112.098 144.221C112.05 144.263 111.996 144.297 111.938 144.323L111.466 144.575L109.711 145.489C108.229 146.265 106.196 147.356 103.952 148.549C101.708 149.743 99.6641 150.834 98.1715 151.575C97.4235 151.946 96.8115 152.255 96.3899 152.436L95.8799 152.66C95.8239 152.69 95.7646 152.713 95.7031 152.728C95.7517 152.687 95.8055 152.653 95.8629 152.626L96.3389 152.374L98.0933 151.456C99.5723 150.685 101.606 149.593 103.85 148.396C106.094 147.2 108.14 146.115 109.63 145.374C110.378 145.003 110.99 144.694 111.411 144.514L111.901 144.289C111.963 144.257 112.029 144.234 112.098 144.221Z" fill="#E0E0E0"/>
<path d="M52.1559 84.1192C52.1559 84.1192 48.1167 84.6802 50.3845 93.527C52.6523 102.374 54.5767 106.937 54.5767 106.937C54.5767 106.937 54.8793 108.939 53.2643 108.878C51.6493 108.817 48.3547 107.518 47.2361 109.249C46.0801 111.057 47.0933 113.233 49.6161 115.515C52.1389 117.796 57.5177 122.995 58.0005 123.467C58.4833 123.94 58.8369 124.912 57.7285 125.045C56.6201 125.178 48.7593 124.256 48.5485 128.013C48.3377 131.77 56.4399 136.965 57.3137 137.55C58.1875 138.135 58.3337 138.591 58.1297 139.101C57.9257 139.611 55.3213 139.05 53.0739 138.876C50.8265 138.703 48.1881 138.903 48.2459 141.079C48.3037 143.255 52.5605 148.763 64.9705 152.857L70.8491 154.377L75.1909 150.1C83.9289 140.379 84.8843 133.487 83.8541 131.57C82.8239 129.652 80.4541 130.791 78.5705 132.056C76.6869 133.321 74.7149 135.116 74.2933 134.776C73.8717 134.436 73.7629 133.967 74.2321 133.025C74.7013 132.083 79.1519 123.549 77.0983 120.394C75.0447 117.239 68.6799 121.937 67.6599 122.369C66.6399 122.801 66.4563 121.774 66.6399 121.135C66.8235 120.496 68.8975 113.315 69.9651 110.068C71.0327 106.821 70.8287 104.434 68.9247 103.441C67.0887 102.486 64.8821 105.26 63.5085 106.117C62.1349 106.974 61.4073 105.097 61.4073 105.097C61.4073 105.097 60.8089 100.184 58.3813 91.3782C55.9537 82.5722 52.0811 84.1498 52.0811 84.1498" fill="#EBEBEB"/>
<path d="M70.8458 155.839C69.088 149.379 66.1538 137.819 63.5868 127.894C61.0198 117.969 58.6874 109.021 56.9602 102.54C56.0966 99.3034 55.3962 96.6854 54.9202 94.8664C54.6822 93.9654 54.4952 93.2616 54.366 92.7788L54.2232 92.2348C54.1926 92.1124 54.1824 92.0479 54.1824 92.0479C54.1824 92.0479 54.2062 92.1057 54.2436 92.2281C54.281 92.3505 54.332 92.5374 54.4 92.7686C54.5394 93.2514 54.74 93.9484 54.9916 94.846C55.5016 96.6514 56.2224 99.2661 57.0996 102.503C58.8574 108.963 61.2136 117.942 63.7806 127.846C66.3476 137.751 69.258 149.321 70.9852 155.801" fill="#E0E0E0"/>
<path d="M51.7717 111.268C51.9075 111.324 52.0374 111.394 52.1593 111.475C52.4007 111.618 52.7475 111.836 53.1793 112.108C54.0259 112.655 55.1785 113.441 56.4331 114.328L59.6359 116.613L60.6117 117.293C60.7348 117.369 60.8488 117.459 60.9517 117.561C60.8146 117.506 60.6835 117.437 60.5607 117.354C60.3193 117.211 59.9725 116.994 59.5407 116.718C58.7009 116.164 57.5585 115.358 56.3039 114.474L53.0841 112.213L52.1049 111.533C51.9847 111.457 51.873 111.368 51.7717 111.268Z" fill="#E0E0E0"/>
<path d="M61.4448 117.279C61.4006 117.252 62.9136 114.808 64.821 111.819C66.7284 108.83 68.3162 106.43 68.3604 106.457C68.4046 106.484 66.8916 108.932 64.9808 111.921C63.07 114.91 61.489 117.3 61.4448 117.279Z" fill="#E0E0E0"/>
<path d="M64.7019 132.674C64.796 132.557 64.9045 132.452 65.0249 132.362L65.9395 131.559C66.7113 130.879 67.7755 129.941 68.9111 128.86C70.0467 127.778 71.0463 126.769 71.7603 126.031C72.1003 125.691 72.3791 125.388 72.6069 125.157C72.7099 125.043 72.8237 124.939 72.9469 124.848C72.8716 124.978 72.7802 125.098 72.6749 125.205C72.4913 125.426 72.2159 125.738 71.8691 126.119C71.1891 126.884 70.1963 127.914 69.0539 128.996C67.9115 130.077 66.8371 131.008 66.0415 131.661C65.6403 132.001 65.3139 132.246 65.0827 132.419C64.9656 132.518 64.8379 132.604 64.7019 132.674Z" fill="#E0E0E0"/>
<path d="M54.7568 129.163C54.8941 129.179 55.0288 129.212 55.158 129.261L56.2358 129.601C57.1402 129.89 58.388 130.302 59.7616 130.764C61.1352 131.226 62.3762 131.662 63.2704 131.985L64.3278 132.372C64.4595 132.413 64.5861 132.469 64.7052 132.539C64.5679 132.525 64.433 132.493 64.304 132.444L63.2262 132.104C62.3218 131.815 61.074 131.403 59.7004 130.937C58.3268 130.472 57.0858 130.04 56.1916 129.72L55.1342 129.329C55.0015 129.291 54.8746 129.235 54.7568 129.163Z" fill="#E0E0E0"/>
<path d="M55.9062 143.12C56.0812 143.146 56.2532 143.189 56.4197 143.249L57.8001 143.67C58.9629 144.034 60.5643 144.548 62.3323 145.129C64.1003 145.71 65.6949 146.241 66.8475 146.639L68.2075 147.115C68.3767 147.169 68.5415 147.236 68.7005 147.315C68.5243 147.289 68.3512 147.246 68.1837 147.186L66.8033 146.764C65.6405 146.401 64.0391 145.887 62.2711 145.306C60.5031 144.724 58.9085 144.191 57.7593 143.796L56.3993 143.317C56.2293 143.266 56.0643 143.2 55.9062 143.12Z" fill="#E0E0E0"/>
<path d="M68.4216 147.128C68.5413 146.981 68.6745 146.846 68.8194 146.724L69.9448 145.666C70.8934 144.772 72.199 143.531 73.6032 142.12C75.0074 140.709 76.2484 139.4 77.1392 138.448L78.1932 137.319C78.3173 137.175 78.4526 137.041 78.5978 136.918C78.4988 137.078 78.3849 137.228 78.2578 137.367C78.0266 137.649 77.6798 138.047 77.2378 138.536C76.3708 139.516 75.1468 140.842 73.7358 142.253C72.3248 143.664 71.0158 144.894 70.0366 145.765C69.547 146.197 69.1492 146.547 68.867 146.785C68.7284 146.911 68.5794 147.026 68.4216 147.128Z" fill="#E0E0E0"/>
<path d="M34.612 31.3612L31.2936 30.3412C31.2936 30.3412 30.4232 33.1292 27.5128 32.2758C26.9494 32.1207 26.4481 31.7942 26.0784 31.3416C25.7086 30.889 25.4887 30.3327 25.449 29.7496C25.4055 29.2579 25.4799 28.7629 25.6662 28.3058C25.8525 27.8487 26.1452 27.4426 26.52 27.1214C27.3734 26.3666 28.8694 25.9076 30.9808 26.999L33.3166 19.519L30.0356 18.499L28.6756 22.8816C28.6756 22.8816 23.698 22.6334 22.117 27.7028C20.604 32.5546 24.6024 35.04 26.4656 35.6214C27.88 36.0634 32.8474 37.233 34.612 31.3612Z" fill="#F5F5F5"/>
<path d="M30.48 16.9423L33.8101 17.9814L34.7803 14.8721L31.4503 13.833L30.48 16.9423Z" fill="#F5F5F5"/>
<path d="M43.7681 22.916L45.0975 22.576C45.0569 22.425 45.0471 22.2674 45.0686 22.1126C45.0902 21.9577 45.1426 21.8088 45.2229 21.6746C45.3031 21.5404 45.4095 21.4238 45.5357 21.3316C45.662 21.2393 45.8055 21.1734 45.9577 21.1378C46.1792 21.0709 46.416 21.0746 46.6353 21.1483C46.8546 21.222 47.0455 21.3621 47.1817 21.5492C47.2973 21.7045 47.3744 21.885 47.4069 22.0758C47.4394 22.2667 47.4263 22.4625 47.3687 22.6474C47.2429 23.0792 46.8383 23.5484 45.8999 23.6266L46.6921 26.622L48.0045 26.282L47.5421 24.5276C48.0398 24.2274 48.4249 23.7718 48.6381 23.2311C48.8513 22.6905 48.8808 22.0946 48.7219 21.5356C48.2119 19.5908 46.3419 19.601 45.6041 19.7948C45.0329 19.9274 43.1255 20.5768 43.7681 22.916Z" fill="#EBEBEB"/>
<path d="M48.4676 26.7187L47.1287 27.0776L47.4637 28.3276L48.8027 27.9687L48.4676 26.7187Z" fill="#EBEBEB"/>
<path d="M153.523 57.327L154.815 57.7928C154.87 57.6465 154.953 57.5125 155.059 57.3987C155.166 57.285 155.295 57.1937 155.437 57.1304C155.58 57.067 155.734 57.0328 155.89 57.0298C156.046 57.0268 156.201 57.055 156.345 57.1128C156.563 57.1828 156.754 57.3184 156.891 57.501C157.029 57.6836 157.107 57.9043 157.114 58.1328C157.122 58.3278 157.083 58.5219 157.002 58.6992C156.92 58.8765 156.798 59.032 156.645 59.1528C156.305 59.435 155.696 59.588 154.88 59.1188L153.823 62.0326L155.101 62.495L155.72 60.795C156.3 60.8309 156.876 60.6754 157.36 60.3524C157.843 60.0293 158.207 59.5565 158.396 59.0066C159.076 57.1162 157.542 56.0656 156.818 55.8038C156.264 55.5862 154.326 55.0388 153.523 57.327Z" fill="#EBEBEB"/>
<path d="M154.91 63.0858L153.612 62.6157L153.173 63.8273L154.471 64.2974L154.91 63.0858Z" fill="#EBEBEB"/>
<path d="M16.4083 72.124L19.1283 71.07C19.1283 71.07 18.2443 68.775 20.6141 67.8128C21.0677 67.6209 21.5696 67.5745 22.0507 67.6798C22.5318 67.7852 22.9683 68.0371 23.3001 68.401C23.5825 68.7036 23.7894 69.0685 23.904 69.4662C24.0186 69.8638 24.0377 70.2828 23.9597 70.6892C23.7897 71.6344 23.0417 72.7292 21.0731 73.1066L23.4531 79.2708L26.1731 78.2304L24.7791 74.6196C24.7791 74.6196 28.1791 72.1784 26.5845 67.9964C25.0375 63.998 21.0799 64.4536 19.5601 65.0418C18.3871 65.494 14.4975 67.3198 16.4083 72.124Z" fill="#F5F5F5"/>
<path d="M26.6885 79.4852L23.9441 80.5425L24.9317 83.106L27.6761 82.0487L26.6885 79.4852Z" fill="#F5F5F5"/>
<path d="M154.588 82.4976L152.65 83.2422C152.65 83.2422 153.275 84.8708 151.596 85.5508C151.274 85.6852 150.919 85.7175 150.578 85.6433C150.238 85.5691 149.928 85.392 149.692 85.136C149.492 84.9216 149.345 84.6629 149.264 84.381C149.183 84.0991 149.17 83.8021 149.226 83.5142C149.348 82.8342 149.879 82.0726 151.266 81.8142L149.6 77.4316L147.682 78.1694L148.668 80.7296C147.971 81.2635 147.467 82.0119 147.236 82.8596C147.005 83.7074 147.059 84.6076 147.39 85.4216C148.481 88.2538 151.276 87.9342 152.364 87.516C153.187 87.193 155.941 85.901 154.588 82.4976Z" fill="#F5F5F5"/>
<path d="M147.303 77.281L149.248 76.5317L148.549 74.717L146.604 75.4663L147.303 77.281Z" fill="#F5F5F5"/>
<path d="M49.3239 68.4694H68.9589C68.9589 68.4694 68.9589 51.9828 86.0915 51.6904C94.9893 51.534 99.6031 57.365 101.48 61.8292C103.656 67.0142 102.996 72.9234 100.079 77.7344C96.7505 83.2254 89.5765 88.7436 76.3437 86.4112L76.2179 130.159H95.6353V104.224C95.6353 104.224 122.866 97.1858 122.866 67.1638C122.866 38.4508 99.6473 32.2492 87.1659 31.848C80.2231 31.627 77.7071 31.3278 69.1187 32.5484C58.1741 34.1124 49.0927 46.8216 49.3239 68.4694Z" fill="#F58F00"/>
<path d="M95.8697 139.278H76.1633V157.682H95.8697V139.278Z" fill="#F58F00"/>
<path opacity="0.1" d="M95.8697 139.278H76.1633V157.682H95.8697V139.278Z" fill="black"/>
<path opacity="0.1" d="M49.3239 68.4694H68.9589C68.9589 68.4694 68.9589 51.9828 86.0915 51.6904C94.9893 51.534 99.6031 57.365 101.48 61.8292C103.656 67.0142 102.996 72.9234 100.079 77.7344C96.7505 83.2254 89.5765 88.7436 76.3437 86.4112L76.2179 130.159H95.6353V104.224C95.6353 104.224 122.866 97.1858 122.866 67.1638C122.866 38.4508 99.6473 32.2492 87.1659 31.848C80.2231 31.627 77.7071 31.3278 69.1187 32.5484C58.1741 34.1124 49.0927 46.8216 49.3239 68.4694Z" fill="black"/>
<path d="M41.1876 68.4692H60.826C60.826 68.4692 60.826 51.9826 77.9586 51.6902C86.8564 51.5338 91.4702 57.3648 93.3436 61.829C95.523 67.014 94.8634 72.9232 91.9462 77.7342C88.6176 83.2252 81.3178 88.2164 68.085 85.8942V130.159H87.5024V104.224C87.5024 104.224 114.733 97.1856 114.733 67.1636C114.733 38.4506 88.9814 31.7832 77.962 31.7832C69.5334 31.7934 40.817 33.83 41.1876 68.4692Z" fill="#F58F00"/>
<path opacity="0.3" d="M41.1876 68.4692H60.826C60.826 68.4692 60.826 51.9826 77.9586 51.6902C86.8564 51.5338 91.4702 57.3648 93.3436 61.829C95.523 67.014 94.8634 72.9232 91.9462 77.7342C88.6176 83.2252 81.3178 88.2164 68.085 85.8942V130.159H87.5024V104.224C87.5024 104.224 114.733 97.1856 114.733 67.1636C114.733 38.4506 88.9814 31.7832 77.962 31.7832C69.5334 31.7934 40.817 33.83 41.1876 68.4692Z" fill="black"/>
<path d="M87.7369 139.278H68.0305V157.682H87.7369V139.278Z" fill="#F58F00"/>
<path opacity="0.3" d="M87.7369 139.278H68.0305V157.682H87.7369V139.278Z" fill="black"/>
<path d="M80.1755 51.7788C80.0782 51.7872 79.9804 51.7872 79.8831 51.7788C79.6893 51.7788 79.4105 51.7142 79.0467 51.7108C78.0181 51.6603 76.987 51.7035 75.9663 51.84C74.4526 52.0316 72.9632 52.3815 71.5225 52.8838C70.6732 53.1807 69.8461 53.5374 69.0473 53.9514C68.1839 54.3829 67.3709 54.9085 66.6231 55.5188C65.8804 56.1346 65.2149 56.8378 64.6409 57.6132C64.0968 58.3301 63.6005 59.082 63.1551 59.864C62.4115 61.1959 61.8218 62.6081 61.3973 64.0732C61.1095 65.062 60.9115 66.0748 60.8057 67.0992C60.7649 67.4596 60.7547 67.7452 60.7445 67.9356C60.7447 68.0337 60.7356 68.1316 60.7173 68.228C60.7085 68.1307 60.7085 68.0329 60.7173 67.9356C60.7173 67.7418 60.7173 67.4562 60.7479 67.0924C60.8261 66.057 61.0071 65.0319 61.2885 64.0324C61.6974 62.5503 62.2794 61.1216 63.0225 59.7756C63.4688 58.985 63.9674 58.2251 64.5151 57.501C65.0939 56.713 65.7676 55.9992 66.5211 55.376C67.2779 54.7573 68.1013 54.2248 68.9759 53.7882C69.7796 53.3666 70.6125 53.003 71.4681 52.7002C72.9219 52.1998 74.4255 51.8578 75.9527 51.6802C76.9802 51.554 78.0178 51.53 79.0501 51.6088C79.3306 51.6268 79.6099 51.6608 79.8865 51.7108C79.9843 51.7267 80.0809 51.7494 80.1755 51.7788Z" fill="#263238"/>
<path d="M109.762 48.2802C109.762 48.2802 109.738 48.2564 109.698 48.2054C109.657 48.1544 109.596 48.066 109.528 47.9674L108.878 47.0494C108.739 46.8522 108.589 46.6244 108.412 46.3898L107.8 45.6452L107.1 44.785C106.845 44.4858 106.546 44.1968 106.247 43.8806C105.947 43.5644 105.641 43.2278 105.295 42.9048C104.948 42.5818 104.577 42.252 104.196 41.912C104.006 41.742 103.819 41.572 103.615 41.3918L102.983 40.892C102.551 40.552 102.122 40.212 101.657 39.872C99.6263 38.4194 97.4727 37.1475 95.2204 36.0708L93.4286 35.2616L91.6504 34.5816C91.069 34.3402 90.4774 34.1702 89.9062 33.9798C89.335 33.7894 88.7774 33.5956 88.2062 33.463L86.581 33.038C86.054 32.8986 85.5304 32.8136 85.0306 32.698C84.5308 32.5824 84.048 32.4804 83.5754 32.4226L82.2154 32.2254C81.3552 32.0792 80.5664 32.0486 79.8796 31.9806C79.5396 31.9534 79.1996 31.916 78.9174 31.9024L78.1082 31.882L76.9862 31.8446H76.6938H76.5952C76.6279 31.8395 76.6611 31.8395 76.6938 31.8446H76.9862H78.1082H78.9208C79.2166 31.8446 79.5396 31.8854 79.8864 31.9092C80.5664 31.967 81.3688 31.9908 82.229 32.1302L83.589 32.3138C84.0616 32.3682 84.5444 32.4906 85.0476 32.5824C85.5508 32.6742 86.0676 32.7694 86.6082 32.9224L88.2402 33.344C88.8046 33.4732 89.3622 33.684 89.9402 33.8574C90.5182 34.0308 91.1064 34.1974 91.6878 34.4558L93.4762 35.1358L95.2782 35.9484C97.5424 37.0276 99.7045 38.3089 101.738 39.7768C102.207 40.1168 102.636 40.4806 103.068 40.8172L103.7 41.2762C103.904 41.4462 104.091 41.6162 104.281 41.7998L105.376 42.8198C105.716 43.1598 106.022 43.4998 106.325 43.8092C106.627 44.1186 106.916 44.4212 107.171 44.7238L107.851 45.5908L108.457 46.3456C108.63 46.5836 108.776 46.8148 108.912 47.0256C109.177 47.4234 109.385 47.7362 109.531 47.9606L109.691 48.2088C109.718 48.2295 109.742 48.2535 109.762 48.2802Z" fill="#263238"/>
<path d="M107.715 90.4399C107.675 90.5135 107.626 90.582 107.569 90.6439L107.1 91.1981C106.906 91.4463 106.661 91.7421 106.359 92.0719C106.056 92.4017 105.733 92.7893 105.339 93.1905C104.944 93.5917 104.523 94.0405 104.043 94.4927C103.564 94.9449 103.044 95.4209 102.49 95.9173C100.059 98.039 97.3941 99.8766 94.5471 101.395C93.8875 101.735 93.2653 102.075 92.6635 102.337C92.0617 102.598 91.5007 102.867 90.9839 103.085C90.4671 103.302 89.9911 103.482 89.5763 103.642C89.1615 103.802 88.7977 103.931 88.4985 104.026L87.8185 104.247C87.7396 104.279 87.6575 104.302 87.5737 104.315C87.647 104.273 87.7245 104.239 87.8049 104.213L88.4849 103.962C88.7807 103.856 89.1377 103.72 89.5491 103.55C89.9605 103.38 90.4365 103.21 90.9465 102.969C91.4565 102.728 92.0209 102.5 92.6091 102.204C93.1973 101.908 93.8263 101.595 94.4825 101.252C95.7779 100.538 97.1753 99.7015 98.5863 98.7359C99.9973 97.7703 101.266 96.7537 102.394 95.7949C102.949 95.3053 103.479 94.8463 103.952 94.3839C104.424 93.9215 104.866 93.5033 105.257 93.1021C105.648 92.7009 105.992 92.3303 106.298 92.0039C106.604 91.6775 106.855 91.3919 107.059 91.1539L107.535 90.6133C107.59 90.5508 107.651 90.4928 107.715 90.4399Z" fill="#263238"/>
<path d="M87.1589 128.615C87.1079 128.615 87.0671 123.155 87.0671 116.419C87.0671 109.684 87.1079 104.22 87.1589 104.22C87.2099 104.22 87.2473 109.681 87.2473 116.419C87.2473 123.158 87.2065 128.615 87.1589 128.615Z" fill="#263238"/>
<path d="M87.907 156.434C87.856 156.434 87.8186 152.602 87.8186 147.876C87.8186 143.15 87.856 139.315 87.907 139.315C87.958 139.315 87.9954 143.147 87.9954 147.876C87.9954 152.606 87.9546 156.434 87.907 156.434Z" fill="#263238"/>
<path d="M107.236 65.8615C106.896 66.5415 108.164 67.0991 108.895 67.3201C109.641 67.5031 110.413 67.5561 111.177 67.4765C112.197 67.4221 113.24 67.3269 114.121 66.8237C114.892 66.3459 115.509 65.6551 115.896 64.8347C116.278 64.0169 116.579 63.164 116.797 62.2881C116.797 62.2881 108.763 62.8117 107.236 65.8615Z" fill="#F58F00"/>
<g opacity="0.4">
<path d="M107.236 65.8615C106.896 66.5415 108.164 67.0991 108.895 67.3201C109.641 67.5031 110.413 67.5561 111.177 67.4765C112.197 67.4221 113.24 67.3269 114.121 66.8237C114.892 66.3459 115.509 65.6551 115.896 64.8347C116.278 64.0169 116.579 63.164 116.797 62.2881C116.797 62.2881 108.763 62.8117 107.236 65.8615Z" fill="black"/>
</g>
<path d="M129.928 63.6856C131.252 64.6251 132.839 65.1224 134.463 65.1068C135.242 65.1502 136.009 64.9084 136.622 64.4268C136.884 64.1854 137.081 63.8794 137.35 63.6482C137.533 63.4918 137.748 63.3728 137.921 63.2062C138.013 63.1274 138.083 63.0272 138.126 62.9144C138.17 62.8017 138.184 62.68 138.169 62.5602C138.102 62.2649 137.937 62.0012 137.7 61.8122C136.779 61.2886 135.677 61.309 134.616 61.3328C133.555 61.3787 132.506 61.5839 131.505 61.9414C130.682 62.2202 129.822 62.6214 129.404 63.3694" fill="#F58F00"/>
<g opacity="0.4">
<path d="M138.169 62.5598C138.049 62.273 137.837 62.034 137.567 61.8798C136.646 61.3562 135.677 61.3086 134.616 61.3324C133.555 61.3784 132.506 61.5835 131.505 61.941C130.682 62.2198 129.822 62.621 129.404 63.369L129.928 63.6852C131.252 64.6247 132.839 65.1221 134.463 65.1064C135.242 65.1498 136.009 64.908 136.622 64.4264C136.884 64.185 137.081 63.879 137.35 63.6478C137.533 63.4914 137.748 63.3724 137.921 63.2058C138.013 63.127 138.083 63.0268 138.126 62.9141C138.17 62.8013 138.184 62.6796 138.169 62.5598Z" fill="black"/>
</g>
<path d="M114.24 75.8877L131.189 76.1121C131.223 76.1121 131.257 76.1039 131.288 76.0883C131.319 76.0727 131.346 76.0501 131.366 76.0224C131.387 75.9946 131.4 75.9625 131.406 75.9284C131.412 75.8944 131.41 75.8595 131.4 75.8265L129.411 69.6249C129.411 69.6249 129.703 66.5241 130.108 62.7977C130.723 57.1367 131.543 50.0205 131.553 50.0409C130.393 46.7905 123.553 46.2397 123.553 46.2397L115.756 46.7021L115.484 46.2431L113.24 47.2869C112.751 47.5146 112.28 47.7807 111.833 48.0825C110.35 49.0719 106.78 51.3465 106.128 53.8795C104.621 59.7445 107.171 66.2895 107.171 66.2895L108.81 65.0077C109.223 64.6897 109.657 64.4 110.109 64.1407L113.393 72.9433C113.198 73.0666 113.032 73.2318 112.909 73.4271C112.785 73.6224 112.707 73.8427 112.679 74.0721C112.652 74.7861 113.019 75.6429 114.24 75.8877Z" fill="#F58F00"/>
<g opacity="0.3">
<path d="M121.513 65.5112C122.05 62.6212 121.768 59.6496 121.479 56.7256C120.54 59.1056 120.574 61.8256 119.578 64.1852C119.456 64.4344 119.367 64.6984 119.313 64.9706C119.287 65.1073 119.294 65.2482 119.333 65.3818C119.372 65.5153 119.442 65.6377 119.537 65.739C119.809 65.9872 120.217 65.8512 120.578 65.8104C120.9 65.7488 121.214 65.6484 121.513 65.5112Z" fill="black"/>
</g>
<g opacity="0.4">
<path d="M115.26 72.2024C116.62 72.675 118.068 71.7944 119.506 71.638C120.458 71.536 121.41 71.7536 122.356 71.9066C124.267 72.2158 126.211 72.2639 128.136 72.0494C128.431 72.0332 128.72 71.9581 128.986 71.8284C129.123 71.7348 129.235 71.6091 129.313 71.4621C129.391 71.3151 129.431 71.1514 129.431 70.9852C126.228 70.6452 123.029 70.4616 119.826 70.1318C119.029 69.9958 118.212 70.0224 117.426 70.21C116.46 70.5092 115.726 71.2674 115.046 72.0188" fill="black"/>
</g>
<path d="M137.68 61.4448C136.296 58.327 131.417 49.7046 131.417 49.7046L127.639 54.4408L128.52 63.7398C128.52 63.7398 130.516 61.5128 136.095 61.4686C136.501 61.4848 136.897 61.5915 137.256 61.781C137.615 61.9704 137.927 62.2377 138.169 62.5634L137.68 61.4448Z" fill="#F58F00"/>
<path d="M114.998 59.7956C114.729 59.1346 114.515 58.4522 114.359 57.7556C114.148 57.0771 113.993 56.3823 113.896 55.6782C114.162 56.3403 114.375 57.0225 114.532 57.7182C114.743 58.3969 114.899 59.0917 114.998 59.7956Z" fill="#263238"/>
<path d="M127.354 53.812C127.477 53.8989 127.591 53.998 127.694 54.1078C127.994 54.3979 128.276 54.7068 128.537 55.0326C129.416 56.1073 130.034 57.3712 130.342 58.725C130.502 59.4734 130.538 60.243 130.448 61.003C130.363 61.7 130.23 62.312 130.142 62.8288C130.053 63.3456 129.999 63.7672 129.972 64.0596C129.971 64.2116 129.955 64.363 129.924 64.5118C129.9 64.3601 129.893 64.2061 129.904 64.0528C129.919 63.6362 129.957 63.2207 130.019 62.8084C130.091 62.2882 130.21 61.6694 130.288 60.986C130.367 60.2432 130.327 59.4926 130.169 58.7624C129.865 57.4339 129.274 56.1877 128.438 55.1108C127.816 54.2744 127.327 53.8392 127.354 53.812Z" fill="#263238"/>
<path d="M123.893 75.1398C123.774 75.1924 123.65 75.229 123.522 75.2486C123.377 75.2869 123.229 75.3153 123.08 75.3336C122.907 75.3574 122.709 75.3948 122.488 75.405C121.97 75.4525 121.449 75.4525 120.931 75.405C120.297 75.3398 119.671 75.2146 119.061 75.031C118.454 74.8359 117.867 74.5843 117.307 74.2796C116.853 74.0262 116.422 73.7338 116.018 73.4058C115.841 73.2698 115.699 73.127 115.569 73.008C115.458 72.9076 115.352 72.8009 115.253 72.6884C115.159 72.6009 115.077 72.5001 115.012 72.3892C115.036 72.3654 115.399 72.7734 116.096 73.3072C116.503 73.617 116.934 73.8944 117.385 74.1368C117.939 74.4277 118.517 74.67 119.112 74.861C119.712 75.0416 120.326 75.169 120.948 75.2418C121.456 75.2964 121.968 75.3124 122.478 75.2894C123.352 75.2418 123.886 75.1126 123.893 75.1398Z" fill="#263238"/>
<path d="M129.125 73.209C129.205 73.3627 129.25 73.5322 129.258 73.7054C129.312 74.1199 129.281 74.541 129.166 74.943C129.049 75.3541 128.812 75.7211 128.486 75.997C128.238 76.2044 128.047 76.269 128.037 76.252C128.027 76.235 128.187 76.1228 128.401 75.912C128.676 75.6252 128.876 75.2748 128.982 74.892C129.254 73.9944 129.06 73.2124 129.125 73.209Z" fill="#263238"/>
<path d="M128.204 74.4058C128.278 74.7555 128.248 75.1191 128.119 75.4523C127.99 75.7855 127.766 76.074 127.476 76.2826C127.439 76.2452 127.755 75.9086 127.952 75.3884C128.149 74.8682 128.153 74.4092 128.204 74.4058Z" fill="#263238"/>
<path d="M125.171 63.2197C124.991 63.5243 124.788 63.8152 124.566 64.0901C124.39 64.3972 124.191 64.6905 123.971 64.9673C124.036 64.6085 124.19 64.2718 124.42 63.9881C124.601 63.6724 124.859 63.408 125.171 63.2197Z" fill="#263238"/>
<path d="M113.536 54.9849C113.277 54.8327 113.026 54.667 112.785 54.4885C111.576 53.694 110.203 53.1816 108.769 52.9891C108.469 52.9672 108.171 52.9275 107.875 52.8701C108.176 52.8285 108.482 52.8285 108.783 52.8701C110.256 52.9958 111.667 53.5213 112.863 54.3899C113.114 54.556 113.341 54.7563 113.536 54.9849Z" fill="#263238"/>
<path d="M131.417 49.5923C130.808 50.0823 130.24 50.6201 129.717 51.2005C129.235 51.8199 128.804 52.4771 128.428 53.1657C128.468 52.9341 128.548 52.7111 128.663 52.5061C128.909 51.9963 129.217 51.5189 129.581 51.0849C129.945 50.6517 130.364 50.2667 130.825 49.9391C131.001 49.7903 131.201 49.6729 131.417 49.5923Z" fill="#263238"/>
<path d="M124.42 46.791C124.45 46.8401 124.476 46.8925 124.494 46.9474C124.561 47.1014 124.614 47.2606 124.654 47.4234C124.798 48.0293 124.798 48.6603 124.654 49.2662C124.443 50.1707 123.958 50.9884 123.267 51.6088C122.394 52.3481 121.282 52.7445 120.139 52.724C118.994 52.728 117.879 52.3618 116.96 51.6802C116.227 51.1209 115.633 50.4009 115.223 49.5756C114.946 49.023 114.751 48.4332 114.645 47.8246C114.613 47.6607 114.593 47.4948 114.583 47.3282C114.574 47.2697 114.574 47.21 114.583 47.1514C114.583 47.1514 114.621 47.3894 114.716 47.811C114.848 48.4024 115.057 48.974 115.338 49.511C115.753 50.3114 116.342 51.0085 117.062 51.551C117.948 52.2071 119.02 52.5643 120.122 52.571C121.224 52.5913 122.297 52.2148 123.145 51.5102C123.812 50.9126 124.286 50.1287 124.505 49.2594C124.656 48.6727 124.677 48.0599 124.566 47.4642C124.501 47.0154 124.399 46.7978 124.42 46.791Z" fill="#263238"/>
<g opacity="0.3">
<path d="M125.61 63.8216C125.61 63.6516 125.582 63.451 125.433 63.366C125.385 63.342 125.333 63.3296 125.28 63.3296C125.227 63.3296 125.174 63.342 125.127 63.366C125.032 63.4174 124.947 63.4866 124.879 63.57C124.479 63.9859 124.17 64.4803 123.971 65.0218L125.637 64.8756C125.627 64.5322 125.62 64.1718 125.61 63.8216Z" fill="black"/>
</g>
<g opacity="0.3">
<path d="M131.141 60.3159C130.974 59.3626 130.556 58.4708 129.931 57.7319C130.652 60.0847 130.41 61.4141 130.006 63.0257L130.094 62.8013C130.56 61.8595 131.267 61.2679 131.141 60.3159Z" fill="black"/>
</g>
<path d="M127.813 139.352L126.796 154.601L120.166 154.523L119.122 138.669L127.813 139.352Z" fill="#FFBE9D"/>
<path d="M126.983 152.595V153.037C126.983 153.037 134.463 156.043 134.535 157.457L119.68 157.376L119.911 152.436C122.125 153.473 124.44 153.602 126.983 152.595Z" fill="#F58F00"/>
<path d="M121.417 154.02C121.276 154.063 121.156 154.155 121.078 154.28C121.001 154.406 120.971 154.555 120.996 154.7C121.032 154.845 121.123 154.97 121.25 155.05C121.377 155.129 121.529 155.156 121.676 155.125C121.827 155.08 121.956 154.98 122.038 154.845C122.119 154.71 122.148 154.549 122.118 154.394C122.064 154.247 121.955 154.127 121.814 154.059C121.673 153.991 121.511 153.981 121.363 154.03" fill="white"/>
<path d="M119.68 157.376L119.734 156.189L133.96 156.706C133.96 156.706 134.62 156.998 134.541 157.461L119.68 157.376Z" fill="#263238"/>
<path d="M127.038 153.078C127.038 153.15 126.67 153.18 126.313 153.418C125.956 153.656 125.763 153.952 125.698 153.925C125.633 153.898 125.742 153.476 126.181 153.204C126.619 152.932 127.055 153 127.038 153.078Z" fill="#263238"/>
<path d="M128.591 153.731C128.608 153.802 128.292 153.921 128.044 154.227C127.796 154.533 127.724 154.856 127.65 154.853C127.575 154.85 127.534 154.438 127.85 154.068C128.166 153.697 128.588 153.68 128.591 153.731Z" fill="#263238"/>
<path d="M129.465 155.601C129.397 155.601 129.298 155.261 129.489 154.856C129.679 154.452 130.016 154.305 130.046 154.363C130.077 154.421 129.866 154.635 129.706 154.965C129.547 155.295 129.54 155.594 129.465 155.601Z" fill="#263238"/>
<path d="M126.602 27.829C126.987 26.877 126.521 25.7244 125.695 25.109C124.824 24.5358 123.762 24.3293 122.74 24.5344C121.732 24.7458 120.755 25.0887 119.836 25.5544C119.409 25.1234 118.87 24.8197 118.28 24.6771C117.69 24.5346 117.072 24.5588 116.495 24.7471C115.918 24.9355 115.405 25.2805 115.013 25.7436C114.621 26.2068 114.365 26.7699 114.274 27.37C113.906 27.2775 113.52 27.2868 113.158 27.3969C112.795 27.5071 112.469 27.7139 112.215 27.9952C111.961 28.2766 111.788 28.6218 111.716 28.9938C111.643 29.3658 111.673 29.7507 111.802 30.107L116.399 31.722L121.417 40.562C122.159 41.1947 123.106 41.5361 124.08 41.5222C125.055 41.5084 125.992 41.1404 126.715 40.4869C127.439 39.8334 127.9 38.939 128.012 37.9706C128.125 37.0022 127.881 36.0259 127.327 35.224C127.608 34.9739 127.847 34.68 128.034 34.3536C128.435 34.1164 128.785 33.8019 129.063 33.4284C129.341 33.0548 129.543 32.6297 129.656 32.1776C130.101 30.209 128.578 28.0602 126.602 27.829Z" fill="#263238"/>
<path d="M123.559 46.2398C123.274 44.8016 123.076 43.8156 123.08 43.8258C123.083 43.836 125.8 42.7718 125.603 38.9876C125.507 37.104 124.79 34.1358 124.124 31.7286C123.525 29.5594 121.502 27.1692 119.364 27.8594L112.88 31.0214C112.23 31.2322 112.118 31.8442 112.271 32.5072V32.8472L114.791 43.2716L115.855 47.9296C116.082 48.886 116.658 49.7229 117.471 50.2754C118.284 50.8279 119.275 51.056 120.248 50.9148C120.779 50.8401 121.289 50.6576 121.748 50.3785C122.206 50.0994 122.602 49.7296 122.912 49.2918C123.222 48.854 123.44 48.3575 123.551 47.8326C123.662 47.3078 123.665 46.7658 123.559 46.2398Z" fill="#FFBE9D"/>
<path d="M124.1 34.2448C124.127 34.3655 124.107 34.492 124.044 34.5983C123.981 34.7045 123.879 34.7825 123.76 34.816C123.7 34.8328 123.637 34.8373 123.575 34.8291C123.513 34.821 123.454 34.8004 123.4 34.7686C123.346 34.7369 123.3 34.6946 123.263 34.6443C123.226 34.594 123.2 34.5368 123.185 34.476C123.158 34.3558 123.178 34.2298 123.242 34.1241C123.305 34.0183 123.407 33.941 123.525 33.9082C123.585 33.8909 123.648 33.886 123.71 33.8937C123.772 33.9014 123.831 33.9216 123.885 33.9531C123.939 33.9846 123.986 34.0267 124.023 34.0768C124.059 34.127 124.086 34.1842 124.1 34.2448Z" fill="#263238"/>
<path d="M123.804 33.5206C123.757 33.5954 123.345 33.4084 122.842 33.5206C122.339 33.6328 122.019 33.9592 121.951 33.9082C121.883 33.8572 121.951 33.762 122.091 33.6124C122.278 33.4148 122.521 33.2794 122.788 33.2248C123.051 33.1681 123.325 33.1979 123.57 33.3098C123.76 33.388 123.825 33.49 123.804 33.5206Z" fill="#263238"/>
<path d="M119.163 35.3602C119.19 35.4804 119.17 35.6065 119.107 35.7122C119.043 35.8179 118.942 35.8952 118.823 35.928C118.764 35.9451 118.703 35.9504 118.642 35.9435C118.581 35.9367 118.522 35.9179 118.469 35.8881C118.416 35.8584 118.369 35.8184 118.331 35.7704C118.293 35.7224 118.265 35.6673 118.248 35.6084C118.221 35.4878 118.241 35.3613 118.305 35.255C118.368 35.1487 118.469 35.0708 118.588 35.0372C118.647 35.0202 118.709 35.0151 118.77 35.0221C118.831 35.0292 118.89 35.0483 118.943 35.0784C118.997 35.1084 119.044 35.1488 119.082 35.1972C119.119 35.2456 119.147 35.301 119.163 35.3602Z" fill="#263238"/>
<path d="M118.915 34.7206C118.871 34.7954 118.456 34.605 117.953 34.7206C117.45 34.8362 117.13 35.1558 117.062 35.1082C116.994 35.0606 117.062 34.962 117.201 34.809C117.389 34.6132 117.632 34.4791 117.898 34.4248C118.161 34.369 118.435 34.3975 118.68 34.5064C118.861 34.588 118.939 34.6798 118.915 34.7206Z" fill="#263238"/>
<path d="M121.475 37.9169C121.725 37.7794 121.989 37.6721 122.264 37.5973C122.39 37.5566 122.509 37.5055 122.512 37.4137C122.494 37.2785 122.436 37.1518 122.346 37.0499L121.757 36.1455C120.935 34.8569 120.309 33.7893 120.36 33.7655C120.411 33.7417 121.122 34.7515 121.944 36.0401L122.519 36.9513C122.632 37.0908 122.693 37.2649 122.692 37.4443C122.682 37.4933 122.662 37.5393 122.632 37.5793C122.602 37.6193 122.563 37.6521 122.519 37.6755C122.453 37.7108 122.382 37.7371 122.308 37.7537C122.039 37.8458 121.759 37.9007 121.475 37.9169Z" fill="#263238"/>
<path d="M123.08 43.8262C121.36 44.2148 119.566 44.1183 117.898 43.5474C117.898 43.5474 119.68 45.873 123.274 44.7612L123.08 43.8262Z" fill="#EB996E"/>
<path d="M119 34.0001C118.966 34.1463 118.446 34.1429 117.854 34.2891C117.263 34.4353 116.793 34.6563 116.698 34.5407C116.657 34.4863 116.725 34.3435 116.906 34.2007C117.145 33.9989 117.43 33.8578 117.735 33.7893C118.038 33.7174 118.354 33.7174 118.657 33.7893C118.898 33.8335 119.024 33.9321 119 34.0001Z" fill="#263238"/>
<path d="M123.61 31.9156C123.529 32.0516 123.094 32.0175 122.59 32.1161C122.087 32.2147 121.689 32.3847 121.57 32.2861C121.516 32.2351 121.57 32.1059 121.717 31.9461C121.941 31.7573 122.213 31.6328 122.502 31.5858C122.787 31.5284 123.082 31.5495 123.355 31.647C123.563 31.7422 123.644 31.8476 123.61 31.9156Z" fill="#263238"/>
<path d="M114.481 28.5874C114.557 28.9557 114.712 29.303 114.937 29.6044C115.161 29.9059 115.449 30.1542 115.781 30.3318C116.112 30.5093 116.479 30.6117 116.854 30.6316C117.229 30.6516 117.604 30.5886 117.953 30.4472C118.49 30.2296 119.048 29.8216 119.592 30.0188C120.136 30.216 120.36 30.9912 120.88 31.2802C121.645 31.7086 122.58 30.9674 123.434 31.0422C124.114 31.1 124.627 31.6202 125.154 32.0622C125.681 32.5042 126.409 32.8374 127.004 32.5178C126.867 31.95 126.665 31.4 126.402 30.879C126.136 30.3545 125.696 29.9386 125.157 29.7026C124.858 29.5836 124.535 29.5428 124.25 29.3966C123.634 29.0838 123.359 28.3766 122.913 27.8428C122.621 27.5064 122.252 27.2446 121.838 27.079C121.425 26.9135 120.977 26.849 120.533 26.8908C119.799 26.9656 119.102 27.3362 118.361 27.3056C117.813 27.2818 117.29 27.037 116.742 27.0472C115.678 27.0472 114.879 27.9992 114.288 28.8866" fill="#263238"/>
<path d="M118.065 29.3655C117.575 29.3281 116.576 29.2261 116.246 28.8793C115.911 28.5046 115.483 28.2244 115.006 28.0669C114.529 27.9094 114.018 27.88 113.526 27.9817C113.037 28.1274 112.609 28.426 112.303 28.8336C111.997 29.2413 111.829 29.7364 111.826 30.2461C111.231 30.3913 110.686 30.6945 110.25 31.1235C109.813 31.5526 109.5 32.0917 109.344 32.6839C109.186 33.3039 109.18 33.953 109.328 34.5754C109.476 35.1979 109.774 35.7751 110.194 36.2573C110.398 36.5127 110.585 36.782 110.752 37.0631C110.521 37.3491 110.318 37.6565 110.146 37.9811C109.368 39.7015 111.479 40.3611 111.479 40.3611C111.479 41.5171 112.55 41.5103 113.234 41.5069C113.917 41.5035 114.294 43.3293 114.828 43.2579L114.288 37.6241C114.367 37.6549 114.451 37.6711 114.536 37.6717C115.824 37.6955 115.488 35.2543 115.073 34.6117C115.457 34.1338 115.781 33.6109 116.039 33.0545C116.272 32.204 116.288 31.3086 116.086 30.4501C116.518 30.3957 118.276 29.3791 118.065 29.3655Z" fill="#263238"/>
<path d="M114.458 37.9237C114.414 37.7447 114.325 37.5797 114.2 37.4442C114.075 37.3086 113.918 37.2069 113.743 37.1485C113.569 37.0901 113.382 37.0769 113.201 37.1102C113.019 37.1435 112.849 37.2222 112.707 37.3389C112.367 37.6313 112.186 38.1209 112.39 38.9403C112.941 41.1299 115.025 40.1269 115.012 40.0657C114.998 40.0045 114.696 38.8281 114.458 37.9237Z" fill="#FFBE9D"/>
<path d="M114.134 39.4025C114.134 39.4025 114.104 39.4399 114.046 39.4841C113.966 39.5457 113.865 39.5737 113.764 39.5623C113.512 39.5351 113.223 39.2223 113.114 38.8245C113.063 38.6386 113.052 38.4436 113.084 38.2533C113.087 38.1793 113.109 38.1073 113.146 38.0434C113.183 37.9794 113.235 37.9255 113.298 37.8861C113.339 37.8638 113.387 37.8567 113.433 37.866C113.479 37.8754 113.52 37.9005 113.55 37.9371C113.594 37.9881 113.59 38.0357 113.604 38.0391C113.618 38.0425 113.641 37.9881 113.604 37.9031C113.578 37.8526 113.536 37.8121 113.485 37.7875C113.413 37.7583 113.333 37.7583 113.261 37.7875C113.175 37.828 113.102 37.8895 113.046 37.9662C112.991 38.0428 112.956 38.1322 112.944 38.2261C112.9 38.4402 112.909 38.6618 112.968 38.8721C113.006 39.0695 113.102 39.2513 113.243 39.3947C113.384 39.5381 113.564 39.6366 113.76 39.6779C113.824 39.6805 113.888 39.6687 113.947 39.6434C114.006 39.6181 114.058 39.5799 114.1 39.5317C114.145 39.4569 114.145 39.4059 114.134 39.4025Z" fill="#EB996E"/>
<path d="M126.198 34.8668C126.198 34.8668 126.398 34.7138 126.677 34.3738C127.062 33.8839 127.298 33.2939 127.357 32.6738C127.402 32.2505 127.361 31.8225 127.235 31.4158C127.09 30.9493 126.82 30.531 126.456 30.2054C126.036 29.8381 125.526 29.5871 124.979 29.4774C124.431 29.3677 123.865 29.403 123.335 29.5798C123.233 29.6138 123.138 29.6648 123.043 29.7056C122.947 29.7464 122.862 29.8076 122.774 29.8586L122.638 29.9334V29.7838C122.635 29.5205 122.537 29.267 122.363 29.0698C122.184 28.8785 121.964 28.7298 121.72 28.6346C121.258 28.4422 120.747 28.404 120.261 28.5258C119.323 28.74 118.527 29.1684 117.776 29.2568C117.187 29.3592 116.581 29.238 116.076 28.9168C115.943 28.8252 115.828 28.71 115.736 28.5768C115.682 28.485 115.654 28.434 115.661 28.4306C115.784 28.5985 115.935 28.7445 116.107 28.8624C116.603 29.149 117.186 29.2468 117.749 29.1378C118.14 29.0642 118.523 28.9502 118.891 28.7978C119.323 28.6251 119.766 28.4809 120.217 28.366C120.469 28.3052 120.727 28.2789 120.986 28.2878C121.258 28.3022 121.526 28.3644 121.778 28.4714C122.038 28.5825 122.27 28.7497 122.458 28.961C122.659 29.1912 122.772 29.4851 122.777 29.7906L122.641 29.7158L122.924 29.5526C123.029 29.5118 123.128 29.4574 123.236 29.42C123.795 29.2289 124.393 29.1889 124.972 29.3041C125.551 29.4194 126.089 29.6858 126.531 30.0762C126.913 30.4224 127.193 30.867 127.34 31.3614C127.493 31.8855 127.513 32.4391 127.4 32.973C127.287 33.507 127.043 34.0045 126.691 34.4214C126.579 34.5492 126.452 34.6633 126.313 34.7614C126.279 34.8011 126.24 34.8365 126.198 34.8668Z" fill="#455A64"/>
<path d="M125.756 27.1794C125.533 27.0661 125.294 26.9848 125.049 26.938C124.767 26.8996 124.481 26.9263 124.212 27.0162C123.864 27.1228 123.561 27.3431 123.352 27.6418L123.267 27.7608L123.216 27.6248C123.038 27.2068 122.753 26.8438 122.388 26.5731C122.024 26.3023 121.593 26.1337 121.142 26.0846C120.433 26.0579 119.734 26.2606 119.15 26.6626C118.651 26.9873 118.122 27.2607 117.569 27.4786C117.187 27.6229 116.776 27.6719 116.372 27.6214C116.264 27.6015 116.158 27.5719 116.056 27.533C115.988 27.5024 115.95 27.4854 115.954 27.4786C115.957 27.4718 116.107 27.5228 116.382 27.55C116.773 27.5744 117.165 27.5105 117.528 27.363C118.065 27.1286 118.581 26.8464 119.068 26.5198C119.369 26.3329 119.688 26.1769 120.02 26.054C120.385 25.9208 120.775 25.8709 121.162 25.9078C121.645 25.9604 122.104 26.1429 122.49 26.4356C122.877 26.7284 123.177 27.1206 123.359 27.5704H123.226C123.46 27.2509 123.794 27.0187 124.175 26.9108C124.464 26.8269 124.769 26.8117 125.066 26.8666C125.253 26.9022 125.433 26.9713 125.596 27.0706C125.654 27.0991 125.708 27.1357 125.756 27.1794Z" fill="#455A64"/>
<path d="M121.278 38.923C121.199 38.8566 121.106 38.8077 121.006 38.7796C120.907 38.7515 120.802 38.7447 120.7 38.7598C120.58 38.7853 120.467 38.8358 120.368 38.9078C120.269 38.9799 120.187 39.0719 120.125 39.178C120.125 39.178 120.108 39.195 120.105 39.2052C120.058 39.2828 120.037 39.3732 120.044 39.4636C120.059 39.5621 120.097 39.6554 120.157 39.7354C120.216 39.8155 120.294 39.8797 120.384 39.9226C120.527 39.9954 120.69 40.0221 120.85 39.999C121.009 39.9759 121.157 39.9041 121.275 39.7934C121.386 39.6759 121.448 39.5205 121.449 39.3588C121.449 39.1971 121.388 39.0413 121.278 38.923Z" fill="#F58F00"/>
<path d="M121.448 39.9805C121.421 39.9805 121.39 39.8785 121.298 39.7391C121.188 39.5522 121.022 39.4037 120.825 39.3138C120.627 39.2238 120.407 39.1966 120.193 39.2359C120.027 39.2597 119.925 39.3073 119.914 39.2835C119.904 39.2597 119.982 39.1781 120.166 39.1135C120.406 39.0362 120.667 39.0507 120.897 39.1543C121.129 39.2577 121.313 39.4463 121.41 39.6813C121.482 39.8581 121.472 39.9771 121.448 39.9805Z" fill="#263238"/>
<path d="M114.509 40.4024C114.509 40.4024 114.607 40.5723 114.478 40.8307C114.405 40.9854 114.276 41.1068 114.118 41.1707C114.019 41.2062 113.913 41.2182 113.808 41.2058C113.704 41.1934 113.604 41.157 113.516 41.0993C113.426 41.0449 113.351 40.9706 113.295 40.8822C113.239 40.7937 113.204 40.6935 113.193 40.5893C113.182 40.4214 113.232 40.2552 113.332 40.1202C113.509 39.8958 113.706 39.8889 113.706 39.9093C113.706 39.9297 113.557 39.9875 113.438 40.1915C113.369 40.3058 113.34 40.4399 113.356 40.5724C113.369 40.6499 113.398 40.7239 113.442 40.789C113.486 40.8542 113.544 40.909 113.611 40.9498C113.677 40.9922 113.752 41.0202 113.83 41.0319C113.908 41.0436 113.987 41.0388 114.063 41.0178C114.189 40.9728 114.297 40.8896 114.373 40.7798C114.505 40.569 114.481 40.4024 114.509 40.4024Z" fill="#F58F00"/>
<path d="M113.363 40.2696C113.38 40.2696 113.363 40.3852 113.203 40.46C113.124 40.4926 113.038 40.502 112.955 40.4872C112.871 40.4724 112.793 40.434 112.731 40.3764C112.668 40.3189 112.623 40.2446 112.601 40.1624C112.58 40.0802 112.582 39.9935 112.608 39.9126C112.641 39.8206 112.705 39.7427 112.788 39.6916C112.928 39.6066 113.033 39.6406 113.03 39.661C113.026 39.6814 112.948 39.7052 112.863 39.7902C112.821 39.8424 112.796 39.9058 112.79 39.9725C112.784 40.0392 112.798 40.1061 112.83 40.1649C112.862 40.2237 112.91 40.2718 112.969 40.3031C113.028 40.3344 113.096 40.3476 113.162 40.341C113.278 40.3172 113.339 40.256 113.363 40.2696Z" fill="#F58F00"/>
<path d="M117.099 70.4652C117.099 70.4652 125.518 70.9548 130.495 70.999C134.348 71.0364 136.068 70.013 136.836 67.5344C137.482 65.457 136.095 61.4688 136.095 61.4688C133.487 61.4688 131.879 61.8428 130.203 62.6282L130.648 64.4506L117.076 65.6202L117.099 70.4652Z" fill="#FFBE9D"/>
<path d="M133.477 66.3952C133.112 65.9205 132.686 65.4963 132.209 65.1338C131.698 64.8209 131.146 64.5784 130.57 64.413C130.752 64.3869 130.937 64.4032 131.111 64.4606C131.538 64.5616 131.944 64.7403 132.307 64.9876C132.672 65.2356 132.986 65.5492 133.236 65.9124C133.426 66.1912 133.497 66.385 133.477 66.3952Z" fill="#EB996E"/>
<path d="M114.019 62.6142C114.019 62.6142 111.415 63.2398 109.5 64.5182L111.54 70.0466C112.22 71.8622 114.298 72.7666 115.96 71.8146C118.521 70.3492 119.425 66.0788 119.425 66.0788L122.237 53.8796L117.575 50.959L114.036 62.6142" fill="#FFBE9D"/>
<path d="M117.558 50.9591L117.749 46.9471L116.705 42.8671C116.647 42.6427 116.62 42.3605 116.804 42.2245C116.895 42.1547 117.007 42.1186 117.122 42.1223C117.236 42.1261 117.346 42.1694 117.433 42.2449C117.715 42.5373 119.075 46.1039 119.075 46.1039C119.075 46.1039 121.139 44.8663 121.506 44.8051C121.873 44.7439 122.332 45.8557 122.363 45.9407C122.376 46.1899 122.376 46.4396 122.363 46.6887C122.363 46.6887 123.638 46.7261 123.753 46.8995C123.846 47.2538 123.895 47.618 123.899 47.9841C123.899 47.9841 124.44 48.1575 124.525 48.5655C124.61 48.9735 124.787 49.6467 124.525 49.7963C124.263 49.9459 123.733 50.2383 123.733 50.2383C123.733 50.2383 123.519 52.3191 123.461 52.5095C123.403 52.6999 122.21 53.8695 122.21 53.8695L117.558 50.9591Z" fill="#FFBE9D"/>
<path d="M113.22 71.8962C113.22 71.8962 113.346 71.971 113.611 72.056C113.999 72.1777 114.409 72.2102 114.811 72.1512C115.457 72.0591 116.062 71.7802 116.552 71.3488C117.199 70.7617 117.746 70.0726 118.17 69.3088C118.42 68.8599 118.631 68.3901 118.799 67.9046C118.976 67.3705 119.123 66.8267 119.238 66.276C119.503 65.1302 119.792 63.896 120.098 62.5836C120.71 59.9622 121.397 57.0314 122.138 53.8728V53.849H122.155C122.39 53.6178 122.624 53.3832 122.859 53.1384C122.975 53.016 123.09 52.8936 123.199 52.7678C123.253 52.7032 123.311 52.6386 123.355 52.574C123.39 52.51 123.41 52.4392 123.413 52.3666C123.505 51.6866 123.576 50.9828 123.651 50.2722V50.228L123.692 50.2076L124.341 49.8438C124.389 49.8132 124.464 49.7792 124.494 49.752C124.527 49.7226 124.548 49.6831 124.556 49.6398C124.571 49.527 124.571 49.4126 124.556 49.2998C124.523 49.0505 124.471 48.8039 124.403 48.562C124.287 48.3505 124.093 48.193 123.862 48.1234L123.804 48.103V48.0452C123.804 47.848 123.784 47.644 123.76 47.4434C123.751 47.343 123.736 47.2431 123.716 47.1442C123.708 47.1007 123.694 47.0584 123.675 47.0184C123.675 46.9946 123.675 47.0184 123.655 46.998C123.636 46.9883 123.617 46.9804 123.597 46.9742C123.188 46.8851 122.771 46.8384 122.352 46.8348H122.264V46.7464C122.264 46.5356 122.264 46.301 122.264 46.0664C122.25 45.9864 122.222 45.9094 122.182 45.8386C122.148 45.757 122.108 45.6788 122.067 45.5972C121.987 45.4397 121.894 45.2896 121.788 45.1484C121.74 45.0827 121.681 45.0252 121.615 44.9784C121.59 44.9576 121.56 44.9445 121.528 44.9409C121.495 44.9373 121.463 44.9432 121.434 44.958C121.27 45.021 121.11 45.0949 120.955 45.179C120.323 45.519 119.704 45.859 119.099 46.2262L119.01 46.2806L118.973 46.1854C118.653 45.3796 118.334 44.584 118.021 43.8054C117.864 43.4144 117.711 43.0234 117.555 42.6392C117.531 42.5532 117.483 42.4756 117.417 42.4155C117.351 42.3554 117.269 42.3151 117.181 42.2992C117.1 42.2723 117.012 42.2737 116.931 42.3034C116.851 42.333 116.783 42.3891 116.739 42.4624C116.697 42.5354 116.679 42.62 116.688 42.7038C116.688 42.7786 116.736 42.8942 116.756 42.986C116.81 43.1832 116.861 43.377 116.912 43.5708C117.014 43.9618 117.113 44.346 117.215 44.7268C117.414 45.493 117.611 46.241 117.803 46.9708V46.9946C117.735 48.3909 117.671 49.7282 117.609 51.0066V50.9998L114.512 61.0774L113.638 63.8824C113.536 64.1986 113.458 64.4468 113.404 64.6202C113.349 64.7936 113.315 64.8684 113.315 64.8684C113.315 64.8684 113.332 64.78 113.38 64.6134L113.594 63.8688C113.791 63.2126 114.073 62.264 114.43 61.0536C115.165 58.6192 116.209 55.1444 117.47 50.9556V50.9726C117.529 49.6988 117.589 48.3614 117.65 46.9606V46.9844C117.456 46.2534 117.256 45.5054 117.055 44.7438L116.749 43.5878C116.698 43.394 116.647 43.1968 116.593 43.003C116.564 42.9012 116.54 42.7979 116.521 42.6936C116.509 42.5756 116.534 42.4566 116.593 42.3536C116.656 42.2476 116.753 42.166 116.868 42.1224C116.982 42.089 117.103 42.0852 117.219 42.1114C117.335 42.1376 117.442 42.1929 117.531 42.272C117.617 42.3521 117.68 42.4528 117.715 42.5644L118.181 43.7306C118.497 44.5126 118.813 45.3082 119.136 46.1106L119.01 46.0664C119.619 45.706 120.231 45.3456 120.877 45.009C121.04 44.9237 121.208 44.8476 121.38 44.7812C121.434 44.7589 121.492 44.7507 121.55 44.7574C121.608 44.7658 121.664 44.7867 121.713 44.8186C121.795 44.8774 121.867 44.9485 121.927 45.0294C122.041 45.1782 122.14 45.3376 122.223 45.5054C122.267 45.5904 122.308 45.672 122.346 45.757C122.394 45.8471 122.426 45.9449 122.441 46.046C122.441 46.2874 122.441 46.5118 122.441 46.726L122.356 46.6342C122.793 46.6372 123.228 46.6873 123.655 46.7838C123.684 46.794 123.712 46.8066 123.74 46.8212C123.777 46.8416 123.808 46.8723 123.828 46.9096C123.854 46.9648 123.874 47.0231 123.886 47.083C123.906 47.1918 123.92 47.2938 123.933 47.3992C123.954 47.6066 123.967 47.8106 123.978 48.0146L123.916 47.933C124.055 47.9738 124.185 48.0425 124.296 48.1348C124.408 48.2272 124.5 48.3413 124.566 48.4702C124.64 48.7286 124.695 48.9923 124.729 49.259C124.753 49.3951 124.753 49.5343 124.729 49.6704C124.714 49.7529 124.671 49.8275 124.607 49.8812C124.551 49.9186 124.493 49.9526 124.433 49.9832L123.787 50.3198L123.831 50.2552C123.753 50.9658 123.682 51.6628 123.587 52.353L123.566 52.4856C123.558 52.5393 123.536 52.5899 123.502 52.6318C123.452 52.7063 123.396 52.7767 123.335 52.8426C123.219 52.9718 123.104 53.0976 122.995 53.22C122.76 53.4648 122.526 53.6994 122.288 53.9306L122.312 53.8898C121.564 57.045 120.87 59.9758 120.248 62.5972C119.938 63.9062 119.643 65.1404 119.371 66.2828C119.254 66.8377 119.104 67.3849 118.922 67.9216C118.747 68.4116 118.531 68.8859 118.276 69.3394C117.841 70.113 117.282 70.8092 116.62 71.3998C116.116 71.834 115.495 72.1106 114.835 72.1954C114.424 72.2506 114.006 72.2087 113.614 72.073C113.515 72.0364 113.418 71.9921 113.325 71.9404L113.22 71.8962Z" fill="#EB996E"/>
<path d="M122.366 46.6989C122.366 46.7227 122.25 46.7363 122.07 46.7431C121.841 46.7475 121.614 46.7748 121.39 46.8247C121.175 46.8777 120.976 46.9841 120.812 47.1341C120.69 47.2497 120.635 47.3483 120.608 47.3381C120.581 47.3279 120.608 47.2055 120.72 47.0491C120.879 46.8511 121.099 46.7122 121.346 46.6547C121.584 46.5961 121.831 46.5845 122.074 46.6207C122.257 46.6445 122.366 46.6751 122.366 46.6989Z" fill="#EB996E"/>
<path d="M121.38 46.7365C121.336 46.7195 121.332 46.6141 121.38 46.5019C121.427 46.3897 121.495 46.3115 121.54 46.3285C121.584 46.3455 121.591 46.4509 121.54 46.5631C121.489 46.6753 121.414 46.7535 121.38 46.7365Z" fill="#EB996E"/>
<path d="M123.957 47.9705C123.627 48.0726 123.283 48.1197 122.937 48.1099C122.828 48.1063 122.72 48.1288 122.622 48.1755C122.524 48.2223 122.439 48.2919 122.373 48.3785C122.284 48.5179 122.315 48.6335 122.288 48.6403C122.261 48.6471 122.179 48.5281 122.264 48.3241C122.311 48.2092 122.396 48.1143 122.505 48.0555C122.631 47.9864 122.77 47.9447 122.913 47.9331C123.261 47.88 123.615 47.8926 123.957 47.9705Z" fill="#EB996E"/>
<path d="M123.733 49.1944C123.78 49.1944 123.808 49.446 123.794 49.7554C123.78 50.0648 123.729 50.3096 123.682 50.3096C123.634 50.3096 123.604 50.0546 123.617 49.7452C123.631 49.4358 123.682 49.191 123.733 49.1944Z" fill="#EB996E"/>
<path d="M125.144 58.3507L125.446 57.3103C125.46 57.2627 125.486 57.2195 125.522 57.185C125.557 57.1504 125.601 57.1258 125.65 57.1134C125.698 57.1011 125.748 57.1015 125.796 57.1145C125.844 57.1276 125.887 57.1529 125.922 57.1879L126.32 57.5925L126.565 56.6099C126.579 56.5531 126.611 56.5022 126.655 56.4639C126.7 56.4256 126.755 56.4019 126.813 56.396C126.871 56.3901 126.93 56.4022 126.981 56.4307C127.032 56.4592 127.073 56.5028 127.099 56.5555L127.653 57.7183L125.144 58.3507Z" fill="white"/>
<path d="M127.66 58.1636C127.279 58.3474 126.875 58.4778 126.459 58.5512C126.057 58.6826 125.638 58.7559 125.215 58.7688C125.998 58.4544 126.821 58.2507 127.66 58.1636Z" fill="white"/>
<path d="M107.44 52.3599C107.44 52.3599 107.314 52.4891 107.137 52.7645C106.9 53.1567 106.744 53.5926 106.678 54.0463C106.581 54.7218 106.561 55.4061 106.617 56.0863C106.655 56.8581 106.716 57.7013 106.811 58.5853C106.972 60.095 107.211 61.5952 107.528 63.0801C107.647 63.6513 107.756 64.1001 107.831 64.4401C107.865 64.5829 107.896 64.7019 107.919 64.8039C107.943 64.9059 107.947 64.9331 107.947 64.9331C107.947 64.9331 107.93 64.8923 107.906 64.8107C107.882 64.7291 107.845 64.5863 107.807 64.4469C107.722 64.1307 107.607 63.6751 107.467 63.1039C107.137 61.6196 106.89 60.1178 106.729 58.6057C106.634 57.7217 106.576 56.8751 106.542 56.1033C106.491 55.4226 106.516 54.7383 106.617 54.0633C106.69 53.6036 106.857 53.1639 107.107 52.7713C107.199 52.6198 107.311 52.4814 107.44 52.3599Z" fill="white"/>
<path d="M114.597 47.7292L114.519 47.77L114.294 47.8788C114.101 47.9706 113.818 48.1065 113.482 48.2935C112.604 48.7829 111.752 49.3163 110.928 49.8916C109.956 50.5716 109.096 51.1904 108.467 51.6392L107.722 52.1661L107.515 52.3056C107.492 52.324 107.467 52.34 107.44 52.3531C107.459 52.3303 107.482 52.3108 107.508 52.2954L107.705 52.1458L108.436 51.5983C109.058 51.1393 109.915 50.5002 110.888 49.8338C111.713 49.256 112.571 48.727 113.458 48.2494C113.798 48.0692 114.084 47.94 114.284 47.855L114.512 47.7598C114.58 47.736 114.58 47.7258 114.597 47.7292Z" fill="white"/>
<path d="M130.812 49.9424C130.79 49.9306 130.771 49.9157 130.754 49.8982L130.601 49.7656C130.411 49.6057 130.213 49.4569 130.006 49.3202C129.316 48.8801 128.583 48.51 127.82 48.2152C127.058 47.9137 126.281 47.6549 125.491 47.44C125.185 47.355 124.94 47.2938 124.766 47.253L124.573 47.202C124.549 47.1971 124.526 47.1891 124.505 47.1782H124.576L124.773 47.2156C124.947 47.2496 125.195 47.304 125.501 47.3822C126.299 47.5836 127.082 47.8369 127.847 48.1404C128.615 48.4351 129.348 48.8137 130.033 49.2692C130.318 49.4622 130.579 49.6882 130.812 49.9424Z" fill="white"/>
<path d="M114.692 75.895C114.646 75.8868 114.601 75.8719 114.56 75.8508C114.441 75.7989 114.328 75.7375 114.22 75.6672C114.036 75.5574 113.877 75.4127 113.75 75.2411C113.622 75.0696 113.53 74.8747 113.478 74.6676C113.385 74.2495 113.432 73.8123 113.611 73.4232C113.663 73.3023 113.729 73.1882 113.808 73.0832C113.863 73.0118 113.9 72.9778 113.903 72.9812C113.811 73.1262 113.728 73.2773 113.655 73.4334C113.497 73.8154 113.46 74.2368 113.55 74.6404C113.647 75.0389 113.89 75.3868 114.23 75.6162C114.512 75.8202 114.699 75.8814 114.692 75.895Z" fill="white"/>
<path d="M113.611 72.2124C113.683 72.3474 113.737 72.4915 113.771 72.6408C113.824 72.7839 113.856 72.9339 113.866 73.0862C113.789 72.9544 113.734 72.8108 113.703 72.6612C113.647 72.5179 113.616 72.3661 113.611 72.2124Z" fill="white"/>
<path d="M118.208 148.444L128.578 148.393L128.391 112.54L128.292 76.0684L114.24 75.8882L111.714 80.6482C110.68 82.5618 110.021 84.6551 109.772 86.8158C109.602 88.4682 110.84 93.8402 111.268 95.2002L115.134 107.461L118.208 148.444Z" fill="#263238"/>
<path d="M131.335 76.1122L142.732 107.178C143.407 109.18 143.631 111.306 143.389 113.404C143.146 115.503 142.442 117.521 141.328 119.316L128.095 145.156L120.656 135.847L131.726 112.727L121.968 96.8998L123.61 76.1598L128.207 76.085L131.335 76.1122Z" fill="#263238"/>
<path d="M127.347 86.52C127.347 86.52 127.347 86.5744 127.347 86.6798C127.347 86.7852 127.364 86.9484 127.378 87.149C127.401 87.5672 127.432 88.169 127.473 88.9476C127.551 90.5218 127.66 92.7828 127.813 95.5742C127.966 98.3656 128.095 101.694 128.265 105.4C128.347 107.25 128.435 109.191 128.523 111.204C128.588 112.224 128.561 113.244 128.571 114.264C128.581 115.284 128.571 116.358 128.571 117.426C128.571 125.97 128.598 133.705 128.608 139.312C128.608 142.107 128.608 144.371 128.608 145.945C128.608 146.724 128.608 147.329 128.608 147.751C128.608 147.948 128.608 148.091 128.608 148.22C128.608 148.349 128.608 148.38 128.608 148.38C128.608 148.38 128.608 148.325 128.608 148.22V147.751C128.608 147.329 128.608 146.731 128.588 145.945C128.588 144.371 128.561 142.11 128.54 139.315C128.517 133.709 128.486 125.974 128.452 117.429C128.452 116.362 128.452 115.308 128.452 114.267C128.452 113.227 128.472 112.2 128.408 111.207C128.323 109.198 128.238 107.257 128.16 105.407C128.003 101.708 127.86 98.3792 127.745 95.5776C127.629 92.776 127.544 90.5252 127.48 88.951C127.452 88.1758 127.432 87.5706 127.418 87.149C127.418 86.9484 127.418 86.809 127.418 86.6798C127.418 86.5506 127.347 86.52 127.347 86.52Z" fill="#455A64"/>
<path d="M127.085 76.7246C127.125 76.834 127.149 76.9485 127.157 77.0646C127.194 77.2822 127.235 77.5984 127.282 77.9928C127.371 78.7782 127.466 79.8696 127.52 81.0766C127.575 82.2836 127.578 83.3784 127.561 84.1706C127.561 84.565 127.537 84.888 127.52 85.109C127.524 85.2237 127.51 85.3384 127.48 85.449C127.437 85.0243 127.422 84.5972 127.435 84.1706C127.435 83.3784 127.398 82.2904 127.344 81.0834C127.289 79.8764 127.214 78.7918 127.157 78.0234C127.108 77.5922 127.084 77.1585 127.085 76.7246Z" fill="#455A64"/>
<path d="M124.8 77.4248C124.817 77.4486 124.624 77.537 124.569 77.8124C124.554 77.8871 124.558 77.9645 124.581 78.0371C124.605 78.1098 124.646 78.1752 124.702 78.2272C124.769 78.2898 124.853 78.3317 124.943 78.348C125.034 78.3642 125.127 78.3542 125.212 78.319C125.293 78.277 125.361 78.213 125.408 78.1343C125.455 78.0555 125.479 77.9652 125.477 77.8736C125.474 77.7975 125.451 77.7235 125.411 77.6586C125.372 77.5937 125.316 77.5402 125.249 77.503C125.111 77.436 124.957 77.4089 124.804 77.4248C124.804 77.4248 124.838 77.3806 124.926 77.3534C125.054 77.3223 125.188 77.3355 125.307 77.3908C125.402 77.4303 125.484 77.4954 125.544 77.5789C125.604 77.6623 125.64 77.7608 125.647 77.8634C125.661 77.99 125.634 78.1176 125.571 78.2283C125.508 78.339 125.412 78.4273 125.297 78.4806C125.181 78.5339 125.052 78.5496 124.927 78.5255C124.802 78.5014 124.687 78.4387 124.6 78.3462C124.528 78.2744 124.476 78.1841 124.452 78.0852C124.427 77.9863 124.43 77.8825 124.46 77.7852C124.495 77.658 124.571 77.5464 124.678 77.469C124.746 77.4214 124.797 77.4146 124.8 77.4248Z" fill="#455A64"/>
<path d="M119.36 76.8096C119.411 76.9167 119.442 77.0318 119.452 77.1496C119.507 77.4548 119.517 77.7662 119.483 78.0744C119.434 78.5332 119.301 78.9791 119.092 79.3902C118.839 79.9015 118.464 80.3428 118 80.6753C117.537 81.0079 116.999 81.2216 116.433 81.2976C115.981 81.3651 115.519 81.3478 115.073 81.2466C114.771 81.181 114.48 81.0722 114.209 80.9236C114.107 80.8751 114.013 80.8109 113.931 80.7332C114.306 80.9022 114.698 81.0332 115.1 81.1242C115.584 81.2247 116.083 81.2239 116.566 81.1218C117.05 81.0197 117.506 80.8186 117.908 80.531C118.31 80.2435 118.647 79.8758 118.9 79.4512C119.152 79.0266 119.313 78.5544 119.374 78.0642C119.414 77.6467 119.409 77.2261 119.36 76.8096Z" fill="#455A64"/>
<path d="M132.702 79.7878C132.48 79.8134 132.255 79.7866 132.046 79.7096C131.532 79.5479 131.071 79.2521 130.71 78.8528C130.345 78.4553 130.095 77.9666 129.985 77.4384C129.932 77.223 129.932 76.9977 129.985 76.7822C130.016 76.7822 130.019 77.0304 130.121 77.4112C130.259 77.9033 130.51 78.3564 130.853 78.7348C131.197 79.1131 131.624 79.4061 132.1 79.5906C132.454 79.73 132.705 79.7538 132.702 79.7878Z" fill="#455A64"/>
<path d="M136.751 113.278C136.581 113.472 136.377 113.635 136.15 113.757C135.911 113.909 135.651 114.023 135.378 114.097C135.034 114.188 134.672 114.179 134.334 114.07C133.74 113.846 133.231 113.442 132.879 112.914C132.717 112.716 132.583 112.496 132.481 112.261C132.664 112.436 132.831 112.629 132.977 112.836C133.338 113.315 133.826 113.683 134.385 113.9C134.67 113.976 134.968 113.993 135.26 113.951C135.553 113.908 135.833 113.806 136.085 113.652C136.3 113.515 136.522 113.39 136.751 113.278Z" fill="#455A64"/>
<path d="M134.154 115.26C133.752 114.844 133.393 114.388 133.083 113.9C132.725 113.445 132.413 112.957 132.151 112.441C132.556 112.856 132.916 113.312 133.226 113.801C133.586 114.253 133.897 114.742 134.154 115.26Z" fill="#455A64"/>
<path d="M116.732 87.7201C116.684 87.7371 116.565 87.5433 116.46 87.2815C116.355 87.0197 116.31 86.7987 116.355 86.7783C116.399 86.7579 116.521 86.9551 116.623 87.2169C116.725 87.4787 116.776 87.7201 116.732 87.7201Z" fill="#FAFAFA"/>
<path d="M123.314 88.665C123.263 88.665 123.226 88.4984 123.226 88.291C123.226 88.0836 123.263 87.9136 123.314 87.9136C123.365 87.9136 123.403 88.0836 123.403 88.291C123.403 88.4984 123.362 88.665 123.314 88.665Z" fill="#FAFAFA"/>
<path d="M120.608 92.2421C120.561 92.2421 120.506 92.0381 120.489 91.7763C120.472 91.5145 120.489 91.3037 120.544 91.3003C120.598 91.2969 120.649 91.5043 120.666 91.7661C120.683 92.0279 120.656 92.2387 120.608 92.2421Z" fill="#FAFAFA"/>
<path d="M115.664 94.86C115.624 94.8906 115.484 94.7648 115.301 94.6356C115.117 94.5064 114.961 94.4078 114.961 94.3602C114.961 94.3126 115.185 94.3398 115.393 94.4894C115.6 94.639 115.705 94.86 115.664 94.86Z" fill="#FAFAFA"/>
<path d="M124.379 98.1954C124.338 98.1682 124.379 98.022 124.494 97.8554C124.61 97.6888 124.715 97.5936 124.756 97.6208C124.797 97.648 124.756 97.7976 124.64 97.9608C124.525 98.124 124.419 98.2226 124.379 98.1954Z" fill="#FAFAFA"/>
<path d="M119 99.1374C118.952 99.1374 118.912 98.8552 118.912 98.5118C118.912 98.1684 118.952 97.8828 119 97.8828C119.048 97.8828 119.088 98.165 119.088 98.5118C119.088 98.8586 119.037 99.1374 119 99.1374Z" fill="#FAFAFA"/>
<path d="M117.239 102.952C117.212 102.99 117.035 102.911 116.844 102.772C116.654 102.633 116.504 102.49 116.549 102.449C116.593 102.408 116.756 102.49 116.946 102.629C117.137 102.769 117.269 102.911 117.239 102.952Z" fill="#FAFAFA"/>
<path d="M122.686 104.278C122.706 104.322 122.597 104.414 122.441 104.486C122.284 104.557 122.142 104.574 122.121 104.53C122.101 104.486 122.213 104.394 122.369 104.322C122.526 104.251 122.669 104.234 122.686 104.278Z" fill="#FAFAFA"/>
<path d="M119 110.5C118.959 110.52 118.782 110.259 118.609 109.912C118.436 109.565 118.33 109.266 118.374 109.232C118.419 109.198 118.595 109.473 118.765 109.82C118.935 110.167 119.031 110.463 119 110.5Z" fill="#FAFAFA"/>
<path d="M125.008 109.922C124.964 109.898 125.042 109.67 125.178 109.408C125.314 109.147 125.467 108.956 125.518 108.98C125.569 109.004 125.484 109.232 125.344 109.493C125.205 109.755 125.049 109.946 125.008 109.922Z" fill="#FAFAFA"/>
<path d="M122.373 115.189C122.322 115.189 122.329 114.913 122.274 114.594C122.22 114.274 122.138 114.019 122.186 113.995C122.233 113.971 122.397 114.213 122.451 114.566C122.505 114.92 122.42 115.199 122.373 115.189Z" fill="#FAFAFA"/>
<path d="M119.551 118.198C119.517 118.232 119.347 118.102 119.173 117.912C119 117.722 118.888 117.541 118.925 117.507C118.963 117.473 119.129 117.603 119.303 117.793C119.476 117.983 119.588 118.164 119.551 118.198Z" fill="#FAFAFA"/>
<path d="M126.398 119.34C126.364 119.306 126.49 119.123 126.681 118.929C126.871 118.735 127.048 118.609 127.085 118.643C127.123 118.677 126.993 118.864 126.806 119.055C126.619 119.245 126.436 119.374 126.398 119.34Z" fill="#FAFAFA"/>
<path d="M122.461 123.845C122.414 123.845 122.414 123.577 122.461 123.264C122.509 122.951 122.584 122.706 122.635 122.713C122.686 122.72 122.682 122.978 122.635 123.291C122.587 123.604 122.509 123.852 122.461 123.845Z" fill="#FAFAFA"/>
<path d="M119.813 126.031C119.768 126.055 119.619 125.878 119.473 125.637C119.326 125.395 119.252 125.181 119.292 125.157C119.333 125.134 119.483 125.307 119.632 125.548C119.782 125.79 119.853 126.004 119.813 126.031Z" fill="#FAFAFA"/>
<path d="M126.194 128.789C126.225 128.83 126.052 129.003 125.807 129.176C125.562 129.35 125.348 129.459 125.317 129.418C125.287 129.377 125.463 129.204 125.705 129.03C125.946 128.857 126.167 128.751 126.194 128.789Z" fill="#FAFAFA"/>
<path d="M120.877 132.369C120.829 132.352 120.877 132.08 120.921 131.74C120.965 131.4 120.938 131.121 120.989 131.114C121.04 131.108 121.128 131.393 121.094 131.757C121.06 132.121 120.921 132.389 120.877 132.369Z" fill="#FAFAFA"/>
<path d="M123.002 137.509C122.961 137.54 122.818 137.424 122.679 137.251C122.539 137.078 122.461 136.911 122.499 136.88C122.536 136.85 122.679 136.965 122.818 137.139C122.958 137.312 123.039 137.479 123.002 137.509Z" fill="#FAFAFA"/>
<path d="M120.679 140.957C120.639 140.984 120.452 140.784 120.261 140.505C120.071 140.226 119.952 139.981 119.989 139.954C120.027 139.927 120.217 140.128 120.407 140.406C120.598 140.685 120.72 140.93 120.679 140.957Z" fill="#FAFAFA"/>
<path d="M127.075 136.629C127.031 136.612 127.034 136.486 127.075 136.35C127.116 136.214 127.208 136.112 127.255 136.129C127.303 136.146 127.296 136.272 127.255 136.411C127.215 136.551 127.123 136.649 127.075 136.629Z" fill="#FAFAFA"/>
<path d="M124.253 144.84C124.209 144.816 124.294 144.575 124.362 144.272C124.43 143.969 124.454 143.714 124.505 143.711C124.556 143.708 124.607 143.983 124.535 144.309C124.464 144.636 124.294 144.867 124.253 144.84Z" fill="#FAFAFA"/>
<path d="M126.089 92.2962C126.045 92.3166 125.936 92.1806 125.848 91.9902C125.759 91.7998 125.722 91.6298 125.766 91.6094C125.81 91.589 125.919 91.725 126.007 91.9154C126.096 92.1058 126.14 92.2758 126.089 92.2962Z" fill="#FAFAFA"/>
<path d="M121.38 81.7088C121.407 81.7496 121.169 81.94 120.914 82.212C120.659 82.484 120.486 82.7356 120.442 82.7118C120.397 82.688 120.513 82.3718 120.782 82.093C121.05 81.8142 121.346 81.6646 121.38 81.7088Z" fill="#FAFAFA"/>
<path d="M125.572 81.6002C125.521 81.6002 125.443 81.4064 125.324 81.1752C125.205 80.944 125.096 80.7536 125.133 80.7196C125.171 80.6856 125.354 80.8352 125.473 81.0936C125.592 81.352 125.616 81.573 125.572 81.6002Z" fill="#FAFAFA"/>
<path d="M112.482 85.0375C112.438 85.0171 112.482 84.7927 112.588 84.5343C112.693 84.2759 112.809 84.0753 112.856 84.0957C112.904 84.1161 112.856 84.3371 112.751 84.5989C112.645 84.8607 112.54 85.0545 112.482 85.0375Z" fill="#FAFAFA"/>
<path d="M112.907 90.1716C112.873 90.209 112.679 90.1002 112.472 89.9268C112.265 89.7534 112.132 89.5868 112.152 89.546C112.173 89.5052 112.38 89.6174 112.588 89.7908C112.795 89.9642 112.938 90.1342 112.907 90.1716Z" fill="#FAFAFA"/>
<path d="M121.495 77.632C121.451 77.632 121.356 77.5232 121.288 77.3498C121.22 77.1764 121.2 77.0098 121.244 77.0098C121.288 77.0098 121.383 77.1186 121.451 77.292C121.519 77.4654 121.54 77.615 121.495 77.632Z" fill="#FAFAFA"/>
<path d="M129.72 80.1413C129.673 80.1413 129.676 79.9271 129.72 79.6857C129.764 79.4443 129.853 79.2539 129.9 79.2641C129.948 79.2743 129.945 79.4817 129.9 79.7231C129.856 79.9645 129.768 80.1515 129.72 80.1413Z" fill="#FAFAFA"/>
<path d="M131.651 84.0275C131.607 84.0071 131.668 83.7555 131.791 83.4597C131.913 83.1639 132.046 82.9429 132.09 82.9599C132.134 82.9769 132.09 83.2319 131.954 83.5277C131.818 83.8235 131.699 84.0445 131.651 84.0275Z" fill="#FAFAFA"/>
<path d="M130.274 87.1623C130.23 87.1827 130.067 86.9481 129.91 86.6387C129.754 86.3293 129.666 86.0539 129.71 86.0335C129.754 86.0131 129.914 86.2477 130.07 86.5571C130.227 86.8665 130.318 87.1385 130.274 87.1623Z" fill="#FAFAFA"/>
<path d="M133.219 90.2972C133.175 90.2802 133.219 90.083 133.294 89.8586C133.368 89.6342 133.487 89.4642 133.535 89.4812C133.583 89.4982 133.535 89.6954 133.46 89.9198C133.385 90.1442 133.28 90.3142 133.219 90.2972Z" fill="#FAFAFA"/>
<path d="M130.587 93.3674C130.546 93.3946 130.441 93.3028 130.356 93.1668C130.271 93.0308 130.23 92.8948 130.274 92.8676C130.319 92.8404 130.417 92.9322 130.506 93.0716C130.594 93.211 130.628 93.3436 130.587 93.3674Z" fill="#FAFAFA"/>
<path d="M131.148 99.7048C131.114 99.7354 130.9 99.5688 130.675 99.324C130.451 99.0792 130.298 98.8582 130.335 98.8242C130.373 98.7902 130.584 98.9602 130.808 99.205C131.032 99.4498 131.185 99.6708 131.148 99.7048Z" fill="#FAFAFA"/>
<path d="M134.599 96.0638C134.562 96.0944 134.375 95.9244 134.184 95.6796C133.994 95.4348 133.872 95.2172 133.909 95.1866C133.946 95.156 134.133 95.3294 134.324 95.5708C134.514 95.8122 134.64 96.0366 134.599 96.0638Z" fill="#FAFAFA"/>
<path d="M136.493 101.086C136.449 101.065 136.527 100.81 136.666 100.518C136.806 100.225 136.952 100.001 137.006 100.021C137.061 100.042 136.976 100.3 136.836 100.593C136.697 100.885 136.537 101.109 136.493 101.086Z" fill="#FAFAFA"/>
<path d="M132.467 105.22C132.423 105.244 132.267 105.057 132.049 104.856C131.832 104.655 131.631 104.516 131.651 104.465C131.672 104.414 131.93 104.506 132.168 104.727C132.406 104.948 132.508 105.196 132.467 105.22Z" fill="#FAFAFA"/>
<path d="M132.719 109.48C132.719 109.528 132.549 109.568 132.342 109.568C132.134 109.568 131.968 109.528 131.968 109.48C131.968 109.432 132.134 109.392 132.342 109.392C132.549 109.392 132.719 109.432 132.719 109.48Z" fill="#FAFAFA"/>
<path d="M136.857 108.29C136.813 108.266 136.901 108.052 136.966 107.787C137.03 107.522 137.057 107.291 137.108 107.287C137.159 107.284 137.214 107.532 137.139 107.828C137.064 108.124 136.894 108.317 136.857 108.29Z" fill="#FAFAFA"/>
<path d="M140.967 109.721C140.923 109.738 140.797 109.497 140.689 109.187C140.58 108.878 140.529 108.613 140.573 108.599C140.617 108.586 140.746 108.82 140.855 109.13C140.964 109.439 141.015 109.704 140.967 109.721Z" fill="#FAFAFA"/>
<path d="M140.311 115.569C140.27 115.546 140.376 115.26 140.546 114.93C140.716 114.6 140.886 114.352 140.937 114.376C140.988 114.4 140.876 114.685 140.702 115.012C140.529 115.338 140.355 115.6 140.311 115.569Z" fill="#FAFAFA"/>
<path d="M136.561 119C136.517 119.017 136.377 118.783 136.248 118.473C136.119 118.164 136.054 117.899 136.102 117.878C136.15 117.858 136.286 118.096 136.411 118.405C136.537 118.715 136.605 119 136.561 119Z" fill="#FAFAFA"/>
<path d="M132.406 120.33C132.406 120.377 132.263 120.418 132.09 120.418C131.917 120.418 131.777 120.377 131.777 120.33C131.777 120.282 131.92 120.241 132.09 120.241C132.26 120.241 132.406 120.282 132.406 120.33Z" fill="#FAFAFA"/>
<path d="M134.786 125.8C134.742 125.8 134.647 125.613 134.575 125.355C134.504 125.096 134.49 124.872 134.538 124.862C134.586 124.852 134.677 125.049 134.749 125.307C134.82 125.566 134.834 125.773 134.786 125.8Z" fill="#FAFAFA"/>
<path d="M131.777 123.964C131.736 123.94 131.777 123.78 131.889 123.607C132.002 123.434 132.114 123.315 132.155 123.338C132.195 123.362 132.155 123.525 132.042 123.699C131.93 123.872 131.821 123.991 131.777 123.964Z" fill="#FAFAFA"/>
<path d="M131.716 129.985C131.668 129.985 131.6 129.757 131.566 129.462C131.532 129.166 131.543 128.924 131.59 128.918C131.638 128.911 131.706 129.145 131.74 129.441C131.774 129.737 131.764 129.978 131.716 129.985Z" fill="#FAFAFA"/>
</svg>
