<svg width="300" height="300" viewBox="0 0 300 300" fill="none" xmlns="http://www.w3.org/2000/svg">
<path d="M234 57.642C198.906 40.734 169.524 66.042 162.372 87.642C155.22 109.242 141.732 118.242 125.466 110.55C109.2 102.858 81.4921 70.8 46.5181 97.2C11.5441 123.6 63.5341 183.354 136.236 199.8C175.968 208.8 231.93 215.466 253.026 162.972C265.602 131.652 262.278 71.268 234 57.642Z" fill="#F58F00"/>
<g opacity="0.8">
<path d="M234 57.642C198.906 40.734 169.524 66.042 162.372 87.642C155.22 109.242 141.732 118.242 125.466 110.55C109.2 102.858 81.4921 70.8 46.5181 97.2C11.5441 123.6 63.5341 183.354 136.236 199.8C175.968 208.8 231.93 215.466 253.026 162.972C265.602 131.652 262.278 71.268 234 57.642Z" fill="white"/>
</g>
<path d="M266.118 220.164H233.34V247.272H266.118V220.164Z" fill="#F58F00"/>
<path opacity="0.3" d="M266.118 220.164H233.34V247.272H266.118V220.164Z" fill="white"/>
<path d="M241.422 220.164H216.018V247.272H241.422V220.164Z" fill="#F58F00"/>
<path opacity="0.1" d="M241.422 220.164H216.018V247.272H241.422V220.164Z" fill="white"/>
<path opacity="0.3" d="M232.314 220.164H225.126V228.6H232.314V220.164Z" fill="white"/>
<path opacity="0.1" d="M259.134 220.164H251.946V228.6H259.134V220.164Z" fill="black"/>
<path d="M252.336 236.118H251.388C251.373 235.842 251.373 235.566 251.388 235.29C251.388 234.858 251.718 234.024 252.318 234.402C252.504 234.516 252.72 234.252 252.534 234.138C252.4 234.057 252.247 234.011 252.09 234.004C251.934 233.996 251.777 234.028 251.636 234.095C251.494 234.163 251.372 234.265 251.279 234.392C251.187 234.519 251.127 234.667 251.106 234.822C251.026 235.245 251.006 235.677 251.046 236.106H250.5C250.284 236.106 250.224 236.436 250.446 236.442H251.046C251.046 236.97 251.046 237.498 251.046 238.026C251.046 238.248 251.388 238.206 251.388 237.99C251.388 237.474 251.388 236.964 251.388 236.448H252.276C252.498 236.46 252.558 236.124 252.336 236.118Z" fill="white"/>
<path d="M253.908 235.374C253.884 235.368 253.86 235.368 253.836 235.374C252.282 235.26 252.528 237.804 254.016 237.774C254.334 237.728 254.624 237.566 254.829 237.319C255.034 237.072 255.14 236.757 255.126 236.436C255.131 236.282 255.101 236.128 255.04 235.986C254.978 235.844 254.885 235.718 254.769 235.616C254.652 235.515 254.515 235.44 254.366 235.398C254.217 235.357 254.061 235.348 253.908 235.374ZM254.142 237.408C253.02 237.702 252.66 235.608 253.812 235.734C253.847 235.744 253.885 235.744 253.92 235.734C255 235.572 255 237.18 254.142 237.408Z" fill="white"/>
<path d="M257.616 236.004C257.154 234.504 254.826 235.734 255.492 237.102C255.662 237.371 255.924 237.568 256.228 237.657C256.533 237.747 256.86 237.722 257.148 237.588C257.292 237.533 257.422 237.446 257.529 237.333C257.636 237.221 257.716 237.087 257.764 236.94C257.812 236.793 257.827 236.637 257.808 236.483C257.789 236.33 257.735 236.183 257.652 236.052L257.616 236.004ZM255.762 236.862C255.444 235.95 256.962 235.062 257.298 236.142C257.302 236.161 257.31 236.179 257.321 236.195C257.332 236.21 257.347 236.223 257.364 236.232C257.952 237.282 256.086 237.81 255.762 236.862Z" fill="white"/>
<path d="M260.22 237.66C260.118 236.28 260.022 234.9 259.92 233.526C259.92 233.304 259.566 233.346 259.578 233.562L259.704 235.302C259.522 235.243 259.329 235.227 259.14 235.254C258.95 235.281 258.77 235.351 258.612 235.459C258.453 235.566 258.322 235.709 258.228 235.875C258.133 236.041 258.078 236.227 258.066 236.418C258.018 237.348 259.098 237.666 259.866 237.564V237.696C259.896 237.912 260.238 237.876 260.22 237.66ZM258.42 236.568C258.41 236.418 258.437 236.268 258.498 236.131C258.559 235.993 258.653 235.873 258.771 235.78C258.89 235.688 259.029 235.625 259.177 235.598C259.324 235.571 259.477 235.581 259.62 235.626C259.653 235.635 259.689 235.635 259.722 235.626C259.764 236.154 259.8 236.682 259.842 237.216C259.32 237.288 258.498 237.18 258.408 236.568H258.42Z" fill="white"/>
<path d="M149.982 57.3062H69.012C64.0414 57.3062 60.012 61.3356 60.012 66.3062V235.23C60.012 240.201 64.0414 244.23 69.012 244.23H149.982C154.953 244.23 158.982 240.201 158.982 235.23V66.3062C158.982 61.3356 154.953 57.3062 149.982 57.3062Z" fill="#263238"/>
<path d="M152.586 69.7681H66.4141V220.104H152.586V69.7681Z" fill="#F58F00"/>
<path opacity="0.3" d="M152.586 205.2H66.4141V220.098H152.586V205.2Z" fill="white"/>
<path opacity="0.1" d="M152.586 131.628C130.68 153.414 90.1141 194.166 66.4141 218.028V220.128H114.564L152.586 182.112V131.628Z" fill="white"/>
<path opacity="0.1" d="M66.4141 145.368L142.014 69.7681H106.662C97.3021 79.0561 81.3121 95.0761 66.4141 110.028V145.368Z" fill="white"/>
<path opacity="0.1" d="M66.4141 176.97L152.586 90.7984V72.3604L66.4141 158.526V176.97Z" fill="white"/>
<path opacity="0.2" d="M152.586 69.7681H66.4141V76.5481H152.586V69.7681Z" fill="black"/>
<path d="M110.45 236.215C113.652 235.695 115.827 232.678 115.307 229.475C114.787 226.273 111.77 224.099 108.568 224.618C105.366 225.138 103.191 228.155 103.711 231.358C104.231 234.56 107.248 236.734 110.45 236.215Z" fill="#F58F00"/>
<g opacity="0.6">
<path opacity="0.6" d="M75.7319 74.7119H77.0339V72.9719H75.7319V74.7119Z" fill="white"/>
<path opacity="0.6" d="M73.6079 74.7119H74.9099V72.3959H73.6079V74.7119Z" fill="white"/>
<path opacity="0.6" d="M71.4839 74.7119H72.7859V71.8139H71.4839V74.7119Z" fill="white"/>
<path opacity="0.6" d="M69.3599 74.7119H70.6619V71.2319H69.3599V74.7119Z" fill="white"/>
</g>
<path opacity="0.6" d="M143.442 72.3359H142.668V74.0759H143.442V72.3359Z" fill="white"/>
<path opacity="0.6" d="M143.976 74.7119H150.138V71.7059H143.976V74.7119Z" fill="white"/>
<path opacity="0.4" d="M113.79 159.6C111.816 157.8 109.5 160.2 109.5 160.2C109.5 160.2 107.19 157.8 105.21 159.57C102.39 162.096 106.488 166.614 109.5 167.52C112.512 166.638 116.61 162.12 113.79 159.6Z" fill="white"/>
<path d="M134.178 172.2H84.8221C83.3294 172.2 81.8979 172.793 80.8425 173.849C79.787 174.904 79.1941 176.336 79.1941 177.828C79.1941 179.321 79.787 180.752 80.8425 181.808C81.8979 182.863 83.3294 183.456 84.8221 183.456H134.178C135.671 183.456 137.102 182.863 138.158 181.808C139.213 180.752 139.806 179.321 139.806 177.828C139.806 176.336 139.213 174.904 138.158 173.849C137.102 172.793 135.671 172.2 134.178 172.2Z" fill="white"/>
<path d="M93.2219 180.822V174.852H95.3999C95.8358 174.845 96.2687 174.926 96.6719 175.092C97.0178 175.237 97.3288 175.453 97.5839 175.728C97.8298 176.003 98.0158 176.325 98.1299 176.676C98.3937 177.454 98.3937 178.298 98.1299 179.076C98.0001 179.43 97.7954 179.751 97.5299 180.018C97.2672 180.278 96.9551 180.482 96.6119 180.618C96.2293 180.766 95.822 180.839 95.4119 180.834L93.2219 180.822ZM97.1279 177.822C97.1284 177.556 97.09 177.291 97.0139 177.036C96.941 176.815 96.8247 176.611 96.6719 176.436C96.5191 176.261 96.3282 176.124 96.1139 176.034C95.879 175.934 95.6253 175.885 95.3699 175.89H94.3679V179.82H95.3999C95.6598 179.825 95.9177 179.774 96.1559 179.67C96.3662 179.574 96.5526 179.432 96.7019 179.256C96.8553 179.07 96.9714 178.856 97.0439 178.626C97.1116 178.366 97.1399 178.097 97.1279 177.828V177.822Z" fill="#E0E0E0"/>
<path d="M101.706 180.864C101.292 180.871 100.881 180.783 100.506 180.606C100.161 180.441 99.853 180.209 99.6 179.922C99.0896 179.348 98.8059 178.608 98.802 177.84C98.8003 177.447 98.8757 177.058 99.024 176.694C99.1627 176.338 99.3661 176.01 99.624 175.728C99.8844 175.447 100.199 175.22 100.548 175.062C100.911 174.894 101.306 174.81 101.706 174.816C102.112 174.81 102.513 174.9 102.876 175.08C103.229 175.256 103.544 175.5 103.8 175.8C104.058 176.087 104.261 176.418 104.4 176.778C104.54 177.129 104.611 177.504 104.61 177.882C104.612 178.273 104.539 178.66 104.394 179.022C104.254 179.376 104.051 179.702 103.794 179.982C103.537 180.263 103.224 180.488 102.876 180.642C102.508 180.804 102.108 180.88 101.706 180.864ZM99.99 177.864C99.9906 178.117 100.031 178.368 100.11 178.608C100.184 178.84 100.298 179.057 100.446 179.25C100.596 179.431 100.779 179.582 100.986 179.694C101.213 179.807 101.464 179.865 101.718 179.862C101.975 179.866 102.228 179.806 102.456 179.688C102.666 179.576 102.85 179.42 102.996 179.232C103.142 179.039 103.254 178.822 103.326 178.59C103.402 178.356 103.441 178.111 103.44 177.864C103.44 177.609 103.4 177.356 103.32 177.114C103.246 176.881 103.13 176.664 102.978 176.472C102.832 176.289 102.648 176.139 102.438 176.034C102.209 175.925 101.959 175.869 101.706 175.869C101.453 175.869 101.203 175.925 100.974 176.034C100.765 176.148 100.581 176.303 100.434 176.49C100.289 176.682 100.177 176.897 100.104 177.126C100.032 177.358 99.9935 177.598 99.99 177.84V177.864Z" fill="#E0E0E0"/>
<path d="M106.632 177V180.822H105.48V174.852H106.374L109.452 178.77V174.864H110.604V180.822H109.674L106.632 177Z" fill="#E0E0E0"/>
<path d="M113.52 174.852H114.534L116.784 180.822H115.584L115.032 179.334H112.968L112.428 180.822H111.228L113.52 174.852ZM114.846 178.518L114.03 176.172L113.178 178.518H114.846Z" fill="#E0E0E0"/>
<path d="M121.272 175.872H119.4V180.822H118.26V175.872H116.37V174.852H121.29L121.272 175.872Z" fill="#E0E0E0"/>
<path d="M126.114 179.802V180.822H122.004V174.852H126.036V175.872H123.156V177.306H125.646V178.248H123.156V179.802H126.114Z" fill="#E0E0E0"/>
<path opacity="0.3" d="M158.988 110.634L140.91 113.208L145.632 146.796L158.988 145.44V110.634Z" fill="#263238"/>
<path opacity="0.7" d="M110.334 152.652C128.712 152.652 143.61 137.754 143.61 119.376C143.61 100.998 128.712 86.1001 110.334 86.1001C91.956 86.1001 77.0579 100.998 77.0579 119.376C77.0579 137.754 91.956 152.652 110.334 152.652Z" fill="white"/>
<path d="M122.268 99.03C122.268 99.03 129.066 109.086 132.882 109.494C136.698 109.902 151.626 97.062 151.626 97.062L154.158 99.252C154.158 99.252 139.956 114.852 134.028 115.764C128.1 116.676 116.832 104.928 116.832 104.928L122.268 99.03Z" fill="#E4897B"/>
<path d="M120.648 99.78C120.648 99.78 123.048 97.428 126.348 101.514C129.648 105.6 131.004 106.434 131.004 106.434L122.604 114.636C122.604 114.636 117.666 101.964 120.648 99.78Z" fill="#F58F00"/>
<path d="M150.444 96.1319C150.444 96.1319 150.738 92.3579 151.614 92.1179C152.49 91.8779 152.178 94.6679 152.178 94.6679C152.178 94.6679 156.798 91.8479 157.728 92.0999C158.658 92.3519 158.508 94.1759 158.328 94.6679C156.918 98.8679 151.878 100.608 151.878 100.608L149.844 98.6879L150.444 96.1319Z" fill="#E4897B"/>
<path d="M115.8 89.0464C115.8 89.0464 120.438 96.7744 119.016 101.646C117.594 106.518 110.28 102.138 110.28 102.138L110.37 92.5384L115.8 89.0464Z" fill="#263238"/>
<path d="M103.362 75.7261C103.362 75.7261 96.5039 79.2001 99.1979 91.4221C103.71 111.912 110.37 103.422 110.37 103.422C110.37 103.422 110.076 95.3461 107.37 91.4221C104.664 87.4981 105.228 81.9001 105.228 81.9001L103.362 75.7261Z" fill="#263238"/>
<path d="M123.252 129.858L102.69 131.658C102.491 126.561 101.757 121.499 100.5 116.556C100.008 114.588 99.3961 112.386 98.6041 109.848C98.1781 108.486 97.7101 107.028 97.1881 105.462C96.7981 104.262 96.3721 103.008 95.9041 101.67C98.697 100.777 101.55 100.085 104.442 99.6C107.491 99.0541 110.575 98.7292 113.67 98.628C117.672 98.592 122.268 99.042 122.268 99.042C122.268 99.042 122.922 99.198 123.336 103.44C123.708 107.4 124.074 115.374 123.252 129.858Z" fill="#F58F00"/>
<path opacity="0.2" d="M123.252 129.858L102.69 131.658C102.491 126.561 101.757 121.499 100.5 116.556C100.008 114.588 99.3961 112.386 98.6041 109.848C98.1781 108.486 97.7101 107.028 97.1881 105.462C96.7981 104.262 96.3721 103.008 95.9041 101.67C98.697 100.777 101.55 100.085 104.442 99.6C107.491 99.0541 110.575 98.7292 113.67 98.628C117.672 98.592 122.268 99.042 122.268 99.042C122.268 99.042 122.922 99.198 123.336 103.44C123.708 107.4 124.074 115.374 123.252 129.858Z" fill="white"/>
<path opacity="0.2" d="M102.6 130.092C105.894 128.808 116.754 123.492 116.754 123.492L102.354 126.744C102.42 127.836 102.51 128.94 102.6 130.092Z" fill="black"/>
<path d="M111.978 103.152C106.908 102.504 105.378 100.344 105.378 100.344C108.594 97.3083 105.924 92.0522 105.924 92.0522L112.02 93.1923C111.88 94.0415 111.802 94.8997 111.786 95.7603C111.738 99.4623 113.412 99.4982 113.412 99.4982C114.486 101.502 111.978 103.152 111.978 103.152Z" fill="#E4897B"/>
<path opacity="0.2" d="M112.026 93.1923C111.886 94.0415 111.808 94.8997 111.792 95.7603C107.67 95.7603 105.93 92.0522 105.93 92.0522L112.026 93.1923Z" fill="black"/>
<path d="M109.29 76.1161C114.594 75.8221 115.794 78.3661 116.49 83.8081C117.354 90.6121 116.13 95.7661 109.422 94.6741C102.06 93.4741 99.996 81.8161 104.424 77.3581C105.462 76.3021 107.604 76.2001 109.29 76.1161Z" fill="#E4897B"/>
<path d="M113.064 84.498C113.531 85.2663 114.089 85.9754 114.726 86.61C114.584 86.838 114.381 87.022 114.141 87.1417C113.9 87.2614 113.631 87.3121 113.364 87.288L113.064 84.498Z" fill="#DE5753"/>
<path d="M109.854 83.8863C110.078 83.7728 110.259 83.5896 110.37 83.3643L109.452 83.8083C109.318 83.8861 109.212 84.0034 109.147 84.1442C109.083 84.2849 109.063 84.4421 109.092 84.5943C109.122 85.0323 109.386 85.3623 109.692 85.3443C109.998 85.3263 110.19 84.9483 110.16 84.5163C110.145 84.2741 110.035 84.0476 109.854 83.8863Z" fill="#263238"/>
<path d="M115.002 83.3999C115.226 83.2865 115.407 83.1033 115.518 82.8779L114.606 83.3219C114.472 83.4012 114.365 83.5194 114.3 83.6609C114.234 83.8024 114.213 83.9604 114.24 84.1139C114.276 84.5519 114.54 84.8819 114.84 84.8579C115.14 84.8339 115.338 84.4679 115.302 84.0299C115.298 83.9099 115.27 83.792 115.218 83.6835C115.166 83.5751 115.093 83.4785 115.002 83.3999Z" fill="#263238"/>
<path d="M109.848 81.4383C109.426 81.4113 109.003 81.4811 108.612 81.6423C108.221 81.8035 107.872 82.0518 107.592 82.3683" stroke="#263238" stroke-width="0.707336" stroke-linecap="round" stroke-linejoin="round"/>
<path d="M113.07 81.2219C113.397 81.0378 113.76 80.9298 114.134 80.9059C114.508 80.8821 114.883 80.9429 115.23 81.0839" stroke="#263238" stroke-width="0.707336" stroke-linecap="round" stroke-linejoin="round"/>
<path d="M100.686 100.902C100.686 100.902 106.638 105.732 112.176 105.654C117.714 105.576 119.664 99.3483 119.664 99.3483C119.664 99.3483 111.072 96.8043 100.686 100.902Z" fill="#E4897B"/>
<path d="M91.932 112.962C91.932 112.962 90.06 124.002 90.282 127.146C90.504 130.29 95.256 130.386 97.932 130.068C101.01 129.702 117.06 123.354 117.06 123.354L116.316 120.18C116.316 120.18 103.752 123.6 98.4 124.2C98.1499 124.225 97.8973 124.194 97.6614 124.107C97.4256 124.02 97.2127 123.88 97.039 123.698C96.8654 123.517 96.7355 123.298 96.6594 123.058C96.5834 122.818 96.563 122.565 96.6 122.316L97.842 114.12L91.932 112.962Z" fill="#E4897B"/>
<path d="M95.9039 101.646C95.9039 101.646 99.1859 100.92 99.8219 106.134C100.207 109.292 99.7943 112.495 98.6219 115.452L90.3059 113.952C90.3059 113.952 92.2199 101.916 95.9039 101.646Z" fill="#F58F00"/>
<path d="M120.414 117C120.209 116.876 119.967 116.827 119.73 116.862C118.746 117.114 115.758 120.072 115.584 120.462L116.352 123.264C116.352 123.264 117.924 124.104 118.686 123.864C119.448 123.624 123.312 120.78 123.318 120.096C123.322 120.058 123.322 120.02 123.318 119.982C123.456 119.88 123.57 119.796 123.648 119.748C124.302 119.34 121.884 117.534 120.414 117Z" fill="#E4897B"/>
<path d="M108.978 76.1343C108.978 76.1343 109.656 82.7823 104.112 83.0223C98.5679 83.2623 103.2 77.0643 103.2 77.0643L108.978 76.1343Z" fill="#263238"/>
<path d="M107.79 74.0823C98.676 74.3703 99.4319 87.7023 104.358 91.4223C104.358 91.4223 101.958 88.1943 103.35 85.3863C103.35 85.3863 105.15 81.0423 104.55 77.7003C105.959 77.0888 107.455 76.7021 108.984 76.5543C110.01 77.8023 112.584 81.5943 115.956 81.5163C116.151 82.1042 116.301 82.7059 116.406 83.3163C116.406 83.3163 116.916 73.8003 107.79 74.0823Z" fill="#263238"/>
<path d="M114.444 89.8443C113.928 90.1186 113.355 90.2671 112.771 90.2775C112.187 90.2879 111.609 90.16 111.084 89.9043C111.069 89.8961 111.056 89.8852 111.046 89.872C111.035 89.8588 111.028 89.8436 111.023 89.8274C111.019 89.8112 111.018 89.7942 111.02 89.7775C111.022 89.7609 111.028 89.7448 111.036 89.7303C111.043 89.7159 111.053 89.7032 111.065 89.6929C111.077 89.6825 111.091 89.6749 111.106 89.6704C111.122 89.6658 111.138 89.6646 111.153 89.6666C111.169 89.6687 111.184 89.674 111.198 89.6823C111.687 89.9163 112.224 90.0322 112.766 90.0208C113.308 90.0093 113.839 89.8707 114.318 89.6163C114.347 89.601 114.38 89.5975 114.412 89.6064C114.443 89.6154 114.47 89.6361 114.486 89.6643C114.501 89.6921 114.504 89.7248 114.495 89.7551C114.486 89.7855 114.466 89.811 114.438 89.8263L114.444 89.8443Z" fill="#263238"/>
<path d="M104.28 86.4602C104.195 85.8494 103.871 85.2972 103.38 84.9249C102.888 84.5526 102.269 84.3905 101.658 84.4742C100.026 84.7382 99.426 88.1582 103.56 88.7462C104.148 88.8302 104.448 88.2362 104.28 86.4602Z" fill="#E4897B"/>
<path d="M103.662 110.706L109.182 109.926C109.182 109.926 110.982 115.812 107.706 116.442C104.124 117.138 103.662 110.706 103.662 110.706Z" fill="#F58F00"/>
<path d="M124.458 142.422C124.182 139.698 123.75 135.99 123.198 133.074L123.252 129.858L102.69 131.658L102.504 134.658C102.024 135.546 99.9241 139.944 98.9761 150.702C103.252 152.253 107.801 152.912 112.341 152.637C116.882 152.363 121.318 151.161 125.376 149.106L124.458 142.422Z" fill="#263238"/>
<path d="M176.604 132.492L166.146 135.144C165.338 134.644 164.379 134.449 163.44 134.592C161.958 134.868 158.25 137.898 158.394 138.342C158.538 138.786 163.008 140.844 163.65 140.676C165.954 140.076 168.33 137.394 168.33 137.394L177.678 135.468L176.604 132.492Z" fill="#E4897B"/>
<path d="M202.8 94.8842C200.676 97.1462 195.048 96.9542 195.048 96.9542C195.048 96.9542 193.194 97.1162 192.732 95.5442C194.766 95.0402 195.078 93.5762 195.396 92.3102C195.553 91.5279 195.553 90.7224 195.396 89.9402C195.331 89.499 195.239 89.0622 195.12 88.6322L201.654 82.9502C201.048 86.4002 200.4 92.6042 202.8 94.8842Z" fill="#E4897B"/>
<path opacity="0.2" d="M200.346 86.3398C200.4 90.5398 197.07 91.9439 195.414 92.3099C195.571 91.5276 195.571 90.7221 195.414 89.9398L200.346 86.3398Z" fill="black"/>
<path d="M200.886 87.2641C200.251 88.3883 199.264 89.2726 198.077 89.781C196.89 90.2895 195.568 90.3938 194.316 90.0781C192.688 89.7044 191.264 88.721 190.338 87.3301C190.205 87.1381 190.085 86.9377 189.978 86.7301C187.968 82.9021 186.882 76.0201 190.866 73.0921C191.742 72.4348 192.773 72.0137 193.858 71.8693C194.944 71.7248 196.049 71.8619 197.066 72.2674C198.084 72.6728 198.98 73.333 199.669 74.1845C200.358 75.036 200.816 76.0503 201 77.1301C201.864 81.7201 202.596 84.3781 200.886 87.2641Z" fill="#E4897B"/>
<path d="M194.178 80.4298C194.242 80.5697 194.249 80.7285 194.199 80.8736C194.148 81.0187 194.044 81.139 193.908 81.2098C193.668 81.2698 193.398 81.0178 193.308 80.6518C193.218 80.2858 193.338 79.9318 193.578 79.8718C193.818 79.8118 194.082 80.0578 194.178 80.4298Z" fill="#263238"/>
<path d="M190.128 81.2822C190.248 81.6422 190.098 82.0022 189.864 82.0622C189.63 82.1222 189.348 81.8702 189.264 81.5042C189.18 81.1382 189.294 80.7842 189.534 80.7242C189.774 80.6642 190.038 80.9342 190.128 81.2822Z" fill="#263238"/>
<path d="M191.586 81.396C191.471 82.602 191.186 83.7857 190.74 84.912C191.34 85.152 192.18 84.774 192.75 84.462L191.586 81.396Z" fill="#DE5753"/>
<path d="M195.378 78.462C195.34 78.4769 195.299 78.4813 195.259 78.475C195.219 78.4687 195.181 78.4518 195.15 78.426C194.935 78.2458 194.681 78.1184 194.408 78.0538C194.135 77.9892 193.851 77.9893 193.578 78.054C193.55 78.0663 193.519 78.0726 193.488 78.0724C193.457 78.0723 193.427 78.0656 193.399 78.053C193.371 78.0404 193.345 78.022 193.325 77.999C193.304 77.9761 193.288 77.9491 193.279 77.9197C193.269 77.8904 193.266 77.8594 193.269 77.8286C193.272 77.7979 193.281 77.7681 193.296 77.7412C193.311 77.7143 193.332 77.6909 193.357 77.6725C193.382 77.654 193.41 77.6409 193.44 77.634C193.783 77.5468 194.141 77.5415 194.486 77.6187C194.831 77.6958 195.153 77.8532 195.426 78.078C195.449 78.0957 195.469 78.1178 195.484 78.1431C195.498 78.1684 195.508 78.1963 195.512 78.2253C195.516 78.2543 195.514 78.2838 195.506 78.312C195.499 78.3403 195.486 78.3668 195.468 78.39C195.442 78.4189 195.412 78.4432 195.378 78.462Z" fill="#263238"/>
<path d="M193.608 86.2799C194.154 86.2216 194.679 86.0346 195.139 85.7342C195.599 85.4338 195.981 85.0287 196.254 84.5519C196.261 84.5382 196.265 84.5232 196.266 84.5078C196.267 84.4924 196.265 84.477 196.26 84.4624C196.255 84.4478 196.247 84.4344 196.237 84.423C196.227 84.4115 196.214 84.4023 196.2 84.3959C196.187 84.3888 196.173 84.3843 196.158 84.3829C196.143 84.3814 196.129 84.383 196.115 84.3875C196.101 84.392 196.088 84.3993 196.076 84.409C196.065 84.4187 196.056 84.4306 196.05 84.4439C195.791 84.8824 195.433 85.2544 195.005 85.5304C194.577 85.8065 194.09 85.9788 193.584 86.0339C193.568 86.0347 193.553 86.0386 193.539 86.0454C193.525 86.0522 193.513 86.0618 193.503 86.0736C193.493 86.0854 193.485 86.0992 193.48 86.114C193.476 86.1288 193.474 86.1445 193.476 86.1599C193.477 86.1749 193.482 86.1895 193.489 86.2028C193.496 86.216 193.506 86.2277 193.518 86.2372C193.529 86.2467 193.543 86.2538 193.557 86.258C193.572 86.2623 193.587 86.2636 193.602 86.2619L193.608 86.2799Z" fill="#263238"/>
<path d="M188.088 80.2082C188.053 80.2372 188.008 80.2521 187.962 80.2502C187.933 80.2452 187.906 80.2344 187.882 80.2186C187.857 80.2028 187.836 80.1823 187.82 80.1582C187.804 80.1341 187.793 80.107 187.787 80.0784C187.782 80.0499 187.782 80.0206 187.788 79.9922C187.853 79.6433 188 79.3149 188.217 79.0342C188.434 78.7535 188.715 78.5286 189.036 78.3782C189.063 78.3675 189.092 78.3623 189.121 78.3628C189.151 78.3634 189.179 78.3697 189.206 78.3814C189.233 78.3931 189.257 78.41 189.277 78.431C189.298 78.4521 189.313 78.4769 189.324 78.5042C189.335 78.5313 189.34 78.5604 189.339 78.5896C189.339 78.6188 189.332 78.6475 189.321 78.6743C189.309 78.701 189.292 78.7252 189.271 78.7455C189.25 78.7657 189.225 78.7816 189.198 78.7922C188.947 78.9179 188.729 79.1006 188.561 79.3256C188.394 79.5507 188.281 79.8118 188.232 80.0882C188.218 80.117 188.197 80.1426 188.173 80.1632C188.148 80.1839 188.119 80.1992 188.088 80.2082Z" fill="#263238"/>
<path d="M203.904 80.3401C203.658 81.4921 202.968 82.5008 201.984 83.1481C200.67 83.9881 199.584 82.9261 199.536 81.4501C199.536 80.1361 200.184 78.0721 201.69 77.8501C203.196 77.6281 204.18 78.9241 203.904 80.3401Z" fill="#E4897B"/>
<path d="M183.24 98.448C180.992 100.589 179.338 103.276 178.44 106.248C177.312 109.848 176.256 118.326 175.74 122.928C175.632 123.817 175.24 124.647 174.623 125.295C174.006 125.944 173.196 126.376 172.314 126.528L159.678 128.73L160.686 135.156L176.694 133.614C178.407 133.449 180.021 132.736 181.297 131.58C182.572 130.425 183.441 128.889 183.774 127.2C184.752 122.25 186.06 115.074 186.654 109.392C187.662 99.738 186.6 97.452 183.24 98.448Z" fill="#F58F00"/>
<path opacity="0.1" d="M183.24 98.448C180.992 100.589 179.338 103.276 178.44 106.248C177.312 109.848 176.256 118.326 175.74 122.928C175.632 123.817 175.24 124.647 174.623 125.295C174.006 125.944 173.196 126.376 172.314 126.528L159.678 128.73L160.686 135.156L176.694 133.614C178.407 133.449 180.021 132.736 181.297 131.58C182.572 130.425 183.441 128.889 183.774 127.2C184.752 122.25 186.06 115.074 186.654 109.392C187.662 99.738 186.6 97.452 183.24 98.448Z" fill="black"/>
<path d="M174.366 241.26L169.614 240.09L172.32 229.908L177.072 231.078L174.366 241.26Z" fill="#E4897B"/>
<path d="M169.662 238.446L175.062 240.39C175.151 240.422 175.225 240.484 175.273 240.565C175.321 240.646 175.34 240.741 175.326 240.834L174.78 245.1C174.755 245.283 174.658 245.449 174.511 245.562C174.363 245.674 174.178 245.724 173.994 245.7C173.942 245.692 173.892 245.678 173.844 245.658C172.11 245.004 170.88 244.458 168.69 243.648C167.34 243.156 163.218 241.848 161.358 241.158C159.498 240.468 159.918 238.56 160.758 238.662C164.448 239.154 167.394 239.052 168.84 238.464C169.102 238.355 169.395 238.349 169.662 238.446Z" fill="#2E353A"/>
<path d="M167.91 238.692C167.599 238.61 167.327 238.421 167.142 238.158C167.086 238.06 167.057 237.949 167.057 237.837C167.057 237.724 167.086 237.614 167.142 237.516C167.163 237.454 167.201 237.399 167.252 237.359C167.303 237.318 167.365 237.294 167.43 237.288C168.03 237.21 169.128 238.608 169.23 238.77C169.244 238.787 169.251 238.808 169.251 238.83C169.251 238.852 169.244 238.873 169.23 238.89C169.221 238.91 169.206 238.927 169.186 238.938C169.167 238.949 169.144 238.953 169.122 238.95C168.71 238.908 168.303 238.822 167.91 238.692ZM167.58 237.534C167.533 237.522 167.483 237.522 167.436 237.534C167.436 237.534 167.358 237.534 167.322 237.63C167.288 237.697 167.27 237.771 167.27 237.846C167.27 237.921 167.288 237.995 167.322 238.062C167.74 238.465 168.295 238.696 168.876 238.71C168.523 238.239 168.083 237.84 167.58 237.534Z" fill="#F58F00"/>
<path d="M169.104 238.944H169.05C168.684 238.53 168.15 237.234 168.408 236.802C168.452 236.73 168.519 236.674 168.599 236.646C168.679 236.617 168.766 236.617 168.846 236.646C168.93 236.664 169.01 236.699 169.079 236.75C169.148 236.8 169.206 236.865 169.248 236.94C169.608 237.54 169.248 238.86 169.248 238.926C169.242 238.945 169.232 238.962 169.217 238.975C169.202 238.987 169.183 238.996 169.164 238.998C169.151 238.994 169.138 238.987 169.128 238.978C169.118 238.969 169.11 238.957 169.104 238.944ZM168.858 236.826H168.81C168.672 236.778 168.636 236.856 168.618 236.88C168.456 237.15 168.756 238.08 169.086 238.602C169.248 238.089 169.248 237.538 169.086 237.024C169.064 236.977 169.032 236.936 168.993 236.901C168.953 236.867 168.908 236.842 168.858 236.826Z" fill="#F58F00"/>
<path opacity="0.2" d="M177.072 231.078L172.32 229.908L170.928 235.164L175.68 236.328L177.072 231.078Z" fill="black"/>
<path d="M205.83 241.212L200.97 241.788L199.92 231.306L204.78 230.73L205.83 241.212Z" fill="#E4897B"/>
<path d="M200.436 240.234L206.166 240.156C206.261 240.156 206.352 240.188 206.426 240.247C206.5 240.306 206.553 240.388 206.574 240.48L207.558 244.68C207.598 244.86 207.564 245.049 207.465 245.205C207.367 245.361 207.21 245.472 207.03 245.514C206.978 245.52 206.926 245.52 206.874 245.514C205.02 245.514 203.67 245.412 201.342 245.442C199.908 245.442 195.588 245.664 193.608 245.694C191.628 245.724 191.34 243.762 192.15 243.576C195.75 242.736 198.498 241.602 199.65 240.54C199.862 240.339 200.144 240.229 200.436 240.234Z" fill="#2E353A"/>
<path d="M198.888 241.08C198.567 241.111 198.245 241.031 197.976 240.852C197.887 240.781 197.819 240.689 197.777 240.584C197.735 240.478 197.721 240.364 197.736 240.252C197.733 240.186 197.749 240.122 197.782 240.065C197.815 240.009 197.863 239.963 197.922 239.934C198.444 239.658 199.98 240.576 200.148 240.678C200.167 240.688 200.183 240.704 200.193 240.723C200.202 240.742 200.206 240.764 200.202 240.786C200.2 240.809 200.191 240.83 200.176 240.848C200.161 240.865 200.14 240.877 200.118 240.882C199.717 240.995 199.304 241.062 198.888 241.08ZM198.174 240.114C198.124 240.108 198.074 240.119 198.03 240.144C198 240.144 197.964 240.186 197.958 240.276C197.95 240.35 197.96 240.426 197.987 240.496C198.014 240.566 198.058 240.628 198.114 240.678C198.646 240.91 199.247 240.931 199.794 240.738C199.299 240.427 198.749 240.215 198.174 240.114Z" fill="#F58F00"/>
<path d="M200.088 240.9H200.034C199.548 240.642 198.594 239.616 198.684 239.1C198.698 239.016 198.742 238.94 198.806 238.885C198.871 238.83 198.953 238.8 199.038 238.8C199.122 238.788 199.208 238.794 199.29 238.818C199.372 238.842 199.447 238.883 199.512 238.938C200.064 239.376 200.196 240.738 200.202 240.792C200.203 240.812 200.199 240.832 200.189 240.85C200.18 240.868 200.165 240.883 200.148 240.894L200.088 240.9ZM199.116 238.998H199.062C198.918 238.998 198.906 239.082 198.906 239.112C198.846 239.418 199.458 240.198 199.95 240.558C199.906 240.018 199.696 239.505 199.35 239.088C199.286 239.029 199.203 238.997 199.116 238.998Z" fill="#F58F00"/>
<path opacity="0.2" d="M204.78 230.73L199.92 231.306L200.466 236.712L205.326 236.136L204.78 230.73Z" fill="black"/>
<path d="M183.228 145.416C183.228 145.416 171 205.2 170.58 228.156L178.728 231.798C178.728 231.798 185.364 205.86 187.518 191.286C187.518 191.286 193.23 179.712 194.766 170.286C194.766 170.286 194.448 211.686 198.738 233.532L206.382 232.932C206.382 232.932 214.092 155.268 212.7 142.836L183.228 145.416Z" fill="#F58F00"/>
<path opacity="0.6" d="M183.228 145.416C183.228 145.416 171 205.2 170.58 228.156L178.728 231.798C178.728 231.798 185.364 205.86 187.518 191.286C187.518 191.286 193.23 179.712 194.766 170.286C194.766 170.286 194.448 211.686 198.738 233.532L206.382 232.932C206.382 232.932 214.092 155.268 212.7 142.836L183.228 145.416Z" fill="white"/>
<path opacity="0.2" d="M193.44 155.196C193.44 155.196 192.534 169.41 193.824 174.63C194.214 173.16 194.538 171.696 194.766 170.28L193.44 155.196Z" fill="black"/>
<path d="M197.766 235.266L208.26 233.706L207.936 230.802L197.028 232.23L197.766 235.266Z" fill="#F58F00"/>
<path d="M169.2 230.394L179.334 233.514L180.3 230.76L169.842 227.334L169.2 230.394Z" fill="#F58F00"/>
<path d="M183.24 98.448C183.24 98.448 184.536 95.886 195.924 95.226C207.312 94.566 212.4 96.252 212.4 96.252C212.4 96.252 211.368 120.36 212.688 142.842C212.688 142.842 193.644 149.628 183.216 145.416C183.228 145.416 175.416 116.298 183.24 98.448Z" fill="#F58F00"/>
<path opacity="0.2" d="M200.004 95.082C198.744 95.082 197.388 95.142 195.924 95.226C195.042 95.28 194.232 95.34 193.47 95.412C193.47 95.412 194.442 97.254 195.924 97.254C196.731 97.2565 197.525 97.0595 198.237 96.6805C198.949 96.3016 199.556 95.7524 200.004 95.082Z" fill="black"/>
<path opacity="0.3" d="M212.106 126.408L194.766 135.174C194.766 135.174 205.698 135.51 212.232 131.964C212.18 130.088 212.138 128.236 212.106 126.408Z" fill="black"/>
<path opacity="0.1" d="M195.702 101.976L201.864 129.39L200.496 132.936L195.702 101.976Z" fill="black"/>
<path d="M195.75 102.743L163.3 107.66L167.998 138.672L200.449 133.756L195.75 102.743Z" fill="#F58F00"/>
<path opacity="0.1" d="M195.75 102.743L163.3 107.66L167.998 138.672L200.449 133.756L195.75 102.743Z" fill="white"/>
<path d="M171.296 105.748L146.191 109.634L150.983 140.592L176.088 136.705L171.296 105.748Z" fill="#F58F00"/>
<path opacity="0.3" d="M171.296 105.748L146.191 109.634L150.983 140.592L176.088 136.705L171.296 105.748Z" fill="white"/>
<path opacity="0.3" d="M162.3 107.137L155.197 108.236L156.487 116.573L163.591 115.473L162.3 107.137Z" fill="white"/>
<path opacity="0.1" d="M188.805 103.04L181.701 104.14L182.992 112.477L190.095 111.377L188.805 103.04Z" fill="black"/>
<path opacity="0.2" d="M173.523 130.518L165.761 131.72L166.493 136.445L174.255 135.244L173.523 130.518Z" fill="white"/>
<path opacity="0.2" d="M185.646 134.928L184.848 133.872L182.274 134.424C182.137 134.862 182.084 135.322 182.118 135.78L185.718 135.228L185.646 134.928Z" fill="#2E353A"/>
<path d="M181.2 121.932C180.6 122.136 179.76 122.124 179.676 121.332C179.61 120.672 180.39 120.132 180.984 120.24C181.03 120.248 181.078 120.237 181.116 120.21C181.154 120.183 181.18 120.142 181.188 120.096C181.196 120.05 181.185 120.003 181.158 119.964C181.131 119.926 181.09 119.9 181.044 119.892C180.832 119.862 180.615 119.878 180.409 119.938C180.203 119.998 180.013 120.102 179.85 120.241C179.687 120.381 179.556 120.554 179.465 120.748C179.374 120.942 179.325 121.154 179.322 121.368C179.424 122.412 180.522 122.568 181.332 122.268C181.566 122.19 181.44 121.854 181.2 121.932Z" fill="white"/>
<path d="M181.8 118.632C181.746 118.41 181.392 118.446 181.44 118.668C181.7 119.812 181.954 120.954 182.202 122.094C182.25 122.316 182.604 122.286 182.556 122.058L181.8 118.632Z" fill="white"/>
<path d="M183.93 119.304C183.906 119.31 183.885 119.325 183.87 119.346C182.268 119.652 183.21 122.154 184.698 121.692C185.004 121.559 185.25 121.317 185.389 121.014C185.527 120.71 185.548 120.366 185.448 120.048C185.412 119.89 185.341 119.742 185.241 119.615C185.14 119.487 185.012 119.384 184.867 119.313C184.721 119.242 184.562 119.204 184.399 119.202C184.237 119.201 184.077 119.235 183.93 119.304ZM184.722 121.29C183.672 121.89 182.742 119.898 183.936 119.694C183.973 119.689 184.006 119.672 184.032 119.646C185.1 119.202 185.538 120.822 184.722 121.29Z" fill="white"/>
<path d="M186.924 118.356L186.27 118.47L186.162 117.762C186.126 117.534 185.772 117.57 185.808 117.798C185.844 118.026 185.88 118.284 185.922 118.53L185.274 118.638C185.052 118.68 185.082 119.034 185.31 118.998L185.976 118.884L186.372 121.458C186.408 121.68 186.762 121.644 186.726 121.416C186.594 120.552 186.456 119.688 186.324 118.824L186.966 118.71C187.2 118.674 187.152 118.314 186.924 118.356Z" fill="white"/>
<path d="M189.432 118.83C189.214 118.701 188.963 118.638 188.71 118.647C188.457 118.657 188.212 118.739 188.004 118.884C187.92 118.416 187.83 117.948 187.734 117.48C187.686 117.258 187.332 117.294 187.38 117.522C187.624 118.722 187.824 119.922 187.98 121.122C188.016 121.35 188.37 121.314 188.334 121.086C188.25 120.486 188.154 119.886 188.052 119.286C188.145 119.194 188.256 119.122 188.378 119.074C188.5 119.027 188.631 119.006 188.761 119.011C188.892 119.017 189.02 119.05 189.138 119.107C189.255 119.165 189.36 119.246 189.444 119.346C189.661 119.804 189.774 120.304 189.774 120.81C189.785 120.852 189.81 120.888 189.846 120.913C189.881 120.937 189.924 120.948 189.967 120.944C190.009 120.94 190.049 120.92 190.079 120.889C190.109 120.858 190.126 120.817 190.128 120.774C190.092 120.126 190.068 119.172 189.432 118.83Z" fill="white"/>
<path d="M190.944 118.146C190.8 118.222 190.674 118.329 190.574 118.458C190.474 118.587 190.402 118.736 190.364 118.895C190.326 119.054 190.322 119.219 190.353 119.38C190.384 119.54 190.448 119.692 190.542 119.826C190.62 119.988 190.73 120.133 190.866 120.25C191.002 120.368 191.162 120.456 191.334 120.509C191.505 120.562 191.687 120.579 191.865 120.558C192.044 120.538 192.217 120.48 192.372 120.39C192.576 120.288 192.45 119.952 192.246 120.054C192.08 120.173 191.878 120.231 191.673 120.219C191.469 120.207 191.275 120.125 191.124 119.988C191.008 119.881 190.91 119.755 190.836 119.616C191.364 119.658 192.33 119.55 192.354 118.974C192.384 118.236 191.538 117.912 190.944 118.146ZM191.952 119.028C191.898 119.112 191.652 119.166 191.556 119.196C191.285 119.284 190.996 119.3 190.716 119.244C190.698 119.147 190.699 119.049 190.72 118.953C190.741 118.857 190.78 118.766 190.836 118.686C190.922 118.579 191.039 118.5 191.171 118.462C191.303 118.423 191.444 118.426 191.574 118.47C191.748 118.512 192.12 118.8 191.952 119.028Z" fill="white"/>
<path d="M195 118.842C194.901 118.671 194.747 118.538 194.563 118.465C194.379 118.392 194.176 118.383 193.986 118.44C193.698 118.5 193.002 118.788 193.158 118.218C193.254 117.84 193.758 117.696 194.112 117.726C194.34 117.726 194.4 117.396 194.166 117.372C193.566 117.318 192.408 117.858 192.78 118.644C192.954 119.01 193.38 118.968 193.728 118.884C193.918 118.806 194.123 118.767 194.328 118.77C194.404 118.775 194.476 118.801 194.537 118.845C194.599 118.889 194.647 118.949 194.676 119.019C194.705 119.089 194.715 119.165 194.703 119.24C194.691 119.314 194.659 119.384 194.61 119.442C194.358 119.772 193.866 119.712 193.506 119.652C193.461 119.648 193.416 119.661 193.38 119.688C193.343 119.716 193.319 119.756 193.312 119.801C193.304 119.846 193.314 119.892 193.339 119.93C193.364 119.968 193.402 119.995 193.446 120.006C193.671 120.07 193.907 120.083 194.137 120.045C194.367 120.006 194.586 119.917 194.778 119.784C194.909 119.669 195 119.517 195.04 119.348C195.08 119.18 195.066 119.002 195 118.842Z" fill="white"/>
<path d="M200.538 128.748L190.056 131.304C189.254 130.79 188.295 130.577 187.35 130.704C185.874 130.968 182.136 133.962 182.274 134.406C182.412 134.85 185.874 137.562 186.516 137.364C187.158 137.166 191.196 134.31 191.196 134.31L201.18 133.476L200.538 128.748Z" fill="#E4897B"/>
<path d="M211.734 96.2161C211.734 96.2161 207.33 97.3861 207.954 105.558C208.23 109.11 208.368 112.902 208.44 116.058C208.484 118.169 207.926 120.25 206.831 122.056C205.737 123.862 204.152 125.319 202.26 126.258L193.656 129.774L194.766 135.174C194.766 135.174 207.27 134.028 211.668 130.512C216.066 126.996 217.596 119.49 216.882 113.268C215.886 104.628 216.216 95.8681 211.734 96.2161Z" fill="#F58F00"/>
<path opacity="0.1" d="M211.734 96.2161C211.734 96.2161 207.33 97.3861 207.954 105.558C208.23 109.11 208.368 112.902 208.44 116.058C208.484 118.169 207.926 120.25 206.831 122.056C205.737 123.862 204.152 125.319 202.26 126.258L193.656 129.774L194.766 135.174C194.766 135.174 207.27 134.028 211.668 130.512C216.066 126.996 217.596 119.49 216.882 113.268C215.886 104.628 216.216 95.8681 211.734 96.2161Z" fill="black"/>
<path d="M194.472 128.406L195.204 135.918L193.182 136.11L192.108 129.078L194.472 128.406Z" fill="#F58F00"/>
<path opacity="0.6" d="M194.472 128.406L195.204 135.918L193.182 136.11L192.108 129.078L194.472 128.406Z" fill="white"/>
<path opacity="0.4" d="M205.047 107.775L198.073 108.399L198.172 109.51L205.147 108.887L205.047 107.775Z" fill="white"/>
<path d="M195.924 95.2258L198.18 98.2258L202.938 95.0878V94.7998C202.949 94.548 202.901 94.2971 202.797 94.0677C202.692 93.8383 202.535 93.6368 202.338 93.4798C202.111 93.3397 201.852 93.2573 201.586 93.2395C201.319 93.2217 201.052 93.2692 200.808 93.3778L195.924 95.2258Z" fill="#F58F00"/>
<path d="M192.75 95.4658L193.308 94.5418C194.01 93.7138 194.568 94.1398 194.568 94.1398L195.924 95.2258L193.944 98.2258L192.75 95.4658Z" fill="#F58F00"/>
<path opacity="0.6" d="M195.924 95.2258L198.18 98.2258L202.938 95.0878V94.7998C202.949 94.548 202.901 94.2971 202.797 94.0677C202.692 93.8383 202.535 93.6368 202.338 93.4798C202.111 93.3397 201.852 93.2573 201.586 93.2395C201.319 93.2217 201.052 93.2692 200.808 93.3778L195.924 95.2258Z" fill="white"/>
<path opacity="0.6" d="M192.75 95.4658L193.308 94.5418C194.01 93.7138 194.568 94.1398 194.568 94.1398L195.924 95.2258L193.944 98.2258L192.75 95.4658Z" fill="white"/>
<path d="M203.784 80.22C204.102 78.168 202.68 77.886 201.744 78.132C200.808 78.378 199.794 79.866 199.794 79.866C198.882 78.39 198.366 74.652 198.366 74.652C197.207 75.2926 195.915 75.6553 194.591 75.7115C193.268 75.7677 191.95 75.5159 190.74 74.976C190.274 76.2365 189.402 77.3065 188.262 78.018C188.262 78.018 186.57 77.244 187.512 73.356C188.58 68.934 195.222 64.656 201.912 69.066C208.602 73.476 204.552 81.666 204.552 81.666C204.552 81.666 203.034 84.348 201.69 85.356C201.804 84.56 201.804 83.7519 201.69 82.956C202.235 82.7047 202.711 82.3242 203.076 81.8474C203.441 81.3706 203.684 80.812 203.784 80.22Z" fill="#2E353A"/>
<path d="M189.948 73.8779C190.335 74.3506 190.783 74.7703 191.28 75.1259C191.786 75.4869 192.334 75.7851 192.912 76.0139C193.489 76.2413 194.095 76.3887 194.712 76.4519C195.344 76.5119 195.981 76.4938 196.608 76.3979C195.985 76.5437 195.346 76.6122 194.706 76.6019C194.057 76.5901 193.413 76.4871 192.792 76.2959C192.16 76.1098 191.555 75.8415 190.992 75.4979C190.42 75.1557 189.898 74.738 189.438 74.2559L189.948 73.8779Z" fill="#2E353A"/>
<path d="M267.102 107.784C262.242 103.44 256.566 109.332 256.566 109.332C256.566 109.332 250.884 103.44 246.03 107.784C239.106 113.982 249.174 125.082 256.566 127.302C263.958 125.082 274.026 114 267.102 107.784Z" fill="#F58F00"/>
<path opacity="0.6" d="M267.102 107.784C262.242 103.44 256.566 109.332 256.566 109.332C256.566 109.332 250.884 103.44 246.03 107.784C239.106 113.982 249.174 125.082 256.566 127.302C263.958 125.082 274.026 114 267.102 107.784Z" fill="white"/>
<path d="M169.002 50.0042C164.142 45.6602 158.466 51.5522 158.466 51.5522C158.466 51.5522 152.784 45.6602 147.93 50.0042C141.006 56.1962 151.074 67.2962 158.466 69.5222C165.858 67.2962 175.926 56.1962 169.002 50.0042Z" fill="#F58F00"/>
<path opacity="0.6" d="M169.002 50.0042C164.142 45.6602 158.466 51.5522 158.466 51.5522C158.466 51.5522 152.784 45.6602 147.93 50.0042C141.006 56.1962 151.074 67.2962 158.466 69.5222C165.858 67.2962 175.926 56.1962 169.002 50.0042Z" fill="white"/>
<path d="M226.104 68.0404C224.118 66.2404 221.796 68.6764 221.796 68.6764C221.796 68.6764 219.48 66.2764 217.494 68.0404C214.662 70.5724 218.778 75.1084 221.796 76.0204C224.82 75.1084 228.93 70.5724 226.104 68.0404Z" fill="#F58F00"/>
<path opacity="0.6" d="M226.104 68.0404C224.118 66.2404 221.796 68.6764 221.796 68.6764C221.796 68.6764 219.48 66.2764 217.494 68.0404C214.662 70.5724 218.778 75.1084 221.796 76.0204C224.82 75.1084 228.93 70.5724 226.104 68.0404Z" fill="white"/>
<path d="M44.6821 115.716C42.6961 113.916 40.3801 116.352 40.3801 116.352C40.3801 116.352 38.0581 113.952 36.0721 115.716C33.2461 118.248 37.3561 122.784 40.3801 123.69C43.3981 122.784 47.5141 118.248 44.6821 115.716Z" fill="#F58F00"/>
<path opacity="0.6" d="M44.6821 115.716C42.6961 113.916 40.3801 116.352 40.3801 116.352C40.3801 116.352 38.0581 113.952 36.0721 115.716C33.2461 118.248 37.3561 122.784 40.3801 123.69C43.3981 122.784 47.5141 118.248 44.6821 115.716Z" fill="white"/>
</svg>
