<svg width="300" height="300" viewBox="0 0 300 300" fill="none" xmlns="http://www.w3.org/2000/svg">
<path d="M205.2 38.25C185.64 30.99 161.868 33.99 143.46 43.182C134.202 47.808 128.034 54.792 120.66 61.782C110.31 71.538 101.322 72.582 88.26 76.068C50.232 86.268 47.1 128.058 56.694 154.596C68.364 186.87 102.096 207.342 136.752 203.196C160.092 200.412 180.612 192.696 196.5 178.596C208.908 167.574 207.93 154.362 207.24 138.996C206.718 127.242 205.296 114.294 209.91 103.098C214.11 92.856 223.902 96.294 230.31 88.566C246.666 68.85 221.664 44.364 205.2 38.25Z" fill="#F58F00"/>
<path opacity="0.9" d="M205.2 38.25C185.64 30.99 161.868 33.99 143.46 43.182C134.202 47.808 128.034 54.792 120.66 61.782C110.31 71.538 101.322 72.582 88.26 76.068C50.232 86.268 47.1 128.058 56.694 154.596C68.364 186.87 102.096 207.342 136.752 203.196C160.092 200.412 180.612 192.696 196.5 178.596C208.908 167.574 207.93 154.362 207.24 138.996C206.718 127.242 205.296 114.294 209.91 103.098C214.11 92.856 223.902 96.294 230.31 88.566C246.666 68.85 221.664 44.364 205.2 38.25Z" fill="white"/>
<path d="M193.878 176.868C198.03 152.358 199.758 122.814 199.758 122.814L176.892 122.442C176.892 122.442 179.526 162.27 180.438 178.95C181.386 196.29 182.376 235.83 182.376 235.83H192.882C192.882 235.83 196.2 198.306 193.878 176.868Z" fill="#263238"/>
<path d="M191.238 243.876L191.544 248.766C191.546 248.891 191.522 249.015 191.476 249.132C191.429 249.248 191.36 249.354 191.273 249.444C191.186 249.533 191.081 249.605 190.966 249.654C190.851 249.704 190.727 249.73 190.602 249.732C189.048 249.732 188.346 249.486 185.64 249.444C182.472 249.39 179.772 249.792 176.04 249.732C173.79 249.696 174.096 246.96 175.848 246.498C179.592 245.508 181.392 243.654 183.204 242.568C183.774 240.804 183.63 234.828 183.63 234.828L192.234 235.398C192.234 235.398 191.268 241.32 191.238 243.876Z" fill="#F58F00"/>
<path d="M221.814 248.046L220.722 243.846C220.338 241.29 220.302 235.368 220.302 235.368L212.244 235.572C212.244 235.572 213.078 240.972 213.096 242.874C211.59 243.96 210.096 245.478 206.772 246.474C205.218 246.936 205.47 249.672 207.558 249.708C211.02 249.768 213.468 249.366 216.414 249.42C218.94 249.462 219.24 249.708 220.686 249.708C220.885 249.711 221.082 249.665 221.259 249.573C221.436 249.481 221.588 249.347 221.699 249.182C221.811 249.017 221.881 248.827 221.901 248.628C221.92 248.43 221.891 248.23 221.814 248.046Z" fill="#F58F00"/>
<path d="M182.814 237.216L192.48 237.366C192.671 237.369 192.857 237.302 193.002 237.177C193.147 237.052 193.241 236.878 193.266 236.688L193.68 233.496C193.694 233.388 193.686 233.278 193.655 233.173C193.624 233.068 193.572 232.971 193.501 232.888C193.43 232.805 193.343 232.738 193.245 232.691C193.146 232.643 193.039 232.617 192.93 232.614L182.4 232.284C182.287 232.281 182.174 232.303 182.07 232.348C181.966 232.393 181.873 232.46 181.797 232.544C181.721 232.629 181.664 232.728 181.631 232.837C181.597 232.945 181.587 233.059 181.602 233.172L182.04 236.538C182.065 236.726 182.157 236.898 182.299 237.023C182.442 237.147 182.625 237.216 182.814 237.216Z" fill="#263238"/>
<path opacity="0.1" d="M182.814 237.216L192.48 237.366C192.671 237.369 192.857 237.302 193.002 237.177C193.147 237.052 193.241 236.878 193.266 236.688L193.68 233.496C193.694 233.388 193.686 233.278 193.655 233.173C193.624 233.068 193.572 232.971 193.501 232.888C193.43 232.805 193.343 232.738 193.245 232.691C193.146 232.643 193.039 232.617 192.93 232.614L182.4 232.284C182.287 232.281 182.174 232.303 182.07 232.348C181.966 232.393 181.873 232.46 181.797 232.544C181.721 232.629 181.664 232.728 181.631 232.837C181.597 232.945 181.587 233.059 181.602 233.172L182.04 236.538C182.065 236.726 182.157 236.898 182.299 237.023C182.442 237.147 182.625 237.216 182.814 237.216Z" fill="white"/>
<path d="M213 176.172C209.892 151.53 209.664 135.06 206.214 122.916L185.4 122.604C185.4 122.604 194.796 161.7 199.128 177.984C203.46 194.268 211.332 235.386 211.332 235.386L221.532 235.512C221.532 235.512 218.796 195.24 213 176.172Z" fill="#263238"/>
<path d="M211.356 237.216L221.016 237.366C221.216 237.369 221.41 237.296 221.557 237.161C221.704 237.026 221.794 236.839 221.808 236.64L222.018 233.448C222.025 233.343 222.011 233.238 221.977 233.138C221.943 233.039 221.888 232.948 221.818 232.87C221.747 232.792 221.662 232.729 221.566 232.685C221.471 232.641 221.367 232.617 221.262 232.614L210.744 232.29C210.627 232.287 210.511 232.31 210.404 232.358C210.297 232.406 210.202 232.477 210.126 232.566C210.05 232.655 209.995 232.76 209.965 232.873C209.935 232.986 209.931 233.105 209.952 233.22L210.6 236.58C210.634 236.756 210.728 236.916 210.866 237.031C211.003 237.147 211.176 237.212 211.356 237.216Z" fill="#263238"/>
<path opacity="0.1" d="M211.356 237.216L221.016 237.366C221.216 237.369 221.41 237.296 221.557 237.161C221.704 237.026 221.794 236.839 221.808 236.64L222.018 233.448C222.025 233.343 222.011 233.238 221.977 233.138C221.943 233.039 221.888 232.948 221.818 232.87C221.747 232.792 221.662 232.729 221.566 232.685C221.471 232.641 221.367 232.617 221.262 232.614L210.744 232.29C210.627 232.287 210.511 232.31 210.404 232.358C210.297 232.406 210.202 232.477 210.126 232.566C210.05 232.655 209.995 232.76 209.965 232.873C209.935 232.986 209.931 233.105 209.952 233.22L210.6 236.58C210.634 236.756 210.728 236.916 210.866 237.031C211.003 237.147 211.176 237.212 211.356 237.216Z" fill="white"/>
<path d="M182.778 84.9418C181.362 87.6658 179.898 90.3718 178.416 93.0598C176.934 95.7478 175.416 98.4598 173.916 101.106L171.648 105.108L171.084 106.11L170.802 106.608L170.652 106.866L170.442 107.202C169.827 108.201 169.049 109.09 168.138 109.83C167.013 110.76 165.627 111.317 164.172 111.426C162.85 111.507 161.533 111.209 160.374 110.568C159.468 110.072 158.648 109.434 157.944 108.678C157.622 108.337 157.322 107.976 157.044 107.598C156.76 107.212 156.498 106.812 156.258 106.398C156.029 106.018 155.929 105.575 155.975 105.134C156.02 104.693 156.208 104.279 156.509 103.954C156.811 103.629 157.21 103.412 157.647 103.334C158.083 103.256 158.533 103.323 158.928 103.524L159.432 103.776C159.642 103.884 159.966 104.094 160.236 104.238C160.506 104.382 160.806 104.544 161.082 104.67C161.561 104.903 162.073 105.063 162.6 105.144C163.026 105.198 163.29 105.084 163.32 104.982C163.327 104.93 163.327 104.878 163.32 104.826C163.341 104.749 163.374 104.677 163.416 104.61C163.599 104.278 163.761 103.935 163.902 103.584L163.974 103.41L164.094 103.158L164.34 102.636L164.838 101.58C165.498 100.184 166.174 98.7838 166.866 97.3798C168.222 94.5998 169.622 91.8438 171.066 89.1118C172.488 86.3698 173.94 83.6578 175.464 80.9638C176.008 80.0315 176.892 79.347 177.931 79.055C178.97 78.763 180.082 78.8863 181.031 79.3989C181.981 79.9115 182.694 80.7732 183.02 81.802C183.346 82.8307 183.259 83.9458 182.778 84.9118V84.9418Z" fill="#FF8B7B"/>
<path d="M182.322 73.3259C177.216 74.7359 171.93 83.4419 171.93 83.4419L179.256 95.2319C179.256 95.2319 182.748 90.6419 186.456 84.8759C190.512 78.5999 188.514 71.6219 182.322 73.3259Z" fill="#F58F00"/>
<path d="M203.706 73.4876C197.982 72.5349 192.176 72.169 186.378 72.3956C183.361 72.5252 180.495 73.7573 178.326 75.8585C176.156 77.9596 174.833 80.7837 174.606 83.7956C173.952 93.1676 175.152 106.542 176.874 122.436L206.202 122.91C206.976 114.96 205.8 99.5096 209.232 81.4196C209.4 80.535 209.39 79.6256 209.202 78.745C209.014 77.8644 208.652 77.0302 208.137 76.2913C207.623 75.5525 206.966 74.9239 206.205 74.4424C205.444 73.961 204.594 73.6363 203.706 73.4876Z" fill="#F58F00"/>
<path d="M197.886 59.2559C197.052 63.2219 196.176 70.5119 198.954 73.3259C196.746 75.3779 193.86 77.7359 189.09 77.6639C184.32 77.5919 185.19 74.3699 186.468 72.7079C190.962 71.8619 190.884 68.5439 190.146 65.3939L197.886 59.2559Z" fill="#FF8B7B"/>
<path d="M189.54 77.6637C189.54 77.6637 191.556 78.3117 192.714 81.2637C196.428 80.2677 200.274 76.4277 200.514 72.7077C199.773 72.4133 198.983 72.2626 198.186 72.2637C198.186 72.2637 196.128 75.9657 189.54 77.6637Z" fill="white"/>
<path d="M186.972 77.328C186.972 77.328 185.238 77.232 183.594 80.88C179.838 80.064 184.32 73.344 185.94 72.39C186.71 72.1237 187.528 72.0215 188.34 72.09C188.34 72.09 184.998 73.314 186.972 77.328Z" fill="white"/>
<path opacity="0.2" d="M194.73 61.7637L190.146 65.3637C190.332 66.0936 190.452 66.8385 190.506 67.5897C192.222 67.4277 194.592 65.6757 194.796 63.8937C194.901 63.1854 194.879 62.464 194.73 61.7637Z" fill="black"/>
<path d="M188.4 45.4678C186.666 45.5098 183.6 47.9278 183.6 53.2678C189.144 49.7998 188.4 45.4678 188.4 45.4678Z" fill="#263238"/>
<path d="M199.068 53.2436C198.51 58.6436 198.468 61.8416 195.606 64.4876C191.316 68.4716 184.716 65.6876 183.642 60.1796C182.676 55.2476 183.744 47.2316 189.144 45.3416C190.34 44.9212 191.623 44.8114 192.873 45.0224C194.123 45.2334 195.299 45.7584 196.291 46.5481C197.283 47.3378 198.058 48.3664 198.544 49.5375C199.029 50.7086 199.21 51.9838 199.068 53.2436Z" fill="#FF8B7B"/>
<path d="M187.59 58.7099C188.79 58.4639 190.902 59.2079 191.556 60.4379C191.556 60.4379 188.874 59.3939 187.278 59.796C186.66 59.4719 187.2 58.7999 187.59 58.7099Z" fill="#263238"/>
<path d="M185.49 58.8478C185.237 58.81 184.978 58.8241 184.73 58.8894C184.482 58.9546 184.25 59.0696 184.048 59.2273C183.846 59.385 183.678 59.5821 183.555 59.8068C183.431 60.0314 183.355 60.2787 183.33 60.5338C183.33 60.5338 184.836 59.5018 186.102 59.8018C186.42 59.4838 185.784 58.9018 185.49 58.8478Z" fill="#263238"/>
<path d="M199.236 57.4918C196.71 59.2558 195.252 58.2538 195.21 55.5358C195.174 53.0638 197.952 48.4858 196.212 47.1358C194.472 45.7858 187.488 50.1778 186.522 47.0458C186.042 45.4978 190.848 43.4458 195.018 43.7038C199.074 43.9558 200.64 46.3558 200.544 48.1318C202.5 48.0898 203.856 54.6778 199.236 57.4918Z" fill="#263238"/>
<path d="M200.88 58.3019C200.375 59.4934 199.435 60.448 198.252 60.9719C196.746 61.5719 195.948 60.1079 196.332 58.4399C196.674 56.9399 197.874 54.8039 199.404 54.9059C200.934 55.0079 201.546 56.7779 200.88 58.3019Z" fill="#FF8B7B"/>
<path d="M190.326 54.1677C190.326 54.6057 190.056 54.9537 189.768 54.9417C189.48 54.9297 189.258 54.5577 189.276 54.1137C189.294 53.6697 189.546 53.3277 189.834 53.3397C190.122 53.3517 190.344 53.7237 190.326 54.1677Z" fill="#263238"/>
<path d="M185.202 53.7777C185.202 54.2217 184.938 54.5697 184.65 54.5517C184.362 54.5337 184.14 54.1677 184.158 53.7297C184.176 53.2917 184.422 52.9377 184.71 52.9557C184.998 52.9737 185.22 53.3397 185.202 53.7777Z" fill="#263238"/>
<path d="M187.2 54.2456C187.2 54.2456 186.096 56.7476 184.938 57.9176C185.688 58.6856 187.032 58.4216 187.032 58.4216L187.2 54.2456Z" fill="#FF5652"/>
<path d="M185.928 60.72C186.407 60.8491 186.907 60.8779 187.398 60.8046C187.888 60.7313 188.358 60.5575 188.778 60.294C188.805 60.2736 188.824 60.2435 188.829 60.21C188.835 60.1765 188.827 60.1421 188.808 60.114C188.796 60.102 188.782 60.0925 188.767 60.086C188.751 60.0795 188.735 60.0762 188.718 60.0762C188.701 60.0762 188.685 60.0795 188.669 60.086C188.654 60.0925 188.64 60.102 188.628 60.114C188.158 60.3968 187.627 60.5643 187.08 60.6029C186.532 60.6414 185.983 60.55 185.478 60.336C185.462 60.3292 185.445 60.3257 185.428 60.3257C185.411 60.3257 185.394 60.3292 185.379 60.3359C185.363 60.3426 185.349 60.3525 185.337 60.3649C185.325 60.3773 185.316 60.392 185.31 60.408C185.303 60.4237 185.3 60.4406 185.3 60.4577C185.3 60.4748 185.303 60.4917 185.31 60.5075C185.317 60.5232 185.327 60.5374 185.339 60.5491C185.351 60.5609 185.366 60.5701 185.382 60.576C185.561 60.6357 185.743 60.6838 185.928 60.72Z" fill="#263238"/>
<path d="M192.87 52.7999C192.915 52.7946 192.959 52.7781 192.996 52.7519C193.051 52.712 193.089 52.6523 193.102 52.5852C193.114 52.5181 193.1 52.4488 193.062 52.3919C192.838 52.0413 192.533 51.7495 192.173 51.5407C191.813 51.332 191.408 51.2124 190.992 51.1919C190.958 51.1927 190.925 51.2001 190.894 51.2138C190.863 51.2275 190.835 51.2472 190.811 51.2717C190.788 51.2962 190.77 51.3251 190.757 51.3567C190.745 51.3883 190.739 51.422 190.74 51.4559C190.742 51.5249 190.77 51.5905 190.819 51.6387C190.869 51.6869 190.935 51.7139 191.004 51.7139C191.332 51.7317 191.65 51.8269 191.934 51.9917C192.218 52.1565 192.458 52.3862 192.636 52.6619C192.659 52.7039 192.693 52.739 192.734 52.7633C192.775 52.7876 192.822 52.8003 192.87 52.7999Z" fill="#263238"/>
<path d="M183.6 51.7977C183.642 51.8062 183.686 51.8047 183.728 51.7932C183.77 51.7818 183.808 51.7607 183.84 51.7317C184.069 51.4937 184.353 51.3149 184.666 51.2104C184.98 51.1059 185.314 51.0789 185.64 51.1317C185.673 51.1397 185.708 51.1411 185.741 51.1357C185.775 51.1304 185.807 51.1185 185.836 51.1006C185.865 51.0828 185.89 51.0594 185.91 51.0318C185.93 51.0041 185.944 50.9728 185.952 50.9397C185.967 50.8729 185.955 50.8031 185.919 50.7449C185.883 50.6868 185.826 50.6447 185.76 50.6277C185.355 50.5545 184.939 50.5801 184.546 50.7023C184.153 50.8246 183.796 51.0398 183.504 51.3297C183.48 51.3536 183.461 51.3821 183.448 51.4136C183.435 51.445 183.428 51.4786 183.428 51.5127C183.428 51.5467 183.435 51.5804 183.448 51.6118C183.461 51.6432 183.48 51.6717 183.504 51.6957C183.525 51.7387 183.558 51.7743 183.6 51.7977Z" fill="#263238"/>
<path d="M192.72 152.688C193.728 156.762 194.742 160.854 195.72 164.688C195.252 168.156 194.748 171.642 194.19 175.038C189.589 175.738 184.942 176.087 180.288 176.082C179.934 169.938 179.43 161.718 178.914 153.564L192.72 152.688Z" fill="black"/>
<path d="M212.322 170.646C207.715 172.272 202.983 173.522 198.174 174.384C197.43 171.51 196.59 168.21 195.708 164.7C196.266 160.53 196.764 156.384 197.202 152.4L210.372 151.566C210.912 157.278 211.512 163.608 212.322 170.646Z" fill="black"/>
<path d="M174.858 108.864C174.828 102.576 174.174 93.5519 174.174 93.5519C177.954 87.3119 178.644 75.5519 183.132 72.8039C183.622 72.5696 184.151 72.4291 184.692 72.3899C184.74 72.3876 184.787 72.3998 184.827 72.425C184.868 72.4501 184.899 72.487 184.918 72.5307C184.937 72.5744 184.942 72.6228 184.933 72.6695C184.924 72.7161 184.9 72.7589 184.866 72.7919C183.666 73.9199 181.074 77.1959 180.438 84.9959C188.124 85.9919 198.672 85.4399 198.672 85.4399C198.672 85.4399 199.272 76.9919 201.21 73.0199C201.241 72.9587 201.291 72.9093 201.353 72.879C201.415 72.8487 201.485 72.8392 201.552 72.8519L202.854 73.1039C202.899 73.112 202.941 73.13 202.977 73.1565C203.014 73.1831 203.044 73.2175 203.065 73.2573C203.086 73.2971 203.098 73.3412 203.1 73.3864C203.102 73.4315 203.094 73.4765 203.076 73.5179C200.316 80.2919 200.676 93.3179 207.72 93.8759C207.354 96.7499 207.348 108.972 207.348 108.972C207.348 108.972 215.838 134.214 213.684 166.05C199.848 172.65 176.196 168.186 176.196 168.186C176.196 168.186 174.894 115.152 174.858 108.864Z" fill="#263238"/>
<path d="M159 103.584L155.82 99.9238L152.286 105.06C152.286 105.06 154.302 108.354 157.566 106.476L159 103.584Z" fill="#FF8B7B"/>
<path d="M151.266 99.54L150.342 102.258C150.26 102.448 150.234 102.658 150.268 102.862C150.302 103.067 150.394 103.257 150.534 103.41L152.334 105.06L155.868 99.924L152.868 98.592C152.262 98.346 151.518 98.802 151.266 99.54Z" fill="#FF8B7B"/>
<path d="M182.772 92.3039C182.772 92.3039 183.624 91.6319 183.246 90.1019C183.504 90.0059 183.846 90.4019 183.846 90.4019C183.846 90.4019 183.75 92.1839 182.772 92.3039Z" fill="#263238"/>
<path d="M186.138 94.4337C185.882 93.8123 185.473 93.266 184.948 92.8462C184.423 92.4264 183.8 92.1468 183.138 92.0337C182.825 91.4381 182.366 90.9321 181.803 90.5636C181.24 90.195 180.593 89.9762 179.922 89.9277C177.588 89.7417 174.87 97.2597 178.434 98.5737C180.798 101.562 187.056 96.5997 186.138 94.4337Z" fill="#F58F00"/>
<path opacity="0.3" d="M186.138 94.4337C185.882 93.8123 185.473 93.266 184.948 92.8462C184.423 92.4264 183.8 92.1468 183.138 92.0337C182.825 91.4381 182.366 90.9321 181.803 90.5636C181.24 90.195 180.593 89.9762 179.922 89.9277C177.588 89.7417 174.87 97.2597 178.434 98.5737C180.798 101.562 187.056 96.5997 186.138 94.4337Z" fill="white"/>
<path d="M178.248 98.4355H177.978L178.176 98.5195L178.14 98.6215H178.302V98.7475H178.422L178.464 98.8855L178.554 98.8015L178.656 98.9695V98.7235C178.546 98.5948 178.406 98.4958 178.248 98.4355Z" fill="#263238"/>
<path d="M173.874 89.364C173.874 89.364 173.634 88.308 172.074 87.996C172.074 87.714 172.608 87.564 172.608 87.564C172.608 87.564 174.186 88.434 173.874 89.364Z" fill="#263238"/>
<path d="M177.246 87.2396C176.574 87.2068 175.905 87.3461 175.303 87.6443C174.7 87.9425 174.183 88.3897 173.802 88.9436C173.131 88.9717 172.478 89.1705 171.904 89.5211C171.331 89.8718 170.857 90.3627 170.526 90.9476C169.356 92.9756 174.984 98.6576 177.726 95.9936C181.392 95.1176 179.586 87.3296 177.246 87.2396Z" fill="#F58F00"/>
<path opacity="0.6" d="M177.246 87.2396C176.574 87.2068 175.905 87.3461 175.303 87.6443C174.7 87.9425 174.183 88.3897 173.802 88.9436C173.131 88.9717 172.478 89.1705 171.904 89.5211C171.331 89.8718 170.857 90.3627 170.526 90.9476C169.356 92.9756 174.984 98.6576 177.726 95.9936C181.392 95.1176 179.586 87.3296 177.246 87.2396Z" fill="white"/>
<path d="M177.48 96.0837L177.378 96.3297L177.54 96.1857L177.618 96.2697L177.702 96.1317L177.828 96.1737L177.858 96.0537H178.002L177.96 95.9337H178.158L177.936 95.8257C177.763 95.8674 177.605 95.9568 177.48 96.0837Z" fill="#263238"/>
<path d="M187.35 89.8677C187.35 89.8677 186.72 88.9857 187.506 87.6237C187.284 87.4557 186.828 87.7377 186.828 87.7377C186.828 87.7377 186.444 89.4837 187.35 89.8677Z" fill="#263238"/>
<path d="M183.522 90.9839C183.943 90.4604 184.491 90.0529 185.114 89.7999C185.736 89.5469 186.413 89.4567 187.08 89.5379C187.546 89.0532 188.127 88.6948 188.77 88.4964C189.412 88.298 190.094 88.2662 190.752 88.4039C193.05 88.8719 193.578 96.8519 189.786 97.1219C186.678 99.3119 182.04 92.8019 183.522 90.9839Z" fill="#F58F00"/>
<path opacity="0.5" d="M183.522 90.9839C183.943 90.4604 184.491 90.0529 185.114 89.7999C185.736 89.5469 186.413 89.4567 187.08 89.5379C187.546 89.0532 188.127 88.6948 188.77 88.4964C189.412 88.298 190.094 88.2662 190.752 88.4039C193.05 88.8719 193.578 96.8519 189.786 97.1219C186.678 99.3119 182.04 92.8019 183.522 90.9839Z" fill="white"/>
<path d="M189.996 97.0195L190.248 97.1095H190.032V97.2175H189.87L189.822 97.3375L189.714 97.2835L189.63 97.4035L189.57 97.2955L189.426 97.4335L189.492 97.1935C189.64 97.0894 189.815 97.0291 189.996 97.0195Z" fill="#263238"/>
<path d="M196.71 89.5139C196.71 89.5139 197.238 88.5659 198.804 88.6919C198.864 88.4219 198.414 88.1279 198.414 88.1279C198.414 88.1279 196.674 88.5299 196.71 89.5139Z" fill="#263238"/>
<path d="M194.064 86.5377C194.717 86.6936 195.32 87.0134 195.816 87.4669C196.311 87.9204 196.683 88.4927 196.896 89.1297C197.534 89.3428 198.106 89.7146 198.561 90.21C199.015 90.7053 199.336 91.3081 199.494 91.9617C200.052 94.2417 193.074 98.1357 191.202 94.8237C187.896 92.9577 191.79 85.9737 194.064 86.5377Z" fill="#F58F00"/>
<path opacity="0.7" d="M194.064 86.5377C194.717 86.6936 195.32 87.0134 195.816 87.4669C196.311 87.9204 196.683 88.4927 196.896 89.1297C197.534 89.3428 198.106 89.7146 198.561 90.21C199.015 90.7053 199.336 91.3081 199.494 91.9617C200.052 94.2417 193.074 98.1357 191.202 94.8237C187.896 92.9577 191.79 85.9737 194.064 86.5377Z" fill="white"/>
<path d="M191.4 94.9678V95.2318L191.286 95.0518L191.19 95.1118L191.142 94.9498H191.016V94.8298H190.872L190.944 94.7278L190.758 94.6558L191.01 94.6138C191.17 94.6936 191.305 94.8161 191.4 94.9678Z" fill="#263238"/>
<path d="M168.684 88.7996C168.684 88.7996 169.212 87.8516 170.778 87.9776C170.838 87.7016 170.388 87.4136 170.388 87.4136C170.388 87.4136 168.648 87.8036 168.684 88.7996Z" fill="#263238"/>
<path d="M166.038 85.7996C166.692 85.9544 167.295 86.2739 167.791 86.7275C168.287 87.1812 168.658 87.754 168.87 88.3916C169.508 88.6047 170.081 88.9765 170.535 89.4718C170.989 89.9672 171.311 90.57 171.468 91.2236C172.026 93.4976 165.048 97.3976 163.176 94.0856C159.87 92.2256 163.764 85.2476 166.038 85.7996Z" fill="#F58F00"/>
<path opacity="0.7" d="M166.038 85.7996C166.692 85.9544 167.295 86.2739 167.791 86.7275C168.287 87.1812 168.658 87.754 168.87 88.3916C169.508 88.6047 170.081 88.9765 170.535 89.4718C170.989 89.9672 171.311 90.57 171.468 91.2236C172.026 93.4976 165.048 97.3976 163.176 94.0856C159.87 92.2256 163.764 85.2476 166.038 85.7996Z" fill="white"/>
<path d="M163.362 94.2417V94.5057L163.248 94.3257L163.152 94.3797L163.11 94.2237H162.978V94.1037H162.828L162.9 93.9957L162.714 93.9237L162.966 93.8877C163.128 93.9666 163.266 94.0892 163.362 94.2417Z" fill="#263238"/>
<path d="M175.8 96.7439C175.8 96.7439 174.642 95.8199 175.158 93.7439C174.804 93.6119 174.312 94.1519 174.312 94.1519C174.312 94.1519 174.462 96.5999 175.8 96.7439Z" fill="#263238"/>
<path d="M171.198 99.6476C171.552 98.8015 172.116 98.0596 172.836 97.4917C173.556 96.9238 174.409 96.5486 175.314 96.4016C175.741 95.5905 176.368 94.9016 177.136 94.3999C177.903 93.8981 178.786 93.6 179.7 93.5336C182.886 93.2756 186.594 103.536 181.728 105.324C178.482 109.368 169.944 102.6 171.198 99.6476Z" fill="#F58F00"/>
<path opacity="0.3" d="M171.198 99.6476C171.552 98.8015 172.116 98.0596 172.836 97.4917C173.556 96.9238 174.409 96.5486 175.314 96.4016C175.741 95.5905 176.368 94.9016 177.136 94.3999C177.903 93.8981 178.786 93.6 179.7 93.5336C182.886 93.2756 186.594 103.536 181.728 105.324C178.482 109.368 169.944 102.6 171.198 99.6476Z" fill="white"/>
<path d="M181.962 105.114H182.328L182.058 105.228L182.112 105.366L181.89 105.396V105.576L181.728 105.54L181.668 105.732L181.542 105.612L181.404 105.846V105.504C181.551 105.325 181.744 105.19 181.962 105.114Z" fill="#263238"/>
<path d="M187.926 92.7297C187.926 92.7297 188.256 91.2897 190.362 90.8637C190.362 90.4857 189.636 90.2637 189.636 90.2637C189.636 90.2637 187.506 91.4577 187.926 92.7297Z" fill="#263238"/>
<path d="M183.33 89.8316C184.246 89.7887 185.159 89.9798 185.981 90.3872C186.803 90.7945 187.507 91.4045 188.028 92.1596C188.944 92.198 189.834 92.4688 190.616 92.9464C191.398 93.424 192.046 94.0927 192.498 94.8896C194.094 97.6616 186.42 105.408 182.718 101.778C177.672 100.578 180.138 89.9516 183.33 89.8316Z" fill="#F58F00"/>
<path opacity="0.6" d="M183.33 89.8316C184.246 89.7887 185.159 89.9798 185.981 90.3872C186.803 90.7945 187.507 91.4045 188.028 92.1596C188.944 92.198 189.834 92.4688 190.616 92.9464C191.398 93.424 192.046 94.0927 192.498 94.8896C194.094 97.6616 186.42 105.408 182.718 101.778C177.672 100.578 180.138 89.9516 183.33 89.8316Z" fill="white"/>
<path d="M183 101.898L183.138 102.234L182.922 102.042L182.82 102.15L182.7 101.964L182.532 102.018L182.49 101.856L182.292 101.886L182.346 101.724H182.076L182.388 101.58C182.617 101.628 182.829 101.738 183 101.898Z" fill="#263238"/>
<path d="M169.548 93.4199C169.548 93.4199 170.406 92.2199 169.332 90.3599C169.638 90.1319 170.256 90.5159 170.256 90.5159C170.256 90.5159 170.778 92.8919 169.548 93.4199Z" fill="#263238"/>
<path d="M174.762 94.9437C174.188 94.2286 173.441 93.6716 172.591 93.3251C171.742 92.9787 170.819 92.8543 169.908 92.9637C169.272 92.3034 168.478 91.816 167.602 91.5472C166.725 91.2785 165.795 91.2374 164.898 91.4277C161.766 92.0637 161.046 102.948 166.218 103.314C170.46 106.302 176.79 97.4157 174.762 94.9437Z" fill="#F58F00"/>
<path opacity="0.5" d="M174.762 94.9437C174.188 94.2286 173.441 93.6716 172.591 93.3251C171.742 92.9787 170.819 92.8543 169.908 92.9637C169.272 92.3034 168.478 91.816 167.602 91.5472C166.725 91.2785 165.795 91.2374 164.898 91.4277C161.766 92.0637 161.046 102.948 166.218 103.314C170.46 106.302 176.79 97.4157 174.762 94.9437Z" fill="white"/>
<path d="M165.936 103.2L165.594 103.32L165.882 103.356V103.506L166.104 103.47L166.17 103.632L166.32 103.56L166.428 103.728L166.512 103.578L166.71 103.764L166.614 103.434C166.414 103.295 166.179 103.215 165.936 103.2Z" fill="#263238"/>
<path d="M156.774 92.9338C156.774 92.9338 156.054 91.6438 153.918 91.8178C153.84 91.4398 154.452 91.0498 154.452 91.0498C154.452 91.0498 156.828 91.5958 156.774 92.9338Z" fill="#263238"/>
<path d="M160.386 88.8715C159.493 89.0842 158.67 89.5208 157.993 90.1401C157.315 90.7595 156.807 91.5413 156.516 92.4115C155.648 92.703 154.868 93.2106 154.249 93.8865C153.631 94.5625 153.195 95.3846 152.982 96.2755C152.214 99.3835 161.736 104.676 164.292 100.182C168.804 97.6315 163.488 88.1035 160.386 88.8715Z" fill="#F58F00"/>
<path opacity="0.7" d="M160.386 88.8715C159.493 89.0842 158.67 89.5208 157.993 90.1401C157.315 90.7595 156.807 91.5413 156.516 92.4115C155.648 92.703 154.868 93.2106 154.249 93.8865C153.631 94.5625 153.195 95.3846 152.982 96.2755C152.214 99.3835 161.736 104.676 164.292 100.182C168.804 97.6315 163.488 88.1035 160.386 88.8715Z" fill="white"/>
<path d="M164.04 100.374L164.004 100.74L164.16 100.494L164.286 100.566L164.352 100.356H164.532V100.2L164.724 100.17L164.634 100.026L164.88 99.93L164.544 99.876C164.334 99.9934 164.16 100.166 164.04 100.374Z" fill="#263238"/>
<path d="M152.064 94.3018V122.502H200.544V94.3018H152.064ZM178.926 100.494C178.72 100.716 178.47 100.893 178.192 101.015C177.915 101.137 177.615 101.201 177.312 101.202H167.112C166.491 101.184 165.903 100.922 165.474 100.473C165.046 100.023 164.813 99.4225 164.826 98.8018C164.823 98.1667 165.063 97.5546 165.498 97.0918C165.704 96.869 165.953 96.6911 166.231 96.5692C166.509 96.4474 166.809 96.3843 167.112 96.3838H177.312C177.933 96.401 178.521 96.6631 178.95 97.1127C179.378 97.5623 179.611 98.163 179.598 98.7838C179.604 99.4194 179.363 100.033 178.926 100.494Z" fill="#F58F00"/>
<path opacity="0.3" d="M200.544 94.3018H192.354V122.466H200.544V94.3018Z" fill="black"/>
<path d="M210.696 80.7538C211.032 81.2638 211.296 81.6598 211.548 82.1098C211.8 82.5598 212.058 82.9858 212.304 83.4238C212.796 84.3058 213.264 85.2238 213.72 86.0878C214.617 87.8962 215.418 89.7508 216.12 91.6438C216.472 92.5958 216.802 93.5618 217.11 94.5418C217.404 95.5318 217.668 96.5278 217.908 97.5418C218.402 99.6187 218.693 101.739 218.778 103.872V104.088V104.436C218.781 104.664 218.769 104.893 218.742 105.12C218.703 105.566 218.622 106.008 218.502 106.44C218.288 107.234 217.954 107.991 217.512 108.684C216.787 109.807 215.878 110.801 214.824 111.624C213.938 112.332 212.988 112.957 211.986 113.49C211.061 113.994 210.109 114.448 209.136 114.852C207.271 115.615 205.357 116.25 203.406 116.754C201.488 117.263 199.54 117.651 197.574 117.918C197.075 117.984 196.57 117.867 196.151 117.588C195.733 117.309 195.43 116.887 195.3 116.401C195.17 115.916 195.221 115.399 195.444 114.948C195.667 114.497 196.047 114.143 196.512 113.952H196.59C199.967 112.614 203.246 111.038 206.4 109.236C207.804 108.444 209.106 107.483 210.276 106.374C210.688 105.991 211.025 105.535 211.272 105.03C211.329 104.911 211.362 104.783 211.368 104.652C211.373 104.626 211.373 104.6 211.368 104.574V104.442C210.865 101.083 209.917 97.8061 208.548 94.6978C207.858 93.0778 207.114 91.4698 206.31 89.8978C205.914 89.0998 205.494 88.3138 205.068 87.5398L204.414 86.3878C204.21 86.0158 203.964 85.6018 203.814 85.3078L203.766 85.2238C203.18 84.2913 202.988 83.164 203.232 82.09C203.477 81.016 204.138 80.0832 205.071 79.4968C206.003 78.9104 207.131 78.7185 208.205 78.9632C209.279 79.2079 210.212 79.8693 210.798 80.8018L210.696 80.7538Z" fill="#FF8B7B"/>
<path d="M204.408 73.6377C213.492 75.4857 216.528 86.8377 216.528 86.8377L205.728 95.3637C205.728 95.3637 202.83 92.6037 201.678 85.8417C201.144 82.6257 202.584 73.6377 204.408 73.6377Z" fill="#F58F00"/>
<path d="M198.18 113.646L192.732 112.602L193.332 119.202C193.332 119.202 198.384 119.55 199.002 116.898L198.18 113.646Z" fill="#FF8B7B"/>
<path d="M187.938 115.8L188.538 118.086C188.655 118.526 188.926 118.911 189.301 119.17C189.675 119.43 190.13 119.547 190.584 119.502L193.344 119.232L192.744 112.632L189.348 113.46C189.101 113.519 188.868 113.628 188.663 113.778C188.458 113.928 188.285 114.118 188.154 114.335C188.023 114.553 187.936 114.794 187.899 115.046C187.862 115.297 187.875 115.554 187.938 115.8Z" fill="#FF8B7B"/>
</svg>
