<svg width="180" height="180" viewBox="0 0 180 180" fill="none" xmlns="http://www.w3.org/2000/svg">
<path d="M118.528 11.5732C118.528 11.5732 91.4183 1.93478 64.8069 17.281C38.1955 32.6273 24.7662 63.0941 13.2359 87.4983C1.70559 111.903 8.34142 136.726 28.643 148.052C48.9447 159.378 62.7717 142.677 91.2678 141.871C119.764 141.065 127.446 145.114 151.091 129.03C174.735 112.945 179.013 74.9253 160.36 46.7768C141.707 18.6283 118.528 11.5732 118.528 11.5732Z" fill="#F58F00"/>
<path opacity="0.7" d="M118.528 11.5732C118.528 11.5732 91.4183 1.93478 64.8069 17.281C38.1955 32.6273 24.7662 63.0941 13.2359 87.4983C1.70559 111.903 8.34142 136.726 28.643 148.052C48.9447 159.378 62.7717 142.677 91.2678 141.871C119.764 141.065 127.446 145.114 151.091 129.03C174.735 112.945 179.013 74.9253 160.36 46.7768C141.707 18.6283 118.528 11.5732 118.528 11.5732Z" fill="white"/>
<path d="M91.5723 64.5201C91.5723 64.5201 90.6407 65.4517 90.7338 66.3833C90.827 67.3149 98.7456 83.994 99.584 85.2051C100.422 86.4162 102.845 86.7888 103.966 86.1367C105.088 85.4846 109.463 80.8266 109.463 80.8266L109.244 56.9419C109.244 56.9419 105.363 68.0494 104.246 69.8409C103.128 71.6324 102.565 72.5461 102.565 72.5461C102.565 72.5461 100.057 65.4624 99.3977 64.065C98.9362 63.1657 98.2245 62.4191 97.3482 61.9152L91.5723 64.5201Z" fill="#BFBFBF" stroke="#263238" stroke-linecap="round" stroke-linejoin="round"/>
<path d="M111.175 157.654C111.175 157.654 105.582 159.768 103.468 160.521C101.354 161.273 101.479 163.133 101.727 163.505L101.978 163.864H121.993C122.289 162.802 122.245 161.674 121.867 160.639C121.247 158.783 111.175 157.654 111.175 157.654Z" fill="white" stroke="#263238" stroke-linecap="round" stroke-linejoin="round"/>
<path d="M122.182 162.886H101.598C101.585 163.101 101.63 163.316 101.727 163.509L101.977 163.867H121.992C122.096 163.549 122.159 163.22 122.182 162.886Z" fill="white" stroke="#263238" stroke-linecap="round" stroke-linejoin="round"/>
<path d="M106.947 89.4114C106.947 89.4114 105.582 102.963 105.582 109.924C105.582 116.886 108.069 130.688 108.807 134.916C109.545 139.144 112.032 152.445 112.032 153.437C112.032 154.43 112.032 155.677 111.286 156.175C111.035 156.329 110.833 156.55 110.701 156.814C110.569 157.077 110.514 157.372 110.541 157.665V158.41C110.541 158.41 116.507 161.395 119.119 161.521C120.277 161.612 121.44 161.612 122.598 161.521C122.598 161.521 122.351 155.924 122.351 153.563C122.351 151.201 122.476 134.293 122.598 131.681C122.72 129.069 123.221 110.297 123.719 105.077C124.218 99.8561 125.708 90.9056 125.708 90.9056L107.434 87.9209L106.947 89.4114Z" fill="#F58F00" stroke="#263238" stroke-linecap="round" stroke-linejoin="round"/>
<path d="M124.479 157.654C124.479 157.654 118.882 159.768 116.772 160.521C114.662 161.273 114.78 163.133 115.031 163.505L115.278 163.864H135.293C135.589 162.802 135.547 161.675 135.171 160.639C134.548 158.783 124.479 157.654 124.479 157.654Z" fill="white" stroke="#263238" stroke-linecap="round" stroke-linejoin="round"/>
<path d="M135.468 162.886H114.898C114.888 163.101 114.934 163.316 115.031 163.509L115.278 163.867H135.293C135.393 163.549 135.452 163.219 135.468 162.886Z" fill="white" stroke="#263238" stroke-linecap="round" stroke-linejoin="round"/>
<path d="M117.639 91.0277C117.639 91.0277 117.764 110.05 117.639 115.643C117.514 121.236 120.864 135.411 121.867 138.768C122.87 142.126 124.601 155.179 124.733 155.802C124.866 156.426 122.87 157.046 122.87 158.411C122.87 159.776 128.338 159.779 128.338 159.779C128.338 159.779 133.437 161.27 133.935 161.27C134.445 161.332 134.946 161.459 135.425 161.646C135.925 159.905 136.218 158.11 136.296 156.3C136.317 154.237 136.023 152.183 135.425 150.209C135.425 150.209 136.049 139.27 135.551 132.806C135.053 126.342 133.684 118.51 133.684 116.145C133.684 113.78 135.053 109.434 135.676 104.582C136.3 99.7309 136.543 92.6472 136.543 91.1566C136.543 89.6661 117.911 89.2935 117.911 89.2935L117.639 91.0277Z" fill="#F58F00" stroke="#263238" stroke-linecap="round" stroke-linejoin="round"/>
<path d="M122.365 52.3662C122.365 52.3662 113.164 53.9822 111.548 54.2294C109.932 54.4766 108.925 56.9704 108.567 59.0773C108.208 61.1841 106.08 88.6662 106.947 89.4115C107.814 90.1568 131.19 92.6362 133.802 92.7688C136.414 92.9014 137.285 93.0196 137.532 91.1529C137.779 89.2861 141.577 62.603 142.294 60.1701C143.534 55.9457 132.312 53.7206 129.7 53.1115C127.088 52.5024 122.365 52.3662 122.365 52.3662Z" fill="#BFBFBF" stroke="#263238" stroke-linecap="round" stroke-linejoin="round"/>
<path d="M134.723 54.4088C134.723 54.4088 130.19 68.0245 129.445 70.0202C128.7 72.016 128.696 72.5033 128.696 72.5033L113.407 69.2785C113.407 69.2785 115.023 61.5714 115.643 59.4574C116.263 57.3434 117.746 53.1763 117.746 53.1763L116.639 53.3662C116.639 53.3662 113.035 64.9287 112.164 68.0352C111.293 71.1417 107.198 81.0847 106.947 84.202C106.696 87.3193 105.457 98.8711 105.084 106.582C104.711 114.293 105.209 122.369 105.209 122.369C105.209 122.369 119.753 125.103 124.106 124.981C128.46 124.859 131.19 124.855 131.19 124.855C131.19 124.855 130.832 110.061 131.316 105.338C131.799 100.616 133.43 91.9092 133.43 91.9092L137.407 91.6619L137.532 91.1639L132.684 90.8056C132.684 90.8056 130.065 73.6248 130.065 73.0014V72.0196L135.551 54.7528L134.723 54.4088Z" fill="#263238" stroke="#263238" stroke-linecap="round" stroke-linejoin="round"/>
<path d="M140.535 102.235C140.535 102.235 137.668 106.338 137.457 107.022C137.246 107.707 137.912 110.559 137.912 111.469C137.912 112.379 139.051 112.383 139.051 112.383C139.051 112.383 138.482 113.862 139.166 114.436C139.85 115.009 142.814 114.891 143.383 113.862C143.953 112.834 146.25 109.305 146.25 107.592C146.185 106.172 145.994 104.761 145.68 103.375L140.535 102.235Z" fill="#828282" stroke="#263238" stroke-linecap="round" stroke-linejoin="round"/>
<path d="M139.051 112.383C139.051 112.383 139.965 111.583 139.965 110.559C139.965 109.534 140.875 107.821 140.875 107.821" stroke="#263238" stroke-linecap="round" stroke-linejoin="round"/>
<path d="M140.764 99.6089C140.649 99.9493 139.85 102.346 140.535 103.031C141.219 103.715 145.436 104.396 145.891 103.941C146.347 103.486 147.146 100.863 147.146 100.863L140.764 99.6089Z" fill="#BFBFBF" stroke="#263238" stroke-linecap="round" stroke-linejoin="round"/>
<path d="M135.859 73.1622L140.42 83.6498C140.42 83.6498 138.937 98.5876 139.736 99.8417C140.535 101.096 147.034 101.665 148.174 100.866C149.313 100.067 150.112 97.2189 150.567 92.0879C151.022 86.957 148.514 72.5925 147.83 70.1954C147.146 67.7983 142.606 58.2244 141.56 57.429C140.513 56.6335 138.596 56.8557 138.027 57.0707" fill="#BFBFBF"/>
<path d="M135.859 73.1622L140.42 83.6498C140.42 83.6498 138.937 98.5876 139.736 99.8417C140.535 101.096 147.034 101.665 148.174 100.866C149.313 100.067 150.112 97.2189 150.567 92.0879C151.022 86.957 148.514 72.5925 147.83 70.1954C147.146 67.7983 142.606 58.2244 141.56 57.429C140.513 56.6335 138.596 56.8557 138.027 57.0707" stroke="#263238" stroke-linecap="round" stroke-linejoin="round"/>
<path d="M95.6139 59.4785C95.6139 59.4785 94.5856 55.3759 93.6755 53.7778C92.7654 52.1798 86.7208 50.0156 86.0364 50.0156C85.352 50.0156 85.5814 51.499 85.5814 52.8821C85.5814 54.2651 85.8071 56.6443 87.2905 58.2388C88.7739 59.8332 91.3931 60.9762 91.3931 60.9762L92.1921 62.9146L96.2983 60.7469L95.6139 59.4785Z" fill="#828282" stroke="#263238" stroke-linecap="round" stroke-linejoin="round"/>
<path d="M93.2491 48.493L93.4641 47.5399C93.521 47.2888 93.5266 47.0288 93.4807 46.7754C93.4347 46.5221 93.3381 46.2806 93.1965 46.0655C93.055 45.8504 92.8715 45.666 92.6571 45.5235C92.4426 45.381 92.2016 45.2832 91.9484 45.236C91.523 45.1562 91.083 45.2225 90.6999 45.4241C90.3169 45.6258 90.0131 45.9509 89.838 46.3468L81.1348 66.1038" stroke="#263238" stroke-linecap="round" stroke-linejoin="round"/>
<path d="M72.1055 64.7065C72.1524 65.8962 72.658 67.0216 73.5164 67.8467C74.3747 68.6718 75.5191 69.1327 76.7097 69.1327C77.9003 69.1327 79.0447 68.6718 79.903 67.8467C80.7614 67.0216 81.267 65.8962 81.3139 64.7065H72.1055Z" fill="white" stroke="#263238" stroke-linecap="round" stroke-linejoin="round"/>
<path d="M73.5959 58.7977C73.6424 58.4365 73.7302 58.0819 73.8575 57.7407" stroke="#263238" stroke-linecap="round" stroke-linejoin="round"/>
<path d="M73.4526 63.8642C74.2373 63.4808 74.6135 62.1407 74.2875 61.4205C74.0599 60.956 73.8624 60.4772 73.6963 59.9873" stroke="#263238" stroke-linecap="round" stroke-linejoin="round"/>
<path d="M76.2725 63.8645C77.0607 63.4811 77.4334 62.141 77.1109 61.4208C76.7132 60.543 76.4373 59.9553 76.3943 59.3032" stroke="#263238" stroke-linecap="round" stroke-linejoin="round"/>
<path d="M79.25 58.5792C79.3023 58.2936 79.379 58.0131 79.4793 57.7407" stroke="#263238" stroke-linecap="round" stroke-linejoin="round"/>
<path d="M79.0852 63.8644C79.8699 63.4811 80.2461 62.141 79.9201 61.4208C79.7083 60.9839 79.5217 60.5353 79.3611 60.0771" stroke="#263238" stroke-linecap="round" stroke-linejoin="round"/>
<path d="M86.9464 50.016C86.9464 50.016 83.9832 49.3316 83.7575 49.9014C83.5318 50.4711 83.5282 51.6141 83.9832 51.9544C84.4383 52.2948 87.5197 52.4095 87.8601 52.3128C88.2005 52.216 89.0031 50.2202 86.9464 50.016Z" fill="#828282" stroke="#263238" stroke-linecap="round" stroke-linejoin="round"/>
<path d="M87.6847 52.7316C87.6847 52.7316 84.7215 52.0472 84.4922 52.6205C84.2629 53.1938 84.2629 54.3296 84.7215 54.67C85.1801 55.0104 88.2544 55.1286 88.5984 55.0283C88.9423 54.928 89.7414 52.9358 87.6847 52.7316Z" fill="#828282" stroke="#263238" stroke-linecap="round" stroke-linejoin="round"/>
<path d="M87.964 55.0642C87.964 55.0642 84.9256 54.8923 84.7966 55.4942C84.6676 56.0962 84.8611 57.2177 85.3699 57.4792C85.8786 57.7408 88.9314 57.3287 89.2467 57.1568C89.562 56.9848 90.0243 54.9173 87.964 55.0642Z" fill="#828282" stroke="#263238" stroke-linecap="round" stroke-linejoin="round"/>
<path d="M88.3439 57.5009C88.3439 57.5009 85.8358 57.3576 85.7319 57.8592C85.628 58.3608 85.7856 59.2924 86.2048 59.5002C86.6241 59.7081 89.1465 59.3748 89.4081 59.2351C89.6697 59.0954 90.0459 57.3755 88.3439 57.5009Z" fill="#828282" stroke="#263238" stroke-linecap="round" stroke-linejoin="round"/>
<path d="M94.7002 56.9707C94.7002 56.9707 93.9012 52.5241 93.4462 51.7287C92.9911 50.9332 88.8849 48.7619 88.0716 48.3069C87.2582 47.8518 85.9217 47.2821 85.6745 48.0775C85.5696 48.4434 85.5914 48.834 85.7365 49.1859C85.8815 49.5378 86.1413 49.8303 86.4735 50.016C87.1579 50.4746 88.867 51.1554 88.867 51.4994C88.867 51.8433 89.7807 55.602 91.7335 56.9707" fill="#828282"/>
<path d="M94.7002 56.9707C94.7002 56.9707 93.9012 52.5241 93.4462 51.7287C92.9911 50.9332 88.8849 48.7619 88.0716 48.3069C87.2582 47.8518 85.9217 47.2821 85.6745 48.0775C85.5696 48.4434 85.5914 48.834 85.7365 49.1859C85.8815 49.5378 86.1413 49.8303 86.4735 50.016C87.1579 50.4746 88.867 51.1554 88.867 51.4994C88.867 51.8433 89.7807 55.602 91.7335 56.9707" stroke="#263238" stroke-linecap="round" stroke-linejoin="round"/>
<path d="M96.044 59.5825C96.044 59.5825 90.3612 62.4705 90.7339 63.2157C91.0007 63.8421 91.1884 64.4993 91.2928 65.1721C91.2928 65.1721 97.255 62.4705 97.3482 61.9115C97.4414 61.3526 96.6961 59.9552 96.044 59.5825Z" fill="#BFBFBF" stroke="#263238" stroke-linecap="round" stroke-linejoin="round"/>
<path d="M120.251 49.0091C120.251 49.0091 119.631 54.6023 119.631 56.9635C119.631 59.3247 120.391 63.4202 125.099 61.815C129.807 60.2098 131.19 54.355 131.19 53.2156C131.19 52.0762 131.688 43.7671 131.688 43.7671C131.688 43.7671 128.331 47.3752 125.597 48.2423C123.867 48.779 122.062 49.0378 120.251 49.0091Z" fill="white" stroke="#263238" stroke-linecap="round" stroke-linejoin="round"/>
<path d="M125.597 48.2599C123.866 48.7906 122.061 49.0433 120.251 49.0088C120.251 49.0088 120.147 49.9547 120.022 51.2303C121.236 51.8824 122.888 52.0866 124.153 52.1547C127.492 52.3446 129.743 49.0876 131.523 46.6153C131.617 45.028 131.688 43.7847 131.688 43.7847C131.688 43.7847 128.331 47.3928 125.597 48.2599Z" fill="#263238" stroke="#263238" stroke-linecap="round" stroke-linejoin="round"/>
<path d="M118.997 31.3194C118.997 31.3194 120.448 26.8656 122.071 25.2282C123.694 23.5907 133.304 23.3363 134.634 24.5115C135.963 25.6868 137.142 28.1985 137.439 30.2659C137.736 32.3334 135.372 37.0738 135.372 37.0738L118.997 31.3194Z" fill="#263238" stroke="#263238" stroke-linecap="round" stroke-linejoin="round"/>
<path d="M118.635 33.9636C118.635 33.9636 117.517 37.3209 117.639 39.6965C117.761 42.072 118.262 44.4225 118.262 45.9131C118.262 47.4036 118.015 48.6505 119.38 49.7685C120.591 50.7574 122.648 51.0225 124.153 51.1085C127.675 51.3056 129.986 47.6688 131.814 45.1678C131.814 45.1678 135.293 44.8095 135.543 42.8066C135.794 40.8036 135.225 39.8935 135.225 39.8935L135.371 37.088C135.371 37.088 123.734 31.3551 118.635 33.9636Z" fill="white" stroke="#263238" stroke-linecap="round" stroke-linejoin="round"/>
<path d="M131.566 37.0736C131.566 37.0736 130.817 40.5527 131.315 40.8035C131.813 41.0543 134.426 40.0547 134.54 38.9367C134.655 37.8188 133.29 36.9482 131.566 37.0736Z" fill="#263238" stroke="#263238" stroke-linecap="round" stroke-linejoin="round"/>
<path d="M118.101 34.4186C118.101 34.4186 123.859 35.3037 128.435 36.7799C133.01 38.2561 135.225 39.8792 135.225 39.8792C135.225 39.8792 136.701 37.3711 136.554 36.0418C136.407 34.7125 130.065 32.3512 124.891 31.3193C119.717 30.2874 118.839 30.4307 118.399 31.0219C117.958 31.6131 117.363 33.8274 118.101 34.4186Z" fill="#263238" stroke="#263238" stroke-linecap="round" stroke-linejoin="round"/>
<path d="M122.24 37.1958C122.24 37.1958 119.133 42.2945 119.878 43.0398C120.624 43.7851 122.365 44.2831 122.863 44.0359" stroke="#263238" stroke-linecap="round" stroke-linejoin="round"/>
<path d="M119.878 45.279C119.878 45.279 126.328 47.1422 127.711 43.6631" stroke="#263238" stroke-linecap="round" stroke-linejoin="round"/>
<path d="M126.715 43.165L128.582 43.9103" stroke="#263238" stroke-linecap="round" stroke-linejoin="round"/>
<path d="M126.156 39.184C126.465 39.184 126.715 38.7669 126.715 38.2524C126.715 37.7379 126.465 37.3208 126.156 37.3208C125.847 37.3208 125.597 37.7379 125.597 38.2524C125.597 38.7669 125.847 39.184 126.156 39.184Z" fill="#263238"/>
<path d="M121.183 37.0092C121.183 37.5252 120.932 37.9444 120.624 37.9444C120.316 37.9444 120.065 37.5252 120.065 37.0092C120.065 36.4933 120.316 36.0776 120.624 36.0776C120.932 36.0776 121.183 36.4969 121.183 37.0092Z" fill="#263238"/>
<path d="M125.597 35.3325C125.597 35.3325 128.703 35.4579 128.582 37.9446" stroke="#263238" stroke-linecap="round" stroke-linejoin="round"/>
<path d="M121.494 34.5869C121.494 34.5869 120.749 34.0889 119.133 35.8303" stroke="#263238" stroke-linecap="round" stroke-linejoin="round"/>
<path d="M76.76 113.271H73.2415V163.886H76.76V113.271Z" fill="white" stroke="#263238" stroke-linecap="round" stroke-linejoin="round"/>
<path d="M79.1965 113.271H75.678V163.886H79.1965V113.271Z" fill="#263238" stroke="#263238" stroke-linecap="round" stroke-linejoin="round"/>
<path d="M93.5393 113.271H90.0208V163.886H93.5393V113.271Z" fill="white" stroke="#263238" stroke-linecap="round" stroke-linejoin="round"/>
<path d="M95.9758 113.271H92.4573V163.886H95.9758V113.271Z" fill="#263238" stroke="#263238" stroke-linecap="round" stroke-linejoin="round"/>
<path d="M130.889 113.271H127.371V163.886H130.889V113.271Z" fill="white" stroke="#263238" stroke-linecap="round" stroke-linejoin="round"/>
<path d="M133.326 113.271H129.807V163.886H133.326V113.271Z" fill="#263238" stroke="#263238" stroke-linecap="round" stroke-linejoin="round"/>
<path d="M147.672 113.271H144.154V163.886H147.672V113.271Z" fill="white" stroke="#263238" stroke-linecap="round" stroke-linejoin="round"/>
<path d="M150.105 113.271H146.587V163.886H150.105V113.271Z" fill="#263238" stroke="#263238" stroke-linecap="round" stroke-linejoin="round"/>
<path d="M153.624 111.376H71.0737V115.708H153.624V111.376Z" fill="white" stroke="#263238" stroke-linecap="round" stroke-linejoin="round"/>
<path d="M153.627 111.376H131.162V115.708H153.627V111.376Z" fill="#263238" stroke="#263238" stroke-linecap="round" stroke-linejoin="round"/>
<path d="M154.978 110.294H68.3684V112.458H154.978V110.294Z" fill="white" stroke="#263238" stroke-linecap="round" stroke-linejoin="round"/>
<path d="M154.978 110.294H133.326V112.458H154.978V110.294Z" fill="#263238" stroke="#263238" stroke-linecap="round" stroke-linejoin="round"/>
<path d="M106.026 90.2466H100.258V88.2974H106.026C106.275 88.2974 106.514 88.3963 106.69 88.5724C106.866 88.7484 106.965 88.9872 106.965 89.2362V89.3257C106.96 89.5716 106.859 89.8058 106.684 89.978C106.508 90.1502 106.272 90.2466 106.026 90.2466Z" fill="white" stroke="#263238" stroke-linecap="round" stroke-linejoin="round"/>
<path d="M76.4016 84.4204H103.633V107.381C103.633 108.141 103.331 108.87 102.793 109.408C102.256 109.945 101.527 110.247 100.766 110.247H79.2681C78.5078 110.247 77.7787 109.945 77.2412 109.408C76.7036 108.87 76.4016 108.141 76.4016 107.381V84.4204Z" fill="white" stroke="#263238" stroke-linecap="round" stroke-linejoin="round"/>
<path d="M100.376 84.4204V107.266C100.376 108.055 100.062 108.811 99.5048 109.369C98.947 109.927 98.1906 110.24 97.4019 110.24H99.609C100.397 110.239 101.153 109.925 101.711 109.368C102.268 108.81 102.582 108.054 102.583 107.266V84.4204H100.376Z" fill="#263238" stroke="#263238" stroke-linecap="round" stroke-linejoin="round"/>
<path d="M80.619 84.4204V107.266C80.619 108.907 83.0017 110.24 84.6428 110.24H82.4499C81.6609 110.24 80.9041 109.927 80.3458 109.369C79.7875 108.812 79.4734 108.055 79.4724 107.266V84.4204H80.619Z" fill="#263238" stroke="#263238" stroke-linecap="round" stroke-linejoin="round"/>
<path d="M103.443 83.4712H76.5845C75.9552 83.4712 75.4451 83.9813 75.4451 84.6106V84.7002C75.4451 85.3295 75.9552 85.8396 76.5845 85.8396H103.443C104.072 85.8396 104.583 85.3295 104.583 84.7002V84.6106C104.583 83.9813 104.072 83.4712 103.443 83.4712Z" fill="white" stroke="#263238" stroke-linecap="round" stroke-linejoin="round"/>
<path d="M73.0264 88.2974H78.7951V90.2465H73.0264C72.7774 90.2465 72.5387 90.1476 72.3626 89.9716C72.1866 89.7955 72.0876 89.5568 72.0876 89.3078V89.2182C72.0923 88.9724 72.1933 88.7382 72.3689 88.566C72.5444 88.3938 72.7805 88.2973 73.0264 88.2974Z" fill="white" stroke="#263238" stroke-linecap="round" stroke-linejoin="round"/>
<path d="M76.3802 88.2974H82.1489V90.2465H76.3802C76.2569 90.2465 76.1348 90.2223 76.0209 90.1751C75.907 90.1279 75.8035 90.0588 75.7164 89.9716C75.6292 89.8844 75.56 89.7809 75.5129 89.667C75.4657 89.5531 75.4414 89.4311 75.4414 89.3078V89.2182C75.4461 88.9724 75.5471 88.7382 75.7226 88.566C75.8982 88.3938 76.1343 88.2973 76.3802 88.2974Z" fill="white" stroke="#263238" stroke-linecap="round" stroke-linejoin="round"/>
<path d="M103.547 85.0049H76.4768V85.3704H103.547V85.0049Z" fill="#263238" stroke="#263238" stroke-linecap="round" stroke-linejoin="round"/>
<path d="M90.4329 75.5239C89.9134 74.8897 89.3043 74.3594 89.3043 73.1197C89.286 72.4682 89.5036 71.832 89.917 71.3281" stroke="#263238" stroke-linecap="round" stroke-linejoin="round"/>
<path d="M89.3042 81.7657C89.3042 79.6158 91.1531 79.6158 91.1531 77.4445C91.1543 77.186 91.123 76.9284 91.0599 76.6777" stroke="#263238" stroke-linecap="round" stroke-linejoin="round"/>
<path d="M95.9651 73.7179C95.8294 73.3512 95.7638 72.9622 95.7716 72.5713" stroke="#263238" stroke-linecap="round" stroke-linejoin="round"/>
<path d="M95.7717 81.7654C95.7717 79.4686 97.617 79.4686 97.617 77.1683C97.617 75.8856 97.0437 75.3194 96.5421 74.6602" stroke="#263238" stroke-linecap="round" stroke-linejoin="round"/>
<path d="M81.9159 73.4782C81.8769 73.269 81.8577 73.0567 81.8586 72.844C81.8525 72.4777 81.9132 72.1135 82.0377 71.769" stroke="#263238" stroke-linecap="round" stroke-linejoin="round"/>
<path d="M81.8586 81.7657C81.8586 79.5371 83.7075 79.5371 83.7075 77.3084C83.7098 76.8983 83.6309 76.4918 83.4753 76.1124C83.3197 75.733 83.0905 75.3881 82.801 75.0977" stroke="#263238" stroke-linecap="round" stroke-linejoin="round"/>
<path d="M143.297 90.2466H137.529V88.2974H143.297C143.546 88.2974 143.785 88.3963 143.961 88.5724C144.137 88.7484 144.236 88.9872 144.236 89.2362V89.3257C144.231 89.5716 144.13 89.8058 143.955 89.978C143.779 90.1502 143.543 90.2466 143.297 90.2466Z" fill="white" stroke="#263238" stroke-linecap="round" stroke-linejoin="round"/>
<path d="M113.676 84.4204H140.908V107.381C140.908 108.141 140.606 108.87 140.068 109.408C139.53 109.945 138.801 110.247 138.041 110.247H116.543C115.782 110.247 115.053 109.945 114.516 109.408C113.978 108.87 113.676 108.141 113.676 107.381V84.4204Z" fill="white" stroke="#263238" stroke-linecap="round" stroke-linejoin="round"/>
<path d="M137.65 84.4204V107.266C137.649 108.055 137.335 108.812 136.777 109.369C136.219 109.927 135.462 110.24 134.673 110.24H136.873C137.662 110.24 138.418 109.927 138.976 109.369C139.533 108.811 139.847 108.055 139.847 107.266V84.4204H137.65Z" fill="#263238" stroke="#263238" stroke-linecap="round" stroke-linejoin="round"/>
<path d="M117.883 84.4204V107.266C117.883 108.907 120.262 110.24 121.906 110.24H119.71C118.922 110.239 118.166 109.925 117.608 109.368C117.051 108.81 116.737 108.054 116.736 107.266V84.4204H117.883Z" fill="#263238" stroke="#263238" stroke-linecap="round" stroke-linejoin="round"/>
<path d="M140.714 83.4712H113.855C113.226 83.4712 112.716 83.9813 112.716 84.6106V84.7002C112.716 85.3295 113.226 85.8396 113.855 85.8396H140.714C141.343 85.8396 141.854 85.3295 141.854 84.7002V84.6106C141.854 83.9813 141.343 83.4712 140.714 83.4712Z" fill="white" stroke="#263238" stroke-linecap="round" stroke-linejoin="round"/>
<path d="M110.297 88.2974H116.066V90.2465H110.297C110.048 90.2465 109.81 90.1476 109.634 89.9716C109.458 89.7955 109.359 89.5568 109.359 89.3078V89.2182C109.363 88.9724 109.464 88.7382 109.64 88.566C109.815 88.3938 110.052 88.2973 110.297 88.2974Z" fill="white" stroke="#263238" stroke-linecap="round" stroke-linejoin="round"/>
<path d="M113.651 88.2974H119.42V90.2465H113.651C113.402 90.2465 113.163 90.1476 112.987 89.9716C112.811 89.7955 112.712 89.5568 112.712 89.3078V89.2182C112.717 88.9724 112.818 88.7382 112.994 88.566C113.169 88.3938 113.405 88.2973 113.651 88.2974Z" fill="white" stroke="#263238" stroke-linecap="round" stroke-linejoin="round"/>
<path d="M140.821 85.0049H113.751V85.3704H140.821V85.0049Z" fill="#263238" stroke="#263238" stroke-linecap="round" stroke-linejoin="round"/>
<path d="M127.349 78.856H127.306C126.986 78.856 126.726 79.1158 126.726 79.4364V81.0882C126.726 81.4088 126.986 81.6687 127.306 81.6687H127.349C127.67 81.6687 127.93 81.4088 127.93 81.0882V79.4364C127.93 79.1158 127.67 78.856 127.349 78.856Z" fill="#5C5C5C" stroke="#263238" stroke-linecap="round" stroke-linejoin="round"/>
<path d="M113.898 83.4852L115.059 82.6754C116.431 81.7151 118.065 81.1997 119.739 81.1992H135.003C137.116 81.1993 139.146 82.0187 140.667 83.4852H113.898Z" fill="#5C5C5C" stroke="#263238" stroke-linecap="round" stroke-linejoin="round"/>
<path d="M44.3084 63.2373C44.3084 63.2373 45.7953 65.7849 46.4295 67.2682C47.0637 68.7516 47.9165 70.665 47.0673 70.2386C46.2181 69.8122 45.3689 69.2855 44.6272 69.2855C43.8856 69.2855 43.6742 70.1347 43.3553 69.4969C43.0364 68.8591 44.3084 63.2373 44.3084 63.2373Z" fill="#F58F00" stroke="#263238" stroke-linecap="round" stroke-linejoin="round"/>
<path d="M42.0831 154.684C42.0831 154.684 47.1746 157.654 49.088 158.292C51.0014 158.93 52.2698 160.084 52.3737 161.263L52.4812 162.427L52.3737 163.276H29.1375C28.7842 162.399 28.6041 161.463 28.6072 160.517C28.6072 158.926 29.4564 158.608 29.8828 157.651C30.3092 156.694 40.4887 153.942 40.4887 153.942L42.0831 154.684Z" fill="#F58F00" stroke="#263238" stroke-linecap="round" stroke-linejoin="round"/>
<path d="M28.8293 162.313C28.9067 162.638 29.0097 162.957 29.1375 163.266H52.3701L52.4776 162.417L52.3701 161.252C52.2662 160.084 50.9942 158.916 49.0844 158.282V162.313H28.8293Z" fill="white" stroke="#263238" stroke-linecap="round" stroke-linejoin="round"/>
<path d="M47.8089 104.081C47.8089 104.081 48.5542 105.353 47.9164 105.872C47.2786 106.392 46.9597 106.618 46.9597 106.618C47.4011 107.505 47.514 108.521 47.2786 109.484C46.8558 110.971 44.946 117.227 44.946 120.197C44.946 123.168 45.1574 130.488 43.9893 134.626C42.8213 138.765 40.4887 147.78 40.8076 149.797C41.1265 151.814 42.2945 152.767 42.5059 153.298C42.6862 153.954 42.7576 154.635 42.7174 155.315C42.7174 155.949 40.4887 158.816 36.7766 160.191C33.0646 161.567 29.9688 161.786 29.2522 161.571C28.5356 161.356 27.7688 160.088 27.8727 159.027C27.9766 157.966 28.3063 157.762 28.3063 157.017C28.3063 156.272 26.6079 149.062 26.8193 145.032C27.0307 141.001 30.4274 134.845 30.4274 131.875C30.4274 128.904 29.3525 123.709 28.5177 120.631C27.6828 117.553 27.4428 116.919 27.4428 116.6C27.4428 116.281 26.2747 113.841 25.533 111.824C24.7913 109.806 23.7415 107.9 23.7415 105.779C23.7556 104.36 23.8621 102.942 24.0603 101.537L25.017 99.0967C25.017 99.0967 46.974 102.171 47.2929 102.171C47.6118 102.171 47.8089 104.081 47.8089 104.081Z" fill="#263238" stroke="#263238" stroke-linecap="round" stroke-linejoin="round"/>
<path d="M49.6827 94.3168C49.6827 94.3168 55.283 91.5184 56.1931 90.5331C57.1032 89.5478 56.1931 87.2797 56.4941 87.2797C56.7951 87.2797 58.6117 86.5237 58.7658 85.8465C58.9198 85.1693 58.6117 84.0299 58.9163 84.0299C59.2208 84.0299 62.7 83.1986 64.0615 83.2738C65.4231 83.3491 69.0563 83.4996 70.2674 81.7618C71.4785 80.024 72.3778 78.5048 72.3778 78.0497C72.3778 77.5947 72.0195 77.4657 71.2492 77.9852C70.4788 78.5048 64.1296 78.6553 62.3882 78.6553C60.6469 78.6553 59.9697 78.4259 59.2101 79.0136C58.4505 79.6012 55.5804 82.4963 55.2006 82.4963C54.8208 82.4963 53.6133 82.3458 52.9325 83.1018C52.3936 82.7543 51.7551 82.5944 51.1159 82.6468C50.2058 82.7973 46.0459 85.0689 46.0459 85.0689L49.6827 94.3168Z" fill="#9E9E9E" stroke="#263238" stroke-linecap="round" stroke-linejoin="round"/>
<path d="M44.0968 67.7985C44.1897 67.9326 44.2758 68.0714 44.3547 68.2142C45.0436 69.468 45.4955 70.8382 45.6876 72.2559C46.114 75.1223 46.3254 80.4252 47.2785 84.1373C48.2316 87.8493 51.7359 93.4712 51.2199 98.1399C50.7039 102.809 49.3101 104.292 46.8701 104.399C44.43 104.507 27.3495 100.899 24.8056 100.157C22.2616 99.4155 21.7277 99.8383 21.9391 97.3982C22.1505 94.9581 24.8056 86.151 24.9095 82.9692C25.0134 79.7874 22.6808 72.7861 25.9844 67.6946C29.288 62.6031 32.8818 59.2063 34.8955 59.6327C36.9091 60.0591 42.7173 64.0865 44.0968 67.7985Z" fill="white" stroke="#263238" stroke-linecap="round" stroke-linejoin="round"/>
<path d="M39.2167 36.6116C39.2167 36.6116 42.9288 35.0207 45.8991 35.4436C48.8695 35.8664 51.8399 38.2025 52.4777 39.7934C53.1154 41.3843 53.6457 42.126 53.6457 43.1865C53.6457 44.2471 53.6457 44.566 53.5382 44.8849L53.4343 45.2038C53.4343 45.2038 54.5092 47.7514 54.5988 48.597C54.6884 49.4426 54.5988 49.8725 53.8571 49.8725H53.1154C53.1154 49.8725 52.1588 56.2361 51.3239 56.9778C50.4891 57.7194 47.9307 57.8269 47.9307 57.8269C47.9307 57.8269 45.4907 58.9019 44.9604 62.2843C44.4301 65.6667 43.7923 69.6045 43.7923 69.6045C43.7923 69.6045 38.3819 59.7367 37.7477 57.6155C37.1135 55.4944 36.791 54.0074 36.791 54.0074C37.3972 53.0094 37.765 51.885 37.8659 50.7217C37.9734 48.9302 35.6373 45.0963 36.275 41.4918C36.9128 37.8872 39.2167 36.6116 39.2167 36.6116Z" fill="#999999" stroke="#263238" stroke-linecap="round" stroke-linejoin="round"/>
<path d="M51.3095 56.9707C51.9688 56.3974 52.689 52.4453 52.9828 50.6968C52.2913 50.1701 49.0701 49.6613 47.8089 50.2883C46.5476 50.9154 45.1574 51.9867 44.9424 51.6678C44.7274 51.3489 43.7134 46.5798 44.4479 45.7342C45.1825 44.8886 46.9955 44.8815 46.5691 43.502C46.1427 42.1225 44.3082 42.8714 44.2043 41.7105C44.1004 40.5496 45.2792 39.4818 43.8854 39.1665C42.9272 38.9974 41.942 39.07 41.019 39.3779C40.7036 39.3779 40.0659 38.9515 40.0659 37.8909C40.0663 37.611 39.9714 37.3394 39.7969 37.1205C39.6224 36.9017 39.3786 36.7488 39.1056 36.687C38.6362 36.9916 36.8017 38.3603 36.2392 41.4991C35.6014 45.1036 37.9375 48.9232 37.83 50.729C37.7437 51.7983 37.4297 52.8367 36.9092 53.7746C37.3996 53.9904 37.9475 54.0383 38.4678 53.9108C39.5427 53.5919 39.4209 52.6388 39.7398 51.8935C40.0587 51.1483 41.1193 50.9404 40.589 49.561C40.0587 48.1815 41.4382 46.6945 42.0724 46.802C42.7066 46.9095 43.3479 47.9701 43.0291 48.5935C42.7102 49.217 41.9541 52.3056 41.9541 53.8965C41.9541 55.4873 42.3769 56.8668 43.3336 57.3971C44.2903 57.9274 45.616 58.404 46.5584 58.8303C46.9361 58.422 47.3839 58.0847 47.8805 57.8342C47.8805 57.8342 50.4639 57.7232 51.3095 56.9707Z" fill="#263238" stroke="#263238" stroke-linecap="round" stroke-linejoin="round"/>
<path d="M51.6283 45.6265C51.6283 46.0385 51.485 46.3717 51.3094 46.3717C51.1339 46.3717 50.9941 46.0385 50.9941 45.6265C50.9941 45.2144 51.1339 44.8848 51.3094 44.8848C51.485 44.8848 51.6283 45.218 51.6283 45.6265Z" fill="#263238"/>
<path d="M49.7187 43.7133C50.2594 43.4104 50.8282 43.1608 51.4171 42.968C51.9474 42.8641 52.7966 43.2869 52.6891 42.4377C52.5816 41.5885 51.5246 41.9074 50.249 42.2263C48.9735 42.5452 48.977 43.2941 49.7187 43.7133Z" fill="white" stroke="#263238" stroke-linecap="round" stroke-linejoin="round"/>
<path d="M48.3391 45.415C48.6745 45.6092 49.0367 45.7529 49.414 45.8414" stroke="#263238" stroke-linecap="round" stroke-linejoin="round"/>
<path d="M49.3997 46.2642C49.2176 46.3936 49.0084 46.4799 48.788 46.5165C48.5677 46.5531 48.3419 46.5391 48.1277 46.4756" stroke="#263238" stroke-linecap="round" stroke-linejoin="round"/>
<path d="M47.9199 41.4847C47.9199 41.4847 49.5645 40.1697 51.6212 40.4993" stroke="#263238" stroke-linecap="round" stroke-linejoin="round"/>
<path d="M48.823 39.4135C48.823 39.4135 50.8797 38.8402 51.7862 39.4135" stroke="#263238" stroke-linecap="round" stroke-linejoin="round"/>
<path d="M41.1266 38.5213C40.8077 38.5213 40.1735 38.095 40.1735 37.0344C40.1735 35.9738 38.8979 35.3396 37.9448 36.1852C36.9917 37.0308 37.2031 37.5647 36.2465 37.7761C35.2898 37.9875 33.2761 37.3533 32.9572 39.3705C32.6383 41.3878 33.0647 41.9145 32.6383 42.4448C32.2119 42.9751 29.9869 43.9318 30.0943 45.734C30.2018 47.5363 31.4738 47.5256 31.0474 48.6005C30.6211 49.6754 29.564 51.0406 31.1549 52.1011C32.7458 53.1617 35.3973 50.9367 35.7162 51.7858C36.0351 52.635 37.5077 53.3767 38.5826 53.0578C39.6575 52.7389 39.5393 51.7858 39.8582 51.0406C40.1771 50.2953 41.2377 50.0875 40.7074 48.708C40.1771 47.3285 41.553 45.8415 42.1908 45.949C42.8285 46.0565 43.4627 47.1171 43.1474 47.7406C42.8321 48.364 42.0725 51.4526 42.0725 53.0435C42.0725 54.6344 42.4953 56.0138 43.4484 56.5441C44.4015 57.0744 45.8885 57.6191 46.8452 58.0311C47.8018 58.4432 50.7686 59.7259 51.7253 58.8767C52.682 58.0275 53.2087 56.0103 53.2087 54.1041C53.2087 52.1979 53.739 50.392 53.1048 49.8617C52.4706 49.3314 49.1634 48.7868 47.9057 49.4353C46.6481 50.0839 45.2543 51.1337 45.0393 50.8148C44.8243 50.4959 44.0826 47.1028 44.8243 46.2536C45.566 45.4044 47.3719 44.3438 46.9455 42.9643C46.5191 41.5849 44.4015 42.0112 44.294 40.8432C44.1865 39.6751 45.3689 38.6145 43.9751 38.2992C43.0219 38.1361 42.043 38.2124 41.1266 38.5213Z" fill="white" stroke="#263238" stroke-linecap="round" stroke-linejoin="round"/>
<path d="M48.7656 50.9331C49.0824 51.4075 49.537 51.7734 50.068 51.9816C50.5991 52.1898 51.1812 52.2303 51.736 52.0976" stroke="#263238" stroke-linecap="round" stroke-linejoin="round"/>
<path d="M43.3122 47.4076C43.3122 47.4076 43.1473 45.9278 41.3379 45.6806C39.5285 45.4334 39.3636 48.393 40.1053 49.794C40.847 51.1949 41.8324 50.4497 41.8324 50.4497" fill="#999999"/>
<path d="M43.3122 47.4076C43.3122 47.4076 43.1473 45.9278 41.3379 45.6806C39.5285 45.4334 39.3636 48.393 40.1053 49.794C40.847 51.1949 41.8324 50.4497 41.8324 50.4497" stroke="#263238" stroke-linecap="round" stroke-linejoin="round"/>
<path d="M36.5652 52.9468C36.5652 52.9468 40.3848 61.8579 41.4454 64.194C42.506 66.5302 44.0968 68.225 44.0968 70.5575C44.0968 72.8901 45.0535 77.9852 45.0535 83.0767C45.0535 88.1683 46.3255 95.4885 45.8991 98.3513C45.4727 101.214 44.4301 103.339 44.4301 104.507C44.4301 105.675 44.534 107.373 44.0037 107.373C43.4734 107.373 35.8379 106.843 30.2125 105.464C24.5871 104.084 21.3014 103.446 21.3014 102.597C21.3014 101.748 21.6203 100.157 21.6203 99.7308C21.6203 99.3044 20.3483 98.4588 20.9861 95.596C21.6239 92.7331 22.2581 83.8184 22.4695 77.4549C22.6809 71.0914 25.2284 65.466 26.9268 62.9184C28.6252 60.3709 31.5848 58.5722 31.5848 58.5722C31.5848 58.5722 29.89 56.5549 31.9037 55.2829C33.395 54.3853 34.9535 53.6042 36.5652 52.9468Z" fill="#F58F00" stroke="#263238" stroke-linecap="round" stroke-linejoin="round"/>
<path d="M22.7739 99.6914C29.1365 102.418 35.978 103.852 42.9 103.909" stroke="#263238" stroke-linecap="round" stroke-linejoin="round"/>
<path d="M25.1926 100.652L24.759 103.565" stroke="#263238" stroke-linecap="round" stroke-linejoin="round"/>
<path d="M28.3959 101.963L27.9587 104.292" stroke="#263238" stroke-linecap="round" stroke-linejoin="round"/>
<path d="M31.8893 102.834L31.5991 105.163" stroke="#263238" stroke-linecap="round" stroke-linejoin="round"/>
<path d="M35.0927 103.418L34.9458 105.457" stroke="#263238" stroke-linecap="round" stroke-linejoin="round"/>
<path d="M38.7295 103.855V106.037" stroke="#263238" stroke-linecap="round" stroke-linejoin="round"/>
<path d="M41.4453 64.194C40.3704 61.8579 36.5652 52.9468 36.5652 52.9468C34.9547 53.6044 33.3974 54.3854 31.9072 55.2829C29.8936 56.5549 31.5883 58.5722 31.5883 58.5722C31.5883 58.5722 35.1965 63.8751 36.3646 66.3152C37.5326 68.7552 37.2137 68.2249 38.2743 69.9233C39.3349 71.6217 39.8652 72.9976 40.1841 72.4673C40.503 71.937 43.1545 69.3894 43.7887 69.6008C43.8639 69.6259 43.9427 69.6474 44.0287 69.6689C43.6883 67.7699 42.3662 66.222 41.4453 64.194Z" fill="#F58F00" stroke="#263238" stroke-linecap="round" stroke-linejoin="round"/>
<path d="M55.9783 75.1187H76.0434C76.0434 75.1187 74.345 77.3473 72.7542 78.304C71.1633 79.2607 69.0421 79.3789 69.0421 79.3789H63.7213C63.7213 79.3789 59.4789 79.2571 55.9783 75.1187Z" fill="#F58F00" stroke="#263238" stroke-linecap="round" stroke-linejoin="round"/>
<path d="M55.3405 80.6365C56.2354 79.8508 56.9892 78.9177 57.5692 77.8776C57.8635 77.264 58.2936 76.7255 58.8269 76.3028C59.3601 75.88 59.9825 75.5841 60.647 75.4375C61.7219 75.2261 65.2083 74.9072 65.8461 74.5883C66.4838 74.2694 66.921 75.7564 66.5877 76.2867C66.2545 76.817 64.8894 77.2398 64.0402 77.3616C63.4904 77.4623 62.9982 77.7652 62.6607 78.2108C63.1398 78.5807 63.6776 78.8678 64.2516 79.06C65.2083 79.3789 66.9066 79.4828 67.6483 79.06C68.39 78.6372 71.0415 76.7238 71.2565 77.985C71.4715 79.2463 70.2998 79.7766 69.662 80.529C69.0242 81.2815 67.8705 82.6502 67.4369 82.7577C67.0034 82.8652 63.6174 82.8652 61.4962 83.0766C59.375 83.288 56.8382 84.775 56.8382 84.775L54.9285 80.6365H55.3405Z" fill="#999999" stroke="#263238" stroke-linecap="round" stroke-linejoin="round"/>
<path d="M51.417 82.2276C51.417 82.2276 54.8102 79.9989 55.3404 80.6367C55.8707 81.2745 58.4183 84.0299 57.7805 85.198C57.1427 86.366 53.0079 88.2758 53.0079 88.2758L51.417 82.2276Z" fill="#F58F00" stroke="#263238" stroke-linecap="round" stroke-linejoin="round"/>
<path d="M35.3972 66.4229C35.3972 66.4229 37.8373 69.0743 38.7939 71.5144C39.7506 73.9544 41.9757 80.8303 42.2946 81.3785C42.6135 81.9268 43.1438 82.8655 43.1438 82.8655C43.1438 82.8655 48.6581 81.3785 49.8262 81.2746C50.9943 81.1707 52.1588 82.2277 52.9005 83.6072C53.6421 84.9867 56.0858 89.1215 55.0252 90.1857C53.9646 91.2499 44.7347 96.0261 41.9757 97.0795C39.2167 98.1329 36.4578 97.5023 35.1679 95.288C33.878 93.0737 28.4855 80.7551 27.4249 77.8886C26.3643 75.0222 26.4682 72.6896 26.8946 71.8404" fill="#F58F00"/>
<path d="M35.3972 66.4229C35.3972 66.4229 37.8373 69.0743 38.7939 71.5144C39.7506 73.9544 41.9757 80.8303 42.2946 81.3785C42.6135 81.9268 43.1438 82.8655 43.1438 82.8655C43.1438 82.8655 48.6581 81.3785 49.8262 81.2746C50.9943 81.1707 52.1588 82.2277 52.9005 83.6072C53.6421 84.9867 56.0858 89.1215 55.0252 90.1857C53.9646 91.2499 44.7347 96.0261 41.9757 97.0795C39.2167 98.1329 36.4578 97.5023 35.1679 95.288C33.878 93.0737 28.4855 80.7551 27.4249 77.8886C26.3643 75.0222 26.4682 72.6896 26.8946 71.8404" stroke="#263238" stroke-linecap="round" stroke-linejoin="round"/>
<path d="M39.2167 89.8665C39.747 86.4698 43.1581 82.8652 43.1581 82.8652C43.1581 82.8652 39.3386 84.775 38.063 86.3659" stroke="#263238" stroke-linecap="round" stroke-linejoin="round"/>
</svg>
