<svg width="203" height="203" viewBox="0 0 203 203" fill="none" xmlns="http://www.w3.org/2000/svg">
<path d="M54.2272 61.4344C45.9474 65.7402 39.509 72.9637 34.4464 80.8024C27.2472 91.9432 22.3829 105.294 24.4427 118.397C26.5025 131.501 36.9473 143.795 50.1804 144.839C67.1203 146.183 80.9078 130.157 97.8072 128.393C104.246 127.721 110.692 129.202 117.151 129.607C136.26 130.821 155.729 122.213 167.675 107.252C175.502 97.455 180.172 84.5295 177.724 72.2312C175.182 59.4514 165.081 48.9014 152.993 44.0291C140.906 39.1567 127.155 39.4966 114.626 43.0862C103.024 46.4126 93.7685 52.7985 83.3723 58.5126C79.1758 60.8233 74.4167 57.7032 69.7305 57.6587C64.3314 57.6274 59.0073 58.924 54.2272 61.4344Z" fill="#F58F00"/>
<path opacity="0.9" d="M54.2272 61.4344C45.9474 65.7402 39.509 72.9637 34.4464 80.8024C27.2472 91.9432 22.3829 105.294 24.4427 118.397C26.5025 131.501 36.9473 143.795 50.1804 144.839C67.1203 146.183 80.9078 130.157 97.8072 128.393C104.246 127.721 110.692 129.202 117.151 129.607C136.26 130.821 155.729 122.213 167.675 107.252C175.502 97.455 180.172 84.5295 177.724 72.2312C175.182 59.4514 165.081 48.9014 152.993 44.0291C140.906 39.1567 127.155 39.4966 114.626 43.0862C103.024 46.4126 93.7685 52.7985 83.3723 58.5126C79.1758 60.8233 74.4167 57.7032 69.7305 57.6587C64.3314 57.6274 59.0073 58.924 54.2272 61.4344Z" fill="white"/>
<path d="M65.0847 34.2441L66.5942 36.1947H135.738L137.259 34.2441H65.0847Z" fill="#F58F00"/>
<g opacity="0.4">
<path d="M65.0847 34.2441L66.5942 36.1947H135.738L137.259 34.2441H65.0847Z" fill="black"/>
</g>
<path d="M135.754 31.731H66.4526V154.584H135.754V31.731Z" fill="#F58F00"/>
<g opacity="0.4">
<path d="M135.754 31.731H66.4526V154.584H135.754V31.731Z" fill="white"/>
</g>
<g opacity="0.8">
<path d="M69.2611 34.7542C69.2878 34.9327 69.2758 35.1148 69.226 35.2883C69.1761 35.4617 69.0895 35.6224 68.972 35.7594C68.8546 35.8965 68.709 36.0066 68.5452 36.0825C68.3815 36.1583 68.2033 36.198 68.0228 36.1989C67.6347 36.1837 67.265 36.0293 66.9812 35.7641C66.6974 35.4989 66.5184 35.1404 66.4769 34.7542C66.449 34.5746 66.4601 34.391 66.5096 34.2161C66.5591 34.0412 66.6458 33.879 66.7638 33.7407C66.8818 33.6024 67.0282 33.4911 67.1931 33.4146C67.358 33.3381 67.5375 33.2981 67.7193 33.2974C68.1086 33.314 68.4789 33.4704 68.7621 33.738C69.0453 34.0057 69.2225 34.3665 69.2611 34.7542Z" fill="#F0F0F0"/>
<path d="M71.8148 34.7542C71.8396 34.9337 71.8257 35.1165 71.7741 35.2902C71.7225 35.4639 71.6343 35.6245 71.5155 35.7614C71.3967 35.8982 71.25 36.008 71.0852 36.0835C70.9205 36.159 70.7415 36.1983 70.5602 36.1989C70.175 36.1799 69.8091 36.0239 69.5287 35.759C69.2482 35.4941 69.0716 35.1378 69.0306 34.7542C69.0039 34.5741 69.0162 34.3904 69.0667 34.2155C69.1172 34.0406 69.2047 33.8786 69.3233 33.7404C69.4419 33.6023 69.5888 33.4912 69.754 33.4148C69.9192 33.3383 70.099 33.2983 70.281 33.2974C70.6689 33.3158 71.0372 33.4732 71.3188 33.7406C71.6003 34.008 71.7764 34.3678 71.8148 34.7542Z" fill="#F0F0F0"/>
<path d="M74.3642 34.7542C74.3877 34.9342 74.3727 35.1171 74.3201 35.2908C74.2675 35.4645 74.1785 35.625 74.0591 35.7617C73.9397 35.8983 73.7925 36.008 73.6274 36.0834C73.4623 36.1588 73.2831 36.1982 73.1016 36.1989C72.7155 36.1847 72.348 36.03 72.0678 35.7641C71.7877 35.4981 71.6142 35.139 71.58 34.7542C71.5552 34.5734 71.5693 34.3895 71.6213 34.2146C71.6733 34.0397 71.762 33.8779 71.8815 33.74C72.001 33.6021 72.1486 33.4913 72.3143 33.415C72.48 33.3387 72.6601 33.2986 72.8426 33.2974C73.2305 33.3119 73.5997 33.4683 73.8801 33.7368C74.1605 34.0053 74.3328 34.3673 74.3642 34.7542Z" fill="#F0F0F0"/>
<path d="M76.9137 34.7542C76.9347 34.9347 76.9175 35.1176 76.8632 35.2911C76.8089 35.4645 76.7187 35.6245 76.5984 35.7608C76.4782 35.897 76.3306 36.0065 76.1653 36.082C76 36.1575 75.8207 36.1973 75.639 36.1989C75.2542 36.1844 74.8881 36.0293 74.61 35.7631C74.3318 35.4969 74.1609 35.138 74.1295 34.7542C74.1073 34.5725 74.1237 34.3882 74.1776 34.2133C74.2316 34.0385 74.3219 33.8769 74.4426 33.7394C74.5634 33.6018 74.7118 33.4914 74.8782 33.4152C75.0446 33.339 75.2253 33.2989 75.4083 33.2974C75.7945 33.3123 76.1617 33.4692 76.4395 33.738C76.7172 34.0068 76.8861 34.3687 76.9137 34.7542Z" fill="#F0F0F0"/>
<path d="M79.4671 34.7542C79.4863 34.9354 79.4674 35.1185 79.4117 35.292C79.3559 35.4654 79.2645 35.6253 79.1433 35.7613C79.0222 35.8973 78.8739 36.0065 78.708 36.0819C78.5422 36.1572 78.3624 36.1971 78.1802 36.1989C77.7965 36.185 77.4314 36.0298 77.1551 35.7631C76.8787 35.4965 76.7106 35.1372 76.6829 34.7542C76.6619 34.5721 76.6795 34.3876 76.7344 34.2127C76.7893 34.0378 76.8804 33.8765 77.0018 33.7391C77.1231 33.6017 77.272 33.4914 77.4388 33.4153C77.6056 33.3392 77.7865 33.299 77.9698 33.2974C78.3558 33.3107 78.723 33.4673 78.9998 33.7366C79.2766 34.006 79.4432 34.3687 79.4671 34.7542Z" fill="#F0F0F0"/>
<path d="M82.0167 34.7542C82.0341 34.936 82.0136 35.1194 81.9564 35.2929C81.8992 35.4663 81.8066 35.626 81.6845 35.7618C81.5624 35.8976 81.4134 36.0066 81.247 36.0818C81.0806 36.1571 80.9003 36.1969 80.7177 36.1989C80.335 36.1856 79.9708 36.0303 79.6963 35.7632C79.4218 35.4962 79.2564 35.1365 79.2325 34.7542C79.2134 34.5715 79.2326 34.3867 79.289 34.2118C79.3453 34.0369 79.4376 33.8757 79.5599 33.7386C79.6822 33.6014 79.8318 33.4913 79.9992 33.4153C80.1665 33.3394 80.3478 33.2992 80.5316 33.2974C80.9166 33.31 81.2829 33.4667 81.5579 33.7365C81.8329 34.0063 81.9967 34.3695 82.0167 34.7542Z" fill="#F0F0F0"/>
<path d="M84.5784 34.7542C84.594 34.9367 84.5718 35.1203 84.5132 35.2938C84.4545 35.4673 84.3608 35.6268 84.2377 35.7624C84.1147 35.898 83.965 36.0067 83.798 36.0818C83.631 36.1569 83.4503 36.1968 83.2672 36.1989C82.8854 36.1863 82.5222 36.0308 82.2495 35.7633C81.9767 35.4958 81.8142 35.1357 81.7942 34.7542C81.7762 34.571 81.7965 34.3861 81.8539 34.2112C81.9112 34.0363 82.0043 33.8752 82.1272 33.7382C82.2501 33.6012 82.4002 33.4913 82.5679 33.4154C82.7356 33.3395 82.9172 33.2993 83.1013 33.2974C83.4855 33.3102 83.8508 33.4672 84.1246 33.7371C84.3983 34.0071 84.5603 34.3702 84.5784 34.7542Z" fill="#F0F0F0"/>
<path d="M87.1197 34.7542C87.1336 34.9376 87.1096 35.1219 87.0494 35.2957C86.9891 35.4694 86.8938 35.629 86.7693 35.7644C86.6449 35.8999 86.494 36.0083 86.3259 36.0831C86.1579 36.1578 85.9763 36.1972 85.7924 36.1989C85.4114 36.187 85.0491 36.0314 84.7782 35.7635C84.5072 35.4955 84.3476 35.135 84.3315 34.7542C84.3159 34.5705 84.3383 34.3856 84.3973 34.2109C84.4563 34.0362 84.5506 33.8756 84.6743 33.7389C84.7981 33.6023 84.9486 33.4926 85.1166 33.4166C85.2846 33.3406 85.4664 33.3 85.6507 33.2974C86.0347 33.3084 86.4002 33.4651 86.673 33.7356C86.9458 34.0061 87.1055 34.3703 87.1197 34.7542Z" fill="#F0F0F0"/>
<path d="M89.6691 34.7542C89.6812 34.9376 89.6559 35.1215 89.5947 35.2947C89.5335 35.468 89.4378 35.627 89.3133 35.7621C89.1887 35.8972 89.038 36.0056 88.8703 36.0807C88.7026 36.1558 88.5214 36.196 88.3377 36.1989C87.9573 36.1878 87.5954 36.0323 87.3255 35.764C87.0556 35.4956 86.8981 35.1346 86.8849 34.7542C86.8711 34.5696 86.8952 34.384 86.9558 34.209C87.0165 34.0341 87.1123 33.8734 87.2374 33.7369C87.3626 33.6004 87.5143 33.491 87.6834 33.4154C87.8524 33.3398 88.0352 33.2996 88.2203 33.2974C88.6024 33.3086 88.9656 33.466 89.2351 33.737C89.5046 34.0081 89.6599 34.3721 89.6691 34.7542Z" fill="#F0F0F0"/>
<path d="M92.2228 34.7542C92.2326 34.9384 92.2052 35.1226 92.1422 35.296C92.0792 35.4693 91.9819 35.6281 91.8561 35.763C91.7303 35.8978 91.5786 36.006 91.41 36.0809C91.2415 36.1558 91.0596 36.1959 90.8752 36.1989C90.4954 36.1896 90.1337 36.0343 89.8654 35.7653C89.5971 35.4962 89.4428 35.1341 89.4346 34.7542C89.4225 34.5693 89.4481 34.3838 89.5099 34.2091C89.5717 34.0343 89.6683 33.874 89.794 33.7377C89.9196 33.6015 90.0716 33.4922 90.2408 33.4165C90.41 33.3408 90.5928 33.3003 90.7781 33.2974C91.1604 33.3067 91.5243 33.4636 91.7935 33.7351C92.0628 34.0067 92.2166 34.3718 92.2228 34.7542Z" fill="#F0F0F0"/>
<path d="M94.7722 34.7542C94.7803 34.9386 94.7515 35.1228 94.6873 35.296C94.6232 35.4691 94.5251 35.6276 94.3988 35.7622C94.2724 35.8968 94.1205 36.0048 93.9518 36.0798C93.7831 36.1548 93.6011 36.1953 93.4165 36.1989C93.0381 36.1885 92.6784 36.0325 92.4122 35.7633C92.1461 35.4942 91.9941 35.1327 91.988 34.7542C91.9776 34.5687 92.0048 34.3829 92.068 34.2081C92.1312 34.0334 92.229 33.8731 92.3556 33.7371C92.4822 33.601 92.635 33.4919 92.8048 33.4164C92.9745 33.3408 93.1579 33.3003 93.3437 33.2974C93.7245 33.3068 94.0866 33.4642 94.3533 33.7362C94.6199 34.0082 94.7702 34.3733 94.7722 34.7542Z" fill="#F0F0F0"/>
<path d="M97.3217 34.7542C97.3281 34.9392 97.2977 35.1237 97.2323 35.2969C97.1668 35.4701 97.0675 35.6285 96.9402 35.7629C96.8129 35.8974 96.6602 36.0052 96.4908 36.08C96.3215 36.1549 96.139 36.1953 95.9538 36.1989C95.5766 36.1885 95.2182 36.032 94.954 35.7625C94.6898 35.4931 94.5405 35.1316 94.5375 34.7542C94.5293 34.5682 94.5585 34.3824 94.6232 34.2078C94.688 34.0332 94.787 33.8734 94.9144 33.7376C95.0419 33.6019 95.1952 33.493 95.3654 33.4174C95.5355 33.3418 95.7191 33.301 95.9053 33.2974C96.2853 33.3059 96.6467 33.4633 96.9117 33.7359C97.1766 34.0084 97.3239 34.3741 97.3217 34.7542Z" fill="#F0F0F0"/>
<path d="M99.8751 34.7542C99.88 34.9398 99.8481 35.1246 99.7812 35.2978C99.7144 35.4711 99.614 35.6294 99.4857 35.7636C99.3574 35.8979 99.2039 36.0055 99.0339 36.0802C98.8639 36.1549 98.6808 36.1952 98.4952 36.1989C98.1184 36.1904 97.76 36.0342 97.4974 35.764C97.2347 35.4937 97.0887 35.1311 97.0909 34.7542C97.0845 34.5676 97.1152 34.3815 97.1813 34.2069C97.2474 34.0322 97.3475 33.8725 97.476 33.7369C97.6044 33.6013 97.7585 33.4927 97.9293 33.4172C98.1001 33.3417 98.2842 33.301 98.4709 33.2974C98.8495 33.3069 99.209 33.4651 99.4718 33.7378C99.7346 34.0104 99.8795 34.3756 99.8751 34.7542Z" fill="#F0F0F0"/>
<path d="M102.425 34.7542C102.412 35.0264 102.32 35.2889 102.159 35.5092C101.999 35.7294 101.777 35.8978 101.522 35.9933C101.267 36.0888 100.989 36.1073 100.724 36.0465C100.458 35.9857 100.216 35.8482 100.028 35.6512C99.8395 35.4542 99.7131 35.2062 99.6645 34.9381C99.6158 34.67 99.6469 34.3935 99.7539 34.1428C99.8609 33.8922 100.039 33.6785 100.266 33.5282C100.494 33.3779 100.76 33.2977 101.033 33.2974C101.22 33.301 101.405 33.3417 101.576 33.417C101.748 33.4923 101.902 33.6008 102.032 33.7362C102.161 33.8716 102.263 34.0313 102.33 34.206C102.397 34.3807 102.43 34.567 102.425 34.7542Z" fill="#F0F0F0"/>
<path d="M104.974 34.7542C104.978 35.1307 104.832 35.4934 104.57 35.7637C104.308 36.0341 103.95 36.1904 103.574 36.1989C103.388 36.1952 103.205 36.1549 103.035 36.0802C102.865 36.0055 102.712 35.8979 102.584 35.7636C102.455 35.6294 102.355 35.4711 102.288 35.2978C102.221 35.1246 102.189 34.9398 102.194 34.7542C102.188 34.3756 102.331 34.0099 102.594 33.7369C102.856 33.4639 103.216 33.3059 103.594 33.2974C103.781 33.301 103.965 33.3417 104.136 33.4172C104.307 33.4927 104.461 33.6013 104.589 33.7369C104.718 33.8725 104.818 34.0322 104.884 34.2069C104.95 34.3815 104.981 34.5676 104.974 34.7542Z" fill="#F0F0F0"/>
<path d="M107.528 34.7542C107.527 35.1322 107.378 35.4948 107.114 35.7648C106.849 36.0347 106.489 36.1905 106.111 36.1989C105.926 36.1953 105.744 36.1549 105.574 36.08C105.405 36.0052 105.252 35.8974 105.125 35.7629C104.998 35.6285 104.898 35.4701 104.833 35.2969C104.767 35.1237 104.737 34.9392 104.744 34.7542C104.741 34.3748 104.888 34.0097 105.152 33.7373C105.416 33.4648 105.777 33.3069 106.156 33.2974C106.342 33.301 106.526 33.3418 106.696 33.4173C106.867 33.4929 107.02 33.6017 107.148 33.7374C107.276 33.8731 107.375 34.0329 107.44 34.2075C107.506 34.3821 107.535 34.568 107.528 34.7542Z" fill="#F0F0F0"/>
<path d="M110.073 34.7542C110.068 35.1323 109.917 35.4938 109.652 35.7631C109.386 36.0323 109.027 36.1885 108.649 36.1989C108.464 36.1953 108.282 36.1548 108.113 36.0799C107.944 36.0049 107.792 35.897 107.665 35.7625C107.538 35.6279 107.44 35.4694 107.375 35.2963C107.311 35.1231 107.281 34.9388 107.289 34.7542C107.291 34.3733 107.441 34.0082 107.708 33.7362C107.975 33.4642 108.337 33.3068 108.718 33.2974C108.903 33.3009 109.086 33.3418 109.256 33.4175C109.425 33.4933 109.578 33.6024 109.704 33.7383C109.831 33.8742 109.929 34.0342 109.992 34.2088C110.055 34.3833 110.083 34.5688 110.073 34.7542Z" fill="#F0F0F0"/>
<path d="M112.631 34.7542C112.622 35.1338 112.467 35.4953 112.199 35.7642C111.931 36.033 111.57 36.1887 111.19 36.1989C111.006 36.1959 110.824 36.1558 110.656 36.0808C110.488 36.0059 110.336 35.8977 110.211 35.7628C110.085 35.6278 109.988 35.469 109.926 35.2956C109.863 35.1223 109.836 34.9382 109.847 34.7542C109.852 34.3729 110.004 34.0083 110.272 33.7368C110.54 33.4652 110.902 33.3078 111.283 33.2974C111.469 33.3003 111.652 33.3408 111.821 33.4165C111.99 33.4921 112.143 33.6013 112.269 33.7375C112.395 33.8737 112.492 34.034 112.554 34.2087C112.616 34.3835 112.642 34.5691 112.631 34.7542Z" fill="#F0F0F0"/>
<path d="M115.18 34.7542C115.167 35.1366 115.008 35.4994 114.735 35.768C114.463 36.0367 114.098 36.1909 113.715 36.1989C113.531 36.196 113.35 36.1558 113.182 36.0808C113.014 36.0057 112.863 35.8974 112.738 35.7623C112.614 35.6273 112.517 35.4683 112.456 35.295C112.394 35.1217 112.368 34.9378 112.38 34.7542C112.389 34.3721 112.544 34.0081 112.814 33.737C113.083 33.466 113.447 33.3086 113.829 33.2974C114.015 33.2974 114.2 33.3359 114.371 33.4105C114.542 33.4852 114.695 33.5942 114.822 33.731C114.949 33.8677 115.046 34.0292 115.108 34.2053C115.17 34.3813 115.194 34.5682 115.18 34.7542Z" fill="#F0F0F0"/>
<path d="M117.73 34.7542C117.715 35.1346 117.556 35.4951 117.285 35.7632C117.015 36.0312 116.653 36.1869 116.273 36.1989C116.088 36.1988 115.905 36.1606 115.735 36.0867C115.565 36.0127 115.413 35.9046 115.287 35.769C115.16 35.6335 115.064 35.4734 115.002 35.2988C114.941 35.1242 114.916 34.9388 114.929 34.7542C114.942 34.3713 115.101 34.0078 115.372 33.7372C115.643 33.4667 116.007 33.3095 116.39 33.2974C116.576 33.2973 116.76 33.3358 116.931 33.4105C117.101 33.4853 117.254 33.5946 117.38 33.7315C117.506 33.8685 117.602 34.0301 117.662 34.2062C117.722 34.3822 117.745 34.5688 117.73 34.7542Z" fill="#F0F0F0"/>
<path d="M120.283 34.7542C120.263 35.1357 120.101 35.4958 119.828 35.7633C119.555 36.0308 119.192 36.1863 118.81 36.1989C118.627 36.1968 118.446 36.1569 118.279 36.0818C118.112 36.0067 117.963 35.898 117.84 35.7624C117.717 35.6268 117.623 35.4673 117.564 35.2938C117.506 35.1203 117.483 34.9367 117.499 34.7542C117.515 34.3702 117.676 34.0066 117.949 33.7364C118.223 33.4661 118.588 33.3093 118.972 33.2974C119.156 33.2999 119.338 33.3405 119.505 33.4166C119.673 33.4926 119.823 33.6025 119.946 33.7393C120.069 33.8761 120.163 34.0369 120.221 34.2115C120.279 34.3862 120.3 34.5709 120.283 34.7542Z" fill="#F0F0F0"/>
<path d="M122.833 34.7542C122.81 35.1361 122.645 35.4958 122.371 35.7629C122.098 36.0301 121.734 36.1855 121.352 36.1989C121.169 36.1969 120.988 36.157 120.822 36.0818C120.655 36.0066 120.506 35.8977 120.384 35.762C120.261 35.6263 120.168 35.4667 120.111 35.2932C120.053 35.1197 120.032 34.9362 120.049 34.7542C120.069 34.3695 120.232 34.0063 120.507 33.7365C120.782 33.4667 121.149 33.31 121.534 33.2974C121.717 33.2992 121.899 33.3394 122.066 33.4153C122.233 33.4913 122.383 33.6014 122.505 33.7386C122.628 33.8757 122.72 34.0369 122.776 34.2118C122.833 34.3867 122.852 34.5715 122.833 34.7542Z" fill="#F0F0F0"/>
<path d="M125.382 34.7542C125.356 35.1372 125.189 35.4969 124.913 35.7638C124.638 36.0307 124.273 36.1858 123.889 36.1989C123.708 36.1943 123.531 36.1524 123.367 36.0759C123.203 35.9993 123.057 35.8898 122.938 35.7541C122.819 35.6185 122.729 35.4596 122.674 35.2876C122.619 35.1155 122.6 34.9339 122.618 34.7542C122.642 34.3687 122.809 34.006 123.086 33.7366C123.362 33.4673 123.73 33.3107 124.116 33.2974C124.297 33.3018 124.476 33.344 124.64 33.4213C124.804 33.4987 124.951 33.6094 125.07 33.7465C125.189 33.8835 125.279 34.0439 125.332 34.2175C125.386 34.391 125.403 34.5738 125.382 34.7542Z" fill="#F0F0F0"/>
<path d="M127.936 34.7542C127.905 35.1376 127.735 35.4965 127.458 35.7628C127.18 36.0291 126.815 36.1843 126.43 36.1989C126.248 36.1979 126.068 36.1584 125.903 36.0832C125.737 36.008 125.589 35.8986 125.468 35.7623C125.347 35.6259 125.257 35.4657 125.202 35.292C125.148 35.1183 125.13 34.9351 125.152 34.7542C125.178 34.3683 125.347 34.006 125.625 33.737C125.903 33.468 126.27 33.3114 126.657 33.2974C126.84 33.2989 127.021 33.339 127.187 33.4152C127.353 33.4914 127.502 33.6018 127.623 33.7394C127.743 33.8769 127.834 34.0385 127.888 34.2133C127.942 34.3882 127.958 34.5725 127.936 34.7542Z" fill="#F0F0F0"/>
<path d="M130.485 34.7542C130.451 35.1383 130.278 35.4969 129.999 35.7628C129.72 36.0287 129.353 36.1837 128.968 36.1989C128.786 36.1974 128.607 36.1576 128.442 36.082C128.277 36.0065 128.13 35.8969 128.011 35.7605C127.891 35.624 127.802 35.4639 127.748 35.2904C127.695 35.117 127.679 34.9343 127.701 34.7542C127.732 34.3679 127.904 34.0065 128.184 33.7381C128.463 33.4697 128.831 33.3129 129.219 33.2974C129.401 33.2986 129.582 33.3387 129.747 33.415C129.913 33.4913 130.061 33.6021 130.181 33.7399C130.301 33.8777 130.39 34.0394 130.442 34.2143C130.495 34.3892 130.509 34.5732 130.485 34.7542Z" fill="#F0F0F0"/>
<path d="M133.039 34.7542C132.998 35.1358 132.823 35.4906 132.545 35.7552C132.267 36.0198 131.904 36.1771 131.521 36.1989C131.34 36.1983 131.161 36.159 130.996 36.0835C130.831 36.008 130.685 35.8982 130.566 35.7614C130.447 35.6245 130.359 35.4639 130.307 35.2902C130.256 35.1165 130.242 34.9337 130.267 34.7542C130.305 34.3684 130.48 34.0092 130.761 33.7419C131.042 33.4745 131.409 33.3168 131.796 33.2974C131.977 33.3001 132.156 33.3414 132.32 33.4186C132.484 33.4957 132.629 33.607 132.747 33.7448C132.865 33.8827 132.951 34.044 133.002 34.2181C133.052 34.3921 133.065 34.5749 133.039 34.7542Z" fill="#F0F0F0"/>
<path d="M135.588 34.7542C135.547 35.1398 135.368 35.4977 135.085 35.7628C134.803 36.028 134.434 36.1827 134.046 36.1989C133.866 36.1979 133.687 36.1582 133.524 36.0824C133.36 36.0066 133.214 35.8965 133.096 35.7596C132.978 35.6226 132.891 35.462 132.841 35.2886C132.791 35.1152 132.778 34.9329 132.804 34.7542C132.843 34.3665 133.02 34.0057 133.303 33.738C133.586 33.4704 133.956 33.314 134.346 33.2974C134.528 33.2981 134.707 33.3381 134.872 33.4146C135.037 33.4911 135.183 33.6024 135.301 33.7407C135.419 33.879 135.506 34.0412 135.555 34.2161C135.605 34.391 135.616 34.5746 135.588 34.7542Z" fill="#F0F0F0"/>
</g>
<path d="M65.0808 32.2695H137.264L137.26 34.2444H65.0849L65.0808 32.2695Z" fill="#F58F00"/>
<path d="M65.0767 30.2944L66.5821 32.2693H135.746L137.268 30.2944H65.0767Z" fill="#F58F00"/>
<g opacity="0.4">
<path d="M65.0767 30.2944L66.5821 32.2693H135.746L137.268 30.2944H65.0767Z" fill="black"/>
</g>
<path d="M65.0686 28.3115H137.272L137.268 30.2945H65.0767L65.0686 28.3115Z" fill="#F58F00"/>
<g opacity="0.8">
<path d="M66.5781 30.2944H135.75L135.746 32.2693H66.5822L66.5781 30.2944Z" fill="white"/>
</g>
<g opacity="0.7">
<path d="M135.77 71.147H66.4729V72.017H135.77V71.147Z" fill="white"/>
</g>
<g opacity="0.8">
<path d="M135.766 114.331H66.6145V115.197H135.766V114.331Z" fill="white"/>
</g>
<path d="M89.402 39.9785H80.835V49.2336H89.402V39.9785Z" fill="#F58F00"/>
<path d="M105.856 39.9785H97.2893V49.2336H105.856V39.9785Z" fill="#F58F00"/>
<path d="M122.311 39.9785H113.744V49.2336H122.311V39.9785Z" fill="#F58F00"/>
<path d="M89.402 53.835H80.835V63.09H89.402V53.835Z" fill="#F58F00"/>
<path d="M105.856 53.835H97.2893V63.09H105.856V53.835Z" fill="#F58F00"/>
<path d="M122.311 53.835H113.744V63.09H122.311V53.835Z" fill="#F58F00"/>
<path d="M89.402 120.996H80.835V130.251H89.402V120.996Z" fill="#F58F00"/>
<path d="M105.856 120.996H97.2893V130.251H105.856V120.996Z" fill="#F58F00"/>
<path d="M122.311 120.996H113.744V130.251H122.311V120.996Z" fill="#F58F00"/>
<path d="M80.2238 140.481H71.6567V149.736H80.2238V140.481Z" fill="#F58F00"/>
<path d="M130.558 140.481H121.991V149.736H130.558V140.481Z" fill="#F58F00"/>
<path d="M89.402 79.3096H80.835V88.5646H89.402V79.3096Z" fill="#F58F00"/>
<path d="M105.856 79.3096H97.2893V88.5646H105.856V79.3096Z" fill="#F58F00"/>
<path d="M122.311 79.3096H113.744V88.5646H122.311V79.3096Z" fill="#F58F00"/>
<path d="M89.402 93.1655H80.835V102.421H89.402V93.1655Z" fill="#F58F00"/>
<path d="M105.856 93.1655H97.2893V102.421H105.856V93.1655Z" fill="#F58F00"/>
<path d="M122.311 93.1655H113.744V102.421H122.311V93.1655Z" fill="#F58F00"/>
<g opacity="0.8">
<path d="M91.1947 141.565H100.061L100.025 150.772H91.134L91.1947 141.565Z" fill="white"/>
</g>
<g opacity="0.8">
<path d="M101.773 141.565H111.004L110.567 150.772H101.676L101.773 141.565Z" fill="white"/>
</g>
<path d="M112.416 152.625H89.0215L88.9285 150.772H112.505L112.416 152.625Z" fill="#F58F00"/>
<g opacity="0.1">
<path d="M112.416 152.625H89.0215L88.9285 150.772H112.505L112.416 152.625Z" fill="white"/>
</g>
<path d="M113.359 154.584H88.1961L88.095 152.759H113.452L113.359 154.584Z" fill="#F58F00"/>
<g opacity="0.4">
<path d="M114.193 138.304H87.2978L87.1804 136.22H114.298L114.193 138.304Z" fill="white"/>
</g>
<path d="M87.2976 138.304L91.1947 141.565H111.004L114.193 138.304H87.2976Z" fill="#263238"/>
<path d="M89.1187 139.829L90.4946 150.756H91.5872L91.1461 139.829C90.8331 139.668 90.4863 139.584 90.1344 139.584C89.7825 139.584 89.4357 139.668 89.1227 139.829H89.1187Z" fill="#F58F00"/>
<path d="M112.752 139.829L111.404 150.756H110.312L110.716 139.829C111.017 139.632 111.369 139.527 111.728 139.527C112.088 139.527 112.439 139.632 112.74 139.829H112.752Z" fill="#F58F00"/>
<path d="M66.5781 30.2944H135.75L135.746 32.2693H66.5822L66.5781 30.2944Z" fill="#F58F00"/>
</svg>
