<svg width="236" height="422" viewBox="0 0 236 422" fill="none" xmlns="http://www.w3.org/2000/svg">
<path d="M172.789 100.566C169.677 123.487 163.941 146.376 160.188 149.975C154.373 155.553 122.034 163.441 111.59 163.961C108.17 164.132 105.194 141.009 107.946 138.595C110.698 136.181 145.427 130.169 147.344 129.007C148.366 128.388 156.813 110.749 163.314 98.9387C169.356 87.9631 173.733 93.6069 172.789 100.566Z" fill="#EB9481"/>
<path d="M123.368 163.322L119.215 134.134C119.215 134.134 143.814 128.575 146.779 127.643C148.032 127.249 158.595 105.464 163.679 96.1283C167.022 89.9879 173.886 87.9986 173.568 101.501C173.381 109.407 167.025 146.553 160.866 151.68C155.967 155.757 123.368 163.322 123.368 163.322Z" fill="#F58F00"/>
<path d="M128.567 160.617C128.599 158.487 127.272 149.784 126.918 147.619C126.571 145.499 124.849 136.823 124.477 134.601C124.457 134.48 124.279 134.473 124.297 134.596C124.628 136.801 125.668 145.58 126.001 147.746C126.335 149.919 127.763 158.581 128.453 160.63C128.477 160.701 128.566 160.685 128.567 160.617Z" fill="#263238"/>
<path opacity="0.1" d="M173.546 99.2698C173.559 99.6012 173.574 99.952 173.571 100.315C173.581 100.696 173.573 101.098 173.566 101.501C173.533 102.857 173.326 105.077 172.956 107.857C172.894 108.365 172.823 108.883 172.744 109.422C172.698 109.751 172.653 110.09 172.599 110.43C172.494 111.149 172.383 111.888 172.264 112.647C172.242 112.778 172.219 112.908 172.198 113.048C172.068 113.877 171.933 114.737 171.78 115.609C171.674 116.239 171.57 116.88 171.447 117.532C171.334 118.183 171.221 118.834 171.09 119.497C171.035 119.828 170.969 120.159 170.905 120.501C170.217 124.173 169.413 128.008 168.532 131.696C168.297 132.696 168.051 133.687 167.793 134.66C167.631 135.308 167.459 135.957 167.285 136.586C167.12 137.215 166.946 137.844 166.769 138.454C164.931 144.86 162.882 149.99 160.863 151.677C157.552 154.441 141.535 158.805 131.542 161.333L168.129 91.6638C168.268 91.6068 168.419 91.5582 168.561 91.5205C169.48 91.276 170.366 91.3883 171.135 91.9661C171.449 92.2003 171.755 92.5238 172.022 92.9305C172.205 93.2109 172.372 93.5226 172.524 93.8657C172.686 94.2172 172.823 94.6014 172.946 95.0265C173.264 96.1418 173.473 97.5453 173.546 99.2698Z" fill="#020100"/>
<path d="M165.052 94.3501C165.052 94.3501 136.984 191.815 139.122 202.809C141.26 213.803 171.02 234.663 172.162 232.762C173.305 230.86 185.354 160.525 174.969 110.481C170.114 87.0885 165.052 94.3501 165.052 94.3501Z" fill="#F58F00"/>
<path d="M102.382 421.019C104.827 421.785 176.231 420.241 178.838 418.501C179.84 417.857 173.723 350.223 173.723 350.223L128.438 351.089L133.588 396.33C133.588 396.33 107.242 408.812 104.574 411.027C101.929 413.234 99.9352 420.265 102.382 421.019Z" fill="#EB9481"/>
<path d="M102.381 421.02C104.823 421.781 176.232 420.239 178.836 418.497C179.152 418.3 179.246 411.434 178.111 402.491C165.163 404.661 118.946 411.757 115.348 409.64C112.839 408.165 115.059 405.859 117.115 404.308C111.215 407.249 105.709 410.079 104.572 411.03C101.926 413.235 99.9386 420.269 102.381 421.02Z" fill="#263238"/>
<path opacity="0.1" d="M178.835 418.502C177.372 419.484 154.319 420.393 133.897 420.863L177.32 392.273C178.427 406.176 179.252 418.23 178.835 418.502Z" fill="#020100"/>
<path d="M132.314 385.484L176.769 384.857C176.769 384.857 167.96 278.378 168.328 276.332C168.795 273.71 200.338 150.033 200.338 150.033H157.909C157.909 150.033 124.449 265.305 123.248 276.413C121.304 294.347 132.314 385.484 132.314 385.484Z" fill="#37474F"/>
<path d="M172.772 374.821C170.145 374.632 167.49 374.664 164.857 374.629C162.22 374.595 159.584 374.586 156.947 374.612C151.674 374.665 146.404 374.744 141.134 374.893C139.692 374.934 138.25 374.978 136.809 375.044C135.266 375.116 133.731 375.379 132.192 375.436C132.072 375.441 132.077 375.622 132.197 375.623C133.49 375.634 134.787 375.827 136.083 375.865C137.426 375.904 138.771 375.913 140.114 375.913C142.751 375.913 145.387 375.905 148.023 375.883C153.293 375.838 158.569 375.767 163.835 375.55C166.81 375.427 169.815 375.39 172.779 375.092C172.953 375.074 172.945 374.833 172.772 374.821Z" fill="#263238"/>
<path d="M191.005 160.021C187.209 173.465 183.739 187.028 180.335 200.577C176.931 214.133 173.547 227.695 170.171 241.258C168.483 248.041 166.797 254.822 165.11 261.604C163.468 268.207 161.56 274.845 161.153 281.668C160.739 288.606 161.621 295.598 162.206 302.503C162.794 309.445 163.375 316.388 163.983 323.328C165.199 337.213 166.366 351.111 167.876 364.968C168.065 366.702 168.25 368.436 168.426 370.172C168.441 370.32 168.67 370.317 168.66 370.166C167.74 356.271 166.782 342.384 165.673 328.503C165.118 321.56 164.551 314.618 163.977 307.677C163.404 300.75 162.599 293.796 162.38 286.847C162.158 279.831 163.44 273.116 165.133 266.341C166.791 259.704 168.459 253.068 170.121 246.432C173.516 232.873 176.913 219.315 180.279 205.749C184.047 190.561 187.808 175.344 191.132 160.053C191.15 159.97 191.028 159.94 191.005 160.021Z" fill="#263238"/>
<path d="M200.341 150.034C200.341 150.034 186.807 203.093 177.338 240.442L159.285 150.034H200.341Z" fill="#263238"/>
<path d="M154.873 421.185C157.319 421.95 228.722 420.407 231.329 418.667C232.332 418.022 228.602 350.349 228.602 350.349L183.916 351.215L186.079 396.495C186.079 396.495 159.733 408.977 157.066 411.193C154.42 413.399 152.427 420.43 154.873 421.185Z" fill="#EB9481"/>
<path d="M154.872 421.186C157.314 421.947 228.723 420.405 231.327 418.663C231.644 418.466 231.569 411.777 231.32 402.647C218.372 404.818 171.437 411.923 167.839 409.805C165.33 408.331 167.55 406.025 169.606 404.474C163.706 407.415 158.201 410.245 157.064 411.196C154.417 413.401 152.43 420.435 154.872 421.186Z" fill="#263238"/>
<path d="M158.449 150.016C158.449 150.016 160.847 180.014 165.792 187.548C165.792 187.548 170.652 189.242 178.1 193.68C178.1 193.68 181.157 273.932 181.101 278.751C180.902 296.78 185.51 384.591 185.51 384.591L230.337 384.166C230.337 384.166 225.69 284.865 225.671 278.261C225.649 271.873 222.621 231.579 219.916 196.643C219.916 196.643 223.903 185.483 223.462 179.847C222.392 166.184 216.266 150.033 216.266 150.033L158.449 150.016Z" fill="#37474F"/>
<path d="M174.224 178.544C174.055 177.421 173.886 176.298 173.714 175.176C173.399 173.119 172.98 171.077 172.62 169.028C171.801 164.378 170.953 159.714 169.917 155.106C169.892 154.994 169.704 155.023 169.716 155.139C169.9 156.999 170.113 158.857 170.377 160.707C170.64 162.56 170.822 164.424 171.084 166.275C171.602 169.948 172.114 173.626 172.739 177.282C172.98 178.691 173.859 181.216 171.831 181.653C170.225 181.999 169.047 180.422 168.575 179.1C168 177.489 167.795 175.706 167.496 174.028C167.165 172.174 166.874 170.314 166.611 168.449C166.038 164.387 165.409 160.343 164.748 156.295C164.729 156.179 164.544 156.214 164.547 156.327C164.677 160.497 164.896 164.626 165.445 168.767C165.707 170.743 166.002 172.715 166.337 174.68C166.65 176.516 166.884 178.491 167.696 180.187C168.333 181.518 169.522 182.718 171.051 182.881C171.082 182.884 171.114 182.881 171.145 182.884C171.11 182.911 171.084 182.948 171.086 183C171.108 183.658 171.095 184.325 171.165 184.98C171.234 185.629 171.363 186.279 171.486 186.919C171.611 187.566 171.767 188.231 171.989 188.852C172.096 189.152 172.207 189.452 172.345 189.739C172.491 190.041 172.694 190.274 172.869 190.556C172.941 190.67 173.078 190.599 173.086 190.487L173.096 190.488C173.086 190.38 173.085 190.274 173.083 190.167C173.084 190.148 173.08 190.129 173.081 190.11L173.08 190.108C173.076 189.917 173.072 189.727 173.043 189.532C172.996 189.215 172.925 188.903 172.856 188.59C172.718 187.965 172.547 187.341 172.38 186.723C172.212 186.105 172.078 185.479 171.919 184.859C171.754 184.219 171.545 183.595 171.396 182.951C171.39 182.921 171.37 182.907 171.352 182.89C172.544 182.905 173.75 182.272 174.183 181.117C174.496 180.279 174.353 179.403 174.224 178.544Z" fill="#263238"/>
<path d="M181.725 195.153C180.442 194.101 178.93 193.228 177.508 192.374C175.96 191.444 174.358 190.603 172.701 189.883C169.458 188.476 166.115 187.514 162.769 186.408C162.669 186.375 162.602 186.541 162.701 186.58C165.942 187.87 169.049 189.581 172.18 191.113C173.722 191.867 175.282 192.584 176.851 193.278C178.423 193.974 179.99 194.785 181.603 195.375C181.726 195.42 181.823 195.234 181.725 195.153Z" fill="#263238"/>
<path d="M207.033 169.612C204.752 169.602 196.863 169.037 194.527 166.42C193.176 164.906 192.275 163.008 191.609 161.157C190.855 159.064 190.31 156.935 189.837 154.765C189.814 154.657 189.658 154.694 189.655 154.794C189.582 157.227 189.929 159.705 190.574 162.05C191.125 164.053 191.867 166.288 193.484 167.692C195.187 169.168 197.499 169.687 199.677 169.956C202.137 170.26 204.589 170.188 207.039 169.855C207.191 169.834 207.193 169.612 207.033 169.612Z" fill="#263238"/>
<path d="M153.088 170.227C153.792 170.218 155.857 168.778 156.106 168.403C157.828 165.804 158.249 157.55 158.395 155.38C158.402 155.273 158.45 155.309 158.451 155.409C158.473 157.842 158.366 160.32 158.167 162.666C157.997 164.668 157.768 166.903 157.269 168.307C156.743 169.783 153.842 170.803 153.086 170.47C153.039 170.449 153.038 170.228 153.088 170.227Z" fill="#263238"/>
<path d="M228.356 375.478C225.729 375.289 223.073 375.321 220.441 375.287C217.804 375.252 215.167 375.244 212.53 375.27C207.258 375.322 201.988 375.402 196.717 375.551C195.275 375.591 193.834 375.635 192.393 375.702C190.85 375.773 189.315 376.037 187.776 376.094C187.656 376.098 187.66 376.279 187.781 376.28C189.074 376.292 190.37 376.485 191.667 376.523C193.01 376.561 194.354 376.57 195.698 376.57C198.334 376.571 200.97 376.562 203.607 376.54C208.877 376.496 214.153 376.425 219.419 376.207C222.394 376.084 225.399 376.047 228.362 375.749C228.537 375.732 228.529 375.491 228.356 375.478Z" fill="#263238"/>
<path d="M222.886 369.641L222.913 369.64C223.215 369.626 223.447 369.368 223.432 369.068L213.313 195.301C213.441 194.539 216.294 184.834 216.548 179.875C216.817 174.633 211.397 154.206 211.167 153.339C211.088 153.047 210.783 152.879 210.498 152.951C210.206 153.029 210.033 153.329 210.11 153.62C210.167 153.831 215.717 174.747 215.456 179.819C215.194 184.945 212.24 195.093 212.226 195.176C212.219 195.216 222.341 369.121 222.341 369.121C222.355 369.413 222.597 369.641 222.886 369.641Z" fill="#263238"/>
<path d="M148.647 116.491C148.662 117.595 149.158 118.325 150.02 118.855C150.736 119.295 151.491 119.682 152.27 120.032C152.08 117.374 152.224 114.62 152.31 111.993C152.412 108.904 152.729 105.882 153.11 102.828C153.115 102.781 153.187 102.789 153.185 102.835C153.023 105.929 152.972 109.04 152.894 112.135C152.826 114.843 152.971 117.585 152.885 120.295C153.684 120.625 154.5 120.914 155.321 121.174C155.276 120.229 155.24 119.284 155.215 118.335C155.139 115.486 155.318 112.671 155.394 109.827C155.395 109.758 155.491 109.755 155.49 109.824C155.456 112.591 155.662 115.391 155.769 118.158C155.809 119.225 155.858 120.292 155.916 121.358C156.48 121.523 157.041 121.678 157.595 121.82C157.966 121.915 158.336 122.007 158.706 122.085C158.676 120.217 158.753 118.332 158.772 116.501C158.806 113.54 159.026 110.593 159.105 107.633C159.108 107.531 159.255 107.526 159.255 107.629C159.193 110.575 159.33 113.538 159.337 116.485C159.341 118.381 159.43 120.32 159.423 122.242C164.393 123.259 169.514 123.253 174.513 122.558C177.411 122.154 180.279 121.524 183.113 120.743C183.796 120.556 185.536 120.021 187.252 119.467C187.244 118.574 187.26 117.679 187.241 116.816C187.199 114.846 187.273 112.859 187.178 110.893C187.176 110.837 187.251 110.835 187.255 110.891C187.417 112.865 187.695 114.818 187.794 116.8C187.832 117.594 187.891 118.416 187.924 119.246C188.538 119.047 189.127 118.849 189.645 118.665C189.341 114.949 189.474 111.163 189.387 107.453C189.385 107.364 189.504 107.361 189.51 107.45C189.764 111.086 190.242 114.768 190.3 118.432C190.909 118.21 191.332 118.037 191.434 117.951C192.272 117.251 191.274 102.556 191.121 99.1247C190.837 92.7301 189.294 66.7078 187.21 60.6258C186.455 58.4222 184.068 51.7917 176.014 48.6188C173.443 47.6084 170.481 47.9538 167.766 48.0197C154.583 48.3399 150.601 57.7535 149.853 74.1173C149.564 80.4414 149.185 105.094 148.878 111.423C148.798 113.104 148.629 114.81 148.647 116.491Z" fill="#263238"/>
<path d="M155.903 138.907L155.733 156.43L217.764 151.744L212.042 138.028C206.016 124.745 198.383 104.714 188.337 95.1413C180.353 87.5342 171.64 88.7109 166.431 94.7342C165.113 96.2585 152.273 117.801 151.054 126.421C149.997 134.025 155.903 138.907 155.903 138.907Z" fill="#EBEBEB"/>
<path d="M168.639 136.255C166.714 136.331 164.764 136.522 162.808 137.101C161.835 137.389 160.868 137.753 159.896 138.152C159.411 138.352 158.929 138.523 158.444 138.69C157.946 138.862 157.418 139.012 156.932 138.97C156.889 138.967 156.872 139.083 156.914 139.092C157.379 139.182 157.824 139.267 158.305 139.245C158.761 139.225 159.229 139.117 159.693 138.988C160.679 138.712 161.667 138.357 162.654 138.064C164.645 137.472 166.635 136.881 168.619 136.537C168.71 136.521 168.73 136.251 168.639 136.255Z" fill="#263238"/>
<path d="M177.7 138.305C175.237 138.044 172.724 137.913 170.25 137.971C169.005 138.001 167.771 138.112 166.533 138.261C165.942 138.333 165.352 138.416 164.764 138.508C164.116 138.608 163.479 138.808 162.83 138.898C162.763 138.907 162.763 139.028 162.833 139.02C163.447 138.957 164.073 139.009 164.689 138.986C165.309 138.963 165.928 138.934 166.547 138.911C167.787 138.864 169.027 138.833 170.267 138.773C172.749 138.652 175.221 138.561 177.705 138.538C177.84 138.537 177.828 138.319 177.7 138.305Z" fill="#263238"/>
<path d="M179.813 90.0149C179.813 90.0149 177.26 121.647 179.813 129.485C182.366 137.322 189.793 199.205 195.225 209C200.656 218.794 235.407 229.436 235.906 227.274C236.404 225.113 226.125 154.497 200.78 110.113C188.933 89.3665 179.813 90.0149 179.813 90.0149Z" fill="#F58F00"/>
<path d="M178.898 92.2369C178.775 93.3675 174.401 101.142 169.35 101.52C167.704 101.64 166.646 92.6881 166.646 92.6881L166.417 92.0453L163.216 83.042L173.236 74.737L174.695 73.6216C174.695 73.6216 175.408 76.1426 176.265 79.2903C176.305 79.4361 176.346 79.582 176.387 79.7387C176.44 79.9153 176.493 80.0818 176.534 80.2488C176.668 80.7173 176.803 81.1966 176.927 81.6766C177.023 82.0416 177.119 82.3959 177.206 82.7827C177.303 83.1688 177.389 83.545 177.487 83.9312C178.363 87.756 178.943 91.7576 178.898 92.2369Z" fill="#EB9481"/>
<path d="M176.265 79.2903C174.513 86.9812 168.995 90.7037 166.417 92.0453L163.216 83.042L173.236 74.737L174.695 73.6216C174.695 73.6216 175.408 76.1426 176.265 79.2903Z" fill="#263238"/>
<path d="M150.357 65.6013C146.592 81.9434 155.955 86.0436 159.48 86.8513C162.68 87.5847 173.668 89.6754 179.101 73.8101C184.534 57.9445 178.126 51.0282 170.897 48.9637C163.667 46.8992 154.122 49.2593 150.357 65.6013Z" fill="#EB9481"/>
<path d="M153.222 64.7688C153.618 64.7849 153.985 64.7338 154.379 64.7093C154.822 64.6816 155.178 64.7051 155.547 64.4234C155.744 64.2724 155.788 63.9096 155.659 63.704C155.36 63.2249 154.808 63.1237 154.273 63.1351C153.692 63.1476 153.247 63.3061 152.805 63.6819C152.377 64.0463 152.7 64.7474 153.222 64.7688Z" fill="#263238"/>
<path d="M164.757 68.02C164.363 68.0644 163.993 68.0403 163.599 68.044C163.154 68.0483 162.801 68.0975 162.413 67.8432C162.205 67.7068 162.135 67.348 162.249 67.1336C162.513 66.6341 163.056 66.4935 163.591 66.4666C164.171 66.437 164.626 66.5631 165.094 66.9059C165.547 67.2387 165.276 67.9611 164.757 68.02Z" fill="#263238"/>
<path d="M155.208 67.8654C155.205 67.8211 155.112 67.9069 155.107 67.9536C154.992 69.0902 154.668 70.3724 153.594 70.6112C153.561 70.6185 153.556 70.6759 153.595 70.6755C154.868 70.667 155.28 68.9606 155.208 67.8654Z" fill="#263238"/>
<path d="M154.355 66.5481C152.553 66.1662 151.922 69.7977 153.591 70.1517C155.234 70.4997 155.865 66.8682 154.355 66.5481Z" fill="#263238"/>
<path d="M153.556 66.6553C153.236 66.7982 152.891 67.0984 152.545 67.0615C152.143 67.0183 151.917 66.5746 151.729 66.1537C151.709 66.1102 151.676 66.1357 151.666 66.1835C151.526 66.8743 151.63 67.637 152.274 67.8862C152.861 68.1137 153.411 67.5955 153.696 66.933C153.75 66.8103 153.685 66.598 153.556 66.6553Z" fill="#263238"/>
<path d="M160.096 78.4654C159.798 78.7055 159.492 79.0459 159.076 79.0411C158.677 79.0363 158.231 78.8135 157.882 78.6382C157.847 78.6209 157.807 78.6554 157.826 78.6917C158.08 79.1561 158.674 79.4887 159.21 79.4471C159.733 79.4065 160.031 78.9861 160.2 78.5275C160.224 78.4631 160.139 78.4304 160.096 78.4654Z" fill="#263238"/>
<path d="M156.005 73.6607C156.005 73.6607 155.513 75.3105 155.39 76.1056C155.379 76.1803 155.566 76.2452 155.833 76.3025C155.846 76.3082 155.852 76.3145 155.864 76.3079C157.235 76.7428 158.723 76.4757 159.752 75.4607C159.819 75.3916 159.731 75.2941 159.651 75.3325C158.484 75.9409 157.296 75.9613 156.047 75.7906C156.025 75.5619 156.984 72.9933 156.86 72.9647C156.431 72.8605 155.529 73.0246 154.992 73.0957C155.917 69.6295 157.39 66.3398 158.26 62.8745C158.289 62.7502 158.114 62.6849 158.06 62.7912C156.272 66.1298 155.12 70.0956 154.072 73.6506C153.937 74.0927 155.666 73.7472 156.005 73.6607Z" fill="#263238"/>
<path d="M155.958 76.0205C155.958 76.0205 156.501 77.2171 157.467 77.8154C157.823 78.037 158.227 78.1815 158.688 78.1592C159.633 78.1169 159.832 77.3008 159.82 76.5631C159.811 75.9566 159.651 75.4014 159.651 75.4014C159.651 75.4014 158.081 76.3424 155.958 76.0205Z" fill="#263238"/>
<path d="M157.467 77.8151C157.823 78.0367 158.227 78.1812 158.687 78.1589C159.633 78.1166 159.832 77.3005 159.819 76.5628C158.839 76.4544 157.75 76.9006 157.467 77.8151Z" fill="#FF9ABB"/>
<path d="M164.937 69.2938C164.65 69.1389 164.334 69.0592 164.013 68.9896C163.689 68.9335 163.355 68.9193 163.015 68.9573C162.678 69.007 162.334 69.1015 162.02 69.2805C161.707 69.4611 161.436 69.7211 161.233 70.0231L160.867 70.5698L161.532 70.5629C161.982 70.5585 162.474 70.597 162.934 70.6907C163.395 70.7919 163.848 70.9454 164.247 71.2845C164.053 70.7927 163.591 70.4129 163.097 70.1999C162.593 69.9825 162.073 69.8757 161.513 69.8688L161.811 70.4088C162.12 69.9826 162.573 69.6884 163.13 69.5322C163.683 69.3796 164.296 69.3062 164.937 69.2938Z" fill="#263238"/>
<path d="M162.818 71.7362C162.336 71.5231 161.866 71.3982 161.443 71.0679C161.347 70.9924 160.972 70.6635 161.002 70.5832C161.058 70.3615 161.193 70.1189 161.323 69.8975C161.148 70.0926 160.954 70.2708 160.856 70.5491C160.871 70.7934 161.033 71.0612 161.312 71.2542C161.762 71.5656 162.36 71.7133 162.818 71.7362Z" fill="#263238"/>
<path d="M178.005 74.4567C174.824 74.4925 174.845 67.2152 174.845 67.2152C174.845 67.2152 164.043 65.0562 162.147 53.7786C162.147 53.7786 158.772 59.0747 151.412 61.4091C151.412 61.4091 153.25 49.5338 162.974 48.3038C162.974 48.3038 175.201 45.3814 180.728 55.4524C186.255 65.5233 180.141 74.4328 178.005 74.4567Z" fill="#263238"/>
<path d="M162.229 52.9727C161.99 54.6362 162.175 56.3589 162.653 57.9907C163.133 59.6225 163.926 61.1878 165.036 62.4997C165.286 62.8498 165.622 63.1246 165.911 63.4397L166.361 63.8976C166.524 64.037 166.693 64.1685 166.861 64.2998C167.201 64.5587 167.53 64.8321 167.879 65.0766C168.242 65.299 168.611 65.5127 168.981 65.722C169.166 65.8252 169.347 65.9372 169.535 66.033L170.12 66.2828L171.286 66.7782C172.089 67.0329 172.905 67.2458 173.715 67.4446C172.955 67.0802 172.173 66.7997 171.43 66.4341L170.337 65.8532L169.791 65.565C169.617 65.457 169.451 65.3339 169.281 65.2193C168.945 64.9846 168.608 64.7541 168.265 64.5323C167.942 64.2839 167.64 64.0085 167.327 63.7493L166.86 63.3573L166.44 62.9163C166.17 62.6135 165.855 62.3502 165.623 62.0163C164.559 60.7867 163.797 59.3272 163.207 57.8077C162.916 57.0435 162.698 56.2497 162.537 55.4412C162.359 54.6337 162.265 53.8093 162.229 52.9727Z" fill="#263238"/>
<path d="M176.215 74.4671C176.215 74.4671 180.569 69.7938 182.739 71.4174C184.909 73.041 181.126 80.1712 178.22 80.8102C175.314 81.4491 174.67 78.7711 174.67 78.7711L176.215 74.4671Z" fill="#EB9481"/>
<path d="M181.604 73.4342C181.649 73.4365 181.649 73.4999 181.608 73.5102C179.562 74.0219 178.29 75.6734 177.314 77.4345C177.991 76.7991 178.83 76.517 179.693 77.3373C179.738 77.3801 179.679 77.4526 179.626 77.4335C178.857 77.1518 178.265 77.209 177.64 77.7686C177.197 78.1648 176.858 78.6971 176.513 79.1782C176.398 79.3386 176.099 79.2018 176.193 79.0118L176.215 78.9692C176.514 76.4938 178.919 73.3096 181.604 73.4342Z" fill="#263238"/>
<path d="M166.384 92.0778L169.707 99.5709L178.811 89.6172L181.597 92.6083C181.597 92.6083 172.9 108.217 172.818 107.529L169.452 101.088L165.092 105.807L165.052 94.3498L166.384 92.0778Z" fill="#EBEBEB"/>
<path d="M164.752 100.145C164.809 98.2527 164.813 96.3458 164.958 94.4587C164.963 94.3916 165.066 94.358 165.085 94.4362C165.528 96.2458 165.272 103.479 165.342 105.209L165.361 105.188C165.543 104.985 169.41 101.028 169.452 101.088C170.168 102.104 172.637 106.793 172.81 107.222C174.185 104.743 180.046 94.9537 181.694 92.597C181.742 92.5295 181.846 92.5799 181.81 92.6587C180.61 95.2675 173.046 108.179 172.931 108.15C172.856 108.213 169.79 102.438 169.409 101.339C168.761 102.194 164.874 106.642 164.85 106.362C164.69 104.471 164.695 102.039 164.752 100.145Z" fill="#263238"/>
<path d="M191.814 101.547C200.834 118.269 210.982 146.721 208.128 152.032C200.98 165.334 184.123 179.216 176.291 183.767C171.72 186.423 156.517 162.991 160.46 160.431C166.679 156.392 183.04 142.459 185.008 140.582C186.058 139.581 182.902 119.478 182.043 106.171C181.11 91.7049 187.417 93.3954 191.814 101.547Z" fill="#EB9481"/>
<path d="M148.991 173.76C149.961 172.22 149.159 171.701 146.112 172.787C143.025 173.88 131.922 180.761 129.848 176.672C127.76 172.572 143.633 163.091 148.847 161.671C154.058 160.238 162.993 159.78 162.993 159.78C160.276 162.246 154.258 168.855 148.991 173.76Z" fill="#EB9481"/>
<path d="M143.413 180.156L151.854 173.65L110.969 120.598L102.528 127.103L143.413 180.156Z" fill="#C7C7C7"/>
<path d="M158.283 203.924L171.049 194.087L171.049 194.087L144.537 159.684L144.537 159.684L131.771 169.522L158.283 203.924Z" fill="#263238"/>
<g opacity="0.2">
<path d="M55.0341 126.813C24.126 118.229 5.97804 86.0886 14.5615 55.1922C18.7216 40.2462 28.4654 27.8002 42.0112 20.1397C55.5561 12.4908 71.2479 10.5603 86.1942 14.7205C101.141 18.869 113.586 28.6243 121.247 42.1702C128.895 55.715 130.814 71.406 126.666 86.3529C122.506 101.299 112.762 113.745 99.2168 121.394C85.672 129.043 69.98 130.973 55.0341 126.813Z" fill="white"/>
</g>
<path d="M52.4144 136.276C16.2931 126.235 -4.9251 88.6783 5.11599 52.5569C15.1571 16.4351 52.7131 -4.78313 88.8348 5.25817C124.956 15.2991 146.175 52.8553 136.134 88.9772C126.092 125.099 88.5358 146.317 52.4144 136.276ZM54.502 128.766C86.4827 137.656 119.734 118.87 128.624 86.8896C137.514 54.9089 118.728 21.658 86.7473 12.768C54.7665 3.87797 21.5158 22.664 12.6259 54.6447C3.736 86.6253 22.5212 119.876 54.502 128.766Z" fill="#37474F"/>
<path d="M139.705 59.2981C138.389 51.3386 135.652 43.588 131.558 36.3387C122.345 20.0435 107.366 8.31308 89.3784 3.30968C52.1712 -7.03152 13.512 14.8207 3.16037 52.0071C-1.83263 70.0153 0.475873 88.8906 9.68887 105.196C18.9123 121.491 33.8809 133.222 51.8682 138.225C69.8556 143.229 88.7517 140.91 105.047 131.697C121.352 122.494 133.083 107.505 138.086 89.5173C140.865 79.5208 141.377 69.2528 139.705 59.2981ZM42.0285 20.1375C55.566 12.4913 71.2656 10.5693 86.2133 14.7163C101.151 18.8736 113.602 28.6194 121.248 42.1673C128.894 55.7153 130.827 71.4046 126.669 86.3523C118.083 117.261 85.9419 135.405 55.0437 126.819C40.1065 122.661 27.6553 112.915 19.9987 99.3675C12.3421 85.83 10.42 70.1302 14.5774 55.193C18.7243 40.2453 28.4805 27.7942 42.0285 20.1375Z" fill="#263238"/>
<path d="M27.5473 92.1613C24.6065 86.7672 23.0594 80.6098 22.5584 74.3551C22.2848 71.2191 22.4169 68.0381 22.7728 64.8727C23.1701 61.7088 23.9173 58.5761 24.9152 55.518C27.024 49.4319 30.4305 43.7628 34.8123 39.0725C39.1916 34.3801 44.3888 30.5527 50.0415 27.8301C45.2807 31.931 40.8851 36.2525 37.1835 41.0343C35.4073 43.4738 33.6401 45.9087 32.2886 48.573C30.8698 51.1894 29.5978 53.888 28.7006 56.7122C26.7534 62.3081 25.8145 68.222 25.6706 74.1876C25.5808 80.157 26.176 86.1835 27.5473 92.1613Z" fill="white"/>
<path d="M116.324 64.3818C117.68 70.374 117.486 76.7198 116.259 82.8734C115.665 85.9649 114.669 88.9887 113.462 91.9365C112.215 94.8715 110.641 97.6808 108.845 100.35C105.154 105.629 100.328 110.151 94.8317 113.466C89.337 116.783 83.2919 119.045 77.1104 120.12C82.8105 117.476 88.2193 114.519 93.0865 110.931C95.4616 109.07 97.827 107.21 99.855 105.016C101.935 102.887 103.895 100.639 105.53 98.167C108.932 93.316 111.451 87.8836 113.219 82.1843C114.936 76.4666 116.01 70.5068 116.324 64.3818Z" fill="white"/>
<path d="M178.848 181.651C170.943 188.316 161.507 197.095 150.006 199.052C147.751 199.436 146.261 198.526 146.261 198.526C141.122 199.495 139.121 197.36 139.121 197.36C134.058 196.796 132.312 194.33 132.312 194.33C132.312 194.33 126.266 195.402 125.012 191.855C123.593 187.882 132.362 187.155 136.939 183.806C147.427 176.133 160.188 162.293 162.993 159.78L178.848 181.651Z" fill="#EB9481"/>
<path d="M153.581 183.489C150.449 185.686 147.43 187.925 144.018 189.687C140.273 191.619 136.347 192.85 132.38 194.203C132.256 194.245 132.302 194.422 132.431 194.399C139.999 193.087 148.065 188.846 153.683 183.63C153.819 183.504 153.738 183.379 153.581 183.489Z" fill="#263238"/>
<path d="M159.132 189.146C155.966 191.115 150.381 194.538 139.091 197.239C139.054 197.248 139.057 197.313 139.099 197.309C146.662 196.53 153.179 193.8 159.225 189.297C159.413 189.158 159.342 189.016 159.132 189.146Z" fill="#263238"/>
<path d="M162.058 192.242C156.548 195.384 152.676 196.667 146.278 198.494C146.242 198.504 146.25 198.57 146.291 198.563C153.781 197.25 156.349 195.926 162.193 192.416C162.393 192.296 162.273 192.119 162.058 192.242Z" fill="#263238"/>
<path d="M182.257 185.05L162.195 157.016L183.691 140.187C182.378 129.297 179.761 107.523 179.985 99.8569C180.249 90.8636 186.51 90.4589 191.374 98.2279C202.5 115.998 213.277 148.206 212.435 153.378C211.228 160.79 182.257 185.05 182.257 185.05Z" fill="#F58F00"/>
<path d="M184.348 178.314C183.434 176.358 178.371 169.009 177.089 167.192C175.835 165.412 170.422 158.263 169.1 156.401C169.028 156.3 168.862 156.372 168.934 156.477C170.211 158.341 175.047 165.886 176.31 167.713C177.577 169.547 182.714 176.814 184.25 178.376C184.303 178.43 184.378 178.377 184.348 178.314Z" fill="#263238"/>
<path d="M188.05 180.049C195.78 172.707 203.756 165.439 210.249 156.964C210.98 155.905 211.77 154.804 212.089 153.563C212.318 151.414 211.699 149.232 211.203 147.122C207.396 133.393 201.555 120.32 196.329 107.08C199.504 113.476 202.437 119.992 205.114 126.615C207.22 132.271 214.851 149.969 212.183 155.011C209.938 158.92 206.692 162.125 203.63 165.361C198.623 170.456 193.404 175.331 188.05 180.049Z" fill="#263238"/>
<path d="M198.478 111.765C198.087 110.706 197.925 109.553 197.669 108.46C198.245 109.458 198.417 110.628 198.478 111.765Z" fill="#263238"/>
<path d="M181.004 114.174C181.953 121.505 183.203 130.003 183.971 137.375C184.061 138.316 184.166 139.207 184.172 140.17C184.191 140.309 184.076 140.523 183.982 140.623C179.023 145.061 173.022 149.157 167.672 153.143L162.211 156.999L162.222 156.932L162.707 157.725L162.142 156.987L162.114 156.951L162.153 156.92L167.375 152.749C172.478 148.615 178.396 144.325 183.24 140.007C183.253 139.992 183.254 139.984 183.252 139.994C183.223 140.032 183.208 140.116 183.21 140.134C183.203 139.815 183.173 139.484 183.141 139.127C182.414 130.98 181.242 122.343 181.004 114.174Z" fill="#263238"/>
<path d="M180.315 115.669C180.815 116.819 181.078 118.092 181.478 119.273C180.766 118.21 180.491 116.921 180.315 115.669Z" fill="#263238"/>
<path d="M131.037 156.579C131.144 153.033 126.904 154.938 126.904 154.938C126.904 154.938 132.346 150.725 131.042 147.027C129.775 143.467 124.734 145.948 124.371 146.121C124.657 145.896 129.556 141.894 127.863 138.313C126.1 134.593 121.468 137.953 121.169 138.171C121.372 137.873 123.992 133.894 122.087 131.466C118.811 127.295 110.368 138.035 106.112 138.607L100.445 132.963C100.809 134.465 101.341 135.909 100.627 139.003C99.9601 141.897 99.4936 143.824 99.9441 145.628C100.691 148.594 103.433 148.688 103.433 148.688C103.433 148.688 100.895 151.466 102.139 154.327C102.782 155.794 105.701 156.071 105.701 156.071C105.701 156.071 103.762 158.38 105.028 160.857C106.031 162.836 108.803 162.806 108.803 162.806C108.803 162.806 107.969 165.887 109.652 167.576C113.037 170.99 130.804 164.172 131.037 156.579Z" fill="#EB9481"/>
<path d="M104.614 137.509L100.545 133.088C100.359 132.961 100.165 132.826 99.9796 132.713C93.4547 128.661 84.1676 131.916 87.8124 136.049C90.5808 139.197 97.6184 138.125 99.987 141.761L99.9937 141.753L104.614 137.509Z" fill="#EB9481"/>
<path d="M109.242 162.869C109.181 162.887 109.194 162.976 109.259 162.968C115.649 162.151 122.42 159.296 127.144 154.86C127.299 154.714 127.13 154.399 126.929 154.527C121.185 158.168 115.797 160.941 109.242 162.869Z" fill="#263238"/>
<path d="M105.626 156.141C105.555 156.162 105.588 156.281 105.667 156.27C112.247 155.393 119.785 151.967 124.628 146.213C124.794 146.015 124.745 145.671 124.537 145.884C121.026 149.466 111.536 154.436 105.626 156.141Z" fill="#263238"/>
<path d="M121.369 137.653C116.511 142.991 110.431 146.235 103.707 148.669C103.62 148.701 103.674 148.821 103.754 148.815C107.368 148.52 111.492 146.522 114.569 144.696C117.517 142.946 119.825 140.776 121.555 137.823C121.622 137.708 121.473 137.539 121.369 137.653Z" fill="#263238"/>
</svg>
