<svg width="300" height="300" viewBox="0 0 300 300" fill="none" xmlns="http://www.w3.org/2000/svg">
<g clip-path="url(#clip0_643_48)">
<path d="M300 0H0V300H300V0Z" fill="white"/>
<path d="M100.273 18.1818H90.9091V27.5454H100.273V18.1818Z" fill="black"/>
<path d="M109.364 18.1818H100V27.5454H109.364V18.1818Z" fill="black"/>
<path d="M136.636 18.1818H127.273V27.5454H136.636V18.1818Z" fill="black"/>
<path d="M163.909 18.1818H154.545V27.5454H163.909V18.1818Z" fill="black"/>
<path d="M173 18.1818H163.636V27.5454H173V18.1818Z" fill="black"/>
<path d="M182.091 18.1818H172.727V27.5454H182.091V18.1818Z" fill="black"/>
<path d="M191.182 18.1818H181.818V27.5454H191.182V18.1818Z" fill="black"/>
<path d="M100.273 27.2727H90.9091V36.6363H100.273V27.2727Z" fill="black"/>
<path d="M109.364 27.2727H100V36.6363H109.364V27.2727Z" fill="black"/>
<path d="M118.454 27.2727H109.091V36.6363H118.454V27.2727Z" fill="black"/>
<path d="M127.545 27.2727H118.182V36.6363H127.545V27.2727Z" fill="black"/>
<path d="M154.818 27.2727H145.454V36.6363H154.818V27.2727Z" fill="black"/>
<path d="M182.091 27.2727H172.727V36.6363H182.091V27.2727Z" fill="black"/>
<path d="M209.364 27.2727H200V36.6363H209.364V27.2727Z" fill="black"/>
<path d="M100.273 36.3635H90.9091V45.7272H100.273V36.3635Z" fill="black"/>
<path d="M145.727 36.3635H136.364V45.7272H145.727V36.3635Z" fill="black"/>
<path d="M154.818 36.3635H145.454V45.7272H154.818V36.3635Z" fill="black"/>
<path d="M163.909 36.3635H154.545V45.7272H163.909V36.3635Z" fill="black"/>
<path d="M173 36.3635H163.636V45.7272H173V36.3635Z" fill="black"/>
<path d="M191.182 36.3635H181.818V45.7272H191.182V36.3635Z" fill="black"/>
<path d="M118.454 45.4545H109.091V54.8181H118.454V45.4545Z" fill="black"/>
<path d="M145.727 45.4545H136.364V54.8181H145.727V45.4545Z" fill="black"/>
<path d="M173 45.4545H163.636V54.8181H173V45.4545Z" fill="black"/>
<path d="M182.091 45.4545H172.727V54.8181H182.091V45.4545Z" fill="black"/>
<path d="M200.273 45.4545H190.909V54.8181H200.273V45.4545Z" fill="black"/>
<path d="M118.454 54.5454H109.091V63.909H118.454V54.5454Z" fill="black"/>
<path d="M127.545 54.5454H118.182V63.909H127.545V54.5454Z" fill="black"/>
<path d="M154.818 54.5454H145.454V63.909H154.818V54.5454Z" fill="black"/>
<path d="M182.091 54.5454H172.727V63.909H182.091V54.5454Z" fill="black"/>
<path d="M191.182 54.5454H181.818V63.909H191.182V54.5454Z" fill="black"/>
<path d="M200.273 54.5454H190.909V63.909H200.273V54.5454Z" fill="black"/>
<path d="M100.273 63.6364H90.9091V73H100.273V63.6364Z" fill="black"/>
<path d="M118.454 63.6364H109.091V73H118.454V63.6364Z" fill="black"/>
<path d="M154.818 63.6364H145.454V73H154.818V63.6364Z" fill="black"/>
<path d="M173 63.6364H163.636V73H173V63.6364Z" fill="black"/>
<path d="M182.091 63.6364H172.727V73H182.091V63.6364Z" fill="black"/>
<path d="M100.273 72.7272H90.9091V82.0908H100.273V72.7272Z" fill="black"/>
<path d="M118.454 72.7272H109.091V82.0908H118.454V72.7272Z" fill="black"/>
<path d="M136.636 72.7272H127.273V82.0908H136.636V72.7272Z" fill="black"/>
<path d="M154.818 72.7272H145.454V82.0908H154.818V72.7272Z" fill="black"/>
<path d="M173 72.7272H163.636V82.0908H173V72.7272Z" fill="black"/>
<path d="M191.182 72.7272H181.818V82.0908H191.182V72.7272Z" fill="black"/>
<path d="M209.364 72.7272H200V82.0908H209.364V72.7272Z" fill="black"/>
<path d="M100.273 81.8181H90.9091V91.1818H100.273V81.8181Z" fill="black"/>
<path d="M145.727 81.8181H136.364V91.1818H145.727V81.8181Z" fill="black"/>
<path d="M154.818 81.8181H145.454V91.1818H154.818V81.8181Z" fill="black"/>
<path d="M173 81.8181H163.636V91.1818H173V81.8181Z" fill="black"/>
<path d="M182.091 81.8181H172.727V91.1818H182.091V81.8181Z" fill="black"/>
<path d="M191.182 81.8181H181.818V91.1818H191.182V81.8181Z" fill="black"/>
<path d="M200.273 81.8181H190.909V91.1818H200.273V81.8181Z" fill="black"/>
<path d="M45.7272 90.9091H36.3635V100.273H45.7272V90.9091Z" fill="black"/>
<path d="M54.8181 90.9091H45.4545V100.273H54.8181V90.9091Z" fill="black"/>
<path d="M63.909 90.9091H54.5454V100.273H63.909V90.9091Z" fill="black"/>
<path d="M82.0908 90.9091H72.7272V100.273H82.0908V90.9091Z" fill="black"/>
<path d="M100.273 90.9091H90.9091V100.273H100.273V90.9091Z" fill="black"/>
<path d="M127.545 90.9091H118.182V100.273H127.545V90.9091Z" fill="black"/>
<path d="M209.364 90.9091H200V100.273H209.364V90.9091Z" fill="black"/>
<path d="M218.454 90.9091H209.091V100.273H218.454V90.9091Z" fill="black"/>
<path d="M227.545 90.9091H218.182V100.273H227.545V90.9091Z" fill="black"/>
<path d="M236.636 90.9091H227.273V100.273H236.636V90.9091Z" fill="black"/>
<path d="M263.909 90.9091H254.545V100.273H263.909V90.9091Z" fill="black"/>
<path d="M273 90.9091H263.636V100.273H273V90.9091Z" fill="black"/>
<path d="M282.091 90.9091H272.727V100.273H282.091V90.9091Z" fill="black"/>
<path d="M27.5454 100H18.1818V109.364H27.5454V100Z" fill="black"/>
<path d="M45.7272 100H36.3635V109.364H45.7272V100Z" fill="black"/>
<path d="M73 100H63.6364V109.364H73V100Z" fill="black"/>
<path d="M100.273 100H90.9091V109.364H100.273V100Z" fill="black"/>
<path d="M127.545 100H118.182V109.364H127.545V100Z" fill="black"/>
<path d="M136.636 100H127.273V109.364H136.636V100Z" fill="black"/>
<path d="M154.818 100H145.454V109.364H154.818V100Z" fill="black"/>
<path d="M163.909 100H154.545V109.364H163.909V100Z" fill="black"/>
<path d="M173 100H163.636V109.364H173V100Z" fill="black"/>
<path d="M191.182 100H181.818V109.364H191.182V100Z" fill="black"/>
<path d="M200.273 100H190.909V109.364H200.273V100Z" fill="black"/>
<path d="M209.364 100H200V109.364H209.364V100Z" fill="black"/>
<path d="M236.636 100H227.273V109.364H236.636V100Z" fill="black"/>
<path d="M245.727 100H236.364V109.364H245.727V100Z" fill="black"/>
<path d="M254.818 100H245.454V109.364H254.818V100Z" fill="black"/>
<path d="M282.091 100H272.727V109.364H282.091V100Z" fill="black"/>
<path d="M27.5454 109.091H18.1818V118.454H27.5454V109.091Z" fill="black"/>
<path d="M36.6363 109.091H27.2727V118.454H36.6363V109.091Z" fill="black"/>
<path d="M73 109.091H63.6364V118.454H73V109.091Z" fill="black"/>
<path d="M82.0908 109.091H72.7272V118.454H82.0908V109.091Z" fill="black"/>
<path d="M91.1818 109.091H81.8181V118.454H91.1818V109.091Z" fill="black"/>
<path d="M109.364 109.091H100V118.454H109.364V109.091Z" fill="black"/>
<path d="M118.454 109.091H109.091V118.454H118.454V109.091Z" fill="black"/>
<path d="M127.545 109.091H118.182V118.454H127.545V109.091Z" fill="black"/>
<path d="M136.636 109.091H127.273V118.454H136.636V109.091Z" fill="black"/>
<path d="M173 109.091H163.636V118.454H173V109.091Z" fill="black"/>
<path d="M182.091 109.091H172.727V118.454H182.091V109.091Z" fill="black"/>
<path d="M191.182 109.091H181.818V118.454H191.182V109.091Z" fill="black"/>
<path d="M209.364 109.091H200V118.454H209.364V109.091Z" fill="black"/>
<path d="M218.454 109.091H209.091V118.454H218.454V109.091Z" fill="black"/>
<path d="M227.545 109.091H218.182V118.454H227.545V109.091Z" fill="black"/>
<path d="M236.636 109.091H227.273V118.454H236.636V109.091Z" fill="black"/>
<path d="M45.7272 118.182H36.3635V127.545H45.7272V118.182Z" fill="black"/>
<path d="M63.909 118.182H54.5454V127.545H63.909V118.182Z" fill="black"/>
<path d="M91.1818 118.182H81.8181V127.545H91.1818V118.182Z" fill="black"/>
<path d="M100.273 118.182H90.9091V127.545H100.273V118.182Z" fill="black"/>
<path d="M109.364 118.182H100V127.545H109.364V118.182Z" fill="black"/>
<path d="M118.454 118.182H109.091V127.545H118.454V118.182Z" fill="black"/>
<path d="M127.545 118.182H118.182V127.545H127.545V118.182Z" fill="black"/>
<path d="M136.636 118.182H127.273V127.545H136.636V118.182Z" fill="black"/>
<path d="M145.727 118.182H136.364V127.545H145.727V118.182Z" fill="black"/>
<path d="M173 118.182H163.636V127.545H173V118.182Z" fill="black"/>
<path d="M182.091 118.182H172.727V127.545H182.091V118.182Z" fill="black"/>
<path d="M191.182 118.182H181.818V127.545H191.182V118.182Z" fill="black"/>
<path d="M200.273 118.182H190.909V127.545H200.273V118.182Z" fill="black"/>
<path d="M218.454 118.182H209.091V127.545H218.454V118.182Z" fill="black"/>
<path d="M227.545 118.182H218.182V127.545H227.545V118.182Z" fill="black"/>
<path d="M245.727 118.182H236.364V127.545H245.727V118.182Z" fill="black"/>
<path d="M254.818 118.182H245.454V127.545H254.818V118.182Z" fill="black"/>
<path d="M273 118.182H263.636V127.545H273V118.182Z" fill="black"/>
<path d="M36.6363 127.273H27.2727V136.636H36.6363V127.273Z" fill="black"/>
<path d="M54.8181 127.273H45.4545V136.636H54.8181V127.273Z" fill="black"/>
<path d="M63.909 127.273H54.5454V136.636H63.909V127.273Z" fill="black"/>
<path d="M73 127.273H63.6364V136.636H73V127.273Z" fill="black"/>
<path d="M82.0908 127.273H72.7272V136.636H82.0908V127.273Z" fill="black"/>
<path d="M91.1818 127.273H81.8181V136.636H91.1818V127.273Z" fill="black"/>
<path d="M127.545 127.273H118.182V136.636H127.545V127.273Z" fill="black"/>
<path d="M154.818 127.273H145.454V136.636H154.818V127.273Z" fill="black"/>
<path d="M163.909 127.273H154.545V136.636H163.909V127.273Z" fill="black"/>
<path d="M191.182 127.273H181.818V136.636H191.182V127.273Z" fill="black"/>
<path d="M209.364 127.273H200V136.636H209.364V127.273Z" fill="black"/>
<path d="M218.454 127.273H209.091V136.636H218.454V127.273Z" fill="black"/>
<path d="M236.636 127.273H227.273V136.636H236.636V127.273Z" fill="black"/>
<path d="M263.909 127.273H254.545V136.636H263.909V127.273Z" fill="black"/>
<path d="M273 127.273H263.636V136.636H273V127.273Z" fill="black"/>
<path d="M282.091 127.273H272.727V136.636H282.091V127.273Z" fill="black"/>
<path d="M27.5454 136.364H18.1818V145.727H27.5454V136.364Z" fill="black"/>
<path d="M36.6363 136.364H27.2727V145.727H36.6363V136.364Z" fill="black"/>
<path d="M45.7272 136.364H36.3635V145.727H45.7272V136.364Z" fill="black"/>
<path d="M54.8181 136.364H45.4545V145.727H54.8181V136.364Z" fill="black"/>
<path d="M63.909 136.364H54.5454V145.727H63.909V136.364Z" fill="black"/>
<path d="M73 136.364H63.6364V145.727H73V136.364Z" fill="black"/>
<path d="M91.1818 136.364H81.8181V145.727H91.1818V136.364Z" fill="black"/>
<path d="M118.454 136.364H109.091V145.727H118.454V136.364Z" fill="black"/>
<path d="M154.818 136.364H145.454V145.727H154.818V136.364Z" fill="black"/>
<path d="M163.909 136.364H154.545V145.727H163.909V136.364Z" fill="black"/>
<path d="M182.091 136.364H172.727V145.727H182.091V136.364Z" fill="black"/>
<path d="M191.182 136.364H181.818V145.727H191.182V136.364Z" fill="black"/>
<path d="M200.273 136.364H190.909V145.727H200.273V136.364Z" fill="black"/>
<path d="M209.364 136.364H200V145.727H209.364V136.364Z" fill="black"/>
<path d="M218.454 136.364H209.091V145.727H218.454V136.364Z" fill="black"/>
<path d="M227.545 136.364H218.182V145.727H227.545V136.364Z" fill="black"/>
<path d="M245.727 136.364H236.364V145.727H245.727V136.364Z" fill="black"/>
<path d="M254.818 136.364H245.454V145.727H254.818V136.364Z" fill="black"/>
<path d="M273 136.364H263.636V145.727H273V136.364Z" fill="black"/>
<path d="M282.091 136.364H272.727V145.727H282.091V136.364Z" fill="black"/>
<path d="M27.5454 145.454H18.1818V154.818H27.5454V145.454Z" fill="black"/>
<path d="M36.6363 145.454H27.2727V154.818H36.6363V145.454Z" fill="black"/>
<path d="M63.909 145.454H54.5454V154.818H63.909V145.454Z" fill="black"/>
<path d="M73 145.454H63.6364V154.818H73V145.454Z" fill="black"/>
<path d="M82.0908 145.454H72.7272V154.818H82.0908V145.454Z" fill="black"/>
<path d="M91.1818 145.454H81.8181V154.818H91.1818V145.454Z" fill="black"/>
<path d="M118.454 145.454H109.091V154.818H118.454V145.454Z" fill="black"/>
<path d="M127.545 145.454H118.182V154.818H127.545V145.454Z" fill="black"/>
<path d="M136.636 145.454H127.273V154.818H136.636V145.454Z" fill="black"/>
<path d="M145.727 145.454H136.364V154.818H145.727V145.454Z" fill="black"/>
<path d="M154.818 145.454H145.454V154.818H154.818V145.454Z" fill="black"/>
<path d="M173 145.454H163.636V154.818H173V145.454Z" fill="black"/>
<path d="M182.091 145.454H172.727V154.818H182.091V145.454Z" fill="black"/>
<path d="M209.364 145.454H200V154.818H209.364V145.454Z" fill="black"/>
<path d="M218.454 145.454H209.091V154.818H218.454V145.454Z" fill="black"/>
<path d="M227.545 145.454H218.182V154.818H227.545V145.454Z" fill="black"/>
<path d="M236.636 145.454H227.273V154.818H236.636V145.454Z" fill="black"/>
<path d="M36.6363 154.545H27.2727V163.909H36.6363V154.545Z" fill="black"/>
<path d="M45.7272 154.545H36.3635V163.909H45.7272V154.545Z" fill="black"/>
<path d="M73 154.545H63.6364V163.909H73V154.545Z" fill="black"/>
<path d="M100.273 154.545H90.9091V163.909H100.273V154.545Z" fill="black"/>
<path d="M109.364 154.545H100V163.909H109.364V154.545Z" fill="black"/>
<path d="M118.454 154.545H109.091V163.909H118.454V154.545Z" fill="black"/>
<path d="M154.818 154.545H145.454V163.909H154.818V154.545Z" fill="black"/>
<path d="M163.909 154.545H154.545V163.909H163.909V154.545Z" fill="black"/>
<path d="M173 154.545H163.636V163.909H173V154.545Z" fill="black"/>
<path d="M182.091 154.545H172.727V163.909H182.091V154.545Z" fill="black"/>
<path d="M191.182 154.545H181.818V163.909H191.182V154.545Z" fill="black"/>
<path d="M218.454 154.545H209.091V163.909H218.454V154.545Z" fill="black"/>
<path d="M227.545 154.545H218.182V163.909H227.545V154.545Z" fill="black"/>
<path d="M245.727 154.545H236.364V163.909H245.727V154.545Z" fill="black"/>
<path d="M254.818 154.545H245.454V163.909H254.818V154.545Z" fill="black"/>
<path d="M282.091 154.545H272.727V163.909H282.091V154.545Z" fill="black"/>
<path d="M63.909 163.636H54.5454V173H63.909V163.636Z" fill="black"/>
<path d="M82.0908 163.636H72.7272V173H82.0908V163.636Z" fill="black"/>
<path d="M100.273 163.636H90.9091V173H100.273V163.636Z" fill="black"/>
<path d="M118.454 163.636H109.091V173H118.454V163.636Z" fill="black"/>
<path d="M154.818 163.636H145.454V173H154.818V163.636Z" fill="black"/>
<path d="M173 163.636H163.636V173H173V163.636Z" fill="black"/>
<path d="M254.818 163.636H245.454V173H254.818V163.636Z" fill="black"/>
<path d="M263.909 163.636H254.545V173H263.909V163.636Z" fill="black"/>
<path d="M282.091 163.636H272.727V173H282.091V163.636Z" fill="black"/>
<path d="M27.5454 172.727H18.1818V182.091H27.5454V172.727Z" fill="black"/>
<path d="M36.6363 172.727H27.2727V182.091H36.6363V172.727Z" fill="black"/>
<path d="M45.7272 172.727H36.3635V182.091H45.7272V172.727Z" fill="black"/>
<path d="M54.8181 172.727H45.4545V182.091H54.8181V172.727Z" fill="black"/>
<path d="M63.909 172.727H54.5454V182.091H63.909V172.727Z" fill="black"/>
<path d="M73 172.727H63.6364V182.091H73V172.727Z" fill="black"/>
<path d="M100.273 172.727H90.9091V182.091H100.273V172.727Z" fill="black"/>
<path d="M118.454 172.727H109.091V182.091H118.454V172.727Z" fill="black"/>
<path d="M127.545 172.727H118.182V182.091H127.545V172.727Z" fill="black"/>
<path d="M136.636 172.727H127.273V182.091H136.636V172.727Z" fill="black"/>
<path d="M154.818 172.727H145.454V182.091H154.818V172.727Z" fill="black"/>
<path d="M163.909 172.727H154.545V182.091H163.909V172.727Z" fill="black"/>
<path d="M173 172.727H163.636V182.091H173V172.727Z" fill="black"/>
<path d="M182.091 172.727H172.727V182.091H182.091V172.727Z" fill="black"/>
<path d="M191.182 172.727H181.818V182.091H191.182V172.727Z" fill="black"/>
<path d="M209.364 172.727H200V182.091H209.364V172.727Z" fill="black"/>
<path d="M218.454 172.727H209.091V182.091H218.454V172.727Z" fill="black"/>
<path d="M236.636 172.727H227.273V182.091H236.636V172.727Z" fill="black"/>
<path d="M245.727 172.727H236.364V182.091H245.727V172.727Z" fill="black"/>
<path d="M254.818 172.727H245.454V182.091H254.818V172.727Z" fill="black"/>
<path d="M273 172.727H263.636V182.091H273V172.727Z" fill="black"/>
<path d="M282.091 172.727H272.727V182.091H282.091V172.727Z" fill="black"/>
<path d="M27.5454 181.818H18.1818V191.182H27.5454V181.818Z" fill="black"/>
<path d="M63.909 181.818H54.5454V191.182H63.909V181.818Z" fill="black"/>
<path d="M73 181.818H63.6364V191.182H73V181.818Z" fill="black"/>
<path d="M82.0908 181.818H72.7272V191.182H82.0908V181.818Z" fill="black"/>
<path d="M100.273 181.818H90.9091V191.182H100.273V181.818Z" fill="black"/>
<path d="M118.454 181.818H109.091V191.182H118.454V181.818Z" fill="black"/>
<path d="M127.545 181.818H118.182V191.182H127.545V181.818Z" fill="black"/>
<path d="M163.909 181.818H154.545V191.182H163.909V181.818Z" fill="black"/>
<path d="M182.091 181.818H172.727V191.182H182.091V181.818Z" fill="black"/>
<path d="M227.545 181.818H218.182V191.182H227.545V181.818Z" fill="black"/>
<path d="M236.636 181.818H227.273V191.182H236.636V181.818Z" fill="black"/>
<path d="M254.818 181.818H245.454V191.182H254.818V181.818Z" fill="black"/>
<path d="M27.5454 190.909H18.1818V200.273H27.5454V190.909Z" fill="black"/>
<path d="M45.7272 190.909H36.3635V200.273H45.7272V190.909Z" fill="black"/>
<path d="M54.8181 190.909H45.4545V200.273H54.8181V190.909Z" fill="black"/>
<path d="M63.909 190.909H54.5454V200.273H63.909V190.909Z" fill="black"/>
<path d="M73 190.909H63.6364V200.273H73V190.909Z" fill="black"/>
<path d="M91.1818 190.909H81.8181V200.273H91.1818V190.909Z" fill="black"/>
<path d="M109.364 190.909H100V200.273H109.364V190.909Z" fill="black"/>
<path d="M127.545 190.909H118.182V200.273H127.545V190.909Z" fill="black"/>
<path d="M136.636 190.909H127.273V200.273H136.636V190.909Z" fill="black"/>
<path d="M182.091 190.909H172.727V200.273H182.091V190.909Z" fill="black"/>
<path d="M191.182 190.909H181.818V200.273H191.182V190.909Z" fill="black"/>
<path d="M200.273 190.909H190.909V200.273H200.273V190.909Z" fill="black"/>
<path d="M209.364 190.909H200V200.273H209.364V190.909Z" fill="black"/>
<path d="M227.545 190.909H218.182V200.273H227.545V190.909Z" fill="black"/>
<path d="M236.636 190.909H227.273V200.273H236.636V190.909Z" fill="black"/>
<path d="M254.818 190.909H245.454V200.273H254.818V190.909Z" fill="black"/>
<path d="M282.091 190.909H272.727V200.273H282.091V190.909Z" fill="black"/>
<path d="M27.5454 200H18.1818V209.364H27.5454V200Z" fill="black"/>
<path d="M45.7272 200H36.3635V209.364H45.7272V200Z" fill="black"/>
<path d="M54.8181 200H45.4545V209.364H54.8181V200Z" fill="black"/>
<path d="M63.909 200H54.5454V209.364H63.909V200Z" fill="black"/>
<path d="M73 200H63.6364V209.364H73V200Z" fill="black"/>
<path d="M82.0908 200H72.7272V209.364H82.0908V200Z" fill="black"/>
<path d="M91.1818 200H81.8181V209.364H91.1818V200Z" fill="black"/>
<path d="M118.454 200H109.091V209.364H118.454V200Z" fill="black"/>
<path d="M136.636 200H127.273V209.364H136.636V200Z" fill="black"/>
<path d="M145.727 200H136.364V209.364H145.727V200Z" fill="black"/>
<path d="M163.909 200H154.545V209.364H163.909V200Z" fill="black"/>
<path d="M182.091 200H172.727V209.364H182.091V200Z" fill="black"/>
<path d="M209.364 200H200V209.364H209.364V200Z" fill="black"/>
<path d="M218.454 200H209.091V209.364H218.454V200Z" fill="black"/>
<path d="M227.545 200H218.182V209.364H227.545V200Z" fill="black"/>
<path d="M236.636 200H227.273V209.364H236.636V200Z" fill="black"/>
<path d="M245.727 200H236.364V209.364H245.727V200Z" fill="black"/>
<path d="M254.818 200H245.454V209.364H254.818V200Z" fill="black"/>
<path d="M263.909 200H254.545V209.364H263.909V200Z" fill="black"/>
<path d="M100.273 209.091H90.9091V218.454H100.273V209.091Z" fill="black"/>
<path d="M109.364 209.091H100V218.454H109.364V209.091Z" fill="black"/>
<path d="M127.545 209.091H118.182V218.454H127.545V209.091Z" fill="black"/>
<path d="M182.091 209.091H172.727V218.454H182.091V209.091Z" fill="black"/>
<path d="M191.182 209.091H181.818V218.454H191.182V209.091Z" fill="black"/>
<path d="M200.273 209.091H190.909V218.454H200.273V209.091Z" fill="black"/>
<path d="M209.364 209.091H200V218.454H209.364V209.091Z" fill="black"/>
<path d="M245.727 209.091H236.364V218.454H245.727V209.091Z" fill="black"/>
<path d="M254.818 209.091H245.454V218.454H254.818V209.091Z" fill="black"/>
<path d="M273 209.091H263.636V218.454H273V209.091Z" fill="black"/>
<path d="M282.091 209.091H272.727V218.454H282.091V209.091Z" fill="black"/>
<path d="M109.364 218.182H100V227.545H109.364V218.182Z" fill="black"/>
<path d="M136.636 218.182H127.273V227.545H136.636V218.182Z" fill="black"/>
<path d="M145.727 218.182H136.364V227.545H145.727V218.182Z" fill="black"/>
<path d="M163.909 218.182H154.545V227.545H163.909V218.182Z" fill="black"/>
<path d="M200.273 218.182H190.909V227.545H200.273V218.182Z" fill="black"/>
<path d="M209.364 218.182H200V227.545H209.364V218.182Z" fill="black"/>
<path d="M227.545 218.182H218.182V227.545H227.545V218.182Z" fill="black"/>
<path d="M245.727 218.182H236.364V227.545H245.727V218.182Z" fill="black"/>
<path d="M127.545 227.273H118.182V236.636H127.545V227.273Z" fill="black"/>
<path d="M173 227.273H163.636V236.636H173V227.273Z" fill="black"/>
<path d="M182.091 227.273H172.727V236.636H182.091V227.273Z" fill="black"/>
<path d="M200.273 227.273H190.909V236.636H200.273V227.273Z" fill="black"/>
<path d="M209.364 227.273H200V236.636H209.364V227.273Z" fill="black"/>
<path d="M245.727 227.273H236.364V236.636H245.727V227.273Z" fill="black"/>
<path d="M254.818 227.273H245.454V236.636H254.818V227.273Z" fill="black"/>
<path d="M282.091 227.273H272.727V236.636H282.091V227.273Z" fill="black"/>
<path d="M100.273 236.364H90.9091V245.727H100.273V236.364Z" fill="black"/>
<path d="M118.454 236.364H109.091V245.727H118.454V236.364Z" fill="black"/>
<path d="M191.182 236.364H181.818V245.727H191.182V236.364Z" fill="black"/>
<path d="M209.364 236.364H200V245.727H209.364V236.364Z" fill="black"/>
<path d="M218.454 236.364H209.091V245.727H218.454V236.364Z" fill="black"/>
<path d="M227.545 236.364H218.182V245.727H227.545V236.364Z" fill="black"/>
<path d="M236.636 236.364H227.273V245.727H236.636V236.364Z" fill="black"/>
<path d="M245.727 236.364H236.364V245.727H245.727V236.364Z" fill="black"/>
<path d="M254.818 236.364H245.454V245.727H254.818V236.364Z" fill="black"/>
<path d="M263.909 236.364H254.545V245.727H263.909V236.364Z" fill="black"/>
<path d="M273 236.364H263.636V245.727H273V236.364Z" fill="black"/>
<path d="M100.273 245.454H90.9091V254.818H100.273V245.454Z" fill="black"/>
<path d="M127.545 245.454H118.182V254.818H127.545V245.454Z" fill="black"/>
<path d="M136.636 245.454H127.273V254.818H136.636V245.454Z" fill="black"/>
<path d="M154.818 245.454H145.454V254.818H154.818V245.454Z" fill="black"/>
<path d="M163.909 245.454H154.545V254.818H163.909V245.454Z" fill="black"/>
<path d="M200.273 245.454H190.909V254.818H200.273V245.454Z" fill="black"/>
<path d="M209.364 245.454H200V254.818H209.364V245.454Z" fill="black"/>
<path d="M218.454 245.454H209.091V254.818H218.454V245.454Z" fill="black"/>
<path d="M236.636 245.454H227.273V254.818H236.636V245.454Z" fill="black"/>
<path d="M100.273 254.545H90.9091V263.909H100.273V254.545Z" fill="black"/>
<path d="M109.364 254.545H100V263.909H109.364V254.545Z" fill="black"/>
<path d="M118.454 254.545H109.091V263.909H118.454V254.545Z" fill="black"/>
<path d="M136.636 254.545H127.273V263.909H136.636V254.545Z" fill="black"/>
<path d="M145.727 254.545H136.364V263.909H145.727V254.545Z" fill="black"/>
<path d="M191.182 254.545H181.818V263.909H191.182V254.545Z" fill="black"/>
<path d="M200.273 254.545H190.909V263.909H200.273V254.545Z" fill="black"/>
<path d="M209.364 254.545H200V263.909H209.364V254.545Z" fill="black"/>
<path d="M218.454 254.545H209.091V263.909H218.454V254.545Z" fill="black"/>
<path d="M227.545 254.545H218.182V263.909H227.545V254.545Z" fill="black"/>
<path d="M236.636 254.545H227.273V263.909H236.636V254.545Z" fill="black"/>
<path d="M245.727 254.545H236.364V263.909H245.727V254.545Z" fill="black"/>
<path d="M254.818 254.545H245.454V263.909H254.818V254.545Z" fill="black"/>
<path d="M263.909 254.545H254.545V263.909H263.909V254.545Z" fill="black"/>
<path d="M273 254.545H263.636V263.909H273V254.545Z" fill="black"/>
<path d="M118.454 263.636H109.091V273H118.454V263.636Z" fill="black"/>
<path d="M127.545 263.636H118.182V273H127.545V263.636Z" fill="black"/>
<path d="M154.818 263.636H145.454V273H154.818V263.636Z" fill="black"/>
<path d="M182.091 263.636H172.727V273H182.091V263.636Z" fill="black"/>
<path d="M191.182 263.636H181.818V273H191.182V263.636Z" fill="black"/>
<path d="M200.273 263.636H190.909V273H200.273V263.636Z" fill="black"/>
<path d="M209.364 263.636H200V273H209.364V263.636Z" fill="black"/>
<path d="M218.454 263.636H209.091V273H218.454V263.636Z" fill="black"/>
<path d="M245.727 263.636H236.364V273H245.727V263.636Z" fill="black"/>
<path d="M273 263.636H263.636V273H273V263.636Z" fill="black"/>
<path d="M109.364 272.727H100V282.091H109.364V272.727Z" fill="black"/>
<path d="M118.454 272.727H109.091V282.091H118.454V272.727Z" fill="black"/>
<path d="M127.545 272.727H118.182V282.091H127.545V272.727Z" fill="black"/>
<path d="M145.727 272.727H136.364V282.091H145.727V272.727Z" fill="black"/>
<path d="M154.818 272.727H145.454V282.091H154.818V272.727Z" fill="black"/>
<path d="M163.909 272.727H154.545V282.091H163.909V272.727Z" fill="black"/>
<path d="M191.182 272.727H181.818V282.091H191.182V272.727Z" fill="black"/>
<path d="M218.454 272.727H209.091V282.091H218.454V272.727Z" fill="black"/>
<path d="M227.545 272.727H218.182V282.091H227.545V272.727Z" fill="black"/>
<path d="M245.727 272.727H236.364V282.091H245.727V272.727Z" fill="black"/>
<path d="M263.909 272.727H254.545V282.091H263.909V272.727Z" fill="black"/>
<path d="M18.1818 18.1818V81.8181H81.8181V18.1818H18.1818ZM72.7272 72.7272H27.2727V27.2727H72.7272V72.7272Z" fill="black"/>
<path d="M218.182 18.1818V81.8181H281.818V18.1818H218.182ZM272.727 72.7272H227.273V27.2727H272.727V72.7272Z" fill="black"/>
<path d="M18.1818 218.182V281.818H81.8181V218.182H18.1818ZM72.7272 272.727H27.2727V227.273H72.7272V272.727Z" fill="black"/>
<path d="M63.6363 36.3635H36.3635V63.6363H63.6363V36.3635Z" fill="black"/>
<path d="M263.636 36.3635H236.364V63.6363H263.636V36.3635Z" fill="black"/>
<path d="M63.6363 236.364H36.3635V263.636H63.6363V236.364Z" fill="black"/>
</g>
<defs>
<clipPath id="clip0_643_48">
<rect width="300" height="300" fill="white"/>
</clipPath>
</defs>
</svg>
